<svg width="11" height="8" viewBox="0 0 11 8" version="1.1" xmlns="http://www.w3.org/2000/svg" xmlns:xlink="http://www.w3.org/1999/xlink">
<title>Group</title>
<desc>Created using Figma</desc>
<g id="Canvas" transform="translate(-15151 -718)">
<g id="Group">
<g id="Vector">
<use xlink:href="#path0_fill" transform="matrix(6.12323e-17 1 -1 6.12323e-17 15159.1 718)" fill="#50CFC8"/>
</g>
<g id="Vector">
<use xlink:href="#path1_fill" transform="matrix(6.12323e-17 1 -1 6.12323e-17 15156 718)" fill="#50CFC8"/>
</g>
<g id="Vector">
<use xlink:href="#path1_fill" transform="matrix(6.12323e-17 1 -1 6.12323e-17 15162 718)" fill="#50CFC8"/>
</g>
</g>
</g>
<defs>
<path id="path0_fill" d="M 3.81566 4.58537C 3.86906 4.63877 3.93058 4.66542 4.00004 4.66542C 4.06951 4.66542 4.13091 4.6388 4.18428 4.58537L 7.92006 0.849756C 7.97347 0.796325 8 0.734836 8 0.665373C 8 0.59591 7.9733 0.534393 7.92006 0.48099L 7.51929 0.0801042C 7.46589 0.0266733 7.40437 3.6416e-09 7.33482 3.6416e-09C 7.26545 3.6416e-09 7.20396 0.0266733 7.15055 0.0801042L 4.00004 3.2305L 0.849671 0.0801042C 0.796241 0.0266733 0.734751 3.6416e-09 0.665289 3.6416e-09C 0.595798 3.6416e-09 0.534309 0.0266733 0.480906 0.0801042L 0.0801884 0.48099C 0.0266733 0.534393 0 0.595798 0 0.665373C 0 0.734948 0.0267575 0.796353 0.0801884 0.849756L 3.81566 4.58537Z"/>
<path id="path1_fill" d="M 7.51929 0.0801884C 7.46589 0.0267576 7.40437 8.41458e-05 7.33482 8.41458e-05C 7.26545 8.41458e-05 7.20396 0.0267576 7.15055 0.0801884L 4.00004 3.23056L 0.849671 0.0801043C 0.796241 0.0266734 0.734751 -3.9415e-08 0.665289 -3.9415e-08C 0.595798 -3.9415e-08 0.534309 0.0266734 0.480906 0.0801043L 0.0801884 0.480962C 0.0266733 0.534393 0 0.595882 0 0.665317C 0 0.73478 0.0267575 0.796297 0.0801884 0.849784L 3.81566 4.58534C 3.86906 4.63877 3.93058 4.66547 4.00004 4.66547C 4.06951 4.66547 4.13091 4.63877 4.18428 4.58534L 7.92006 0.849784C 7.97347 0.796353 8 0.734864 8 0.665457C 8 0.595994 7.9733 0.534589 7.92006 0.481074L 7.51929 0.0801884Z"/>
</defs>
</svg>
