<svg width="8" height="12" viewBox="0 0 8 12" version="1.1" xmlns="http://www.w3.org/2000/svg" xmlns:xlink="http://www.w3.org/1999/xlink">
<title>chevron-arrow-down</title>
<desc>Created using Figma</desc>
<g id="Canvas" transform="translate(-17288 -692)">
<g id="chevron-arrow-down">
<g id="Group">
<g id="Vector">
<use xlink:href="#path0_fill" transform="matrix(6.12323e-17 1 -1 6.12323e-17 17296 692)" fill="#51D6CF"/>
</g>
</g>
</g>
</g>
<defs>
<path id="path0_fill" d="M 11.715 0.912429L 11.1374 0.301347C 10.9373 0.100468 10.7035 -5.92135e-08 10.4367 -5.92135e-08C 10.1643 -5.92135e-08 9.93335 0.100468 9.74335 0.301347L 6.00003 4.26077L 2.25673 0.301461C 2.06676 0.100582 1.83573 0.000114231 1.5635 0.000114231C 1.29653 0.000114231 1.06283 0.100582 0.862654 0.301461L 0.292677 0.912543C 0.097523 1.11882 0 1.366 0 1.65388C 0 1.94713 0.0976309 2.19152 0.29265 2.38701L 5.30676 7.69046C 5.49169 7.89676 5.72265 8 6 8C 6.27215 8 6.50583 7.89679 6.70079 7.69046L 11.7149 2.38701C 11.9049 2.18601 12 1.94165 12 1.65388C 12 1.37137 11.905 1.12432 11.715 0.912429Z"/>
</defs>
</svg>
