<svg width="17" height="16" viewBox="0 0 17 16" version="1.1" xmlns="http://www.w3.org/2000/svg" xmlns:xlink="http://www.w3.org/1999/xlink">
<title>bar-chart</title>
<desc>Created using Figma</desc>
<g id="Canvas" transform="translate(-16157 -2890)">
<g id="bar-chart">
<g id="Group">
<g id="Group">
<g id="Vector">
<use xlink:href="#path0_fill" transform="translate(16157 2894.31)" fill="#4CAF50"/>
</g>
<g id="Vector">
<use xlink:href="#path1_fill" transform="translate(16168.8 2897.13)" fill="#4CAF50"/>
</g>
<g id="Vector">
<use xlink:href="#path2_fill" transform="translate(16162.9 2890)" fill="#4CAF50"/>
</g>
</g>
</g>
</g>
</g>
<defs>
<path id="path0_fill" d="M 4.21017 0L 0.536523 0C 0.239214 0 0 0.239214 0 0.536523L 0 11.1508C 0 11.4481 0.239214 11.6873 0.536523 11.6873L 4.21017 11.6873C 4.50748 11.6873 4.74669 11.4481 4.74669 11.1508L 4.74669 0.536523C 4.75011 0.239214 4.50748 0 4.21017 0ZM 3.67364 10.6143L 1.07305 10.6143L 1.07305 1.07305L 3.67364 1.07305L 3.67364 10.6143Z"/>
<path id="path1_fill" d="M 4.21017 -2.08578e-07L 0.536523 -2.08578e-07C 0.239214 -2.08578e-07 -2.08578e-07 0.239214 -2.08578e-07 0.536523L -2.08578e-07 8.3349C -2.08578e-07 8.63221 0.239214 8.87142 0.536523 8.87142L 4.21017 8.87142C 4.50748 8.87142 4.74669 8.63221 4.74669 8.3349L 4.74669 0.536523C 4.74669 0.239214 4.50748 -2.08578e-07 4.21017 -2.08578e-07ZM 1.07305 1.07305L 1.90688 1.07305L 1.07305 1.90688L 1.07305 1.07305ZM 1.07305 2.76121L 2.7578 1.07646L 3.60871 1.07646L 1.07305 3.61213L 1.07305 2.76121ZM 3.67364 7.79838L 2.83639 7.79838L 3.67364 6.96113L 3.67364 7.79838ZM 3.67364 6.11021L 1.98548 7.79838L 1.13456 7.79838L 3.67023 5.26271L 3.67023 6.11021L 3.67364 6.11021ZM 3.67364 4.41179L 1.07305 7.01239L 1.07305 6.16147L 3.67364 3.56087L 3.67364 4.41179ZM 3.67364 2.70995L 1.07305 5.31055L 1.07305 4.45963L 3.67364 1.85903L 3.67364 2.70995Z"/>
<path id="path2_fill" d="M 4.21358 6.51806e-09L 0.536523 6.51806e-09C 0.239214 6.51806e-09 -2.08578e-07 0.239214 -2.08578e-07 0.536523L -2.08578e-07 15.4635C -2.08578e-07 15.7608 0.239214 16 0.536523 16L 4.21017 16C 4.50748 16 4.74669 15.7608 4.74669 15.4635L 4.74669 0.536523C 4.75011 0.239214 4.51089 6.51806e-09 4.21358 6.51806e-09Z"/>
</defs>
</svg>
