<svg width="80" height="76" viewBox="0 0 80 76" version="1.1" xmlns="http://www.w3.org/2000/svg" xmlns:xlink="http://www.w3.org/1999/xlink">
<title>folder-1</title>
<desc>Created using Figma</desc>
<g id="Canvas" transform="translate(-17440 -3258)">
<g id="folder-1">
<g id="Group">
<g id="Group">
<g id="Vector">
<use xlink:href="#path0_fill" transform="translate(17440 3258)" fill="#FFFFFF" fill-opacity="0.1"/>
</g>
</g>
</g>
<g id="Group">
<g id="Group">
<g id="Vector">
<use xlink:href="#path1_fill" transform="translate(17487.7 3297.4)" fill="#FFFFFF" fill-opacity="0.1"/>
</g>
</g>
</g>
<g id="Group">
<g id="Group">
<g id="Vector">
<use xlink:href="#path2_fill" transform="translate(17487.7 3306.34)" fill="#FFFFFF" fill-opacity="0.1"/>
</g>
</g>
</g>
</g>
</g>
<defs>
<path id="path0_fill" d="M 75.7964 7.55167L 45.6164 7.55167C 45.0127 7.55167 44.4272 7.31037 43.9689 6.87312L 38.4327 1.58214C 37.3634 0.561883 35.9986 -1.69043e-07 34.5895 -1.69043e-07L 14.7536 -1.69043e-07C 12.4358 -1.69043e-07 10.55 2.08915 10.55 4.65692L 10.55 10.8811L 4.20359 10.8811C 1.88578 10.8811 0 12.9702 0 15.538L 0 71.3431C 0 73.9109 1.88578 76 4.20359 76L 65.2462 76C 67.5641 76 69.4498 73.9109 69.4498 71.3431L 69.4498 65.1203L 75.7964 65.1203C 78.1142 65.1203 80 63.0312 80 60.4634L 80 12.2086C 80 9.64064 78.1142 7.55167 75.7964 7.55167ZM 66.087 71.3431C 66.087 71.8567 65.7098 72.2745 65.2462 72.2745L 4.20359 72.2745C 3.74 72.2745 3.36281 71.8567 3.36281 71.3431L 3.36281 33.0542L 66.0869 33.0542L 66.0869 71.3431L 66.087 71.3431ZM 66.087 29.3287L 3.36281 29.3287L 3.36281 15.5382C 3.36281 15.0246 3.74 14.6067 4.20359 14.6067L 24.0384 14.6067C 24.643 14.6067 25.2278 14.8475 25.6856 15.2851L 31.2222 20.5749C 32.2903 21.5953 33.6552 22.1572 35.0656 22.1572L 65.2462 22.1572C 65.7098 22.1572 66.087 22.575 66.087 23.0886L 66.087 29.3287ZM 76.6372 60.4634C 76.6372 60.977 76.26 61.3948 75.7964 61.3948L 69.4498 61.3948L 69.4498 23.0885C 69.4498 20.5207 67.5641 18.4315 65.2462 18.4315L 35.0656 18.4315C 34.4611 18.4315 33.8759 18.1908 33.4183 17.7533L 27.8819 12.4639C 26.8137 11.4433 25.4489 10.8813 24.0384 10.8813L 13.9128 10.8813L 13.9128 4.65692C 13.9128 4.14333 14.29 3.72546 14.7536 3.72546L 34.5895 3.72546C 35.1933 3.72546 35.7788 3.96676 36.237 4.40402L 41.7733 9.695C 42.8425 10.7151 44.2073 11.277 45.6164 11.277L 75.7966 11.277C 76.2602 11.277 76.6373 11.6948 76.6373 12.2084L 76.6373 60.4634L 76.6372 60.4634Z"/>
<path id="path1_fill" d="M 11.7509 -1.31008e-06L 1.68141 -1.31008e-06C 0.752813 -1.31008e-06 -1.83105e-06 0.833999 -1.83105e-06 1.86273C -1.83105e-06 2.89129 0.752813 3.72546 1.68141 3.72546L 11.7509 3.72546C 12.6795 3.72546 13.4323 2.89129 13.4323 1.86273C 13.4323 0.833825 12.6797 -1.31008e-06 11.7509 -1.31008e-06Z"/>
<path id="path2_fill" d="M 11.7509 1.31008e-06L 1.68141 1.31008e-06C 0.752813 1.31008e-06 -1.83105e-06 0.834169 -1.83105e-06 1.86273C -1.83105e-06 2.89129 0.752813 3.72547 1.68141 3.72547L 11.7509 3.72547C 12.6795 3.72547 13.4323 2.89129 13.4323 1.86273C 13.4323 0.834169 12.6797 1.31008e-06 11.7509 1.31008e-06Z"/>
</defs>
</svg>
