<svg width="11" height="8" viewBox="0 0 11 8" version="1.1" xmlns="http://www.w3.org/2000/svg" xmlns:xlink="http://www.w3.org/1999/xlink">
<title>check-mark</title>
<desc>Created using Figma</desc>
<g id="Canvas" transform="translate(-15874 -2399)">
<g id="check-mark">
<g id="Group">
<g id="Group">
<g id="Vector">
<use xlink:href="#path0_fill" transform="translate(15874 2399)" fill="#50CFC8"/>
</g>
</g>
</g>
</g>
</g>
<defs>
<path id="path0_fill" d="M 8.87113 0.233102C 8.71598 0.0777007 8.5317 1.25907e-07 8.31901 1.25907e-07C 8.10632 1.25907e-07 7.92247 0.0777437 7.76685 0.233102L 4.39267 3.60737L 2.58892 1.80362C 2.43348 1.64822 2.24963 1.57052 2.03681 1.57052C 1.82399 1.57052 1.63997 1.64826 1.48457 1.80362L 0.233102 3.05526C 0.0776578 3.21053 1.33776e-07 3.39468 1.33776e-07 3.60737C 1.33776e-07 3.81993 0.0776578 4.00408 0.233102 4.1594L 3.84043 7.76677C 3.99583 7.92204 4.17985 8 4.39254 8C 4.60536 8 4.78934 7.92208 4.94483 7.76677L 10.1228 2.58884C 10.2781 2.43361 10.3561 2.24954 10.3561 2.03694C 10.3561 1.82429 10.2784 1.64023 10.1228 1.48482L 8.87113 0.233102Z"/>
</defs>
</svg>
