<svg width="166" height="166" viewBox="0 0 166 166" version="1.1" xmlns="http://www.w3.org/2000/svg" xmlns:xlink="http://www.w3.org/1999/xlink">
<title>Group 2.5</title>
<desc>Created using Figma</desc>
<g id="Canvas" transform="translate(-17858 -3190)">
<g id="Group 2.5" filter="url(#filter0_d)">
<g id="Vector">
<use xlink:href="#path0_fill" transform="translate(17923.7 3190)" fill="#50CFC8"/>
<mask id="mask0_outline_ins">
<use xlink:href="#path0_fill" fill="white" transform="translate(17923.7 3190)"/>
</mask>
<g mask="url(#mask0_outline_ins)">
<use xlink:href="#path1_stroke_2x" transform="translate(17923.7 3190)" fill="#90A4AE" fill-opacity="0.25"/>
</g>
</g>
<g id="Vector">
<use xlink:href="#path2_fill" transform="translate(17888.4 3194.14)" fill="#FFFFFF"/>
<mask id="mask1_outline_ins">
<use xlink:href="#path2_fill" fill="white" transform="translate(17888.4 3194.14)"/>
</mask>
<g mask="url(#mask1_outline_ins)">
<use xlink:href="#path3_stroke_2x" transform="translate(17888.4 3194.14)" fill="#90A4AE" fill-opacity="0.25"/>
</g>
</g>
<g id="Vector">
<use xlink:href="#path4_fill" transform="translate(17866.2 3216.34)" fill="#FFFFFF"/>
<mask id="mask2_outline_ins">
<use xlink:href="#path4_fill" fill="white" transform="translate(17866.2 3216.34)"/>
</mask>
<g mask="url(#mask2_outline_ins)">
<use xlink:href="#path5_stroke_2x" transform="translate(17866.2 3216.34)" fill="#90A4AE" fill-opacity="0.25"/>
</g>
</g>
<g id="Vector">
<use xlink:href="#path6_fill" transform="translate(17862 3251.63)" fill="#FFFFFF"/>
<mask id="mask3_outline_ins">
<use xlink:href="#path6_fill" fill="white" transform="translate(17862 3251.63)"/>
</mask>
<g mask="url(#mask3_outline_ins)">
<use xlink:href="#path7_stroke_2x" transform="translate(17862 3251.63)" fill="#90A4AE" fill-opacity="0.25"/>
</g>
</g>
<g id="Vector">
<use xlink:href="#path8_fill" transform="translate(17866.3 3284.2)" fill="#FFFFFF"/>
<mask id="mask4_outline_ins">
<use xlink:href="#path8_fill" fill="white" transform="translate(17866.3 3284.2)"/>
</mask>
<g mask="url(#mask4_outline_ins)">
<use xlink:href="#path9_stroke_2x" transform="translate(17866.3 3284.2)" fill="#90A4AE" fill-opacity="0.25"/>
</g>
</g>
<g id="Vector">
<use xlink:href="#path10_fill" transform="translate(17888.4 3305.29)" fill="#FFFFFF"/>
<mask id="mask5_outline_ins">
<use xlink:href="#path10_fill" fill="white" transform="translate(17888.4 3305.29)"/>
</mask>
<g mask="url(#mask5_outline_ins)">
<use xlink:href="#path11_stroke_2x" transform="translate(17888.4 3305.29)" fill="#90A4AE" fill-opacity="0.25"/>
</g>
</g>
<g id="Vector">
<use xlink:href="#path12_fill" transform="translate(17923.7 3315.8)" fill="#FFFFFF"/>
<mask id="mask6_outline_ins">
<use xlink:href="#path12_fill" fill="white" transform="translate(17923.7 3315.8)"/>
</mask>
<g mask="url(#mask6_outline_ins)">
<use xlink:href="#path13_stroke_2x" transform="translate(17923.7 3315.8)" fill="#90A4AE" fill-opacity="0.25"/>
</g>
</g>
<g id="Vector">
<use xlink:href="#path14_fill" transform="translate(17956.3 3305.26)" fill="#FFFFFF"/>
<mask id="mask7_outline_ins">
<use xlink:href="#path14_fill" fill="white" transform="translate(17956.3 3305.26)"/>
</mask>
<g mask="url(#mask7_outline_ins)">
<use xlink:href="#path15_stroke_2x" transform="translate(17956.3 3305.26)" fill="#90A4AE" fill-opacity="0.25"/>
</g>
</g>
<g id="Vector">
<use xlink:href="#path16_fill" transform="translate(17977.3 3284.31)" fill="#FFFFFF"/>
<mask id="mask8_outline_ins">
<use xlink:href="#path16_fill" fill="white" transform="translate(17977.3 3284.31)"/>
</mask>
<g mask="url(#mask8_outline_ins)">
<use xlink:href="#path17_stroke_2x" transform="translate(17977.3 3284.31)" fill="#90A4AE" fill-opacity="0.25"/>
</g>
</g>
<g id="Vector">
<use xlink:href="#path18_fill" transform="translate(17987.7 3251.79)" fill="#FFFFFF"/>
<mask id="mask9_outline_ins">
<use xlink:href="#path18_fill" fill="white" transform="translate(17987.7 3251.79)"/>
</mask>
<g mask="url(#mask9_outline_ins)">
<use xlink:href="#path19_stroke_2x" transform="translate(17987.7 3251.79)" fill="#90A4AE" fill-opacity="0.25"/>
</g>
</g>
<g id="Vector">
<use xlink:href="#path20_fill" transform="translate(17977.3 3216.33)" fill="#FFFFFF"/>
<mask id="mask10_outline_ins">
<use xlink:href="#path20_fill" fill="white" transform="translate(17977.3 3216.33)"/>
</mask>
<g mask="url(#mask10_outline_ins)">
<use xlink:href="#path21_stroke_2x" transform="translate(17977.3 3216.33)" fill="#90A4AE" fill-opacity="0.25"/>
</g>
</g>
<g id="Vector">
<use xlink:href="#path22_fill" transform="translate(17956.3 3194.12)" fill="#FFFFFF"/>
<mask id="mask11_outline_ins">
<use xlink:href="#path22_fill" fill="white" transform="translate(17956.3 3194.12)"/>
</mask>
<g mask="url(#mask11_outline_ins)">
<use xlink:href="#path23_stroke_2x" transform="translate(17956.3 3194.12)" fill="#90A4AE" fill-opacity="0.25"/>
</g>
</g>
</g>
</g>
<defs>
<filter id="filter0_d" filterUnits="userSpaceOnUse" x="17858" y="3190" width="167" height="167" color-interpolation-filters="sRGB">
<feFlood flood-opacity="0" result="BackgroundImageFix"/>
<feColorMatrix in="SourceAlpha" type="matrix" values="0 0 0 0 0 0 0 0 0 0 0 0 0 0 0 0 0 0 255 0"/>
<feOffset dx="0" dy="4"/>
<feGaussianBlur stdDeviation="2"/>
<feColorMatrix type="matrix" values="0 0 0 0 0 0 0 0 0 0 0 0 0 0 0 0 0 0 0.25 0"/>
<feBlend mode="normal" in2="BackgroundImageFix" result="effect1_dropShadow"/>
<feBlend mode="normal" in="SourceGraphic" in2="effect1_dropShadow" result="shape"/>
</filter>
<path id="path0_fill" d="M 34.1577 2.64569C 33.7743 2.03236 33.1554 1.60413 32.4465 1.46098C 22.4317 -0.486994 12.1355 -0.486994 2.12071 1.46098C 1.4118 1.60413 0.792966 2.03236 0.409513 2.64569C 0.0121776 3.27198 -0.102273 4.03648 0.0936183 4.75193L 6.85911 30.2888C 7.20647 31.5889 8.47807 32.4176 9.80735 32.2106C 14.7093 31.447 19.6997 31.447 24.6016 32.2106L 24.9965 32.2106C 26.2203 32.2525 27.3114 31.4451 27.6288 30.2623L 34.4733 4.75162C 34.6695 4.03679 34.5547 3.27198 34.1577 2.64569Z"/>
<path id="path1_stroke_2x" d="M 34.1577 2.64569L 33.3098 3.17582L 33.3131 3.1811L 34.1577 2.64569ZM 32.4465 1.46098L 32.6445 0.480742L 32.6374 0.479378L 32.4465 1.46098ZM 2.12071 1.46098L 1.92977 0.479353L 1.92277 0.480767L 2.12071 1.46098ZM 0.409513 2.64569L 1.25393 3.18141L 1.25744 3.17581L 0.409513 2.64569ZM 0.0936183 4.75193L 1.0603 4.49583L 1.05812 4.48785L 0.0936183 4.75193ZM 6.85911 30.2888L 5.89246 30.5449L 5.893 30.5469L 6.85911 30.2888ZM 9.80735 32.2106L 9.96123 33.1986L 9.96127 33.1986L 9.80735 32.2106ZM 24.6016 32.2106L 24.4477 33.1986L 24.5242 33.2106L 24.6016 33.2106L 24.6016 32.2106ZM 24.9965 32.2106L 25.0307 31.2111L 25.0136 31.2106L 24.9965 31.2106L 24.9965 32.2106ZM 27.6288 30.2623L 28.5947 30.5215L 28.5947 30.5214L 27.6288 30.2623ZM 34.4733 4.75162L 33.5089 4.48694L 33.5075 4.49249L 34.4733 4.75162ZM 35.0056 2.11557C 34.4764 1.2691 33.6224 0.678252 32.6445 0.480767L 32.2486 2.4412C 32.6884 2.53002 33.0721 2.79561 33.3098 3.17581L 35.0056 2.11557ZM 32.6374 0.479378C 22.5276 -1.48238 12.0396 -1.48238 1.92978 0.479378L 2.31164 2.44259C 12.2314 0.508396 22.3358 0.508396 32.2556 2.44259L 32.6374 0.479378ZM 1.92277 0.480767C 0.944793 0.678252 0.0908014 1.2691 -0.43841 2.11557L 1.25744 3.17581C 1.49513 2.79561 1.8788 2.53002 2.31864 2.4412L 1.92277 0.480767ZM -0.434888 2.10998C -0.983282 2.97437 -1.14105 4.0293 -0.870882 5.01601L 1.05812 4.48785C 0.9365 4.04366 1.00764 3.56959 1.25391 3.1814L -0.434888 2.10998ZM -0.873033 5.00803L 5.89246 30.5449L 7.82577 30.0327L 1.06027 4.49584L -0.873033 5.00803ZM 5.893 30.5469C 6.37228 32.3408 8.1269 33.4843 9.96123 33.1986L 9.65348 31.2225C 8.82924 31.3508 8.04066 30.837 7.82522 30.0307L 5.893 30.5469ZM 9.96127 33.1986C 14.7865 32.444 19.6225 32.444 24.4477 33.1986L 24.7555 31.2225C 19.7769 30.45 14.6321 30.45 9.65344 31.2225L 9.96127 33.1986ZM 24.6016 33.2106L 24.9965 33.2106L 24.9965 31.2106L 24.6016 31.2106L 24.6016 33.2106ZM 24.9622 33.21C 26.6509 33.2679 28.1566 32.1537 28.5947 30.5215L 26.663 30.0031C 26.4662 30.7365 25.7896 31.2372 25.0307 31.2111L 24.9622 33.21ZM 28.5947 30.5214L 35.4391 5.01076L 33.5075 4.49249L 26.663 30.0031L 28.5947 30.5214ZM 35.4376 5.0163C 35.7085 4.02948 35.55 2.97419 35.0023 2.11027L 33.3131 3.1811C 33.5595 3.56976 33.6305 4.0441 33.509 4.48694L 35.4376 5.0163Z"/>
<path id="path2_fill" d="M 37.4654 27.4867L 30.6209 1.94979C 30.4272 1.24699 29.9506 0.655873 29.3046 0.31743C 28.6663 -0.0281086 27.9139 -0.0947483 27.2251 0.133246C 17.5428 3.41679 8.59876 8.56872 0.900699 15.2975C 0.352821 15.7781 0.0289059 16.4646 0.00576913 17.193C -0.0408129 17.8958 0.196108 18.5881 0.663779 19.1147L 19.354 37.8069C 19.8506 38.2996 20.5231 38.5745 21.2231 38.5704C 21.8259 38.5729 22.4114 38.3687 22.8815 37.9914C 26.7176 34.8701 31.0278 32.3813 35.649 30.62C 36.9906 30.2238 37.7884 28.8478 37.4654 27.4867Z"/>
<path id="path3_stroke_2x" d="M 37.4654 27.4867L 38.4384 27.2558L 38.4351 27.2417L 38.4313 27.2278L 37.4654 27.4867ZM 30.6209 1.94979L 31.5869 1.6909L 31.585 1.68405L 30.6209 1.94979ZM 29.3046 0.31743L 28.8285 1.19691L 28.8405 1.20322L 29.3046 0.31743ZM 27.2251 0.133246L 26.9109 -0.816133L 26.9039 -0.813778L 27.2251 0.133246ZM 0.900699 15.2975L 0.242584 14.5446L 0.241204 14.5458L 0.900699 15.2975ZM 0.00576913 17.193L 1.00358 17.2591L 1.00472 17.242L 1.00526 17.2247L 0.00576913 17.193ZM 0.663779 19.1147L -0.0839486 19.7788L -0.0642937 19.8009L -0.0433641 19.8218L 0.663779 19.1147ZM 19.354 37.8069L 18.6468 38.5139L 18.6497 38.5168L 19.354 37.8069ZM 21.2231 38.5704L 21.2272 37.5704L 21.2174 37.5705L 21.2231 38.5704ZM 22.8815 37.9914L 23.5075 38.7713L 23.5127 38.767L 22.8815 37.9914ZM 35.649 30.62L 35.3658 29.6609L 35.3289 29.6718L 35.2929 29.6855L 35.649 30.62ZM 38.4313 27.2278L 31.5868 1.69091L 29.655 2.20868L 36.4995 27.7456L 38.4313 27.2278ZM 31.585 1.68405C 31.3176 0.714212 30.66 -0.101403 29.7687 -0.56836L 28.8405 1.20322C 29.2412 1.41315 29.5368 1.77977 29.6569 2.21554L 31.585 1.68405ZM 29.7807 -0.56197C 28.9 -1.03876 27.8616 -1.13078 26.9109 -0.816107L 27.5393 1.0826C 27.9663 0.941281 28.4327 0.982545 28.8285 1.19683L 29.7807 -0.56197ZM 26.9039 -0.813778C 17.1307 2.50566 8.01735 7.7551 0.242585 14.5446L 1.55881 16.0504C 9.18016 9.38233 17.9549 4.32792 27.5462 1.08027L 26.9039 -0.813778ZM 0.241204 14.5458C -0.51495 15.2092 -0.961808 16.1564 -0.993727 17.1612L 1.00526 17.2247C 1.01962 16.7728 1.22059 16.3471 1.56019 16.0492L 0.241204 14.5458ZM -0.992042 17.1269C -1.05631 18.0965 -0.729462 19.0519 -0.0839486 19.7788L 1.41151 18.4507C 1.12168 18.1244 0.974684 17.6951 1.00358 17.2591L -0.992042 17.1269ZM -0.0433641 19.8218L 18.6468 38.5139L 20.0611 37.0998L 1.37092 18.4077L -0.0433641 19.8218ZM 18.6497 38.5168C 19.335 39.1967 20.263 39.576 21.2288 39.5704L 21.2174 37.5705C 20.7833 37.5729 20.3662 37.4025 20.0582 37.0969L 18.6497 38.5168ZM 21.219 39.5704C 21.9909 39.5592 22.896 39.2434 23.5075 38.7713L 22.2556 37.2115C 21.9268 37.494 21.6609 37.5866 21.2272 37.5705L 21.219 39.5704ZM 23.5127 38.767C 27.285 35.6935 31.4573 33.2844 36.0052 31.5544L 35.2929 29.6855C 30.5984 31.4782 26.1502 34.0466 22.2504 37.2157L 23.5127 38.767ZM 35.9322 31.579C 37.7833 31.0325 38.884 29.1339 38.4384 27.2558L 36.4924 27.7175C 36.6927 28.5618 36.198 29.4152 35.3658 29.6609L 35.9322 31.579Z"/>
<path id="path4_fill" d="M 37.8559 19.457L 19.1658 0.765213C 18.6496 0.252458 17.9447 -0.0239727 17.2176 0.00163424C 16.4998 -0.0165683 15.8057 0.259245 15.2961 0.765213C 8.56819 8.46425 3.41641 17.4088 0.133148 27.0919C -0.0948261 27.7808 -0.0278837 28.5336 0.317317 29.1716C 0.65573 29.8173 1.24649 30.294 1.94954 30.488L 27.4842 37.3331C 27.7115 37.359 27.9411 37.359 28.1687 37.3331C 29.254 37.33 30.226 36.6608 30.6169 35.6483C 32.3864 31.0252 34.8836 26.7146 38.0142 22.8797C 38.8122 21.856 38.7453 20.4029 37.8559 19.457Z"/>
<path id="path5_stroke_2x" d="M 37.8559 19.457L 38.5845 18.772L 38.5739 18.7608L 38.5631 18.7499L 37.8559 19.457ZM 19.1658 0.765213L 19.8729 0.0581333L 19.8706 0.0558086L 19.1658 0.765213ZM 17.2176 0.00163424L 17.1923 1.00131L 17.2226 1.00208L 17.2528 1.00101L 17.2176 0.00163424ZM 15.2961 0.765213L 14.5915 0.0555642L 14.5664 0.0805221L 14.543 0.107196L 15.2961 0.765213ZM 0.133148 27.0919L -0.813918 26.7708L -0.816221 26.7777L 0.133148 27.0919ZM 0.317317 29.1716L 1.20313 28.7074L 1.19683 28.6957L 0.317317 29.1716ZM 1.94954 30.488L 1.68346 31.452L 1.69061 31.4539L 1.94954 30.488ZM 27.4842 37.3331L 27.2253 38.299L 27.2971 38.3182L 27.3709 38.3267L 27.4842 37.3331ZM 28.1687 37.3331L 28.1659 36.3331L 28.1106 36.3333L 28.0556 36.3395L 28.1687 37.3331ZM 30.6169 35.6483L 31.5498 36.0084L 31.5508 36.0058L 30.6169 35.6483ZM 38.0142 22.8797L 38.7888 23.5121L 38.7959 23.5034L 38.8028 23.4945L 38.0142 22.8797ZM 38.5631 18.7499L 19.8729 0.0581371L 18.4586 1.47229L 37.1488 20.1641L 38.5631 18.7499ZM 19.8706 0.0558086C 19.1586 -0.651554 18.1859 -1.03308 17.1824 -0.997746L 17.2528 1.00101C 17.7036 0.985139 18.1407 1.15647 18.4609 1.47462L 19.8706 0.0558086ZM 17.243 -0.998044C 16.2524 -1.02316 15.2947 -0.642565 14.5915 0.0555642L 16.0006 1.47486C 16.3167 1.16106 16.7471 0.990025 17.1923 1.00131L 17.243 -0.998044ZM 14.543 0.107196C 7.75453 7.88291 2.50526 16.9967 -0.813893 26.7708L 1.08019 27.413C 4.32756 17.8209 9.38185 9.04559 16.0491 1.42323L 14.543 0.107196ZM -0.816221 26.7777C -1.13091 27.7287 -1.03842 28.7673 -0.5622 29.6475L 1.19683 28.6957C 0.982654 28.2999 0.941256 27.8329 1.08252 27.406L -0.816221 26.7777ZM -0.568416 29.6358C -0.101564 30.5266 0.713499 31.1843 1.68347 31.452L 2.21561 29.5241C 1.77948 29.4037 1.41302 29.1081 1.20305 28.7074L -0.568416 29.6358ZM 1.69061 31.4539L 27.2253 38.299L 27.7431 36.3672L 2.20847 29.5221L 1.69061 31.4539ZM 27.3709 38.3267C 27.6548 38.3574 27.9977 38.3574 28.2818 38.3267L 28.0556 36.3395C 27.8844 36.3606 27.7683 36.3606 27.5974 36.3395L 27.3709 38.3267ZM 28.1716 38.3331C 29.6694 38.3288 31.0106 37.4053 31.5498 36.0084L 29.684 35.2882C 29.4415 35.9164 28.8386 36.3312 28.1659 36.3331L 28.1716 38.3331ZM 31.5508 36.0058C 33.2889 31.4559 35.7062 27.2832 38.7888 23.5121L 37.2395 22.2473C 34.061 26.1459 31.4839 30.5944 29.683 35.2908L 31.5508 36.0058ZM 38.8028 23.4945C 39.904 22.0821 39.8117 20.0772 38.5845 18.772L 37.1274 20.142C 37.679 20.7286 37.7205 21.63 37.2255 22.2649L 38.8028 23.4945Z"/>
<path id="path6_fill" d="M 32.2212 24.7591C 31.8312 22.3125 31.6375 19.8385 31.6421 17.3611C 31.6159 14.8588 31.7921 12.3582 32.1687 9.88422C 32.3757 8.55451 31.5468 7.28281 30.2471 6.93573L 4.73841 0.0906652C 4.68319 0.0758564 4.62735 0.0625858 4.57121 0.0514792C 3.14536 -0.233282 1.75901 0.691964 1.47427 2.11793C -0.491425 12.1318 -0.491425 22.4325 1.47427 32.4464C 1.72816 33.6919 2.83595 34.5782 4.10662 34.5526C 4.33398 34.5785 4.56349 34.5785 4.79116 34.5526L 30.2996 27.7076C 31.5996 27.3602 32.4285 26.0885 32.2212 24.7591Z"/>
<path id="path7_stroke_2x" d="M 32.2212 24.7591L 33.2092 24.605L 33.2087 24.6017L 32.2212 24.7591ZM 31.6421 17.3611L 32.6422 17.363L 32.6421 17.3507L 31.6421 17.3611ZM 32.1687 9.88422L 31.1806 9.7304L 31.1801 9.73371L 32.1687 9.88422ZM 30.2471 6.93573L 29.988 7.90156L 29.9891 7.90187L 30.2471 6.93573ZM 4.73841 0.0906652L 4.99758 -0.875166L 4.99743 -0.875205L 4.73841 0.0906652ZM 4.57121 0.0514792L 4.37536 1.03212L 4.37715 1.03247L 4.57121 0.0514792ZM 1.47427 2.11793L 0.493628 1.92211L 0.493001 1.92531L 1.47427 2.11793ZM 1.47427 32.4464L 0.492975 32.639L 0.494425 32.6461L 1.47427 32.4464ZM 4.10662 34.5526L 4.21987 33.5591L 4.15338 33.5515L 4.08647 33.5528L 4.10662 34.5526ZM 4.79116 34.5526L 4.90426 35.5462L 4.97833 35.5378L 5.05033 35.5185L 4.79116 34.5526ZM 30.2996 27.7076L 30.0414 26.7415L 30.0404 26.7417L 30.2996 27.7076ZM 33.2087 24.6017C 32.8243 22.1947 32.6368 19.8004 32.6421 17.363L 30.6421 17.3593C 30.6382 19.8767 30.8382 22.4303 31.2336 24.9165L 33.2087 24.6017ZM 32.6421 17.3507C 32.6155 14.8887 32.7859 12.4687 33.1573 10.0347L 31.1801 9.73371C 30.7982 12.2477 30.6164 14.8288 30.6422 17.3716L 32.6421 17.3507ZM 33.1568 10.038C 33.4424 8.20347 32.2988 6.44859 30.5052 5.96959L 29.9891 7.90187C 30.7948 8.11703 31.309 8.90556 31.1806 9.7304L 33.1568 10.038ZM 30.5063 5.9699L 4.99758 -0.875166L 4.47923 1.0565L 29.988 7.90156L 30.5063 5.9699ZM 4.99743 -0.875205C 4.92834 -0.893628 4.84003 -0.914536 4.76526 -0.929511L 4.37715 1.03247C 4.41467 1.03971 4.43804 1.04534 4.47938 1.05654L 4.99743 -0.875205ZM 4.76705 -0.929155C 2.79934 -1.32214 0.886463 -0.0451836 0.493633 1.92212L 2.45492 2.31374C 2.63156 1.42911 3.49139 0.855573 4.37536 1.03211L 4.76705 -0.929155ZM 0.493001 1.92531C -1.48673 12.035 -1.48673 22.5293 0.493001 32.639L 2.45555 32.2538C 0.503882 22.3358 0.503882 12.2285 2.45555 2.31055L 0.493001 1.92531ZM 0.494425 32.6461C 0.844745 34.3647 2.37324 35.5878 4.12677 35.5524L 4.08647 33.5528C 3.29866 33.5687 2.61158 33.0191 2.45412 32.2466L 0.494425 32.6461ZM 3.99337 35.5462C 4.27726 35.5769 4.62013 35.5769 4.90426 35.5462L 4.67806 33.559C 4.50685 33.5801 4.39069 33.5801 4.21987 33.5591L 3.99337 35.5462ZM 5.05033 35.5185L 30.5588 28.6734L 30.0404 26.7417L 4.53198 33.5868L 5.05033 35.5185ZM 30.5578 28.6737C 32.3514 28.1944 33.4953 26.4396 33.2092 24.605L 31.2331 24.9131C 31.3616 25.7373 30.8478 26.526 30.0414 26.7415L 30.5578 28.6737Z"/>
<path id="path8_fill" d="M 37.9088 14.5677C 34.806 10.6936 32.3439 6.34722 30.617 1.69386C 30.137 0.436349 28.7855 -0.256267 27.4843 0.0880376L 1.94962 6.9331C 1.24688 7.12684 0.655816 7.6035 0.317403 8.24954C -0.0281062 8.88786 -0.0947398 9.64034 0.133234 10.3293C 3.41649 20.0124 8.56828 28.9572 15.2961 36.6559C 15.7768 37.2038 16.4632 37.5278 17.1915 37.5509C 17.8884 37.5414 18.556 37.2686 19.0606 36.7874L 37.7511 18.0952C 38.7013 17.1342 38.7695 15.6098 37.9088 14.5677Z"/>
<path id="path9_stroke_2x" d="M 37.9088 14.5677L 37.1282 15.1928L 37.1329 15.1986L 37.1377 15.2044L 37.9088 14.5677ZM 30.617 1.69386L 31.5546 1.34592L 31.5512 1.33725L 30.617 1.69386ZM 27.4843 0.0880376L 27.2285 -0.878697L 27.2253 -0.877859L 27.4843 0.0880376ZM 1.94962 6.9331L 1.69069 5.96718L 1.68384 5.96906L 1.94962 6.9331ZM 0.317403 8.24954L 1.19692 8.7256L 1.20323 8.71356L 0.317403 8.24954ZM 0.133234 10.3293L -0.816161 10.6434L -0.813806 10.6504L 0.133234 10.3293ZM 15.2961 36.6559L 14.5431 37.314L 14.5444 37.3154L 15.2961 36.6559ZM 17.1915 37.5509L 17.1597 38.5504L 17.1825 38.5512L 17.2052 38.5508L 17.1915 37.5509ZM 19.0606 36.7874L 19.7508 37.511L 19.7594 37.5028L 19.7678 37.4944L 19.0606 36.7874ZM 37.7511 18.0952L 38.4583 18.8023L 38.4622 18.7983L 37.7511 18.0952ZM 38.6893 13.9425C 35.6339 10.1328 33.2506 5.92547 31.5545 1.34594L 29.6795 2.04179C 31.4372 6.76898 33.978 11.2544 37.1282 15.1928L 38.6893 13.9425ZM 31.5512 1.33725C 30.8888 -0.398141 29.0239 -1.35376 27.2285 -0.878692L 27.7401 1.05477C 28.5471 0.841222 29.3851 1.27084 29.6827 2.05048L 31.5512 1.33725ZM 27.2253 -0.877859L 1.6907 5.9672L 2.20855 7.89899L 27.7432 1.05393L 27.2253 -0.877859ZM 1.68384 5.96906C 0.714018 6.23645 -0.101525 6.89421 -0.568421 7.78551L 1.20323 8.71356C 1.41316 8.3128 1.77975 8.01724 2.21541 7.89713L 1.68384 5.96906ZM -0.562033 7.77352C -1.03876 8.65427 -1.13076 9.69266 -0.816135 10.6434L 1.0826 10.0151C 0.941276 9.58802 0.982548 9.12145 1.19684 8.72556L -0.562033 7.77352ZM -0.813806 10.6504C 2.50534 20.4244 7.75462 29.5385 14.5431 37.314L 16.0491 35.9979C 9.38194 28.3759 4.32765 19.6003 1.08028 10.0081L -0.813806 10.6504ZM 14.5444 37.3154C 15.2077 38.0716 16.1549 38.5185 17.1597 38.5504L 17.2233 36.5514C 16.7714 36.5371 16.3458 36.3361 16.0479 35.9965L 14.5444 37.3154ZM 17.2052 38.5508C 18.0878 38.5213 19.0996 38.108 19.7508 37.511L 18.3705 36.0637C 18.0123 36.4293 17.6889 36.5615 17.1778 36.551L 17.2052 38.5508ZM 19.7678 37.4944L 38.4583 18.8023L 37.044 17.3882L 18.3535 36.0803L 19.7678 37.4944ZM 38.4622 18.7983C 39.7733 17.4722 39.8673 15.3688 38.6798 13.9309L 37.1377 15.2044C 37.6716 15.8508 37.6292 16.7962 37.04 17.3922L 38.4622 18.7983Z"/>
<path id="path10_fill" d="M 35.6572 7.95472C 31.0345 6.18506 26.7243 3.68762 22.8898 0.556788C 21.8662 -0.241654 20.4132 -0.174707 19.4677 0.714747L 0.777188 19.4069C 0.264478 19.923 -0.0119288 20.628 0.0136759 21.3552C -0.0631381 22.1061 0.186122 22.8539 0.698216 23.4086C 8.39658 30.1371 17.3403 35.2893 27.0226 38.5729C 27.3021 38.613 27.5856 38.613 27.8651 38.5729C 28.2973 38.5707 28.7221 38.4621 29.1024 38.2569C 29.7484 37.9185 30.2247 37.3277 30.4188 36.6246L 37.2632 11.0877C 37.6072 9.78638 36.9146 8.43508 35.6572 7.95472Z"/>
<path id="path11_stroke_2x" d="M 35.6572 7.95472L 35.2997 8.88863L 35.3004 8.88887L 35.6572 7.95472ZM 22.8898 0.556788L 23.5222 -0.217814L 23.5136 -0.22485L 23.5048 -0.231693L 22.8898 0.556788ZM 19.4677 0.714747L 18.7825 -0.0136255L 18.7714 -0.00314515L 18.7605 0.00767107L 19.4677 0.714747ZM 0.777188 19.4069L 0.0700468 18.6998L 0.0677224 18.7021L 0.777188 19.4069ZM 0.0136759 21.3552L 1.00848 21.4569L 1.01547 21.3886L 1.01306 21.32L 0.0136759 21.3552ZM 0.698216 23.4086L -0.0365544 24.087L -0.000209634 24.1263L 0.0401339 24.1616L 0.698216 23.4086ZM 27.0226 38.5729L 26.7014 39.5199L 26.789 39.5496L 26.8806 39.5627L 27.0226 38.5729ZM 27.8651 38.5729L 27.8601 37.5729L 27.7912 37.5732L 27.723 37.583L 27.8651 38.5729ZM 29.1024 38.2569L 28.6383 37.3711L 28.6277 37.3768L 29.1024 38.2569ZM 30.4188 36.6246L 31.3828 36.8906L 31.3847 36.8835L 30.4188 36.6246ZM 37.2632 11.0877L 38.2291 11.3466L 38.23 11.3433L 37.2632 11.0877ZM 36.0148 7.02081C 31.4653 5.28262 27.293 2.86508 23.5222 -0.217814L 22.2573 1.33139C 26.1556 4.51016 30.6037 7.08751 35.2997 8.88862L 36.0148 7.02081ZM 23.5048 -0.231693C 22.0925 -1.33341 20.0874 -1.24116 18.7825 -0.0136255L 20.1529 1.44312C 20.739 0.891749 21.6399 0.850106 22.2747 1.34527L 23.5048 -0.231693ZM 18.7605 0.00767107L 0.0700506 18.6998L 1.48433 20.1139L 20.1748 1.42182L 18.7605 0.00767107ZM 0.0677224 18.7021C -0.639575 19.4142 -1.02104 20.3869 -0.985705 21.3903L 1.01306 21.32C 0.997179 20.869 1.16853 20.4319 1.48665 20.1116L 0.0677224 18.7021ZM -0.981133 21.2534C -1.08713 22.2896 -0.743178 23.3215 -0.0365544 24.087L 1.43299 22.7303C 1.11542 22.3863 0.960852 21.9226 1.00848 21.4569L -0.981133 21.2534ZM 0.0401339 24.1616C 7.81518 30.9507 16.9282 36.2004 26.7014 39.5199L 27.3438 37.6258C 17.7525 34.3782 8.97799 29.3235 1.3563 22.6557L 0.0401339 24.1616ZM 26.8806 39.5627C 27.2309 39.6104 27.6568 39.6104 28.0071 39.5627L 27.723 37.583C 27.5144 37.6155 27.3733 37.6155 27.1646 37.583L 26.8806 39.5627ZM 27.8701 39.5729C 28.4246 39.5626 29.086 39.3935 29.5772 39.1371L 28.6277 37.3768C 28.3581 37.5307 28.17 37.5788 27.8601 37.5729L 27.8701 39.5729ZM 29.5665 39.1427C 30.4579 38.6757 31.1151 37.8604 31.3827 36.8906L 29.4548 36.3586C 29.3344 36.795 29.0389 37.1613 28.6384 37.3712L 29.5665 39.1427ZM 31.3847 36.8835L 38.2291 11.3466L 36.2973 10.8288L 29.4529 36.3657L 31.3847 36.8835ZM 38.23 11.3433C 38.7046 9.54789 37.7491 7.68338 36.0141 7.02056L 35.3004 8.88887C 36.0802 9.18677 36.5098 10.0249 36.2964 10.8322L 38.23 11.3433Z"/>
<path id="path12_fill" d="M 34.4683 27.4641L 27.6238 1.95345C 27.2764 0.653363 26.0049 -0.175623 24.6756 0.0317008C 19.7737 0.79528 14.7832 0.79528 9.88131 0.0317008C 8.55172 -0.175314 7.28012 0.653672 6.93307 1.95345L 0.088604 27.4641C -0.099575 28.1712 0.0148755 28.9246 0.404498 29.5438C 0.787952 30.1571 1.40678 30.5854 2.11569 30.7285C 12.1287 32.6944 22.4285 32.6944 32.4415 30.7285C 33.1504 30.5854 33.7692 30.1571 34.1527 29.5438C 34.542 28.9246 34.6565 28.1712 34.4683 27.4641Z"/>
<path id="path13_stroke_2x" d="M 34.4683 27.4641L 35.4347 27.2069L 35.4341 27.205L 34.4683 27.4641ZM 27.6238 1.95345L 26.6577 2.21158L 26.658 2.21259L 27.6238 1.95345ZM 24.6756 0.0317008L 24.8295 1.01978L 24.8297 1.01976L 24.6756 0.0317008ZM 9.88131 0.0317008L 10.0352 -0.956383L 10.0352 -0.956394L 9.88131 0.0317008ZM 6.93307 1.95345L 7.89891 2.21259L 7.89922 2.21142L 6.93307 1.95345ZM 0.088604 27.4641L -0.877239 27.205L -0.877762 27.2069L 0.088604 27.4641ZM 0.404498 29.5438L 1.25243 29.0137L 1.25088 29.0112L 0.404498 29.5438ZM 2.11569 30.7285L 1.91775 31.7087L 1.92304 31.7098L 2.11569 30.7285ZM 32.4415 30.7285L 32.6342 31.7098L 32.6394 31.7087L 32.4415 30.7285ZM 34.1527 29.5438L 33.3061 29.0115L 33.3048 29.0137L 34.1527 29.5438ZM 35.4341 27.205L 28.5896 1.69432L 26.658 2.21259L 33.5024 27.7232L 35.4341 27.205ZM 28.5899 1.69533C 28.1107 -0.0983116 26.3562 -1.2425 24.5215 -0.956354L 24.8297 1.01976C 25.6535 0.891259 26.4422 1.40504 26.6577 2.21158L 28.5899 1.69533ZM 24.5217 -0.956383C 19.6965 -0.201736 14.8604 -0.201736 10.0352 -0.956383L 9.72739 1.01978C 14.706 1.7923 19.8508 1.7923 24.8295 1.01978L 24.5217 -0.956383ZM 10.0352 -0.956394C 8.20054 -1.24204 6.44584 -0.0981966 5.96692 1.69548L 7.89922 2.21142C 8.1144 1.40554 8.90289 0.891411 9.72746 1.0198L 10.0352 -0.956394ZM 5.96723 1.69432L -0.877237 27.205L 1.05445 27.7232L 7.89891 2.21259L 5.96723 1.69432ZM -0.877762 27.2069C -1.13738 28.1825 -0.979496 29.222 -0.441882 30.0764L 1.25088 29.0112C 1.00925 28.6272 0.93823 28.1599 1.05497 27.7213L -0.877762 27.2069ZM -0.443425 30.0739C 0.0857877 30.9204 0.93978 31.5112 1.91775 31.7087L 2.31363 29.7483C 1.87378 29.6595 1.49012 29.3939 1.25242 29.0137L -0.443425 30.0739ZM 1.92304 31.7098C 12.0319 33.6897 22.5253 33.6897 32.6342 31.7098L 32.2488 29.7472C 22.3317 31.6991 12.2254 31.6991 2.30835 29.7472L 1.92304 31.7098ZM 32.6394 31.7087C 33.6174 31.5112 34.4714 30.9204 35.0006 30.0739L 33.3048 29.0137C 33.0671 29.3939 32.6834 29.6595 32.2436 29.7483L 32.6394 31.7087ZM 34.9993 30.0761C 35.5364 29.2218 35.6943 28.1825 35.4346 27.2069L 33.5019 27.7213C 33.6187 28.16 33.5477 28.6274 33.3061 29.0115L 34.9993 30.0761Z"/>
<path id="path14_fill" d="M 36.6793 19.4674L 17.9888 0.77528C 17.0349 -0.182973 15.5101 -0.262874 14.4612 0.5911C 10.627 3.72193 6.31675 6.21938 1.69372 7.98903C 0.436318 8.46908 -0.256248 9.82069 0.0880272 11.122L 6.7218 36.5009C 6.91553 37.2037 7.39214 37.7948 8.03812 38.1333C 8.41849 38.3385 8.84329 38.447 9.27548 38.4492C 9.55497 38.4893 9.83847 38.4893 10.118 38.4492C 19.8002 35.1657 28.7443 30.0134 36.4423 23.285C 36.9902 22.8043 37.3141 22.1179 37.3373 21.3895C 37.3842 20.6863 37.1469 19.994 36.6793 19.4674Z"/>
<path id="path15_stroke_2x" d="M 36.6793 19.4674L 37.427 18.8034L 37.4073 18.7813L 37.3864 18.7603L 36.6793 19.4674ZM 17.9888 0.77528L 17.28 1.48076L 17.2816 1.48236L 17.9888 0.77528ZM 14.4612 0.5911L 13.8298 -0.184373L 13.8287 -0.183476L 14.4612 0.5911ZM 1.69372 7.98903L 2.05039 8.92326L 2.05122 8.92294L 1.69372 7.98903ZM 0.0880272 11.122L 1.05553 10.8691L 1.05477 10.8663L 0.0880272 11.122ZM 6.7218 36.5009L 5.75422 36.7538L 5.75775 36.7667L 6.7218 36.5009ZM 8.03812 38.1333L 8.51289 37.2531L 8.50221 37.2475L 8.03812 38.1333ZM 9.27548 38.4492L 9.41753 37.4593L 9.34935 37.4496L 9.28048 37.4492L 9.27548 38.4492ZM 10.118 38.4492L 10.26 39.4391L 10.3515 39.4259L 10.4391 39.3962L 10.118 38.4492ZM 36.4423 23.285L 37.1004 24.0379L 37.1018 24.0367L 36.4423 23.285ZM 37.3373 21.3895L 36.3395 21.3229L 36.3383 21.3403L 36.3378 21.3577L 37.3373 21.3895ZM 37.3864 18.7603L 18.6959 0.0682044L 17.2816 1.48236L 35.9721 20.1745L 37.3864 18.7603ZM 18.6975 0.0698035C 17.3813 -1.25249 15.2771 -1.36274 13.8298 -0.184372L 15.0926 1.36657C 15.743 0.83699 16.6886 0.886544 17.28 1.48076L 18.6975 0.0698035ZM 13.8287 -0.183476C 10.0583 2.8994 5.88596 5.31692 1.33623 7.05511L 2.05122 8.92294C 6.74754 7.12183 11.1957 4.54446 15.0937 1.36568L 13.8287 -0.183476ZM 1.33705 7.0548C -0.39828 7.71731 -1.35369 9.58242 -0.878714 11.3778L 1.05477 10.8663C 0.841194 10.059 1.27092 9.22085 2.05039 8.92326L 1.33705 7.0548ZM -0.879467 11.3749L 5.7543 36.7538L 7.68929 36.248L 1.05552 10.8691L -0.879467 11.3749ZM 5.75775 36.7667C 6.02509 37.7365 6.68277 38.5521 7.57404 39.0191L 8.50221 37.2475C 8.10152 37.0376 7.80596 36.6709 7.68584 36.2352L 5.75775 36.7667ZM 7.5634 39.0134C 8.05458 39.2699 8.716 39.4389 9.27048 39.4492L 9.28048 37.4492C 8.97058 37.4552 8.7824 37.407 8.51285 37.2532L 7.5634 39.0134ZM 9.13344 39.4391C 9.48377 39.4868 9.90967 39.4868 10.26 39.4391L 9.97592 37.4593C 9.76727 37.4919 9.62618 37.4919 9.41753 37.4593L 9.13344 39.4391ZM 10.4391 39.3962C 20.2124 36.0768 29.3257 30.827 37.1004 24.0379L 35.7842 22.532C 28.1629 29.1998 19.3881 34.2545 9.7968 37.5022L 10.4391 39.3962ZM 37.1018 24.0367C 37.858 23.3733 38.3049 22.4261 38.3368 21.4212L 36.3378 21.3577C 36.3234 21.8096 36.1225 22.2353 35.7829 22.5333L 37.1018 24.0367ZM 38.3351 21.456C 38.3998 20.4855 38.0723 19.5301 37.427 18.8034L 35.9315 20.1314C 36.2215 20.458 36.3686 20.8872 36.3395 21.3229L 38.3351 21.456Z"/>
<path id="path16_fill" d="M 38.3132 8.24955C 37.9748 7.60351 37.384 7.12716 36.681 6.9331L 11.1463 0.0880363C 9.8451 -0.256269 8.49391 0.436348 8.01359 1.69386C 6.24409 6.31699 3.74687 10.6276 0.61631 14.4625C -0.289725 15.5417 -0.185145 17.1432 0.853232 18.0956L 19.5437 36.7877C 20.0481 37.2686 20.7157 37.5414 21.4129 37.5512C 22.1412 37.5281 22.8276 37.2042 23.3082 36.6562C 30.0361 28.9572 35.1879 20.0127 38.4711 10.3296C 38.7071 9.64403 38.65 8.89157 38.3132 8.24955Z"/>
<path id="path17_stroke_2x" d="M 38.3132 8.24955L 37.4274 8.71357L 37.4277 8.71417L 38.3132 8.24955ZM 36.681 6.9331L 36.947 5.96913L 36.9399 5.96721L 36.681 6.9331ZM 11.1463 0.0880363L 11.4052 -0.877865L 11.4021 -0.878693L 11.1463 0.0880363ZM 8.01359 1.69386L 8.94752 2.05132L 8.94777 2.05068L 8.01359 1.69386ZM 0.61631 14.4625L 1.38226 15.1055L 1.39097 15.0948L 0.61631 14.4625ZM 0.853232 18.0956L 1.56037 17.3885L 1.54509 17.3732L 1.52917 17.3586L 0.853232 18.0956ZM 19.5437 36.7877L 18.8366 37.4947L 18.845 37.5032L 18.8536 37.5114L 19.5437 36.7877ZM 21.4129 37.5512L 21.3987 38.5511L 21.4217 38.5515L 21.4446 38.5507L 21.4129 37.5512ZM 23.3082 36.6562L 24.06 37.3157L 24.0612 37.3143L 23.3082 36.6562ZM 38.4711 10.3296L 37.5256 10.004L 37.5241 10.0084L 38.4711 10.3296ZM 39.199 7.78552C 38.732 6.8941 37.9168 6.23683 36.947 5.96915L 36.4149 7.89706C 36.8512 8.01749 37.2175 8.31293 37.4274 8.71357L 39.199 7.78552ZM 36.9399 5.96721L 11.4052 -0.87786L 10.8874 1.05393L 36.422 7.899L 36.9399 5.96721ZM 11.4021 -0.878693C 9.60657 -1.3538 7.74214 -0.398001 7.07942 1.33705L 8.94777 2.05068C 9.24569 1.2707 10.0836 0.841261 10.8905 1.05477L 11.4021 -0.878693ZM 7.07967 1.3364C 5.34162 5.88625 2.92428 10.059 -0.158346 13.8301L 1.39097 15.0948C 4.56945 11.1962 7.14657 6.74773 8.94752 2.05132L 7.07967 1.3364ZM -0.149565 13.8195C -1.39983 15.3087 -1.25545 17.5184 0.177297 18.8325L 1.52917 17.3586C 0.885157 16.7679 0.82038 15.7746 1.38218 15.1055L -0.149565 13.8195ZM 0.146095 18.8026L 18.8366 37.4947L 20.2509 36.0806L 1.56037 17.3885L 0.146095 18.8026ZM 18.8536 37.5114C 19.5045 38.108 20.516 38.5212 21.3987 38.5511L 21.427 36.5513C 20.9153 36.5615 20.5917 36.4293 20.2338 36.064L 18.8536 37.5114ZM 21.4446 38.5507C 22.4495 38.5188 23.3967 38.0719 24.06 37.3157L 22.5565 35.9968C 22.2585 36.3364 21.8329 36.5374 21.3811 36.5517L 21.4446 38.5507ZM 24.0612 37.3143C 30.8497 29.5385 36.099 20.4247 39.4182 10.6507L 37.5241 10.0084C 34.2767 19.6006 29.2224 28.3759 22.5552 35.9982L 24.0612 37.3143ZM 39.4167 10.6551C 39.7423 9.70923 39.6636 8.67091 39.1987 7.78492L 37.4277 8.71417C 37.6365 9.11223 37.672 9.57884 37.5256 10.0041L 39.4167 10.6551Z"/>
<path id="path18_fill" d="M 30.7258 2.11768C 30.7147 2.06153 30.7015 2.00569 30.6867 1.95046C 30.3097 0.546094 28.8656 -0.286285 27.4617 0.0907229L 1.95328 6.93579C 0.653304 7.28318 -0.17561 8.55488 0.0316949 9.88428C 0.803845 14.786 0.803845 19.7781 0.0316949 24.6798C -0.175302 26.0095 0.653612 27.2812 1.95328 27.6283L 27.4617 34.4734C 27.6891 34.4993 27.9189 34.4993 28.1462 34.4734C 29.4172 34.499 30.5247 33.6129 30.7786 32.3671C 31.7639 27.3726 32.2575 22.2938 32.2529 17.2029C 32.235 12.1368 31.7238 7.08449 30.7258 2.11768Z"/>
<path id="path19_stroke_2x" d="M 30.7258 2.11768L 29.7448 2.3117L 29.7454 2.31467L 30.7258 2.11768ZM 30.6867 1.95046L 31.6525 1.69148L 31.6525 1.69121L 30.6867 1.95046ZM 27.4617 0.0907229L 27.7209 1.05655L 27.7211 1.05651L 27.4617 0.0907229ZM 1.95328 6.93579L 2.21145 7.90189L 2.21246 7.90162L 1.95328 6.93579ZM 0.0316949 9.88428L -0.956365 10.0384L -0.956124 10.0399L 0.0316949 9.88428ZM 0.0316949 24.6798L -0.956126 24.5242L -0.956404 24.526L 0.0316949 24.6798ZM 1.95328 27.6283L 2.21246 26.6625L 2.21129 26.6622L 1.95328 27.6283ZM 27.4617 34.4734L 27.2025 35.4392L 27.2745 35.4585L 27.3484 35.467L 27.4617 34.4734ZM 28.1462 34.4734L 28.1664 33.4736L 28.0995 33.4722L 28.033 33.4798L 28.1462 34.4734ZM 30.7786 32.3671L 31.7585 32.5668L 31.7597 32.5607L 30.7786 32.3671ZM 32.2529 17.2029L 33.2529 17.202L 33.2529 17.1994L 32.2529 17.2029ZM 31.7068 1.92365C 31.6919 1.84895 31.671 1.76065 31.6525 1.69148L 29.7208 2.20945C 29.732 2.25073 29.7376 2.2741 29.7448 2.3117L 31.7068 1.92365ZM 31.6525 1.69121C 31.1323 -0.246724 29.1396 -1.39528 27.2024 -0.875061L 27.7211 1.05651C 28.5917 0.822709 29.4871 1.33891 29.7208 2.20972L 31.6525 1.69121ZM 27.2025 -0.875107L 1.6941 5.96996L 2.21246 7.90162L 27.7209 1.05655L 27.2025 -0.875107ZM 1.69511 5.96969C -0.0985032 6.44899 -1.24246 8.2037 -0.956364 10.0384L 1.01975 9.7302C 0.891238 8.90606 1.40511 8.11736 2.21145 7.90189L 1.69511 5.96969ZM -0.956124 10.0399C -0.193105 14.864 -0.193105 19.7001 -0.956124 24.5242L 1.01951 24.8354C 1.8008 19.8562 1.8008 14.708 1.01951 9.72867L -0.956124 10.0399ZM -0.956404 24.526C -1.24199 26.3606 -0.0983882 28.1155 1.69527 28.5945L 2.21129 26.6622C 1.40561 26.447 0.891391 25.6585 1.01979 24.8336L -0.956404 24.526ZM 1.6941 28.5941L 27.2025 35.4392L 27.7209 33.5076L 2.21246 26.6625L 1.6941 28.5941ZM 27.3484 35.467C 27.6323 35.4977 27.9756 35.4977 28.2595 35.467L 28.033 33.4798C 27.8622 33.5009 27.7458 33.5009 27.575 33.4798L 27.3484 35.467ZM 28.1261 35.4732C 29.8799 35.5085 31.4081 34.2858 31.7584 32.5668L 29.7987 32.1675C 29.6413 32.9401 28.9546 33.4895 28.1664 33.4736L 28.1261 35.4732ZM 31.7597 32.5607C 32.7533 27.5179 33.2563 22.3417 33.2529 17.202L 31.2529 17.2038C 31.2586 22.2458 30.7745 27.2273 29.7975 32.1736L 31.7597 32.5607ZM 33.2529 17.1994C 33.2336 12.0846 32.7126 6.93549 31.7062 1.92069L 29.7454 2.31467C 30.735 7.23349 31.2363 12.1889 31.2529 17.2064L 33.2529 17.1994Z"/>
<path id="path20_fill" d="M 38.4455 27.2324C 35.1623 17.5493 30.0105 8.60443 23.2827 0.905699C 22.802 0.357773 22.1156 0.0338297 21.3873 0.010691C 20.6821 -0.0550231 19.9824 0.184385 19.4657 0.668756L 0.775213 19.3609C -0.182957 20.3148 -0.262851 21.8398 0.591049 22.8888C 3.7142 26.6993 6.21112 30.9827 7.98833 35.5784C 8.37919 36.5909 9.35124 37.2601 10.4365 37.2632C 10.6639 37.2891 10.8937 37.2891 11.121 37.2632L 36.6295 30.4181C 37.3322 30.2244 37.9233 29.7477 38.2617 29.1017C 38.5504 28.5223 38.6161 27.8568 38.4455 27.2324Z"/>
<path id="path21_stroke_2x" d="M 38.4455 27.2324L 39.4102 26.9688L 39.4023 26.9398L 39.3926 26.9113L 38.4455 27.2324ZM 23.2827 0.905699L 24.0356 0.247666L 24.0344 0.246268L 23.2827 0.905699ZM 21.3873 0.010691L 21.2945 1.00638L 21.325 1.00922L 21.3555 1.01019L 21.3873 0.010691ZM 19.4657 0.668756L 18.7818 -0.0608191L 18.77 -0.0497574L 18.7586 -0.0383198L 19.4657 0.668756ZM 0.775213 19.3609L 1.48075 20.0695L 1.48235 20.0679L 0.775213 19.3609ZM 0.591049 22.8888L -0.184482 23.5201L -0.182363 23.5227L 0.591049 22.8888ZM 7.98833 35.5784L 8.92124 35.2183L 8.92102 35.2177L 7.98833 35.5784ZM 10.4365 37.2632L 10.5498 36.2696L 10.4947 36.2633L 10.4394 36.2632L 10.4365 37.2632ZM 11.121 37.2632L 11.2343 38.2567L 11.3083 38.2483L 11.3802 38.229L 11.121 37.2632ZM 36.6295 30.4181L 36.8887 31.384L 36.8953 31.3821L 36.6295 30.4181ZM 38.2617 29.1017L 39.1475 29.5657L 39.1522 29.5567L 39.1567 29.5477L 38.2617 29.1017ZM 39.3926 26.9113C 36.0734 17.1372 30.8242 8.02309 24.0356 0.247667L 22.5297 1.56373C 29.1969 9.18577 34.2511 17.9613 37.4985 27.5535L 39.3926 26.9113ZM 24.0344 0.246268C 23.3711 -0.509948 22.4239 -0.956881 21.419 -0.988805L 21.3555 1.01019C 21.8073 1.02454 22.233 1.22549 22.5309 1.56513L 24.0344 0.246268ZM 21.4801 -0.984995C 20.4901 -1.07724 19.5076 -0.741197 18.7818 -0.0608191L 20.1496 1.39833C 20.4572 1.10997 20.874 0.967196 21.2945 1.00638L 21.4801 -0.984995ZM 18.7586 -0.0383198L 0.0680756 18.6538L 1.48235 20.0679L 20.1728 1.37583L 18.7586 -0.0383198ZM 0.0696745 18.6522C -1.25247 19.9685 -1.36268 22.0727 -0.184477 23.5201L 1.36658 22.2574C 0.836982 21.6069 0.886554 20.6611 1.48075 20.0695L 0.0696745 18.6522ZM -0.182363 23.5227C 2.89294 27.2698 5.30997 31.4162 7.05564 35.9391L 8.92102 35.2177C 7.11227 30.5492 4.53546 26.1287 1.36446 22.2549L -0.182363 23.5227ZM 7.05542 35.9385C 7.59465 37.3354 8.93583 38.2589 10.4337 38.2632L 10.4394 36.2632C 9.76665 36.2613 9.16373 35.8464 8.92124 35.2183L 7.05542 35.9385ZM 10.3233 38.2567C 10.6072 38.2875 10.9504 38.2875 11.2343 38.2567L 11.0078 36.2696C 10.837 36.2907 10.7206 36.2907 10.5498 36.2696L 10.3233 38.2567ZM 11.3802 38.229L 36.8886 31.3839L 36.3703 29.4523L 10.8619 36.2974L 11.3802 38.229ZM 36.8953 31.3821C 37.8651 31.1148 38.6806 30.457 39.1475 29.5657L 37.3759 28.6376C 37.1659 29.0384 36.7993 29.334 36.3637 29.4541L 36.8953 31.3821ZM 39.1567 29.5477C 39.5114 28.799 39.6126 27.7728 39.4102 26.9688L 37.4809 27.4959C 37.6197 27.9409 37.5895 28.2456 37.3667 28.6556L 39.1567 29.5477Z"/>
<path id="path22_fill" d="M 36.6699 15.2974C 28.9715 8.56894 20.0278 3.41671 10.3455 0.13316C 9.65668 -0.0948343 8.90396 -0.0278861 8.26601 0.317344C 7.62003 0.655787 7.14372 1.2466 6.94968 1.94971L 0.105208 27.4866C -0.267448 28.7678 0.377291 30.125 1.6057 30.6458C 6.22842 32.4154 10.5387 34.9129 14.3732 38.0437C 14.8433 38.421 15.4288 38.6256 16.0316 38.6228C 16.7313 38.6268 17.4038 38.3522 17.9008 37.8592L 36.5913 19.1671C 37.104 18.651 37.3804 17.946 37.3548 17.2188C 37.3939 16.5129 37.1471 15.82 36.6699 15.2974Z"/>
<path id="path23_stroke_2x" d="M 36.6699 15.2974L 37.4084 14.6231L 37.3704 14.5815L 37.328 14.5444L 36.6699 15.2974ZM 10.3455 0.13316L 10.6667 -0.813889L 10.6597 -0.816193L 10.3455 0.13316ZM 8.26601 0.317344L 8.73013 1.20321L 8.74194 1.19683L 8.26601 0.317344ZM 6.94968 1.94971L 5.98569 1.68367L 5.98377 1.69082L 6.94968 1.94971ZM 0.105208 27.4866L 1.06542 27.7659L 1.06838 27.7557L 1.07112 27.7455L 0.105208 27.4866ZM 1.6057 30.6458L 1.21538 31.5665L 1.23167 31.5734L 1.24818 31.5797L 1.6057 30.6458ZM 14.3732 38.0437L 13.7407 38.8184L 13.7473 38.8236L 14.3732 38.0437ZM 16.0316 38.6228L 16.0374 37.6228L 16.027 37.6228L 16.0316 38.6228ZM 17.9008 37.8592L 18.605 38.5692L 18.6079 38.5663L 17.9008 37.8592ZM 36.5913 19.1671L 37.2984 19.8742L 37.3007 19.8719L 36.5913 19.1671ZM 37.3548 17.2188L 36.3563 17.1634L 36.3538 17.2087L 36.3554 17.254L 37.3548 17.2188ZM 37.328 14.5444C 29.5529 7.75532 20.4399 2.50558 10.6667 -0.813864L 10.0244 1.08018C 19.6157 4.32783 28.3901 9.38255 36.0118 16.0503L 37.328 14.5444ZM 10.6597 -0.816193C 9.70881 -1.13093 8.67021 -1.03842 7.79008 -0.562138L 8.74194 1.19683C 9.13772 0.982652 9.60455 0.941261 10.0313 1.08251L 10.6597 -0.816193ZM 7.80192 -0.568446C 6.91053 -0.101426 6.25335 0.713884 5.98572 1.68368L 7.91365 2.21574C 8.03409 1.77931 8.32953 1.413 8.73009 1.20313L 7.80192 -0.568446ZM 5.98377 1.69082L -0.8607 27.2277L 1.07112 27.7455L 7.91559 2.20859L 5.98377 1.69082ZM -0.855003 27.2073C -1.36921 28.9753 -0.47952 30.8479 1.21538 31.5665L 1.99602 29.7251C 1.2341 29.4021 0.834316 28.5604 1.06542 27.7659L -0.855003 27.2073ZM 1.24818 31.5797C 5.79762 33.3179 9.96995 35.7354 13.7407 38.8183L 15.0056 37.2691C 11.1074 34.0904 6.65922 31.513 1.96321 29.7119L 1.24818 31.5797ZM 13.7473 38.8236C 14.3585 39.2956 15.2638 39.6119 16.0362 39.6228L 16.027 37.6228C 15.5938 37.6393 15.3282 37.5464 14.9991 37.2638L 13.7473 38.8236ZM 16.0259 39.6228C 16.9913 39.6283 17.9193 39.2494 18.605 38.5692L 17.1965 37.1493C 16.8883 37.455 16.4713 37.6253 16.0374 37.6228L 16.0259 39.6228ZM 18.6079 38.5663L 37.2984 19.8742L 35.8841 18.46L 17.1936 37.1522L 18.6079 38.5663ZM 37.3007 19.8719C 38.008 19.1598 38.3895 18.1871 38.3541 17.1836L 36.3554 17.254C 36.3713 17.7049 36.1999 18.1421 35.8818 18.4624L 37.3007 19.8719ZM 38.3532 17.2742C 38.4073 16.3 38.0668 15.3441 37.4084 14.6231L 35.9315 15.9717C 36.2275 16.2959 36.3806 16.7259 36.3563 17.1634L 38.3532 17.2742Z"/>
</defs>
</svg>
