<svg width="40" height="40" viewBox="0 0 40 40" version="1.1" xmlns="http://www.w3.org/2000/svg" xmlns:xlink="http://www.w3.org/1999/xlink">
<title>Group</title>
<desc>Created using Figma</desc>
<g id="Canvas" transform="translate(-15857 -2853)">
<g id="Group">
<g id="Rectangle 9" filter="url(#filter0_d)">
<use xlink:href="#path0_fill" transform="translate(15861 2853)" fill="#FFFFFF"/>
<mask id="mask0_outline_ins">
<use xlink:href="#path0_fill" fill="white" transform="translate(15861 2853)"/>
</mask>
<g mask="url(#mask0_outline_ins)">
<use xlink:href="#path1_stroke_2x" transform="translate(15861 2853)" fill="url(#paint1_linear)"/>
</g>
</g>
<clipPath id="clip-0" clip-rule="evenodd">
<path d="M 15869.7 2861L 15885 2861L 15885 2877L 15869.7 2877L 15869.7 2861Z" fill="#FFFFFF"/>
</clipPath>
<g id=" 1" clip-path="url(#clip-0)">
<g id="line-chart">
<g id="loss">
<g id="Group">
<g id="Group">
<g id="Vector">
<use xlink:href="#path2_fill" transform="translate(15868.9 2865.23)" fill="#F65A4C"/>
</g>
<g id="Vector">
<use xlink:href="#path3_fill" transform="translate(15873.3 2869.31)" fill="#F65A4C"/>
</g>
<g id="Vector">
<use xlink:href="#path4_fill" transform="translate(15882 2873.48)" fill="#F65A4C"/>
</g>
<g id="Vector">
<use xlink:href="#path5_fill" transform="translate(15877.6 2869.56)" fill="#F65A4C"/>
</g>
<g id="Vector">
<use xlink:href="#path6_fill" transform="translate(15868 2861)" fill="#F65A4C"/>
</g>
</g>
</g>
</g>
</g>
</g>
</g>
</g>
<defs>
<filter id="filter0_d" filterUnits="userSpaceOnUse" x="15857" y="2853" width="40" height="40" color-interpolation-filters="sRGB">
<feFlood flood-opacity="0" result="BackgroundImageFix"/>
<feColorMatrix in="SourceAlpha" type="matrix" values="0 0 0 0 0 0 0 0 0 0 0 0 0 0 0 0 0 0 255 0"/>
<feOffset dx="0" dy="4"/>
<feGaussianBlur stdDeviation="2"/>
<feColorMatrix type="matrix" values="0 0 0 0 0 0 0 0 0 0 0 0 0 0 0 0 0 0 0.15 0"/>
<feBlend mode="normal" in2="BackgroundImageFix" result="effect1_dropShadow"/>
<feBlend mode="normal" in="SourceGraphic" in2="effect1_dropShadow" result="shape"/>
</filter>
<linearGradient id="paint1_linear" x1="0" y1="0" x2="1" y2="0" gradientUnits="userSpaceOnUse" gradientTransform="matrix(1.95943e-15 32 -32 1.95943e-15 32 -1.95943e-15)">
<stop offset="0.0331492" stop-color="#D84F43"/>
<stop offset="1" stop-color="#F65A4C"/>
</linearGradient>
<path id="path0_fill" d="M 0 16C 0 7.16344 7.16344 0 16 0C 24.8366 0 32 7.16344 32 16C 32 24.8366 24.8366 32 16 32C 7.16344 32 0 24.8366 0 16Z"/>
<path id="path1_stroke_2x" d="M 16 -3C 5.50659 -3 -3 5.50659 -3 16L 3 16C 3 8.8203 8.8203 3 16 3L 16 -3ZM 16 3C 23.1797 3 29 8.8203 29 16L 35 16C 35 5.50659 26.4934 -3 16 -3L 16 3ZM 29 16C 29 23.1797 23.1797 29 16 29L 16 35C 26.4934 35 35 26.4934 35 16L 29 16ZM 16 29C 8.8203 29 3 23.1797 3 16L -3 16C -3 26.4934 5.50659 35 16 35L 16 29Z"/>
<path id="path2_fill" d="M 0 11.2967C 0 11.5566 0.223807 11.7666 0.500721 11.7666L 2.62879 11.7666C 2.9057 11.7666 3.12951 11.5566 3.12951 11.2967L 3.12951 2.93721L 0 1.34726e-07C -5.39067e-16 1.34726e-07 0 11.2967 0 11.2967Z"/>
<path id="path3_fill" d="M 2.31527e-07 -1.91225e-07L 2.31527e-07 7.21664C 2.31527e-07 7.47653 0.223807 7.68659 0.500722 7.68659L 2.62879 7.68659C 2.9057 7.68659 3.12951 7.47653 3.12951 7.21664L 3.12951 2.26788C 2.59844 2.2038 2.1091 1.98306 1.72597 1.62348L 2.31527e-07 -1.91225e-07Z"/>
<path id="path4_fill" d="M -2.31527e-07 -1.91225e-07L -2.31527e-07 3.05114C -2.31527e-07 3.31104 0.223808 3.52109 0.500722 3.52109L 2.62879 3.52109C 2.9057 3.52109 3.12951 3.31104 3.12951 3.05114L 3.12951 0.149531C 2.18117 0.106808 1.23284 0.0676451 0.284501 0.024922C 0.220014 0.0213618 0.117593 0.0142408 -2.31527e-07 -1.91225e-07Z"/>
<path id="path5_fill" d="M 3.08399 0.765454L 2.26842 -4.08525e-07L 0.800395 1.37782C 0.569001 1.59499 0.295881 1.76233 -1.15764e-07 1.87625L -1.15764e-07 6.97098C -1.15764e-07 7.23088 0.223807 7.44093 0.500721 7.44093L 2.62879 7.44093C 2.9057 7.44093 3.12951 7.23088 3.12951 6.97098L 3.12951 3.34664C 2.97398 3.19355 2.84501 3.0191 2.74638 2.81972C 2.58327 2.47794 2.29497 1.61636 3.08399 0.765454Z"/>
<path id="path6_fill" d="M 18.4385 10.6202L 18.3854 9.58421C 18.3512 8.89352 18.3171 8.20639 18.283 7.5157C 18.2754 7.35549 18.245 7.14899 18.0705 6.98878C 18.025 6.94606 17.9681 6.90333 17.9036 6.87129C 17.8088 6.82145 17.714 6.80009 17.6229 6.80009C 17.4029 6.80009 17.2588 6.93538 17.1563 7.0315L 16.9174 7.2558C 16.7239 7.43737 16.5342 7.61538 16.3408 7.79696C 16.3218 7.81476 16.3028 7.829 16.2839 7.8468L 12.5626 4.35419C 12.3767 4.17974 12.1302 4.08361 11.8722 4.08361C 11.6143 4.08361 11.3639 4.17974 11.1818 4.35419L 8.69719 6.68616L 1.85779 0.270579C 1.67192 0.0961269 1.42914 1.24948e-08 1.1674 1.24948e-08C 0.905661 1.24948e-08 0.659094 0.0961269 0.47322 0.270579L 0.287346 0.445032C -0.095782 0.804618 -0.095782 1.38494 0.287346 1.74452L 7.99921 8.98252C 8.18509 9.15698 8.42786 9.2531 8.6896 9.2531C 8.95134 9.2531 9.19791 9.15698 9.38379 8.98252L 11.8684 6.65056L 14.7134 9.32075C 14.5124 9.50588 14.3151 9.69101 14.1179 9.87971L 13.8334 10.1467C 13.7196 10.2535 13.4844 10.4743 13.6551 10.8125C 13.6892 10.8801 13.731 10.9371 13.7803 10.9834C 13.9434 11.1365 14.152 11.1472 14.3 11.1507C 15.4304 11.2006 16.5646 11.2504 17.695 11.3002C 17.714 11.3002 17.7367 11.3002 17.7595 11.3002C 17.9833 11.3002 18.1578 11.2433 18.2754 11.1258C 18.3968 11.0083 18.4499 10.841 18.4385 10.6202Z"/>
</defs>
</svg>
