<svg width="13" height="12" viewBox="0 0 13 12" version="1.1" xmlns="http://www.w3.org/2000/svg" xmlns:xlink="http://www.w3.org/1999/xlink">
<title>like 2</title>
<desc>Created using Figma</desc>
<g id="Canvas" transform="translate(-16408 -795)">
<g id="like 2">
<g id="Group">
<g id="Group">
<g id="Vector">
<use xlink:href="#path0_fill" transform="matrix(-1 0 0 -1 16420.8 803.168)" fill="#FFFFFF"/>
</g>
</g>
</g>
<g id="Group">
<g id="Group">
<g id="Vector">
<use xlink:href="#path1_fill" transform="matrix(-1 0 0 -1 16417.4 807)" fill="#FFFFFF"/>
</g>
</g>
</g>
</g>
</g>
<defs>
<path id="path0_fill" d="M 2.08129 -8.05299e-08L 0.416268 -8.05299e-08C 0.187365 -8.05299e-08 0 0.182908 0 0.408404L 0 7.75994C 0 7.98534 0.186544 8.1683 0.416268 8.1683L 2.08129 8.1683C 2.31101 8.1683 2.49756 7.98531 2.49756 7.75994L 2.49756 0.408404C 2.49756 0.182908 2.31017 -8.05299e-08 2.08129 -8.05299e-08Z"/>
<path id="path1_fill" d="M 8.38064 3.8317C 8.3136 3.82056 5.17473 3.8317 5.17473 3.8317L 5.61316 2.65812C 5.91568 1.84757 5.71982 0.609943 4.88044 0.169947C 4.60714 0.0266697 4.22528 -0.0452866 3.91741 0.03075C 3.74086 0.0743392 3.58569 0.189029 3.4932 0.342691C 3.38685 0.519417 3.39783 0.725708 3.35995 0.921664C 3.2639 1.41869 3.02454 1.89125 2.65387 2.24595C 2.0076 2.86439 -5.16773e-08 4.64851 -5.16773e-08 4.64851L -5.16773e-08 11.1832L 6.93762 11.1832C 7.87375 11.1838 8.48725 10.158 8.02553 9.35685C 8.5759 9.01099 8.76413 8.28251 8.4418 7.72318C 8.99219 7.37733 9.1804 6.64885 8.85807 6.08952C 9.80769 5.49278 9.49021 4.01583 8.38064 3.8317Z"/>
</defs>
</svg>
