<svg width="9" height="16" viewBox="0 0 9 16" version="1.1" xmlns="http://www.w3.org/2000/svg" xmlns:xlink="http://www.w3.org/1999/xlink">
<title>Group</title>
<desc>Created using Figma</desc>
<g id="Canvas" transform="translate(-22565 -610)">
<g id="Group">
<g id="Vector">
<use xlink:href="#path0_fill" transform="translate(22565 610)" fill="#2F80ED"/>
</g>
</g>
</g>
<defs>
<path id="path0_fill" d="M 8.32467 0.00332907L 6.24983 0C 3.91881 0 2.41241 1.54552 2.41241 3.93762L 2.41241 5.75313L 0.326249 5.75313C 0.14598 5.75313 -5.58773e-08 5.89927 -5.58773e-08 6.07954L -5.58773e-08 8.71001C -5.58773e-08 8.89028 0.146146 9.03625 0.326249 9.03625L 2.41241 9.03625L 2.41241 15.6738C 2.41241 15.854 2.55839 16 2.73866 16L 5.4605 16C 5.64077 16 5.78675 15.8539 5.78675 15.6738L 5.78675 9.03625L 8.22596 9.03625C 8.40623 9.03625 8.55221 8.89028 8.55221 8.71001L 8.55321 6.07954C 8.55321 5.99299 8.51875 5.91009 8.45766 5.84884C 8.39657 5.78758 8.31335 5.75313 8.22679 5.75313L 5.78675 5.75313L 5.78675 4.2141C 5.78675 3.47438 5.96303 3.09886 6.92662 3.09886L 8.32433 3.09836C 8.50444 3.09836 8.65042 2.95222 8.65042 2.77211L 8.65042 0.329578C 8.65042 0.149642 8.5046 0.00366197 8.32467 0.00332907Z"/>
</defs>
</svg>
