<svg width="16" height="16" viewBox="0 0 16 16" version="1.1" xmlns="http://www.w3.org/2000/svg" xmlns:xlink="http://www.w3.org/1999/xlink">
<title>Group 2</title>
<desc>Created using Figma</desc>
<g id="Canvas" transform="translate(-15661 -522)">
<g id="Group 2">
<g id="Ellipse 7">
<use xlink:href="#path0_fill" transform="translate(15661 522)" fill="#50cfc8"/>
</g>
<g id="Group">
<g id="Vector">
<use xlink:href="#path1_fill" transform="translate(15666 524)" fill="#FFFFFF"/>
</g>
</g>
</g>
</g>
<defs>
<path id="path0_fill" d="M 16 8C 16 12.4183 12.4183 16 8 16C 3.58172 16 0 12.4183 0 8C 0 3.58172 3.58172 0 8 0C 12.4183 0 16 3.58172 16 8Z"/>
<path id="path1_fill" d="M 6.2435 0.0024968L 4.68737 0C 2.93911 0 1.80931 1.15914 1.80931 2.95322L 1.80931 4.31485L 0.244687 4.31485C 0.109485 4.31485 -4.1908e-08 4.42446 -4.1908e-08 4.55966L -4.1908e-08 6.53251C -4.1908e-08 6.66771 0.10961 6.77719 0.244687 6.77719L 1.80931 6.77719L 1.80931 11.7553C 1.80931 11.8905 1.91879 12 2.05399 12L 4.09538 12C 4.23058 12 4.34006 11.8904 4.34006 11.7553L 4.34006 6.77719L 6.16947 6.77719C 6.30467 6.77719 6.41416 6.66771 6.41416 6.53251L 6.41491 4.55966C 6.41491 4.49474 6.38906 4.43257 6.34325 4.38663C 6.29743 4.34069 6.23501 4.31485 6.17009 4.31485L 4.34006 4.31485L 4.34006 3.16058C 4.34006 2.60579 4.47227 2.32415 5.19497 2.32415L 6.24325 2.32377C 6.37833 2.32377 6.48781 2.21416 6.48781 2.07909L 6.48781 0.247183C 6.48781 0.112231 6.37845 0.00274648 6.2435 0.0024968Z"/>
</defs>
</svg>
