<svg width="27" height="26" viewBox="0 0 27 26" version="1.1" xmlns="http://www.w3.org/2000/svg" xmlns:xlink="http://www.w3.org/1999/xlink">
<title>folder-1</title>
<desc>Created using Figma</desc>
<g id="Canvas" transform="translate(-18556 -406)">
<g id="folder-1">
<g id="Group">
<g id="Group">
<g id="Vector">
<use xlink:href="#path0_fill" transform="translate(18557 407)" fill="#3564DB"/>
<use xlink:href="#path1_stroke" transform="translate(18557 407)" fill="#3564DB"/>
</g>
</g>
</g>
<g id="Group">
<g id="Group">
<g id="Vector">
<use xlink:href="#path2_fill" transform="translate(18572.2 419.443)" fill="#3564DB"/>
<use xlink:href="#path3_stroke" transform="translate(18572.2 419.443)" fill="#3564DB"/>
</g>
</g>
</g>
<g id="Group">
<g id="Group">
<g id="Vector">
<use xlink:href="#path4_fill" transform="translate(18572.2 422.267)" fill="#3564DB"/>
<use xlink:href="#path5_stroke" transform="translate(18572.2 422.267)" fill="#3564DB"/>
</g>
</g>
</g>
</g>
</g>
<defs>
<path id="path0_fill" d="M 24.1454 2.38474L 14.5314 2.38474C 14.339 2.38474 14.1525 2.30854 14.0065 2.17046L 12.2429 0.499622C 11.9023 0.177437 11.4675 -5.33821e-08 11.0187 -5.33821e-08L 4.69984 -5.33821e-08C 3.96149 -5.33821e-08 3.36076 0.65973 3.36076 1.4706L 3.36076 3.43613L 1.33908 3.43613C 0.600726 3.43613 0 4.09586 0 4.90674L 0 22.5294C 0 23.3403 0.600726 24 1.33908 24L 20.7845 24C 21.5229 24 22.1236 23.3403 22.1236 22.5294L 22.1236 20.5643L 24.1454 20.5643C 24.8837 20.5643 25.4844 19.9046 25.4844 19.0937L 25.4844 3.85534C 25.4844 3.04441 24.8837 2.38474 24.1454 2.38474ZM 21.0524 22.5294C 21.0524 22.6916 20.9322 22.8235 20.7845 22.8235L 1.33908 22.8235C 1.1914 22.8235 1.07124 22.6916 1.07124 22.5294L 1.07124 10.4382L 21.0523 10.4382L 21.0523 22.5294L 21.0524 22.5294ZM 21.0524 9.2617L 1.07124 9.2617L 1.07124 4.90679C 1.07124 4.7446 1.1914 4.61265 1.33908 4.61265L 7.65757 4.61265C 7.85015 4.61265 8.03646 4.68868 8.18229 4.82687L 9.946 6.49733C 10.2863 6.81957 10.721 6.997 11.1703 6.997L 20.7845 6.997C 20.9322 6.997 21.0524 7.12896 21.0524 7.29115L 21.0524 9.2617ZM 24.4132 19.0937C 24.4132 19.2559 24.293 19.3878 24.1454 19.3878L 22.1236 19.3878L 22.1236 7.29109C 22.1236 6.48022 21.5229 5.82049 20.7845 5.82049L 11.1703 5.82049C 10.9778 5.82049 10.7914 5.74445 10.6456 5.60632L 8.88192 3.93597C 8.54167 3.61368 8.10689 3.43619 7.65757 3.43619L 4.432 3.43619L 4.432 1.4706C 4.432 1.30842 4.55216 1.17646 4.69984 1.17646L 11.0187 1.17646C 11.211 1.17646 11.3975 1.25266 11.5435 1.39074L 13.3071 3.06158C 13.6477 3.38371 14.0825 3.56115 14.5314 3.56115L 24.1454 3.56115C 24.2931 3.56115 24.4132 3.6931 24.4132 3.85529L 24.4132 19.0937L 24.4132 19.0937Z"/>
<path id="path1_stroke" d="M 14.0065 2.17046L 13.6627 2.53343L 13.663 2.53371L 14.0065 2.17046ZM 12.2429 0.499622L 12.5868 0.136651L 12.5865 0.136383L 12.2429 0.499622ZM 3.36076 3.43613L 3.36076 3.93613L 3.86076 3.93613L 3.86076 3.43613L 3.36076 3.43613ZM 1.33908 3.43613L 1.33908 2.93613L 1.33908 3.43613ZM 22.1236 20.5643L 22.1236 20.0643L 21.6236 20.0643L 21.6236 20.5643L 22.1236 20.5643ZM 21.0524 22.5294L 21.5524 22.5294L 21.5524 22.0294L 21.0524 22.0294L 21.0524 22.5294ZM 1.07124 10.4382L 1.07124 9.93816L 0.571242 9.93816L 0.571242 10.4382L 1.07124 10.4382ZM 21.0523 10.4382L 21.5523 10.4382L 21.5523 9.93816L 21.0523 9.93816L 21.0523 10.4382ZM 21.0523 22.5294L 20.5523 22.5294L 20.5523 23.0294L 21.0523 23.0294L 21.0523 22.5294ZM 21.0524 9.2617L 21.0524 9.7617L 21.5524 9.7617L 21.5524 9.2617L 21.0524 9.2617ZM 1.07124 9.2617L 0.571242 9.2617L 0.571242 9.7617L 1.07124 9.7617L 1.07124 9.2617ZM 8.18229 4.82687L 7.83839 5.18982L 7.83847 5.18989L 8.18229 4.82687ZM 9.946 6.49733L 9.60217 6.86035L 9.60219 6.86036L 9.946 6.49733ZM 24.4132 19.0937L 24.4132 18.5937L 23.9132 18.5937L 23.9132 19.0937L 24.4132 19.0937ZM 22.1236 19.3878L 21.6236 19.3878L 21.6236 19.8878L 22.1236 19.8878L 22.1236 19.3878ZM 10.6456 5.60632L 10.9895 5.24336L 10.9894 5.24329L 10.6456 5.60632ZM 8.88192 3.93597L 8.53808 4.29898L 8.5381 4.299L 8.88192 3.93597ZM 4.432 3.43619L 3.932 3.43619L 3.932 3.93619L 4.432 3.93619L 4.432 3.43619ZM 11.5435 1.39074L 11.8874 1.02777L 11.8871 1.02749L 11.5435 1.39074ZM 13.3071 3.06158L 12.9632 3.42455L 12.9635 3.42485L 13.3071 3.06158ZM 24.4132 19.0937L 24.4132 19.5937L 24.9132 19.5937L 24.9132 19.0937L 24.4132 19.0937ZM 24.1454 1.88474L 14.5314 1.88474L 14.5314 2.88474L 24.1454 2.88474L 24.1454 1.88474ZM 14.5314 1.88474C 14.4731 1.88474 14.408 1.86191 14.3501 1.8072L 13.663 2.53371C 13.8971 2.75516 14.2049 2.88474 14.5314 2.88474L 14.5314 1.88474ZM 14.3504 1.80749L 12.5868 0.136651L 11.8991 0.862593L 13.6627 2.53343L 14.3504 1.80749ZM 12.5865 0.136383C 12.1576 -0.269305 11.6015 -0.5 11.0187 -0.5L 11.0187 0.5C 11.3336 0.5 11.647 0.624179 11.8993 0.862861L 12.5865 0.136383ZM 11.0187 -0.5L 4.69984 -0.5L 4.69984 0.5L 11.0187 0.5L 11.0187 -0.5ZM 4.69984 -0.5C 3.64229 -0.5 2.86076 0.428706 2.86076 1.4706L 3.86076 1.4706C 3.86076 0.890755 4.28068 0.5 4.69984 0.5L 4.69984 -0.5ZM 2.86076 1.4706L 2.86076 3.43613L 3.86076 3.43613L 3.86076 1.4706L 2.86076 1.4706ZM 3.36076 2.93613L 1.33908 2.93613L 1.33908 3.93613L 3.36076 3.93613L 3.36076 2.93613ZM 1.33908 2.93613C 0.281528 2.93613 -0.5 3.86484 -0.5 4.90674L 0.5 4.90674C 0.5 4.32689 0.919924 3.93613 1.33908 3.93613L 1.33908 2.93613ZM -0.5 4.90674L -0.5 22.5294L 0.5 22.5294L 0.5 4.90674L -0.5 4.90674ZM -0.5 22.5294C -0.5 23.5713 0.281528 24.5 1.33908 24.5L 1.33908 23.5C 0.919924 23.5 0.5 23.1092 0.5 22.5294L -0.5 22.5294ZM 1.33908 24.5L 20.7845 24.5L 20.7845 23.5L 1.33908 23.5L 1.33908 24.5ZM 20.7845 24.5C 21.8421 24.5 22.6236 23.5713 22.6236 22.5294L 21.6236 22.5294C 21.6236 23.1092 21.2037 23.5 20.7845 23.5L 20.7845 24.5ZM 22.6236 22.5294L 22.6236 20.5643L 21.6236 20.5643L 21.6236 22.5294L 22.6236 22.5294ZM 22.1236 21.0643L 24.1454 21.0643L 24.1454 20.0643L 22.1236 20.0643L 22.1236 21.0643ZM 24.1454 21.0643C 25.2029 21.0643 25.9844 20.1356 25.9844 19.0937L 24.9844 19.0937C 24.9844 19.6736 24.5645 20.0643 24.1454 20.0643L 24.1454 21.0643ZM 25.9844 19.0937L 25.9844 3.85534L 24.9844 3.85534L 24.9844 19.0937L 25.9844 19.0937ZM 25.9844 3.85534C 25.9844 2.81338 25.2029 1.88474 24.1454 1.88474L 24.1454 2.88474C 24.5645 2.88474 24.9844 3.27545 24.9844 3.85534L 25.9844 3.85534ZM 20.5524 22.5294C 20.5524 22.4606 20.613 22.3235 20.7845 22.3235L 20.7845 23.3235C 21.2514 23.3235 21.5524 22.9226 21.5524 22.5294L 20.5524 22.5294ZM 20.7845 22.3235L 1.33908 22.3235L 1.33908 23.3235L 20.7845 23.3235L 20.7845 22.3235ZM 1.33908 22.3235C 1.5106 22.3235 1.57124 22.4606 1.57124 22.5294L 0.571242 22.5294C 0.571242 22.9226 0.872198 23.3235 1.33908 23.3235L 1.33908 22.3235ZM 1.57124 22.5294L 1.57124 10.4382L 0.571242 10.4382L 0.571242 22.5294L 1.57124 22.5294ZM 1.07124 10.9382L 21.0523 10.9382L 21.0523 9.93816L 1.07124 9.93816L 1.07124 10.9382ZM 20.5523 10.4382L 20.5523 22.5294L 21.5523 22.5294L 21.5523 10.4382L 20.5523 10.4382ZM 21.0523 23.0294L 21.0524 23.0294L 21.0524 22.0294L 21.0523 22.0294L 21.0523 23.0294ZM 21.0524 8.7617L 1.07124 8.7617L 1.07124 9.7617L 21.0524 9.7617L 21.0524 8.7617ZM 1.57124 9.2617L 1.57124 4.90679L 0.571242 4.90679L 0.571242 9.2617L 1.57124 9.2617ZM 1.57124 4.90679C 1.57124 4.97563 1.51059 5.11265 1.33908 5.11265L 1.33908 4.11265C 0.8722 4.11265 0.571242 4.51358 0.571242 4.90679L 1.57124 4.90679ZM 1.33908 5.11265L 7.65757 5.11265L 7.65757 4.11265L 1.33908 4.11265L 1.33908 5.11265ZM 7.65757 5.11265C 7.71628 5.11265 7.78103 5.13547 7.83839 5.18982L 8.5262 4.46393C 8.29188 4.2419 7.98403 4.11265 7.65757 4.11265L 7.65757 5.11265ZM 7.83847 5.18989L 9.60217 6.86035L 10.2898 6.13431L 8.52612 4.46385L 7.83847 5.18989ZM 9.60219 6.86036C 10.0309 7.26637 10.5872 7.497 11.1703 7.497L 11.1703 6.497C 10.8549 6.497 10.5416 6.37276 10.2898 6.13429L 9.60219 6.86036ZM 11.1703 7.497L 20.7845 7.497L 20.7845 6.497L 11.1703 6.497L 11.1703 7.497ZM 20.7845 7.497C 20.613 7.497 20.5524 7.35999 20.5524 7.29115L 21.5524 7.29115C 21.5524 6.89793 21.2514 6.497 20.7845 6.497L 20.7845 7.497ZM 20.5524 7.29115L 20.5524 9.2617L 21.5524 9.2617L 21.5524 7.29115L 20.5524 7.29115ZM 23.9132 19.0937C 23.9132 19.0249 23.9738 18.8878 24.1454 18.8878L 24.1454 19.8878C 24.6122 19.8878 24.9132 19.4869 24.9132 19.0937L 23.9132 19.0937ZM 24.1454 18.8878L 22.1236 18.8878L 22.1236 19.8878L 24.1454 19.8878L 24.1454 18.8878ZM 22.6236 19.3878L 22.6236 7.29109L 21.6236 7.29109L 21.6236 19.3878L 22.6236 19.3878ZM 22.6236 7.29109C 22.6236 6.24919 21.8421 5.32049 20.7845 5.32049L 20.7845 6.32049C 21.2037 6.32049 21.6236 6.71124 21.6236 7.29109L 22.6236 7.29109ZM 20.7845 5.32049L 11.1703 5.32049L 11.1703 6.32049L 20.7845 6.32049L 20.7845 5.32049ZM 11.1703 5.32049C 11.1115 5.32049 11.0467 5.2976 10.9895 5.24336L 10.3017 5.96927C 10.536 6.1913 10.844 6.32049 11.1703 6.32049L 11.1703 5.32049ZM 10.9894 5.24329L 9.22574 3.57294L 8.5381 4.299L 10.3018 5.96934L 10.9894 5.24329ZM 9.22576 3.57297C 8.79707 3.1669 8.24078 2.93619 7.65757 2.93619L 7.65757 3.93619C 7.97299 3.93619 8.28626 4.06045 8.53808 4.29898L 9.22576 3.57297ZM 7.65757 2.93619L 4.432 2.93619L 4.432 3.93619L 7.65757 3.93619L 7.65757 2.93619ZM 4.932 3.43619L 4.932 1.4706L 3.932 1.4706L 3.932 3.43619L 4.932 3.43619ZM 4.932 1.4706C 4.932 1.53944 4.87135 1.67646 4.69984 1.67646L 4.69984 0.676462C 4.23296 0.676462 3.932 1.0774 3.932 1.4706L 4.932 1.4706ZM 4.69984 1.67646L 11.0187 1.67646L 11.0187 0.676462L 4.69984 0.676462L 4.69984 1.67646ZM 11.0187 1.67646C 11.0769 1.67646 11.1421 1.69929 11.1999 1.754L 11.8871 1.02749C 11.6529 0.806038 11.3451 0.676462 11.0187 0.676462L 11.0187 1.67646ZM 11.1996 1.75371L 12.9632 3.42455L 13.651 2.69861L 11.8874 1.02777L 11.1996 1.75371ZM 12.9635 3.42485C 13.3924 3.83046 13.9485 4.06115 14.5314 4.06115L 14.5314 3.06115C 14.2164 3.06115 13.903 2.93696 13.6507 2.69831L 12.9635 3.42485ZM 14.5314 4.06115L 24.1454 4.06115L 24.1454 3.06115L 14.5314 3.06115L 14.5314 4.06115ZM 24.1454 4.06115C 23.9739 4.06115 23.9132 3.92413 23.9132 3.85529L 24.9132 3.85529C 24.9132 3.46208 24.6123 3.06115 24.1454 3.06115L 24.1454 4.06115ZM 23.9132 3.85529L 23.9132 19.0937L 24.9132 19.0937L 24.9132 3.85529L 23.9132 3.85529ZM 24.4132 18.5937L 24.4132 18.5937L 24.4132 19.5937L 24.4132 19.5937L 24.4132 18.5937Z"/>
<path id="path2_fill" d="M 3.74332 -4.13711e-07L 0.535621 -4.13711e-07C 0.239813 -4.13711e-07 -5.83292e-07 0.263368 -5.83292e-07 0.588232C -5.83292e-07 0.91304 0.239813 1.17646 0.535621 1.17646L 3.74332 1.17646C 4.03913 1.17646 4.27894 0.91304 4.27894 0.588232C 4.27894 0.263313 4.03918 -4.13711e-07 3.74332 -4.13711e-07Z"/>
<path id="path3_stroke" d="M 4.27894 0.588232L 4.77894 0.588232L 4.27894 0.588232ZM 3.74332 -0.5L 0.535621 -0.5L 0.535621 0.5L 3.74332 0.5L 3.74332 -0.5ZM 0.535621 -0.5C -0.079385 -0.5 -0.500001 0.0323436 -0.500001 0.588232L 0.499999 0.588232C 0.499999 0.549122 0.514293 0.522421 0.526581 0.508926C 0.538169 0.4962 0.541843 0.5 0.535621 0.5L 0.535621 -0.5ZM -0.500001 0.588232C -0.500001 1.14404 -0.0794119 1.67646 0.535621 1.67646L 0.535621 0.676462C 0.541874 0.676462 0.538198 0.680274 0.526591 0.667527C 0.514283 0.654009 0.499999 0.627299 0.499999 0.588232L -0.500001 0.588232ZM 0.535621 1.67646L 3.74332 1.67646L 3.74332 0.676462L 0.535621 0.676462L 0.535621 1.67646ZM 3.74332 1.67646C 4.35836 1.67646 4.77894 1.14403 4.77894 0.588232L 3.77894 0.588232C 3.77894 0.6273 3.76466 0.65401 3.75235 0.667528C 3.74075 0.680274 3.73707 0.676462 3.74332 0.676462L 3.74332 1.67646ZM 4.77894 0.588232C 4.77894 0.0322909 4.35838 -0.5 3.74332 -0.5L 3.74332 0.5C 3.73718 0.5 3.74084 0.496225 3.75238 0.508905C 3.76464 0.522361 3.77894 0.54905 3.77894 0.588232L 4.77894 0.588232Z"/>
<path id="path4_fill" d="M 3.74332 4.13711e-07L 0.535621 4.13711e-07C 0.239813 4.13711e-07 -5.83292e-07 0.263422 -5.83292e-07 0.588231C -5.83292e-07 0.91304 0.239813 1.17646 0.535621 1.17646L 3.74332 1.17646C 4.03913 1.17646 4.27894 0.91304 4.27894 0.588231C 4.27894 0.263422 4.03918 4.13711e-07 3.74332 4.13711e-07Z"/>
<path id="path5_stroke" d="M 3.74332 -0.5L 0.535621 -0.5L 0.535621 0.5L 3.74332 0.5L 3.74332 -0.5ZM 0.535621 -0.5C -0.0794119 -0.5 -0.500001 0.0324271 -0.500001 0.588231L 0.499999 0.588231C 0.499999 0.549163 0.514283 0.522453 0.526591 0.508935C 0.538198 0.496188 0.541874 0.5 0.535621 0.5L 0.535621 -0.5ZM -0.500001 0.588231C -0.500001 1.14403 -0.0794137 1.67646 0.535621 1.67646L 0.535621 0.676463C 0.541875 0.676463 0.538199 0.680275 0.526592 0.667528C 0.514283 0.654009 0.499999 0.627298 0.499999 0.588231L -0.500001 0.588231ZM 0.535621 1.67646L 3.74332 1.67646L 3.74332 0.676463L 0.535621 0.676463L 0.535621 1.67646ZM 3.74332 1.67646C 4.35836 1.67646 4.77894 1.14403 4.77894 0.588231L 3.77894 0.588231C 3.77894 0.627299 3.76466 0.65401 3.75235 0.667528C 3.74075 0.680275 3.73707 0.676463 3.74332 0.676463L 3.74332 1.67646ZM 4.77894 0.588231C 4.77894 0.0324605 4.35844 -0.5 3.74332 -0.5L 3.74332 0.5C 3.73711 0.5 3.74078 0.4962 3.75236 0.508923C 3.76465 0.522425 3.77894 0.549134 3.77894 0.588231L 4.77894 0.588231Z"/>
</defs>
</svg>
