<svg width="16" height="16" viewBox="0 0 16 16" version="1.1" xmlns="http://www.w3.org/2000/svg" xmlns:xlink="http://www.w3.org/1999/xlink">
<title>information-button</title>
<desc>Created using Figma</desc>
<g id="Canvas" transform="translate(-19973 -1433)">
<g id="information-button">
<g id="Group">
<g id="Vector">
<use xlink:href="#path0_fill" transform="translate(19973 1433)" fill="#3665db"/>
</g>
</g>
</g>
</g>
<defs>
<path id="path0_fill" d="M 14.9273 3.98429C 14.2119 2.75868 13.2415 1.78829 12.0159 1.07292C 10.79 0.357591 9.45178 0 8.00022 0C 6.5488 0 5.2102 0.357591 3.98455 1.07292C 2.75883 1.78818 1.78843 2.75857 1.07303 3.98429C 0.357591 5.21009 0 6.54869 0 8C 0 9.45138 0.357701 10.7898 1.07292 12.0156C 1.78829 13.2412 2.75868 14.2116 3.9844 14.9271C 5.2102 15.6424 6.54869 16 8.00007 16C 9.45145 16 10.7901 15.6424 12.0158 14.9271C 13.2415 14.2119 14.2118 13.2412 14.9272 12.0156C 15.6424 10.7899 15.9999 9.45131 15.9999 8C 16 6.54855 15.6424 5.2099 14.9273 3.98429ZM 6.66683 1.99986C 6.66683 1.90259 6.69803 1.8228 6.7606 1.76034C 6.82306 1.69791 6.903 1.66657 7.0002 1.66657L 9.00031 1.66657C 9.09744 1.66657 9.17738 1.69791 9.23969 1.76034C 9.30212 1.8228 9.33357 1.90259 9.33357 1.99986L 9.33357 3.66658C 9.33357 3.76378 9.30212 3.84368 9.23969 3.90607C 9.17738 3.96853 9.09748 3.99976 9.00031 3.99976L 7.0002 3.99976C 6.903 3.99976 6.8231 3.96853 6.7606 3.90607C 6.69803 3.84372 6.66683 3.76378 6.66683 3.66658L 6.66683 1.99986ZM 10.6668 13C 10.6668 13.0971 10.6353 13.1771 10.573 13.2394C 10.5108 13.3019 10.4309 13.3332 10.3336 13.3332L 5.66677 13.3332C 5.56947 13.3332 5.48967 13.3019 5.42717 13.2394C 5.36471 13.1771 5.33348 13.0972 5.33348 12.9999L 5.33348 11.3332C 5.33348 11.2358 5.36471 11.1561 5.42717 11.0936C 5.48967 11.0313 5.56957 10.9998 5.66677 10.9998L 6.66683 10.9998L 6.66683 7.6666L 5.66677 7.6666C 5.56947 7.6666 5.48971 7.6354 5.42717 7.5729C 5.36471 7.51048 5.33348 7.43058 5.33348 7.33331L 5.33348 5.6667C 5.33348 5.56943 5.36471 5.48964 5.42717 5.4271C 5.48975 5.3646 5.56965 5.33341 5.66677 5.33341L 9.00031 5.33341C 9.09744 5.33341 9.17738 5.3646 9.23969 5.4271C 9.30212 5.48964 9.33357 5.56943 9.33357 5.6667L 9.33357 11.0001L 10.3333 11.0001C 10.4307 11.0001 10.5106 11.0313 10.573 11.0937C 10.6352 11.1562 10.6666 11.236 10.6666 11.3333L 10.6666 13L 10.6668 13L 10.6668 13Z"/>
</defs>
</svg>
