<svg width="111" height="36" viewBox="0 0 111 36" version="1.1" xmlns="http://www.w3.org/2000/svg" xmlns:xlink="http://www.w3.org/1999/xlink">
<title> 2</title>
<desc>Created using Figma</desc>
<g id="Canvas" transform="translate(-13733 -376)">
<g id=" 2">
<g id="Layer 2">
<g id="&#208;&#168;&#208;&#176;&#209;&#128; 1">
<g id="Vector">
<use xlink:href="#path0_fill" transform="translate(13733 376)" fill="#FFFFFF"/>
</g>
<g id="Vector">
<use xlink:href="#path1_fill" transform="translate(13746.2 394.743)" fill="#FFFFFF"/>
</g>
<g id="Vector">
<use xlink:href="#path2_fill" transform="translate(13790.8 381.775)" fill="#FFFFFF"/>
</g>
<g id="Vector">
<use xlink:href="#path3_fill" transform="translate(13799.6 384.042)" fill="#FFFFFF"/>
</g>
<g id="Vector">
<use xlink:href="#path4_fill" transform="translate(13808.2 384.059)" fill="#FFFFFF"/>
</g>
<g id="Vector">
<use xlink:href="#path5_fill" transform="translate(13816.7 381.997)" fill="#FFFFFF"/>
</g>
<g id="Vector">
<use xlink:href="#path6_fill" transform="translate(13823.1 384.042)" fill="#FFFFFF"/>
</g>
<g id="Vector">
<use xlink:href="#path7_fill" transform="translate(13831.7 381.538)" fill="#FFFFFF"/>
</g>
<g id="Vector">
<use xlink:href="#path8_fill" transform="translate(13835.9 384.054)" fill="#FFFFFF"/>
</g>
<g id="Vector">
<use xlink:href="#path9_fill" transform="translate(13790.8 397.206)" fill="#FFFFFF"/>
</g>
<g id="Vector">
<use xlink:href="#path10_fill" transform="translate(13801.1 399.483)" fill="#FFFFFF"/>
</g>
<g id="Vector">
<use xlink:href="#path11_fill" transform="translate(13807 399.482)" fill="#FFFFFF"/>
</g>
<g id="Vector">
<use xlink:href="#path12_fill" transform="translate(13815.6 399.642)" fill="#FFFFFF"/>
</g>
<g id="Vector">
<use xlink:href="#path13_fill" transform="translate(13828.7 397.425)" fill="#FFFFFF"/>
</g>
<g id="Vector">
<use xlink:href="#path14_fill" transform="translate(13835.5 396.631)" fill="#FFFFFF"/>
</g>
</g>
</g>
</g>
</g>
<defs>
<path id="path0_fill" d="M 22.0718 0L 0 21.5455L 2.98678 25.4335C 2.98678 25.4335 10.2764 18.8223 22.0718 18.8223C 33.8672 18.8223 41.1569 25.4335 41.1569 25.4335L 44.1048 21.5972L 22.0718 0Z"/>
<path id="path1_fill" d="M 8.82097 1.05329e-07C 7.07635 1.05329e-07 5.37091 0.506055 3.92031 1.45417C 2.4697 2.40229 1.3391 3.74988 0.67146 5.32654C 0.00382185 6.9032 -0.170862 8.63811 0.169497 10.3119C 0.509856 11.9857 1.34997 13.5231 2.58361 14.7298C 3.81724 15.9366 5.38899 16.7583 7.10009 17.0913C 8.81119 17.4242 10.5848 17.2533 12.1966 16.6003C 13.8084 15.9472 15.1861 14.8413 16.1553 13.4223C 17.1246 12.0033 17.6419 10.3351 17.6419 8.62854C 17.6419 6.34011 16.7126 4.14541 15.0583 2.52724C 13.4041 0.909076 11.1604 1.05329e-07 8.82097 1.05329e-07ZM 8.82097 12.0196C 8.13521 12.0185 7.46516 11.8187 6.89548 11.4453C 6.3258 11.0718 5.88207 10.5416 5.62036 9.92158C 5.35866 9.30154 5.29073 8.61954 5.42515 7.96175C 5.55958 7.30397 5.89033 6.69992 6.3756 6.22596C 6.86088 5.75199 7.4789 5.42938 8.15156 5.29889C 8.82422 5.1684 9.52133 5.23589 10.1548 5.49283C 10.7882 5.74977 11.3296 6.18463 11.7105 6.74245C 12.0914 7.30027 12.2947 7.95601 12.2947 8.62681C 12.2947 9.07287 12.2048 9.51455 12.0302 9.92662C 11.8556 10.3387 11.5996 10.713 11.277 11.0283C 10.9544 11.3435 10.5715 11.5935 10.15 11.7639C 9.72861 11.9343 9.27698 12.0217 8.82097 12.0213L 8.82097 12.0196Z"/>
<path id="path2_fill" d="M 7.42373 2.13863C 6.82648 1.90264 6.18718 1.78532 5.5431 1.79349C 3.79302 1.79349 2.54397 2.69948 2.54397 4.55462C 2.54397 6.30621 3.74538 7.41757 5.69305 7.41757C 6.32708 7.42404 6.95649 7.31157 7.54722 7.08623L 7.70423 8.98451C 6.97463 9.17175 6.22329 9.26573 5.469 9.26408C 2.17701 9.26408 -2.36891e-06 7.75753 -2.36891e-06 4.60466C -2.36891e-06 1.62609 2.20877 0.00220196 5.40902 0.00220196C 6.147 -0.0160157 6.88335 0.0788971 7.59132 0.283492L 7.42373 2.13863Z"/>
<path id="path3_fill" d="M 4.74392 5.72417C 4.31345 6.45415 3.50898 6.95115 2.43106 6.95115C 1.04617 6.95115 -1.50749e-06 6.109 -1.50749e-06 4.85614C -1.50749e-06 3.34787 1.31962 2.61272 3.57955 2.61272C 3.853 2.61272 4.2323 2.63688 4.55867 2.66277C 4.55867 1.8189 3.99766 1.51345 3.10851 1.51345C 2.33358 1.52314 1.57037 1.69991 0.873277 2.03116L 0.808002 0.446958C 1.54014 0.127702 2.65158 -2.63322e-07 3.4737 -2.63322e-07C 5.73363 -2.63322e-07 6.76568 0.973299 6.76568 2.80082C 6.76568 3.14596 6.73922 3.8466 6.73922 4.41091C 6.73922 5.42045 6.79215 6.26432 6.84331 6.81309L 4.7792 6.81309C 4.75001 6.64206 4.73701 6.46875 4.74039 6.29538C 4.73802 6.10296 4.74626 5.91055 4.76509 5.71899L 4.74392 5.72417ZM 4.10351 3.82589C 2.90033 3.82589 2.22288 4.09338 2.22288 4.73189C 2.22288 5.28239 2.61453 5.4981 3.17555 5.4981C 4.03824 5.4981 4.5869 4.8872 4.5869 3.85178C 4.44224 3.83452 4.26053 3.82244 4.10881 3.82244L 4.10351 3.82589Z"/>
<path id="path4_fill" d="M 2.35167 1.208C 2.99208 0.37793 3.60601 1.31661e-07 4.66453 1.31661e-07C 6.44107 1.31661e-07 7.59133 1.3426 7.59133 3.42725C 7.59133 5.51191 6.35639 6.97876 4.54633 6.97876C 3.56661 6.97876 2.86093 6.62096 2.42929 5.90537L 2.40283 5.90537C 2.42929 6.16078 2.44164 7.07022 2.44164 7.45851L 2.44164 9.52936L 0.0652739 9.52936L 0.0652739 2.21753C 0.0652739 1.52725 0.0529254 0.710992 -4.30711e-07 0.160491L 2.27228 0.160491C 2.29875 0.429701 2.32521 0.87666 2.32521 1.208L 2.35167 1.208ZM 2.35167 3.4704C 2.35167 4.55759 2.91268 5.24788 3.80184 5.24788C 4.69099 5.24788 5.18673 4.56967 5.18673 3.40827C 5.18673 2.36077 4.65747 1.70845 3.81419 1.70845C 2.93915 1.70845 2.35167 2.42289 2.35167 3.4704Z"/>
<path id="path5_fill" d="M 1.9382e-06 2.22271L 1.35843 2.22271L 1.35843 0.716169L 3.59366 0L 3.59366 2.22271L 5.22554 2.22271L 5.22554 3.79656L 3.59366 3.79656L 3.59366 6.40237C 3.59366 6.92009 3.72421 7.41191 4.50751 7.41191C 4.75365 7.41255 4.99913 7.38709 5.23965 7.33598L 5.31728 8.83044C 4.84391 8.91973 4.36329 8.96709 3.88123 8.97195C 2.06587 8.97195 1.25434 8.21609 1.25434 6.56804L 1.25434 3.79656L 1.9382e-06 3.79656L 1.9382e-06 2.22271Z"/>
<path id="path6_fill" d="M 4.74215 5.72417C 4.31169 6.45415 3.50722 6.95115 2.43106 6.95115C 1.04617 6.95115 -2.15356e-07 6.109 -2.15356e-07 4.85614C -2.15356e-07 3.34787 1.31962 2.61272 3.57955 2.61272C 3.853 2.61272 4.2323 2.63688 4.55868 2.66277C 4.55868 1.8189 3.99767 1.51345 3.10851 1.51345C 2.33414 1.52311 1.5715 1.69988 0.875038 2.03116L 0.809764 0.446958C 1.5419 0.127702 2.65158 -2.63322e-07 3.47546 -2.63322e-07C 5.73539 -2.63322e-07 6.76745 0.973299 6.76745 2.80082C 6.76745 3.14596 6.74098 3.8466 6.74098 4.41091C 6.74098 5.42045 6.79391 6.26432 6.84508 6.81309L 4.78097 6.81309C 4.75169 6.64207 4.73869 6.46875 4.74215 6.29538C 4.73992 6.10292 4.74876 5.91049 4.76862 5.71899L 4.74215 5.72417ZM 4.10351 3.82589C 2.90033 3.82589 2.22289 4.09338 2.22289 4.73189C 2.22289 5.28239 2.61453 5.4981 3.17731 5.4981C 4.03824 5.4981 4.58866 4.8872 4.58866 3.85178C 4.44224 3.83452 4.25876 3.82244 4.10351 3.82244L 4.10351 3.82589Z"/>
<path id="path7_fill" d="M 2.36402 1.71018L 3.01498e-06 1.71018L 3.01498e-06 2.63322e-08L 2.36402 2.63322e-08L 2.36402 1.71018ZM 2.36402 9.32745L 3.01498e-06 9.32745L 3.01498e-06 2.68175L 2.36402 2.68175L 2.36402 9.32745Z"/>
<path id="path8_fill" d="M 2.28639 1.31671C 2.54825 0.925929 2.90221 0.602364 3.31851 0.373232C 3.7348 0.1441 4.20125 0.0161007 4.67864 -3.15986e-07C 6.33698 -3.15986e-07 7.30376 0.995733 7.30376 2.82671L 7.30376 6.81309L 4.95209 6.81309L 4.95209 3.65505C 4.95209 2.42807 4.70334 1.84133 3.86711 1.84133C 3.62417 1.82654 3.38226 1.88323 3.17254 2.0041C 2.96282 2.12497 2.7949 2.30449 2.6904 2.51953C 2.48223 2.91472 2.42929 3.45141 2.42929 3.96395L 2.42929 6.81309L 0.0652786 6.81309L 0.0652786 2.32625C 0.0652786 1.76367 0.0529301 1.06131 4.30711e-06 0.165668L 2.20877 0.165668C 2.23523 0.446958 2.26169 0.973299 2.26169 1.31671L 2.28639 1.31671Z"/>
<path id="path9_fill" d="M 8.0606 2.27533C 7.2832 1.92538 6.43383 1.75532 5.57838 1.77833C 3.72421 1.77833 2.53338 2.92765 2.53338 4.64127C 2.53338 6.3549 3.52662 7.47834 5.25024 7.47834C 5.56543 7.48028 5.88016 7.45429 6.19056 7.40068L 6.19056 5.62493L 4.7545 5.62493L 4.7545 3.96307L 8.38698 3.96307L 8.38698 8.88306C 7.46165 9.12277 6.50912 9.24742 5.55192 9.25409C 1.94591 9.25409 1.07678e-06 7.66989 1.07678e-06 4.74309C 1.07678e-06 1.75416 2.12938 0.000845662 5.469 0.000845662C 6.4119 -0.0119922 7.35091 0.121391 8.25113 0.396033L 8.0606 2.27533Z"/>
<path id="path10_fill" d="M 2.22112 1.62292C 2.5475 0.587499 3.16143 0.000759731 4.2323 0.000759731C 4.48362 -0.00530047 4.73449 0.024938 4.97679 0.0904973L 4.89917 2.01984C 4.64946 1.94434 4.38958 1.90595 4.12821 1.90594C 2.91445 1.90594 2.44341 2.68596 2.44341 4.44963L 2.44341 6.81385L 0.0652754 6.81385L 0.0652754 2.15444C 0.0652754 1.45035 0.0529269 0.723832 1.07678e-06 0.171606L 2.12938 0.171606C 2.15585 0.42701 2.19466 1.24499 2.19466 1.6281L 2.22112 1.62292Z"/>
<path id="path11_fill" d="M 7.85066 3.50319C 7.85066 5.62581 6.29464 6.97876 3.91827 6.97876C 1.54191 6.97876 2.15356e-06 5.612 2.15356e-06 3.52735C 2.15356e-06 1.3426 1.50133 1.26395e-06 3.95885 1.26395e-06C 6.31582 1.26395e-06 7.85066 1.36849 7.85066 3.50319ZM 2.41518 3.46522C 2.41518 4.63007 3.04147 5.40837 3.93063 5.40837C 4.81978 5.40837 5.43372 4.64215 5.43372 3.51009C 5.43372 2.34696 4.81978 1.56867 3.91827 1.56867C 3.05558 1.57385 2.41518 2.37975 2.41518 3.46349L 2.41518 3.46522Z"/>
<path id="path12_fill" d="M 1.97766 6.6526L 0 0L 2.46987 0L 3.24082 3.30991C 3.33256 3.7189 3.47546 4.46095 3.55485 4.90618L 3.58131 4.90618C 3.65894 4.46095 3.85476 3.67921 3.94827 3.32199L 4.77567 0L 7.60897 0L 8.40639 3.30991C 8.51048 3.7189 8.67984 4.46095 8.75923 4.90618L 8.78568 4.90618C 8.86331 4.46095 9.00798 3.69819 9.09971 3.32199L 9.8442 0L 12.2223 0L 10.2112 6.64743L 7.24378 6.64743L 6.45871 3.2357C 6.35462 2.77494 6.22407 2.13643 6.14468 1.68256L 6.11999 1.68256C 6.02825 2.12952 5.91181 2.76976 5.79361 3.2357L 4.93974 6.6526L 1.97766 6.6526Z"/>
<path id="path13_fill" d="M -4.30711e-06 2.21753L 1.35843 2.21753L 1.35843 0.716169L 3.59366 2.63322e-07L 3.59366 2.21753L 5.23083 2.21753L 5.23083 3.79138L 3.59896 3.79138L 3.59896 6.3972C 3.59896 6.91491 3.7295 7.40674 4.51281 7.40674C 4.75894 7.40737 5.00443 7.38191 5.24495 7.33081L 5.32434 8.82527C 4.85038 8.91453 4.36916 8.96189 3.88652 8.96678C 2.07116 8.96678 1.25963 8.21092 1.25963 6.56286L 1.25963 3.79656L 0.00529344 3.79656L -4.30711e-06 2.21753Z"/>
<path id="path14_fill" d="M 2.30757 4.12962C 2.54729 3.74767 2.881 3.43053 3.27823 3.20716C 3.67546 2.98379 4.12355 2.8613 4.58161 2.85087C 6.23996 2.85087 7.20674 3.8466 7.20674 5.67758L 7.20674 9.66396L 4.85859 9.66396L 4.85859 6.50592C 4.85859 5.27894 4.60984 4.6922 3.77361 4.6922C 3.53092 4.67753 3.28929 4.73429 3.07987 4.85516C 2.87046 4.97604 2.70286 5.1555 2.59866 5.3704C 2.39049 5.76559 2.33755 6.30228 2.33755 6.81482L 2.33755 9.66396L -3.01498e-06 9.66396L -3.01498e-06 5.26644e-07L 2.3252 5.26644e-07L 2.3252 1.99492C 2.3252 2.6317 2.31286 3.44969 2.2864 4.12789L 2.30757 4.12962Z"/>
</defs>
</svg>
