<svg width="16" height="12" viewBox="0 0 16 12" version="1.1" xmlns="http://www.w3.org/2000/svg" xmlns:xlink="http://www.w3.org/1999/xlink">
<title>mail</title>
<desc>Created using Figma</desc>
<g id="Canvas" transform="translate(-16055 -675)">
<g id="mail">
<g id="Group">
<g id="Vector">
<use xlink:href="#path0_fill" transform="translate(16055 675)" fill="#E5E5DA"/>
</g>
<g id="Vector">
<use xlink:href="#path1_fill" transform="translate(16055.4 685.759)" fill="#7FB1C8"/>
</g>
<g id="Vector">
<use xlink:href="#path2_fill" transform="translate(16057.4 685.759)" fill="#E59677"/>
</g>
<g id="Vector">
<use xlink:href="#path3_fill" transform="translate(16059.3 685.759)" fill="#7FB1C8"/>
</g>
<g id="Vector">
<use xlink:href="#path3_fill" transform="translate(16061.2 685.759)" fill="#E59677"/>
</g>
<g id="Vector">
<use xlink:href="#path4_fill" transform="translate(16063.2 685.759)" fill="#7FB1C8"/>
</g>
<g id="Vector">
<use xlink:href="#path5_fill" transform="translate(16065.1 685.759)" fill="#E59677"/>
</g>
<g id="Vector">
<use xlink:href="#path5_fill" transform="translate(16067 685.759)" fill="#7FB1C8"/>
</g>
<g id="Vector">
<use xlink:href="#path5_fill" transform="translate(16069 685.759)" fill="#E59677"/>
</g>
<g id="Vector">
<use xlink:href="#path6_fill" transform="translate(16055.6 675)" fill="#7FB1C8"/>
</g>
<g id="Vector">
<use xlink:href="#path7_fill" transform="translate(16057.5 675)" fill="#E59677"/>
</g>
<g id="Vector">
<use xlink:href="#path8_fill" transform="translate(16059.4 675)" fill="#7FB1C8"/>
</g>
<g id="Vector">
<use xlink:href="#path8_fill" transform="translate(16061.3 675)" fill="#E59677"/>
</g>
<g id="Vector">
<use xlink:href="#path9_fill" transform="translate(16063.3 675)" fill="#7FB1C8"/>
</g>
<g id="Vector">
<use xlink:href="#path9_fill" transform="translate(16065.2 675)" fill="#E59677"/>
</g>
<g id="Vector">
<use xlink:href="#path9_fill" transform="translate(16067.1 675)" fill="#7FB1C8"/>
</g>
<g id="Vector">
<use xlink:href="#path9_fill" transform="translate(16069.1 675)" fill="#E59677"/>
</g>
<g id="Vector">
<use xlink:href="#path10_fill" transform="translate(16066.9 678.31)" fill="#D75A4A"/>
</g>
<g id="Vector">
<use xlink:href="#path11_fill" transform="translate(16056.7 679.414)" fill="#C4C2A5"/>
</g>
<g id="Vector">
<use xlink:href="#path11_fill" transform="translate(16056.7 680.793)" fill="#C4C2A5"/>
</g>
<g id="Vector">
<use xlink:href="#path12_fill" transform="translate(16056.7 678.034)" fill="#C4C2A5"/>
</g>
</g>
</g>
</g>
<defs>
<path id="path0_fill" d="M 15.5625 0L 14.5399 1.02262C 14.4861 1.07641 14.4154 1.10345 14.3448 1.10345C 14.2742 1.10345 14.2036 1.07641 14.1498 1.02262C 14.0419 0.914759 14.0419 0.740414 14.1498 0.632552L 14.7823 0L 13.6314 0L 12.6088 1.02262C 12.555 1.07641 12.4844 1.10345 12.4138 1.10345C 12.3432 1.10345 12.2726 1.07641 12.2188 1.02262C 12.1109 0.914759 12.1109 0.740414 12.2188 0.632552L 12.8513 0L 11.7004 0L 10.6778 1.02262C 10.624 1.07641 10.5534 1.10345 10.4828 1.10345C 10.4121 1.10345 10.3415 1.07641 10.2877 1.02262C 10.1799 0.914759 10.1799 0.740414 10.2877 0.632552L 10.9203 0L 9.76938 0L 8.74676 1.02262C 8.69297 1.07641 8.62234 1.10345 8.55172 1.10345C 8.4811 1.10345 8.41048 1.07641 8.35669 1.02262C 8.24883 0.914759 8.24883 0.740414 8.35669 0.632552L 8.98924 0L 7.83834 0L 6.81572 1.02262C 6.76193 1.07641 6.69131 1.10345 6.62069 1.10345C 6.55007 1.10345 6.47945 1.07641 6.42565 1.02262C 6.31779 0.914759 6.31779 0.740414 6.42565 0.632552L 7.05821 0L 5.90731 0L 4.88469 1.02262C 4.8309 1.07641 4.76028 1.10345 4.68966 1.10345C 4.61903 1.10345 4.54841 1.07641 4.49462 1.02262C 4.38676 0.914759 4.38676 0.740414 4.49462 0.632552L 5.12717 0L 3.97628 0L 2.95366 1.02262C 2.89986 1.07641 2.82924 1.10345 2.75862 1.10345C 2.688 1.10345 2.61738 1.07641 2.56359 1.02262C 2.45572 0.914759 2.45572 0.740414 2.56359 0.632552L 3.19614 0L 2.04524 0L 1.02262 1.02262C 0.968828 1.07641 0.898207 1.10345 0.827586 1.10345C 0.756966 1.10345 0.686345 1.07641 0.632552 1.02262C 0.52469 0.914759 0.52469 0.740414 0.632552 0.632552L 1.2651 0L 0 0L 0 0.0286897L 0 11.8621L 0.437517 11.8621L 1.46014 10.8394C 1.568 10.7316 1.74234 10.7316 1.85021 10.8394C 1.95807 10.9473 1.95807 11.1217 1.85021 11.2295L 1.21766 11.8621L 2.36855 11.8621L 3.39117 10.8394C 3.49903 10.7316 3.67338 10.7316 3.78124 10.8394C 3.8891 10.9473 3.8891 11.1217 3.78124 11.2295L 3.14869 11.8621L 4.29959 11.8621L 5.32221 10.8394C 5.43007 10.7316 5.60441 10.7316 5.71228 10.8394C 5.82014 10.9473 5.82014 11.1217 5.71228 11.2295L 5.07972 11.8621L 6.23062 11.8621L 7.25324 10.8394C 7.3611 10.7316 7.53545 10.7316 7.64331 10.8394C 7.75117 10.9473 7.75117 11.1217 7.64331 11.2295L 7.01076 11.8621L 8.16166 11.8621L 9.18428 10.8394C 9.29214 10.7316 9.46648 10.7316 9.57434 10.8394C 9.68221 10.9473 9.68221 11.1217 9.57434 11.2295L 8.94179 11.8621L 10.0927 11.8621L 11.1153 10.8394C 11.2232 10.7316 11.3975 10.7316 11.5054 10.8394C 11.6132 10.9473 11.6132 11.1217 11.5054 11.2295L 10.8728 11.8621L 12.0237 11.8621L 13.0463 10.8394C 13.1542 10.7316 13.3286 10.7316 13.4364 10.8394C 13.5443 10.9473 13.5443 11.1217 13.4364 11.2295L 12.8039 11.8621L 13.9548 11.8621L 14.9774 10.8394C 15.0852 10.7316 15.2596 10.7316 15.3674 10.8394C 15.4753 10.9473 15.4753 11.1217 15.3674 11.2295L 14.7349 11.8621L 16 11.8621L 16 0.0286897L 16 0L 15.5625 0Z"/>
<path id="path1_fill" d="M 1.41269 0.0808963C 1.30483 -0.0269657 1.13048 -0.0269657 1.02262 0.0808963L -9.47097e-09 1.10352L 0.780138 1.10352L 1.41269 0.470966C 1.52055 0.363104 1.52055 0.188758 1.41269 0.0808963Z"/>
<path id="path2_fill" d="M 1.41269 0.0808963C 1.30483 -0.0269657 1.13048 -0.0269657 1.02262 0.0808963L 1.2207e-07 1.10352L 0.780138 1.10352L 1.41269 0.470966C 1.52055 0.363104 1.52055 0.188758 1.41269 0.0808963Z"/>
<path id="path3_fill" d="M 1.41269 0.0808963C 1.30483 -0.0269657 1.13048 -0.0269657 1.02262 0.0808963L 1.2207e-07 1.10352L 0.780138 1.10352L 1.41269 0.470966C 1.52055 0.363104 1.52055 0.188758 1.41269 0.0808963Z"/>
<path id="path4_fill" d="M 1.41269 0.0808963C 1.30483 -0.0269657 1.13048 -0.0269657 1.02262 0.0808963L 1.2207e-07 1.10352L 0.780138 1.10352L 1.41269 0.470966C 1.52055 0.363104 1.52055 0.188758 1.41269 0.0808963Z"/>
<path id="path5_fill" d="M 1.41269 0.0808963C 1.30483 -0.0269657 1.13048 -0.0269657 1.02262 0.0808963L -4.04095e-07 1.10352L 0.780138 1.10352L 1.41269 0.470966C 1.52055 0.363104 1.52055 0.188758 1.41269 0.0808963Z"/>
<path id="path6_fill" d="M 0.0808965 1.02262C 0.13469 1.07641 0.20531 1.10345 0.275931 1.10345C 0.346552 1.10345 0.417172 1.07641 0.470965 1.02262L 1.49359 0L 0.713448 0L 0.0808965 0.632552C -0.0269655 0.740414 -0.0269655 0.914759 0.0808965 1.02262Z"/>
<path id="path7_fill" d="M 0.0808966 1.02262C 0.13469 1.07641 0.20531 1.10345 0.275931 1.10345C 0.346552 1.10345 0.417172 1.07641 0.470965 1.02262L 1.49359 0L 0.713448 0L 0.0808966 0.632552C -0.0269655 0.740414 -0.0269655 0.914759 0.0808966 1.02262Z"/>
<path id="path8_fill" d="M 0.0808963 1.02262C 0.134689 1.07641 0.20531 1.10345 0.275931 1.10345C 0.346552 1.10345 0.417173 1.07641 0.470966 1.02262L 1.49359 0L 0.713448 0L 0.0808963 0.632552C -0.0269657 0.740414 -0.0269657 0.914759 0.0808963 1.02262Z"/>
<path id="path9_fill" d="M 0.0808963 1.02262C 0.134689 1.07641 0.20531 1.10345 0.275931 1.10345C 0.346552 1.10345 0.417173 1.07641 0.470966 1.02262L 1.49359 0L 0.713448 0L 0.0808963 0.632552C -0.0269657 0.740414 -0.0269657 0.914759 0.0808963 1.02262Z"/>
<path id="path10_fill" d="M 2.2069 0L 0 0L 0 2.2069L 2.2069 2.2069L 2.2069 0Z"/>
<path id="path11_fill" d="M 5.7931 0.551724L 0.275862 0.551724C 0.123586 0.551724 0 0.428414 0 0.275862C 0 0.12331 0.123586 0 0.275862 0L 5.7931 0C 5.94538 0 6.06897 0.12331 6.06897 0.275862C 6.06897 0.428414 5.94538 0.551724 5.7931 0.551724Z"/>
<path id="path12_fill" d="M 2.48276 0.551724L 0.275862 0.551724C 0.123586 0.551724 0 0.428414 0 0.275862C 0 0.12331 0.123586 0 0.275862 0L 2.48276 0C 2.63503 0 2.75862 0.12331 2.75862 0.275862C 2.75862 0.428414 2.63503 0.551724 2.48276 0.551724Z"/>
</defs>
</svg>
