<svg width="32" height="32" viewBox="0 0 17 16" version="1.1" xmlns="http://www.w3.org/2000/svg" xmlns:xlink="http://www.w3.org/1999/xlink">
<title>messenger</title>
<desc>Created using Figma</desc>
<g id="Canvas" transform="translate(-16054 -622)">
<g id="messenger">
<g id="Vector">
<use xlink:href="#path0_fill" transform="translate(16054 622)" fill="#3AD5F9"/>
</g>
<g id="Vector">
<use xlink:href="#path1_fill" transform="translate(16054 622.612)" fill="#0382F9"/>
</g>
<g id="Group">
<g id="Vector">
<use xlink:href="#path2_fill" transform="translate(16063 627.591)" fill="#0656F7"/>
</g>
<g id="Vector">
<use xlink:href="#path3_fill" transform="translate(16054.9 626.464)" fill="#0656F7"/>
</g>
</g>
</g>
</g>
<defs>
<path id="path0_fill" d="M 8.03022 4.54131e-10C 3.61219 4.54131e-10 0 3.31657 0 7.40749C 0 9.73841 1.17308 11.8179 2.95086 13.1759L 2.95086 16L 5.70565 14.5051C 6.43251 14.7065 7.21778 14.815 8.01524 14.815C 12.4333 14.815 16.0229 11.4984 16.0229 7.40749C 16.0229 3.31657 12.4483 4.54131e-10 8.03022 4.54131e-10ZM 8.82565 9.97537L 6.78806 7.80241L 2.81295 9.97537L 7.18578 5.33333L 9.27264 7.50629L 13.1982 5.33333L 8.82565 9.97537Z"/>
<path id="path1_fill" d="M 8.03022 2.27671e-08C 3.61219 2.27671e-08 0 2.704 0 6.79517C 0 9.1261 1.17308 11.2056 2.95086 12.5636L 2.95086 15.3877L 5.70565 13.8928C 6.43251 14.0942 7.21778 14.2027 8.01524 14.2027C 12.4333 14.2027 16.0229 10.8861 16.0229 6.79517C 16.0229 2.70425 12.4483 2.27671e-08 8.03022 2.27671e-08ZM 8.82565 9.36305L 6.78806 7.1901L 2.81295 9.36305L 7.18578 4.72102L 9.27264 6.89397L 13.1982 4.72102L 8.82565 9.36305Z"/>
<path id="path2_fill" d="M 3.73536 2.09263e-07L -1.93762e-07 1.62768L 0.27581 1.91467L 3.73536 2.09263e-07Z"/>
<path id="path3_fill" d="M 12.2484 0.962539L 7.96343 5.51162L 6.17803 3.60787L 2.50565 5.20813L 1.95073 5.51162L 2.04902 5.40724L -4.84406e-09 6.28698C 0.515556 7.22819 1.21956 8.05968 2.08863 8.71213L 2.08863 11.5363L 4.84343 10.0414C 5.57029 10.2428 6.35556 10.3512 7.15302 10.3512C 11.571 10.3512 15.1606 7.03467 15.1606 2.94375C 15.1606 1.89003 14.8823 0.907429 14.4541 7.36297e-08L 12.2484 0.962539Z"/>
</defs>
</svg>
