<svg width="40" height="40" viewBox="0 0 40 40" version="1.1" xmlns="http://www.w3.org/2000/svg" xmlns:xlink="http://www.w3.org/1999/xlink">
<title>Group 3</title>
<desc>Created using Figma</desc>
<g id="Canvas" transform="translate(-16306 -509)">
<g id="Group 3">
<g id="Rectangle 9" filter="url(#filter0_d)">
<use xlink:href="#path0_fill" transform="translate(16310 511)" fill="#FFFFFF"/>
<mask id="mask0_outline_ins">
<use xlink:href="#path0_fill" fill="white" transform="translate(16310 511)"/>
</mask>
<g mask="url(#mask0_outline_ins)">
<use xlink:href="#path1_stroke_2x" transform="translate(16310 511)" fill="#F65A4C"/>
</g>
</g>
<g id="loss">
<g id="Group">
<g id="Group">
<g id="Vector">
<use xlink:href="#path2_fill" transform="translate(16318.8 523.865)" fill="#F65A4C"/>
</g>
<g id="Vector">
<use xlink:href="#path3_fill" transform="translate(16322.6 527.59)" fill="#F65A4C"/>
</g>
<g id="Vector">
<use xlink:href="#path4_fill" transform="translate(16330.1 531.394)" fill="#F65A4C"/>
</g>
<g id="Vector">
<use xlink:href="#path5_fill" transform="translate(16326.3 527.815)" fill="#F65A4C"/>
</g>
<g id="Vector">
<use xlink:href="#path6_fill" transform="translate(16318 520)" fill="#F65A4C"/>
</g>
</g>
</g>
</g>
</g>
</g>
<defs>
<filter id="filter0_d" filterUnits="userSpaceOnUse" x="16306" y="509" width="40" height="40" color-interpolation-filters="sRGB">
<feFlood flood-opacity="0" result="BackgroundImageFix"/>
<feColorMatrix in="SourceAlpha" type="matrix" values="0 0 0 0 0 0 0 0 0 0 0 0 0 0 0 0 0 0 255 0"/>
<feOffset dx="0" dy="2"/>
<feGaussianBlur stdDeviation="2"/>
<feColorMatrix type="matrix" values="0 0 0 0 0 0 0 0 0 0 0 0 0 0 0 0 0 0 0.25 0"/>
<feBlend mode="normal" in2="BackgroundImageFix" result="effect1_dropShadow"/>
<feBlend mode="normal" in="SourceGraphic" in2="effect1_dropShadow" result="shape"/>
</filter>
<path id="path0_fill" d="M 0 16C 0 7.16344 7.16344 0 16 0C 24.8366 0 32 7.16344 32 16C 32 24.8366 24.8366 32 16 32C 7.16344 32 0 24.8366 0 16Z"/>
<path id="path1_stroke_2x" d="M 16 -5C 4.40202 -5 -5 4.40202 -5 16L 5 16C 5 9.92487 9.92487 5 16 5L 16 -5ZM 16 5C 22.0751 5 27 9.92487 27 16L 37 16C 37 4.40202 27.598 -5 16 -5L 16 5ZM 27 16C 27 22.0751 22.0751 27 16 27L 16 37C 27.598 37 37 27.598 37 16L 27 16ZM 16 27C 9.92487 27 5 22.0751 5 16L -5 16C -5 27.598 4.40202 37 16 37L 16 27Z"/>
<path id="path2_fill" d="M 0 10.3145C 0 10.5518 0.194193 10.7436 0.434465 10.7436L 2.28094 10.7436C 2.52122 10.7436 2.71541 10.5518 2.71541 10.3145L 2.71541 2.68184L 0 1.23013e-07C -4.67737e-16 1.23013e-07 0 10.3145 0 10.3145Z"/>
<path id="path3_fill" d="M 2.00891e-07 -1.74599e-07L 2.00891e-07 6.58919C 2.00891e-07 6.82649 0.194193 7.01829 0.434465 7.01829L 2.28094 7.01829C 2.52122 7.01829 2.71541 6.82649 2.71541 6.58919L 2.71541 2.0707C 2.25461 2.01219 1.83002 1.81065 1.49759 1.48232L 2.00891e-07 -1.74599e-07Z"/>
<path id="path4_fill" d="M -2.00891e-07 -1.74599e-07L -2.00891e-07 2.78586C -2.00891e-07 3.02316 0.194193 3.21495 0.434466 3.21495L 2.28094 3.21495C 2.52122 3.21495 2.71541 3.02316 2.71541 2.78586L 2.71541 0.13653C 1.89256 0.0975216 1.06971 0.0617637 0.246855 0.0227552C 0.190901 0.0195045 0.102033 0.0130027 -2.00891e-07 -1.74599e-07Z"/>
<path id="path5_fill" d="M 2.67591 0.698902L 1.96826 -3.73006e-07L 0.694486 1.25803C 0.49371 1.45632 0.256729 1.6091 -1.00446e-07 1.71312L -1.00446e-07 6.36489C -1.00446e-07 6.60219 0.194193 6.79399 0.434465 6.79399L 2.28094 6.79399C 2.52122 6.79399 2.71541 6.60219 2.71541 6.36489L 2.71541 3.05567C 2.58046 2.91589 2.46855 2.7566 2.38298 2.57456C 2.24145 2.26249 1.9913 1.47582 2.67591 0.698902Z"/>
<path id="path6_fill" d="M 15.9987 9.69687L 15.9526 8.75091C 15.923 8.12028 15.8934 7.49289 15.8637 6.86225C 15.8572 6.71597 15.8308 6.52743 15.6794 6.38115C 15.6399 6.34214 15.5906 6.30313 15.5346 6.27387C 15.4523 6.22836 15.37 6.20886 15.291 6.20886C 15.1001 6.20886 14.9751 6.33239 14.8862 6.42015L 14.6788 6.62495C 14.511 6.79074 14.3464 6.95327 14.1785 7.11906C 14.1621 7.13531 14.1456 7.14831 14.1292 7.16457L 10.9003 3.97562C 10.739 3.81633 10.5251 3.72857 10.3013 3.72857C 10.0775 3.72857 9.86023 3.81633 9.70224 3.97562L 7.54637 6.10484L 1.61197 0.247054C 1.45069 0.0877692 1.24004 1.14084e-08 1.01293 1.14084e-08C 0.785823 1.14084e-08 0.571882 0.0877692 0.410603 0.247054L 0.249324 0.406339C -0.083108 0.734661 -0.083108 1.26453 0.249324 1.59285L 6.94075 8.20154C 7.10203 8.36083 7.31268 8.4486 7.53979 8.4486C 7.76689 8.4486 7.98083 8.36083 8.14211 8.20154L 10.298 6.07233L 12.7665 8.51036C 12.5921 8.6794 12.4209 8.84844 12.2498 9.02072L 12.0029 9.26453C 11.9042 9.36205 11.7001 9.56359 11.8482 9.87241C 11.8779 9.93417 11.9141 9.98618 11.9569 10.0284C 12.0984 10.1682 12.2794 10.178 12.4078 10.1812C 13.3886 10.2267 14.3727 10.2722 15.3536 10.3178C 15.37 10.3178 15.3898 10.3178 15.4095 10.3178C 15.6037 10.3178 15.7551 10.2657 15.8572 10.1585C 15.9625 10.0512 16.0086 9.89842 15.9987 9.69687Z"/>
</defs>
</svg>
