<svg width="32" height="32" viewBox="0 0 32 32" version="1.1" xmlns="http://www.w3.org/2000/svg" xmlns:xlink="http://www.w3.org/1999/xlink">
<title>facebook</title>
<desc>Created using Figma</desc>
<g id="Canvas" transform="translate(-17695 1294)">
<g id="facebook">
<g id="Vector">
<use xlink:href="#path0_fill" transform="translate(17695 -1294)" fill="#475993"/>
</g>
</g>
</g>
<defs>
<path id="path0_fill" d="M 27.6876 0L 4.31206 0C 1.93062 0 7.43622e-12 1.93055 7.43622e-12 4.31206L 7.43622e-12 27.6878C 7.43622e-12 30.0693 1.93055 31.9998 4.31206 31.9998L 15.8408 31.9998L 15.8604 20.5648L 12.8896 20.5648C 12.5035 20.5648 12.1902 20.2526 12.1887 19.8666L 12.1744 16.1806C 12.173 15.7924 12.4873 15.4769 12.8754 15.4769L 15.8409 15.4769L 15.8409 11.9153C 15.8409 7.78215 18.3652 5.53159 22.0522 5.53159L 25.0778 5.53159C 25.4649 5.53159 25.7788 5.84542 25.7788 6.23259L 25.7788 9.34063C 25.7788 9.72764 25.4651 10.0414 25.0782 10.0416L 23.2214 10.0425C 21.2163 10.0425 20.828 10.9953 20.828 12.3936L 20.828 15.477L 25.234 15.477C 25.6538 15.477 25.9795 15.8436 25.9301 16.2605L 25.4932 19.9465C 25.4514 20.2992 25.1523 20.565 24.7971 20.565L 20.8477 20.565L 20.828 32L 27.6878 32C 30.0692 32 31.9998 30.0695 31.9998 27.688L 31.9998 4.31206C 31.9997 1.93055 30.0691 0 27.6876 0Z"/>
</defs>
</svg>
