<svg width="16" height="16" viewBox="0 0 16 16" version="1.1" xmlns="http://www.w3.org/2000/svg" xmlns:xlink="http://www.w3.org/1999/xlink">
<title>pencil (1)</title>
<desc>Created using Figma</desc>
<g id="Canvas" transform="translate(-19973 -1421)">
<g id="pencil (1)">
<g id="Group">
<g id="Group">
<g id="Vector">
<use xlink:href="#path0_fill" transform="translate(19973 1421)" fill="#B0BEC5"/>
</g>
</g>
</g>
</g>
</g>
<defs>
<path id="path0_fill" d="M 7.99973 0C 3.58165 0 2.5332e-12 3.58192 2.5332e-12 7.99984C 2.5332e-12 12.4178 3.58165 16 7.99973 16C 12.4178 16 15.9999 12.418 15.9999 7.99984C 15.9999 3.58171 12.4178 0 7.99973 0ZM 11.8027 5.75707L 11.0429 6.51691L 9.49616 4.97029L 8.90939 5.55707L 10.4561 7.10379L 6.6624 10.8972L 5.11579 9.35072L 4.52901 9.93749L 6.07563 11.4841L 5.6976 11.8621L 5.6904 11.8549C 5.64848 11.9239 5.58032 11.9743 5.49936 11.9923L 4.05707 12.3139C 4.03547 12.3187 4.01349 12.3211 3.99179 12.3211C 3.91307 12.3211 3.83659 12.2901 3.77989 12.2332C 3.70715 12.1607 3.67685 12.0561 3.69925 11.9557L 4.02069 10.5139C 4.03883 10.433 4.08928 10.3646 4.15819 10.3228L 4.15088 10.3155L 10.2559 4.21019C 10.3454 4.12085 10.4908 4.12085 10.5803 4.21045L 11.8028 5.43269C 11.8923 5.52219 11.8923 5.66757 11.8027 5.75707Z"/>
</defs>
</svg>
