<svg width="128" height="128" viewBox="0 0 128 128" version="1.1" xmlns="http://www.w3.org/2000/svg" xmlns:xlink="http://www.w3.org/1999/xlink">
<title>037-rocket-2</title>
<desc>Created using Figma</desc>
<g id="Canvas" transform="translate(-14458 -2260)">
<g id="037-rocket-2">
<g id="Vector">
<use xlink:href="#path0_fill" transform="translate(14458 2260)" fill="#2B88A0"/>
</g>
<g id="Vector">
<use xlink:href="#path1_fill" transform="matrix(-0.7071 -0.7071 0.7071 -0.7071 14539.8 2349.26)" fill="#FFFFFF"/>
</g>
<g id="Vector">
<use xlink:href="#path2_fill" transform="translate(14508 2282.08)" fill="#27536B"/>
</g>
<g id="Group">
<g id="Vector">
<use xlink:href="#path3_fill" transform="translate(14551.6 2302.53)" fill="#FFFFFF"/>
</g>
<g id="Vector">
<use xlink:href="#path4_fill" transform="translate(14475.2 2325.5)" fill="#FFFFFF"/>
</g>
<g id="Vector">
<use xlink:href="#path5_fill" transform="translate(14489.4 2270.96)" fill="#FFFFFF"/>
</g>
<g id="Vector">
<use xlink:href="#path6_fill" transform="matrix(-0.7071 -0.7071 0.7071 -0.7071 14581.3 2326.9)" fill="#FFFFFF"/>
</g>
<g id="Vector">
<use xlink:href="#path7_fill" transform="matrix(-0.7071 -0.7071 0.7071 -0.7071 14536.1 2337.77)" fill="#FFFFFF"/>
</g>
<g id="Vector">
<use xlink:href="#path8_fill" transform="matrix(-0.7071 -0.7071 0.7071 -0.7071 14564.4 2335.27)" fill="#FFFFFF"/>
</g>
<g id="Vector">
<use xlink:href="#path9_fill" transform="matrix(-0.7071 -0.7071 0.7071 -0.7071 14541.4 2273.16)" fill="#FFFFFF"/>
</g>
<g id="Vector">
<use xlink:href="#path10_fill" transform="matrix(-0.7071 -0.7071 0.7071 -0.7071 14473.8 2312.37)" fill="#FFFFFF"/>
</g>
</g>
<g id="Vector">
<use xlink:href="#path11_fill" transform="translate(14467.7 2346.76)" fill="#27536B"/>
</g>
<g id="Group">
<g id="Vector">
<use xlink:href="#path12_fill" transform="translate(14467.1 2311.31)" fill="#FFFFFF"/>
</g>
<g id="Vector">
<use xlink:href="#path13_fill" transform="translate(14535.9 2282.52)" fill="#FFFFFF"/>
</g>
<g id="Vector">
<use xlink:href="#path14_fill" transform="translate(14459.4 2261.43)" fill="#FFFFFF"/>
</g>
</g>
</g>
</g>
<defs>
<path id="path0_fill" d="M 128 63.9985C 128 75.396 125.019 86.0965 119.798 95.3678C 119.706 95.5315 119.614 95.6952 119.52 95.8562C 119.425 96.02 119.331 96.1837 119.237 96.3447C 117.463 99.3647 115.451 102.227 113.221 104.905C 110.429 108.261 107.301 111.328 103.886 114.051C 102.035 115.531 100.1 116.908 98.0908 118.174C 96.6085 119.112 95.0845 119.986 93.5218 120.799C 84.6893 125.399 74.6493 128 64.0015 128C 53.3538 128 43.3107 125.399 34.4782 120.799C 32.821 119.936 31.2083 119.004 29.6427 118.004C 25.3625 115.276 21.4265 112.05 17.9205 108.411C 16.8325 107.281 15.7832 106.113 14.781 104.906C 13.1128 102.901 11.5637 100.792 10.1482 98.5878C 10.0872 98.4905 10.0232 98.3935 9.96225 98.2962C 9.85675 98.138 9.75675 97.9798 9.657 97.8187C 9.557 97.6577 9.45725 97.4967 9.36 97.3357C 9.27125 97.1887 9.18225 97.0415 9.0935 96.8945C 5.9235 91.6205 3.49475 85.8467 1.9485 79.7262C 1.75975 78.988 1.58775 78.2467 1.42675 77.5C 0.49125 73.1475 0 68.6315 0 63.9985C 0 28.6518 28.6545 0 64.0015 0C 68.6315 0 73.1475 0.49125 77.5 1.42675C 78.2467 1.58775 78.9877 1.75975 79.7262 1.9485C 92.7975 5.249 104.267 12.5715 112.742 22.5228C 113.163 23.0168 113.577 23.5193 113.985 24.0273C 122.754 34.9777 128 48.876 128 63.9985Z"/>
<path id="path1_fill" d="M 1.943 -2.92969e-06L 0 -2.92969e-06L 0 24.2268L 1.943 24.2268L 1.943 -2.92969e-06Z"/>
<path id="path2_fill" d="M 37.2087 0.681694C 33.0217 -1.30831 25.7132 1.15394 19.0845 6.82294C 18.2945 7.49769 17.5168 8.21619 16.7535 8.97969C 16.6008 9.13244 16.4495 9.28669 16.3 9.43944C 15.6215 10.1394 14.9838 10.8527 14.3793 11.5722L 10.804 11.4232L 1.64795e-06 21.1884L 8.4 22.1034C 8.3135 22.4014 8.23325 22.6974 8.16425 22.9889C 7.96625 23.8224 7.843 24.6249 7.7965 25.3917C 8.89825 25.6612 9.94225 26.2254 10.804 27.0872C 11.6642 27.9474 12.2283 28.9914 12.4978 30.0932C 13.2818 30.0449 14.1075 29.9172 14.963 29.7099C 15.2345 29.6447 15.5095 29.5709 15.7868 29.4904L 16.7018 37.8907L 26.467 27.0867L 26.318 23.5102C 27.0373 22.9059 27.75 22.2682 28.45 21.5902C 28.6027 21.4407 28.757 21.2897 28.9098 21.1369C 29.6735 20.3734 30.3918 19.5959 31.0665 18.8059C 36.7352 12.1754 39.1987 4.86869 37.2087 0.681694Z"/>
<path id="path3_fill" d="M 8.77225 8.7725L 15.9563 7.97825L 8.77225 7.184L 7.978 1.2207e-06L 7.184 7.184L 0 7.97825L 7.184 8.7725L 7.978 15.9565L 8.77225 8.7725Z"/>
<path id="path4_fill" d="M 8.7725 8.7725L 15.9562 7.97825L 8.7725 7.184L 7.978 1.09863e-06L 7.184 7.184L 3.05176e-07 7.97825L 7.184 8.7725L 7.978 15.9565L 8.7725 8.7725Z"/>
<path id="path5_fill" d="M 8.7725 8.7725L 15.9565 7.97825L 8.7725 7.184L 7.97825 5.34058e-08L 7.184 7.184L 5.79834e-07 7.97825L 7.184 8.7725L 7.97825 15.9565L 8.7725 8.7725Z"/>
<path id="path6_fill" d="M 2.5905 0L 0 0L 0 2.5905L 2.5905 2.5905L 2.5905 0Z"/>
<path id="path7_fill" d="M 2.5905 0L -1.95313e-06 0L -1.95313e-06 2.5905L 2.5905 2.5905L 2.5905 0Z"/>
<path id="path8_fill" d="M 2.5905 0L -1.95313e-06 0L -1.95313e-06 2.5905L 2.5905 2.5905L 2.5905 0Z"/>
<path id="path9_fill" d="M 2.5905 0L 0 0L 0 2.5905L 2.5905 2.5905L 2.5905 0Z"/>
<path id="path10_fill" d="M 2.5905 0L 0 0L 0 2.5905L 2.5905 2.5905L 2.5905 0Z"/>
<path id="path11_fill" d="M 106.704 7.911L 93.037 14.7332C 93.0365 14.7332 93.036 14.733 93.0353 14.7328L 90.8843 9.16L 81.7243 9.16L 81.7243 4.1635L 70.066 0.832499L 67.0488 9.97325L 67.047 9.97425C 62.8628 9.6045 58.6268 9.41525 54.3468 9.41525L 52.995 5.4125L 46.336 5.4125L 46.336 2.13623e-06L 36.135 2.13623e-06L 36.135 10.5705C 34.2955 10.8052 32.4665 11.0735 30.6495 11.3775L 27.1833 7.911L 19.2723 7.911L 18.6713 13.9195C 17.473 14.2285 16.281 14.552 15.0953 14.8913L 10.945 7.07825L -4.11987e-07 11.0587C 1.549 13.5402 3.2615 15.908 5.124 18.1453C 6.126 19.3528 7.17525 20.5213 8.2635 21.651C 8.651 22.053 9.0455 22.448 9.443 22.8395C 9.5535 22.9483 9.66425 23.0562 9.7755 23.1645C 10.1293 23.5077 10.4865 23.848 10.8478 24.1833C 10.9005 24.2325 10.9525 24.2822 11.0055 24.3312C 11.4138 24.707 11.828 25.0765 12.246 25.4418C 12.3545 25.5368 12.464 25.6308 12.573 25.725C 12.942 26.043 13.3138 26.3572 13.69 26.6675C 13.755 26.721 13.819 26.7755 13.884 26.8288C 14.3243 27.1885 14.7698 27.5415 15.2198 27.8897C 15.308 27.958 15.397 28.0255 15.486 28.0932C 15.8918 28.4042 16.3015 28.7102 16.715 29.0115C 16.7758 29.0557 16.836 29.101 16.8968 29.1447C 17.3733 29.4892 17.855 29.8272 18.3413 30.159C 18.3973 30.197 18.454 30.2345 18.51 30.2725C 18.962 30.5788 19.418 30.8788 19.8783 31.1735C 19.9143 31.1965 19.9495 31.2212 19.9858 31.2442L 19.9885 31.2442C 21.555 32.243 23.166 33.1775 24.8213 34.0392C 33.6538 38.6387 43.6965 41.2397 54.3445 41.2397C 64.9925 41.2397 75.0325 38.6387 83.865 34.0392C 85.4253 33.2267 86.9458 32.348 88.4278 31.4132L 88.4338 31.4132C 88.5163 31.3612 88.5968 31.3065 88.6788 31.254C 89.0085 31.044 89.3365 30.831 89.6623 30.615C 89.8278 30.5052 89.9928 30.3953 90.1573 30.2843C 90.457 30.0815 90.7543 29.8755 91.0503 29.6677C 91.2198 29.549 91.39 29.4307 91.5583 29.31C 91.8638 29.091 92.1663 28.868 92.4675 28.6437C 92.6155 28.5337 92.765 28.4255 92.9123 28.3142C 93.3555 27.9787 93.7953 27.6382 94.2293 27.2915C 97.6435 24.5685 100.772 21.5013 103.564 18.1453C 105.913 15.3223 108.022 12.2967 109.863 9.09625L 106.704 7.911Z"/>
<path id="path12_fill" d="M 46.9608 1.374L 1.05475 47.28C 0.99375 47.1828 0.92975 47.0858 0.86875 46.9885C 0.76325 46.8302 0.66325 46.672 0.5635 46.511C 0.4635 46.35 0.36375 46.189 0.2665 46.028C 0.17775 45.881 0.0887501 45.7337 1.37329e-07 45.5868L 45.5868 7.01904e-07L 46.9608 1.374Z"/>
<path id="path13_fill" d="M 36.0353 1.5045L 1.374 36.163L 2.80762e-06 34.789L 34.7918 8.54492e-07C 35.2138 0.494001 35.6273 0.9965 36.0353 1.5045Z"/>
<path id="path14_fill" d="M 78.2995 0.52175L 0.52175 78.2995C 0.333 77.5612 0.161 76.82 -5.53131e-08 76.0732L 76.0732 -5.53131e-08C 76.82 0.161 77.5612 0.333 78.2995 0.52175Z"/>
</defs>
</svg>
