<svg width="101" height="160" viewBox="0 0 101 160" version="1.1" xmlns="http://www.w3.org/2000/svg" xmlns:xlink="http://www.w3.org/1999/xlink">
<title>Asset 3</title>
<desc>Created using Figma</desc>
<g id="Canvas" transform="translate(-16017 -953)">
<g id="Asset 3">
<g id="Layer 2">
<g id="Layer 1">
<g id="Vector">
<use xlink:href="#path0_fill" transform="translate(16017 965)" fill="#FFFFFF" fill-opacity="0.15"/>
</g>
<g id="Vector">
<use xlink:href="#path1_fill" transform="translate(16095.5 953)" fill="#FFFFFF" fill-opacity="0.15"/>
</g>
</g>
</g>
</g>
</g>
<defs>
<path id="path0_fill" d="M 0 133.26L 3.74 147.2L 17.68 143.47L 94.68 10.19L 76.95 0L 0 133.26ZM 14.75 139.65L 11.17 140.65L 10 136.32L 5.71 137.47L 4.71 133.88L 7 130L 17 135.76L 14.75 139.65ZM 79.55 5.39C 79.646 5.34878 79.7504 5.33059 79.8547 5.33689C 79.959 5.34319 80.0604 5.37379 80.1507 5.42626C 80.2411 5.47873 80.3179 5.55161 80.3751 5.63908C 80.4323 5.72655 80.4682 5.82617 80.48 5.93C 80.5104 6.03491 80.5189 6.14493 80.5052 6.25328C 80.4914 6.36163 80.4556 6.46601 80.4 6.56L 10.56 127.56C 10.5061 127.656 10.433 127.741 10.3453 127.808C 10.2576 127.875 10.1571 127.923 10.05 127.95C 9.95382 127.989 9.84998 128.006 9.74642 127.998C 9.64286 127.991 9.54234 127.96 9.45257 127.908C 9.36279 127.856 9.28614 127.784 9.2285 127.698C 9.17085 127.611 9.13374 127.513 9.12 127.41C 9.09021 127.305 9.08194 127.195 9.09568 127.087C 9.10943 126.979 9.14491 126.874 9.2 126.78L 79 5.78C 79.0535 5.6833 79.1264 5.59872 79.2142 5.5316C 79.3019 5.46447 79.4027 5.41626 79.51 5.39L 79.55 5.39Z"/>
<path id="path1_fill" d="M 20.12 6.3499L 10.14 0.619895C 9.63626 0.315895 9.07561 0.118251 8.4926 0.0391398C 7.90958 -0.0399719 7.31653 0.0011238 6.75 0.159895C 6.18329 0.298359 5.65235 0.55531 5.19214 0.913825C 4.73193 1.27234 4.3529 1.72429 4.08 2.2399L -3.35693e-06 9.23989L 17.67 19.4399L 21.74 12.3899C 22.0363 11.8903 22.2272 11.3354 22.3012 10.7593C 22.3751 10.1832 22.3305 9.5981 22.17 9.0399C 22.0225 8.47329 21.7645 7.94137 21.4111 7.47461C 21.0576 7.00786 20.6154 6.61546 20.11 6.3199L 20.12 6.3499Z"/>
</defs>
</svg>
