<svg width="91" height="59" viewBox="0 0 91 59" version="1.1" xmlns="http://www.w3.org/2000/svg" xmlns:xlink="http://www.w3.org/1999/xlink">
<title>Asset 6</title>
<desc>Created using Figma</desc>
<g id="Canvas" transform="translate(-16027 -1726)">
<g id="Asset 6">
<g id="Layer 2">
<g id="Layer 1">
<g id="Vector">
<use xlink:href="#path0_fill" transform="translate(16027 1726)" fill="#FFFFFF" fill-opacity="0.2"/>
</g>
<g id="Vector">
<use xlink:href="#path1_fill" transform="translate(16059.5 1754.69)" fill="#FFFFFF" fill-opacity="0.2"/>
</g>
<g id="Vector">
<use xlink:href="#path2_fill" transform="translate(16091.9 1737.53)" fill="#FFFFFF" fill-opacity="0.2"/>
</g>
</g>
</g>
</g>
</g>
<defs>
<path id="path0_fill" d="M 21.2891 4.83474L 21.2891 54.1652L 4.78945 54.1652L 4.78945 4.83474L 21.2891 4.83474ZM 24.4821 4.47304e-17L 1.59648 4.47304e-17C 1.17307 3.13113e-16 0.766998 0.169791 0.467599 0.472021C 0.1682 0.774251 4.32035e-16 1.18416 0 1.61158L 3.10179e-16 59L 26.0786 59L 26.0786 1.61158C 26.0786 1.18416 25.9104 0.774251 25.611 0.472021C 25.3116 0.169791 24.9055 2.68382e-16 24.4821 0L 24.4821 4.47304e-17Z"/>
<path id="path1_fill" d="M 26.0706 30.3058L -1.46162e-06 30.3058L -1.46162e-06 1.61158C -1.46162e-06 1.18416 0.168201 0.774251 0.467599 0.47202C 0.766998 0.16979 1.17307 4.91816e-07 1.59648 4.91816e-07L 24.4741 4.91816e-07C 24.8975 4.91816e-07 25.3036 0.16979 25.603 0.47202C 25.9024 0.774251 26.0706 1.18416 26.0706 1.61158L 26.0706 30.3058Z"/>
<path id="path2_fill" d="M 24.4821 3.38123e-07L 1.59648 3.38123e-07C 1.17307 3.38123e-07 0.766998 0.169791 0.467599 0.472021C 0.168201 0.774251 1.46162e-06 1.18416 1.46162e-06 1.61158L 1.46162e-06 47.4691L 16.6274 47.4691L 26.0786 47.4691L 26.0786 1.61158C 26.0786 1.18416 25.9104 0.774251 25.611 0.472021C 25.3116 0.169791 24.9055 3.38123e-07 24.4821 3.38123e-07ZM 4.78945 18.0014L 4.78945 13.3197L 13.2029 4.83474L 17.8407 4.83474L 4.78945 18.0014ZM 4.78945 6.48661L 4.78945 4.87503L 6.38593 4.87503L 4.78945 6.48661ZM 4.78945 29.5403L 4.78945 24.8425L 21.2891 8.18683L 21.2891 12.8846L 4.78945 29.5645L 4.78945 29.5403ZM 4.78945 41.0792L 4.78945 36.3734L 21.2891 19.7258L 21.2891 24.4235L 4.78945 41.0711L 4.78945 41.0792ZM 10.0179 42.6344L 21.2891 31.2566L 21.2891 35.9544L 14.6797 42.6263L 10.0179 42.6344Z"/>
</defs>
</svg>
