<svg width="91" height="128" viewBox="0 0 91 128" version="1.1" xmlns="http://www.w3.org/2000/svg" xmlns:xlink="http://www.w3.org/1999/xlink">
<title>Chart-UP</title>
<desc>Created using Figma</desc>
<g id="Canvas" transform="translate(-16027 -1850)">
<g id="Chart-UP">
<g id="Asset 16">
<g id="Layer 2">
<g id="Layer 1">
<g id="Vector">
<use xlink:href="#path0_fill" transform="translate(16027 1919.42)" fill="#FFFFFF" fill-opacity="0.15"/>
</g>
<g id="Vector">
<use xlink:href="#path1_fill" transform="translate(16059.5 1850)" fill="#FFFFFF" fill-opacity="0.15"/>
</g>
<g id="Vector">
<use xlink:href="#path2_fill" transform="translate(16091.9 1894.8)" fill="#FFFFFF" fill-opacity="0.15"/>
</g>
</g>
</g>
</g>
</g>
</g>
<defs>
<path id="path0_fill" d="M 21.2892 4.8L 21.2892 53.776L 4.78947 53.776L 4.78947 4.8L 21.2892 4.8ZM 24.4822 -9.76562e-07L 1.59649 -9.76562e-07C 1.17308 -9.76562e-07 0.767002 0.168569 0.467601 0.468627C 0.168201 0.768685 4.32037e-16 1.17565 0 1.6L 3.10181e-16 58.576L 26.0787 58.576L 26.0787 1.6C 26.0787 1.17565 25.9105 0.768685 25.6111 0.468627C 25.3117 0.168569 24.9056 -9.76562e-07 24.4822 -9.76562e-07Z"/>
<path id="path1_fill" d="M 26.0707 128L -1.46163e-06 128L -1.46163e-06 1.6C -1.46163e-06 1.17565 0.168202 0.768687 0.467602 0.468629C 0.767002 0.168571 1.17307 4.88498e-16 1.59649 8.88178e-17L 24.4742 0C 24.8976 2.22045e-16 25.3037 0.168571 25.6031 0.468629C 25.9025 0.768687 26.0707 1.17565 26.0707 1.6L 26.0707 128Z"/>
<path id="path2_fill" d="M 24.4822 0L 1.59649 0C 1.17308 0 0.767002 0.16857 0.467602 0.468628C 0.168202 0.768686 1.46163e-06 1.17565 1.46163e-06 1.6L 1.46163e-06 83.2L 26.0787 83.2L 26.0787 1.6C 26.0787 1.17565 25.9105 0.768686 25.6111 0.468628C 25.3117 0.16857 24.9056 0 24.4822 0ZM 4.78947 17.872L 4.78947 12.272L 12.269 4.8L 17.8568 4.8L 4.78947 17.872ZM 4.78947 5.504L 4.78947 4.8L 5.49193 4.8L 4.78947 5.504ZM 4.78947 29.328L 4.78947 24.664L 21.2892 8.128L 21.2892 12.8L 4.78947 29.328ZM 4.78947 40.784L 4.78947 36.12L 21.2892 19.584L 21.2892 24.248L 4.78947 40.8L 4.78947 40.784ZM 4.78947 52.24L 4.78947 47.576L 21.2892 31.032L 21.2892 35.696L 4.78947 52.232L 4.78947 52.24ZM 4.78947 63.696L 4.78947 59.032L 21.2892 42.488L 21.2892 47.152L 4.78947 63.688L 4.78947 63.696ZM 4.78947 75.152L 4.78947 70.48L 21.2892 53.944L 21.2892 58.608L 4.78947 75.144L 4.78947 75.152ZM 8.31772 78.4L 21.2892 65.4L 21.2892 70.4L 13.3068 78.4L 8.31772 78.4ZM 20.1158 78.4L 21.2892 77.224L 21.2892 78.4L 20.1158 78.4Z"/>
</defs>
</svg>
