<svg width="112" height="112" viewBox="0 0 112 112" version="1.1" xmlns="http://www.w3.org/2000/svg" xmlns:xlink="http://www.w3.org/1999/xlink">
<title>Asset 7</title>
<desc>Created using Figma</desc>
<g id="Canvas" transform="translate(-16006 -2058)">
<g id="Asset 7">
<g id="Layer 2">
<g id="Layer 1">
<g id="Vector">
<use xlink:href="#path0_fill" transform="matrix(-1 -5.55112e-17 5.55112e-17 -1 16118 2127.79)" fill="#F2F2F2" fill-opacity="0.15"/>
</g>
<g id="Vector">
<use xlink:href="#path1_fill" transform="matrix(-1 -5.55112e-17 5.55112e-17 -1 16063.9 2170)" fill="#F2F2F2" fill-opacity="0.15"/>
</g>
<g id="Vector">
<use xlink:href="#path2_fill" transform="matrix(-1 -5.55112e-17 5.55112e-17 -1 16109.8 2167)" fill="#F2F2F2" fill-opacity="0.15"/>
</g>
</g>
</g>
</g>
</g>
<defs>
<path id="path0_fill" d="M 57.3467 35.1251C 51.2854 34.8633 45.5543 32.2914 41.3298 27.9371C 37.1053 23.5829 34.7079 17.7768 34.6297 11.7107L 34.5808 8.12137L 0.88592 -6.39324e-07L 0.334232 5.26528C -0.58169 13.7812 0.39048 22.3943 3.18157 30.4919C 5.97267 38.5894 10.5141 45.9724 16.4828 52.1155C 22.4514 58.2586 29.7006 63.0109 37.7146 66.0342C 45.7286 69.0576 54.3104 70.2777 62.8496 69.6078L 68.0871 69.1888L 60.9571 35.2927L 57.3467 35.1251ZM 9.22409 11.5082L 14.2731 12.7372L 9.59421 17.4159C 9.35553 15.4556 9.23195 13.483 9.22409 11.5082ZM 10.6208 22.9465L 19.5525 14.0081L 24.7133 15.2581L 12.0733 27.8976C 11.4963 26.271 11.0022 24.6162 10.5928 22.9396L 10.6208 22.9465ZM 16.2145 36.6893C 15.3915 35.3334 14.6409 33.9348 13.9658 32.4995L 26.5359 19.9298C 26.9701 21.553 27.5281 23.1405 28.205 24.6784L 16.2145 36.6893ZM 18.8332 40.5999L 30.4606 28.973C 31.2691 30.2755 32.1749 31.515 33.1701 32.681L 21.7034 44.1124C 20.7048 43.0021 19.7341 41.8219 18.8332 40.6208L 18.8332 40.5999ZM 24.9507 47.4294L 36.3616 35.991C 37.4986 37.005 38.705 37.9383 39.972 38.7843L 28.4214 50.3623C 27.2203 49.4335 26.0611 48.4419 24.9297 47.4224L 24.9507 47.4294ZM 32.2902 53.0159L 44.162 41.1446C 45.6507 41.8736 47.1941 42.4853 48.778 42.9742L 36.4104 55.3203C 34.9949 54.6353 33.6193 53.8706 32.2902 53.0298L 32.2902 53.0159ZM 40.9077 57.3245L 53.4779 44.7548L 54.5882 50.055L 45.7403 58.9096C 44.1201 58.4697 42.5 57.939 40.9008 57.3315L 40.9077 57.3245ZM 51.1873 60.013L 55.7475 55.453L 56.8159 60.5227C 54.9324 60.4471 53.0538 60.2769 51.1873 60.013Z"/>
<path id="path1_fill" d="M 56.7121 42.6536C 54.0297 29.8931 46.7957 18.5444 36.3603 10.7255C 25.9248 2.90661 13.0008 -0.848374 6.39349e-07 0.161318L 5.30039 25.3983C 11.5937 25.6554 17.6214 28.0047 22.4287 32.0742C 27.236 36.1438 30.548 41.7008 31.8402 47.8651C 33.1325 54.0295 32.331 60.4488 29.5628 66.1062C 26.7946 71.7637 22.2179 76.3358 16.5576 79.0986L 21.858 104.364C 34.1688 100.061 44.4939 91.427 50.9071 80.0723C 57.3203 68.7175 59.3836 55.4176 56.7121 42.6536Z"/>
<path id="path2_fill" d="M 37.6964 25.244L 32.396 -3.99578e-08C 25.0387 2.57251 18.3298 6.71601 12.7354 12.1426C 7.14094 17.5692 2.79517 24.1487 1.86477e-07 31.4241L 25.0774 37.4924C 27.8783 32.1748 32.2975 27.8853 37.6964 25.244Z"/>
</defs>
</svg>
