<svg width="28" height="26" viewBox="0 0 28 26" version="1.1" xmlns="http://www.w3.org/2000/svg" xmlns:xlink="http://www.w3.org/1999/xlink">
<title>users</title>
<desc>Created using Figma</desc>
<g id="Canvas" transform="translate(-15822 -1295)">
<g id="users">
<g id="Vector">
<use xlink:href="#path0_fill" transform="translate(15823 1296)" fill="#3564DB"/>
<use xlink:href="#path1_stroke" transform="translate(15823 1296)" fill="#3564DB"/>
</g>
</g>
</g>
<defs>
<path id="path0_fill" d="M 24.0061 18.7152L 19.8375 16.6311C 19.4444 16.4343 19.2 16.039 19.2 15.5991L 19.2 14.1238C 19.2999 14.0016 19.4051 13.8624 19.5137 13.7088C 20.0544 12.9452 20.4877 12.0951 20.8028 11.1783C 21.4185 10.896 21.8182 10.2873 21.8182 9.6L 21.8182 7.85455C 21.8182 7.43433 21.6611 7.0272 21.3818 6.70909L 21.3818 4.38807C 21.4063 4.14807 21.5023 2.71942 20.4689 1.5408C 19.5727 0.5184 18.1183 0 16.1455 0C 14.1727 0 12.7183 0.5184 11.822 1.54036C 11.1958 2.25469 10.985 3.05935 10.9213 3.63709C 10.1734 3.25047 9.29193 3.05455 8.29091 3.05455C 3.75753 3.05455 3.49353 6.91855 3.49091 6.98182L 3.49091 8.97993C 3.20815 9.288 3.05455 9.64364 3.05455 9.99665L 3.05455 11.5039C 3.05455 11.9747 3.26531 12.4137 3.62662 12.7104C 3.98662 14.0675 4.872 15.0929 5.21673 15.4529L 5.21673 16.6499C 5.21673 16.9933 5.02996 17.3084 4.70575 17.4855L 1.80262 19.3065C 0.690764 19.913 0 21.0768 0 22.3431L 0 24L 6.10909 24L 6.98182 24L 26.1818 24L 26.1818 22.2358C 26.1818 20.7356 25.3479 19.3863 24.0061 18.7152ZM 6.10909 22.1507L 6.10909 23.1273L 0.872727 23.1273L 0.872727 22.3431C 0.872727 21.3962 1.38938 20.5261 2.24335 20.0596L 5.14604 18.2387C 5.72771 17.9215 6.08902 17.3132 6.08902 16.6499L 6.08902 15.0829L 5.95025 14.9533C 5.93891 14.9428 4.77949 13.8476 4.43695 12.3548L 4.39724 12.182L 4.248 12.086C 4.04727 11.9559 3.92727 11.7382 3.92727 11.5039L 3.92727 9.99665C 3.92727 9.83956 4.03418 9.6528 4.22007 9.48436L 4.36364 9.35476L 4.36276 7.00713C 4.37062 6.88189 4.59796 3.92727 8.29091 3.92727C 9.33513 3.92727 10.2144 4.16858 10.9091 4.64465L 10.9091 6.70909C 10.6298 7.0272 10.4727 7.43433 10.4727 7.85455L 10.4727 9.6C 10.4727 9.73265 10.488 9.86313 10.5168 9.98967C 10.5286 10.0403 10.5521 10.0865 10.5683 10.1354C 10.5923 10.2087 10.6115 10.2842 10.6451 10.3536C 10.6455 10.3545 10.646 10.3549 10.6464 10.3558C 10.7581 10.5862 10.9209 10.7921 11.126 10.9567C 11.1281 10.9649 11.1308 10.9724 11.1329 10.9802C 11.1591 11.0801 11.1866 11.1796 11.2163 11.2769L 11.2516 11.3908C 11.2577 11.4109 11.2652 11.4314 11.2717 11.4515C 11.287 11.4986 11.3018 11.5453 11.3175 11.5916C 11.3437 11.6679 11.3712 11.7469 11.4031 11.8329C 11.4166 11.8687 11.4314 11.9009 11.4454 11.9363C 11.4812 12.0275 11.5169 12.1156 11.5545 12.2029C 11.5636 12.2239 11.5715 12.2465 11.5807 12.2671L 11.6051 12.322C 11.6164 12.3473 11.6282 12.37 11.6396 12.3949C 11.6823 12.4883 11.7242 12.5786 11.7679 12.6659C 11.7748 12.6799 11.7814 12.6951 11.7884 12.7091C 11.8159 12.7636 11.8433 12.8151 11.8708 12.8675C 11.918 12.9574 11.9642 13.042 12.0105 13.1241C 12.0332 13.1642 12.0554 13.2035 12.0777 13.2415C 12.1405 13.3488 12.2003 13.4474 12.2583 13.5391C 12.271 13.5587 12.2832 13.5792 12.2954 13.598C 12.401 13.7616 12.4927 13.8943 12.5686 13.9977C 12.5887 14.0252 12.6061 14.0487 12.6231 14.0719C 12.6327 14.0845 12.6458 14.1028 12.6541 14.1142L 12.6541 15.5581C 12.6541 15.9805 12.4237 16.368 12.0532 16.5705L 10.8986 17.2001L 10.6975 17.1823L 10.6154 17.3546L 8.16044 18.6938C 6.89498 19.385 6.10909 20.7089 6.10909 22.1507ZM 25.3091 23.1273L 6.98182 23.1273L 6.98182 22.1507C 6.98182 21.0288 7.5936 19.9977 8.57847 19.4609L 12.4713 17.3376C 13.1228 16.982 13.5273 16.2999 13.5273 15.5585L 13.5273 13.8052L 13.5273 13.8048L 13.4426 13.7036L 13.426 13.6839C 13.4252 13.6826 13.3981 13.6499 13.354 13.5923C 13.3514 13.5888 13.3488 13.5853 13.3457 13.5818C 13.3226 13.5517 13.2956 13.5155 13.2646 13.4723C 13.2641 13.4714 13.2637 13.471 13.2633 13.4701C 13.1983 13.3798 13.1167 13.2624 13.0259 13.121C 13.0237 13.118 13.022 13.1145 13.0198 13.1114C 12.977 13.0447 12.9316 12.9718 12.8854 12.8945C 12.8819 12.8889 12.8784 12.8832 12.8749 12.8771C 12.7763 12.7117 12.6716 12.5245 12.5673 12.3172C 12.5673 12.3172 12.5668 12.3168 12.5668 12.3164C 12.5114 12.2051 12.456 12.0881 12.4019 11.9664C 12.3945 11.9494 12.3866 11.9328 12.3792 11.9158C 12.3552 11.8612 12.3312 11.8041 12.3068 11.7452C 12.298 11.7238 12.2893 11.7015 12.2806 11.6797C 12.2579 11.6225 12.2348 11.5649 12.2103 11.4991C 12.1658 11.3804 12.1239 11.2564 12.0838 11.1286L 12.0598 11.0509C 12.0572 11.0422 12.0541 11.0335 12.0515 11.0243C 12.0105 10.8864 11.9712 10.7455 11.938 10.6006L 11.8983 10.4278L 11.7495 10.3318C 11.4964 10.1686 11.3455 9.89498 11.3455 9.6L 11.3455 7.85455C 11.3455 7.60975 11.4493 7.38153 11.6378 7.21091L 11.7818 7.08131L 11.7818 4.36364L 11.7818 4.20916L 11.77 4.2C 11.7552 3.88495 11.774 2.91927 12.4783 2.11593C 13.2013 1.29076 14.4353 0.872727 16.1455 0.872727C 17.8495 0.872727 19.0809 1.28771 19.8048 2.10676C 20.6544 3.0672 20.5139 4.296 20.513 4.30647L 20.5091 7.08131L 20.6531 7.21135C 20.8416 7.38153 20.9455 7.60975 20.9455 7.85455L 20.9455 9.6C 20.9455 9.98095 20.6959 10.3143 20.3249 10.4287L 20.1076 10.4954L 20.0378 10.7114C 19.7459 11.6195 19.33 12.4582 18.8012 13.2044C 18.6716 13.3881 18.5455 13.5508 18.4359 13.6752L 18.3273 13.7991L 18.3273 15.5991C 18.3273 16.3715 18.7562 17.0657 19.447 17.4113L 23.6156 19.4954C 24.6602 20.0177 25.3091 21.0676 25.3091 22.2358L 25.3091 23.1273Z"/>
<path id="path1_stroke" d="M 24.0061 18.7152L 24.2969 18.1339L 24.2968 18.1338L 24.0061 18.7152ZM 19.8375 16.6311L 19.5466 17.2124L 19.5469 17.2125L 19.8375 16.6311ZM 19.2 14.1238L 18.6968 13.7123L 18.55 13.8918L 18.55 14.1238L 19.2 14.1238ZM 19.5137 13.7088L 18.9832 13.3332L 18.9831 13.3334L 19.5137 13.7088ZM 20.8028 11.1783L 20.5318 10.5875L 20.2786 10.7036L 20.188 10.9671L 20.8028 11.1783ZM 21.3818 6.70909L 20.7318 6.70909L 20.7318 6.95393L 20.8934 7.13792L 21.3818 6.70909ZM 21.3818 4.38807L 20.7352 4.32223L 20.7318 4.35507L 20.7318 4.38807L 21.3818 4.38807ZM 20.4689 1.5408L 19.9802 1.96929L 19.9802 1.9693L 20.4689 1.5408ZM 11.822 1.54036L 11.3333 1.11177L 11.3332 1.11189L 11.822 1.54036ZM 10.9213 3.63709L 10.6228 4.21451L 11.4636 4.64914L 11.5674 3.70834L 10.9213 3.63709ZM 3.49091 6.98182L 2.84146 6.95494L 2.84091 6.96838L 2.84091 6.98182L 3.49091 6.98182ZM 3.49091 8.97993L 3.96978 9.41946L 4.14091 9.23301L 4.14091 8.97993L 3.49091 8.97993ZM 3.62662 12.7104L 4.25489 12.5437L 4.20114 12.3411L 4.03915 12.2081L 3.62662 12.7104ZM 5.21673 15.4529L 5.86673 15.4529L 5.86673 15.1919L 5.6862 15.0034L 5.21673 15.4529ZM 4.70575 17.4855L 4.39406 16.9151L 4.37691 16.9245L 4.36036 16.9349L 4.70575 17.4855ZM 1.80262 19.3065L 2.1139 19.8771L 2.13126 19.8676L 2.148 19.8571L 1.80262 19.3065ZM 0 24L -0.65 24L -0.65 24.65L 0 24.65L 0 24ZM 26.1818 24L 26.1818 24.65L 26.8318 24.65L 26.8318 24L 26.1818 24ZM 6.10909 23.1273L 6.10909 23.7773L 6.75909 23.7773L 6.75909 23.1273L 6.10909 23.1273ZM 0.872727 23.1273L 0.222727 23.1273L 0.222727 23.7773L 0.872727 23.7773L 0.872727 23.1273ZM 2.24335 20.0596L 2.55495 20.6301L 2.57216 20.6207L 2.58877 20.6103L 2.24335 20.0596ZM 5.14604 18.2387L 4.83481 17.668L 4.81741 17.6775L 4.80062 17.6881L 5.14604 18.2387ZM 6.08902 15.0829L 6.73902 15.0829L 6.73902 14.8006L 6.53268 14.6079L 6.08902 15.0829ZM 5.95025 14.9533L 6.39393 14.4783L 6.39114 14.4757L 5.95025 14.9533ZM 4.43695 12.3548L 5.07048 12.2094L 5.07043 12.2092L 4.43695 12.3548ZM 4.39724 12.182L 5.03073 12.0364L 4.97146 11.7785L 4.74889 11.6353L 4.39724 12.182ZM 4.248 12.086L 3.89459 12.6315L 3.89635 12.6326L 4.248 12.086ZM 4.22007 9.48436L 3.78452 9.00188L 3.78362 9.00269L 4.22007 9.48436ZM 4.36364 9.35476L 4.79919 9.83725L 5.01374 9.64356L 5.01364 9.35452L 4.36364 9.35476ZM 4.36276 7.00713L 3.71404 6.96644L 3.71276 6.98689L 3.71276 7.00737L 4.36276 7.00713ZM 10.9091 4.64465L 11.5591 4.64465L 11.5591 4.30211L 11.2765 4.10848L 10.9091 4.64465ZM 10.9091 6.70909L 11.3976 7.13792L 11.5591 6.95393L 11.5591 6.70909L 10.9091 6.70909ZM 10.5168 9.98967L 9.883 10.1339L 9.88372 10.137L 10.5168 9.98967ZM 10.5683 10.1354L 11.186 9.93318L 11.1855 9.93152L 10.5683 10.1354ZM 10.6451 10.3536L 10.06 10.6369L 10.0637 10.6443L 10.6451 10.3536ZM 10.6464 10.3558L 11.2313 10.0722L 11.2278 10.0651L 10.6464 10.3558ZM 11.126 10.9567L 11.7546 10.7912L 11.7 10.5838L 11.5327 10.4496L 11.126 10.9567ZM 11.1329 10.9802L 11.7618 10.8155L 11.7592 10.8062L 11.1329 10.9802ZM 11.2163 11.2769L 10.5945 11.4665L 10.5955 11.4696L 11.2163 11.2769ZM 11.2516 11.3908L 11.8735 11.2016L 11.8724 11.1982L 11.2516 11.3908ZM 11.2717 11.4515L 11.8901 11.2511L 11.8897 11.25L 11.2717 11.4515ZM 11.3175 11.5916L 10.7021 11.8006L 10.7027 11.8024L 11.3175 11.5916ZM 11.4031 11.8329L 10.7935 12.0587L 10.7951 12.0627L 11.4031 11.8329ZM 11.4454 11.9363L 12.0505 11.6989L 12.0499 11.6975L 11.4454 11.9363ZM 11.5545 12.2029L 10.9573 12.4597L 10.959 12.4634L 11.5545 12.2029ZM 11.5807 12.2671L 12.1746 12.0031L 12.1741 12.0019L 11.5807 12.2671ZM 11.6051 12.322L 11.0111 12.586L 11.012 12.5879L 11.6051 12.322ZM 11.6396 12.3949L 11.0482 12.6647L 11.0486 12.6655L 11.6396 12.3949ZM 11.7679 12.6659L 12.3492 12.3752L 11.7679 12.6659ZM 11.7884 12.7091L 11.207 12.9998L 11.2079 13.0016L 11.7884 12.7091ZM 11.8708 12.8675L 12.4465 12.5657L 12.4463 12.5653L 11.8708 12.8675ZM 12.0105 13.1241L 11.4443 13.4433L 11.4446 13.4439L 12.0105 13.1241ZM 12.0777 13.2415L 12.6386 12.9131L 12.6384 12.9127L 12.0777 13.2415ZM 12.2583 13.5391L 11.7092 13.8868L 11.712 13.8912L 12.2583 13.5391ZM 12.2954 13.598L 12.8416 13.2455L 12.8401 13.2433L 12.2954 13.598ZM 12.5686 13.9977L 13.0935 13.6144L 13.0925 13.613L 12.5686 13.9977ZM 12.6231 14.0719L 12.0995 14.4571L 12.1053 14.4647L 12.6231 14.0719ZM 12.6541 14.1142L 13.3041 14.1142L 13.3041 13.902L 13.1789 13.7307L 12.6541 14.1142ZM 12.0532 16.5705L 12.3644 17.1411L 12.365 17.1408L 12.0532 16.5705ZM 10.8986 17.2001L 10.841 17.8476L 11.0371 17.865L 11.2098 17.7708L 10.8986 17.2001ZM 10.6975 17.1823L 10.755 16.5348L 10.3048 16.4948L 10.1105 16.9029L 10.6975 17.1823ZM 10.6154 17.3546L 10.9267 17.9252L 11.1117 17.8243L 11.2023 17.634L 10.6154 17.3546ZM 8.16044 18.6938L 7.84916 18.1232L 7.84885 18.1234L 8.16044 18.6938ZM 25.3091 23.1273L 25.3091 23.7773L 25.9591 23.7773L 25.9591 23.1273L 25.3091 23.1273ZM 6.98182 23.1273L 6.33182 23.1273L 6.33182 23.7773L 6.98182 23.7773L 6.98182 23.1273ZM 8.57847 19.4609L 8.88951 20.0317L 8.88973 20.0316L 8.57847 19.4609ZM 12.4713 17.3376L 12.7825 17.9082L 12.7827 17.9081L 12.4713 17.3376ZM 13.5273 13.8048L 14.1773 13.8048L 14.1773 13.5688L 14.0259 13.3878L 13.5273 13.8048ZM 13.4426 13.7036L 13.9413 13.2866L 13.9392 13.2842L 13.4426 13.7036ZM 13.426 13.6839L 12.8852 14.0445L 12.9056 14.0751L 12.9294 14.1033L 13.426 13.6839ZM 13.354 13.5923L 12.834 13.9823L 12.8378 13.9873L 13.354 13.5923ZM 13.3457 13.5818L 12.8303 13.9778L 12.8429 13.9942L 12.8566 14.0098L 13.3457 13.5818ZM 13.2646 13.4723L 12.6832 13.763L 12.7063 13.8092L 12.7364 13.8511L 13.2646 13.4723ZM 13.2633 13.4701L 13.8447 13.1794L 13.8213 13.1327L 13.7908 13.0904L 13.2633 13.4701ZM 13.0259 13.121L 13.5729 12.7699L 13.5642 12.7563L 13.5548 12.7432L 13.0259 13.121ZM 13.0198 13.1114L 12.4724 13.462L 12.4813 13.4758L 12.4909 13.4892L 13.0198 13.1114ZM 12.8854 12.8945L 13.4431 12.5606L 13.439 12.5539L 12.8854 12.8945ZM 12.8749 12.8771L 13.4394 12.5545L 13.4332 12.5442L 12.8749 12.8771ZM 12.5673 12.3172L 13.1479 12.0251L 13.1008 11.9315L 13.0268 11.8575L 12.5673 12.3172ZM 12.5668 12.3164L 13.2168 12.3164L 13.2168 12.1635L 13.1487 12.0266L 12.5668 12.3164ZM 12.4019 11.9664L 11.806 12.2261L 11.8079 12.2304L 12.4019 11.9664ZM 12.3792 11.9158L 12.9751 11.656L 12.9742 11.654L 12.3792 11.9158ZM 12.3068 11.7452L 11.705 11.9908L 11.7064 11.9942L 12.3068 11.7452ZM 12.2806 11.6797L 11.6764 11.9195L 11.6771 11.9211L 12.2806 11.6797ZM 12.2103 11.4991L 12.8198 11.273L 12.8189 11.2708L 12.2103 11.4991ZM 12.0838 11.1286L 11.4627 11.3205L 11.4636 11.3233L 12.0838 11.1286ZM 12.0598 11.0509L 11.4372 11.2377L 11.4388 11.2428L 12.0598 11.0509ZM 12.0515 11.0243L 12.6765 10.8457L 12.6745 10.839L 12.0515 11.0243ZM 11.938 10.6006L 12.5716 10.4555L 12.5715 10.455L 11.938 10.6006ZM 11.8983 10.4278L 12.5318 10.2822L 12.4727 10.0248L 12.2507 9.88159L 11.8983 10.4278ZM 11.7495 10.3318L 12.1019 9.78559L 12.1018 9.78551L 11.7495 10.3318ZM 11.6378 7.21091L 11.203 6.72777L 11.2016 6.72899L 11.6378 7.21091ZM 11.7818 7.08131L 12.2166 7.56445L 12.4318 7.3708L 12.4318 7.08131L 11.7818 7.08131ZM 11.7818 4.20916L 12.4318 4.20916L 12.4318 3.89126L 12.1809 3.69608L 11.7818 4.20916ZM 11.77 4.2L 11.1208 4.23058L 11.1348 4.52941L 11.371 4.71308L 11.77 4.2ZM 12.4783 2.11593L 12.967 2.54443L 12.9671 2.5443L 12.4783 2.11593ZM 19.8048 2.10676L 19.3178 2.53723L 19.3179 2.53743L 19.8048 2.10676ZM 20.513 4.30647L 19.8653 4.25249L 19.8631 4.27898L 19.863 4.30555L 20.513 4.30647ZM 20.5091 7.08131L 19.8591 7.08039L 19.8587 7.36978L 20.0735 7.56373L 20.5091 7.08131ZM 20.6531 7.21135L 20.2175 7.69376L 20.2175 7.69382L 20.6531 7.21135ZM 20.3249 10.4287L 20.5158 11.05L 20.5164 11.0498L 20.3249 10.4287ZM 20.1076 10.4954L 19.9167 9.87408L 19.5932 9.97347L 19.4891 10.2955L 20.1076 10.4954ZM 20.0378 10.7114L 19.4193 10.5115L 19.419 10.5125L 20.0378 10.7114ZM 18.8012 13.2044L 18.2709 12.8285L 18.27 12.8297L 18.8012 13.2044ZM 18.4359 13.6752L 17.9481 13.2456L 17.9472 13.2467L 18.4359 13.6752ZM 18.3273 13.7991L 17.8385 13.3706L 17.6773 13.5545L 17.6773 13.7991L 18.3273 13.7991ZM 19.447 17.4113L 19.1561 17.9927L 19.1563 17.9927L 19.447 17.4113ZM 23.6156 19.4954L 23.9063 18.914L 23.9062 18.914L 23.6156 19.4954ZM 24.2968 18.1338L 20.1282 16.0497L 19.5469 17.2125L 23.7154 19.2966L 24.2968 18.1338ZM 20.1285 16.0499C 19.9553 15.9632 19.85 15.7928 19.85 15.5991L 18.55 15.5991C 18.55 16.2852 18.9334 16.9055 19.5466 17.2124L 20.1285 16.0499ZM 19.85 15.5991L 19.85 14.1238L 18.55 14.1238L 18.55 15.5991L 19.85 15.5991ZM 19.7032 14.5353C 19.8109 14.4033 19.9298 14.246 20.0444 14.0842L 18.9831 13.3334C 18.8804 13.4788 18.7889 13.5999 18.6968 13.7123L 19.7032 14.5353ZM 20.0442 14.0844C 20.6107 13.2814 21.0861 12.349 21.4175 11.3896L 20.188 10.9671C 19.8893 11.8413 19.4981 12.6089 18.9832 13.3332L 20.0442 14.0844ZM 21.0737 11.7692C 21.9168 11.3826 22.4682 10.5454 22.4682 9.6L 21.1682 9.6C 21.1682 10.0292 20.9202 10.4094 20.5318 10.5875L 21.0737 11.7692ZM 22.4682 9.6L 22.4682 7.85455L 21.1682 7.85455L 21.1682 9.6L 22.4682 9.6ZM 22.4682 7.85455C 22.4572 7.31532 22.2171 6.69058 21.8703 6.28026L 20.8934 7.13792C 21.105 7.36382 21.1792 7.55333 21.1682 7.85455L 22.4682 7.85455ZM 22.0318 6.70909L 22.0318 4.38807L 20.7318 4.38807L 20.7318 6.70909L 22.0318 6.70909ZM 22.0285 4.45391C 22.0581 4.16294 22.1745 2.50018 20.9577 1.1123L 19.9802 1.9693C 20.83 2.93866 20.7544 4.1332 20.7352 4.32223L 22.0285 4.45391ZM 20.9577 1.11231C 19.8907 -0.104845 18.2192 -0.65 16.1455 -0.65L 16.1455 0.65C 18.0173 0.65 19.2546 1.14164 19.9802 1.96929L 20.9577 1.11231ZM 16.1455 -0.65C 14.0717 -0.65 12.4003 -0.104849 11.3333 1.11177L 12.3106 1.96895C 13.0362 1.14165 14.2736 0.65 16.1455 0.65L 16.1455 -0.65ZM 11.3332 1.11189C 10.6216 1.94996 10.3459 2.94106 10.2752 3.56585L 11.5674 3.70834C 11.6242 3.17763 11.7699 2.55943 12.3108 1.96884L 11.3332 1.11189ZM 11.2198 3.05967C 10.395 2.63942 9.36287 2.40843 8.29091 2.40455L 8.29091 3.70455C 9.22099 3.70066 9.95178 3.86153 10.6228 4.21451L 11.2198 3.05967ZM 8.29091 2.40455C 5.79985 2.40455 4.39739 3.48552 3.64687 4.64023C 2.92577 5.74969 2.84531 6.86204 2.84146 6.95494L 4.14035 7.00869C 4.13946 7.03175 4.17545 6.17411 4.73687 5.34868C 5.25236 4.55557 6.24858 3.70455 8.29091 3.70455L 8.29091 2.40455ZM 2.84091 6.98182L 2.84091 8.97993L 4.14091 8.97993L 4.14091 6.98182L 2.84091 6.98182ZM 3.01204 8.5404C 2.64201 8.94355 2.40455 9.45003 2.40455 9.99665L 3.70455 9.99665C 3.70455 9.83724 3.77428 9.63245 3.96978 9.41946L 3.01204 8.5404ZM 2.40455 9.99665L 2.40455 11.5039L 3.70455 11.5039L 3.70455 9.99665L 2.40455 9.99665ZM 2.40455 11.5039C 2.40455 12.1716 2.70425 12.794 3.21409 13.2127L 4.03915 12.2081C 3.82637 12.0333 3.70455 11.7778 3.70455 11.5039L 2.40455 11.5039ZM 2.99835 12.8771C 3.41181 14.371 4.39111 15.5303 4.74726 15.9025L 5.6862 15.0034C 5.35289 14.6556 4.56143 13.764 4.25489 12.5437L 2.99835 12.8771ZM 4.56673 15.4529L 4.56673 16.6499L 5.86673 16.6499L 5.86673 15.4529L 4.56673 15.4529ZM 4.56673 16.6499C 4.56673 16.7459 4.51839 16.8472 4.39406 16.9151L 5.01743 18.0559C 5.54154 17.7695 5.86673 17.2407 5.86673 16.6499L 4.56673 16.6499ZM 4.36036 16.9349L 1.45723 18.7558L 2.148 19.8571L 5.05113 18.0362L 4.36036 16.9349ZM 1.49133 18.7359C 0.17068 19.4563 -0.65 20.8389 -0.65 22.3431L 0.65 22.3431C 0.65 21.3147 1.21085 20.3697 2.1139 19.8771L 1.49133 18.7359ZM -0.65 22.3431L -0.65 24L 0.65 24L 0.65 22.3431L -0.65 22.3431ZM 0 24.65L 6.10909 24.65L 6.10909 23.35L 0 23.35L 0 24.65ZM 6.10909 24.65L 6.98182 24.65L 6.98182 23.35L 6.10909 23.35L 6.10909 24.65ZM 6.98182 24.65L 26.1818 24.65L 26.1818 23.35L 6.98182 23.35L 6.98182 24.65ZM 26.8318 24L 26.8318 22.2358L 25.5318 22.2358L 25.5318 24L 26.8318 24ZM 26.8318 22.2358C 26.8318 20.4893 25.8588 18.9151 24.2969 18.1339L 23.7153 19.2965C 24.837 19.8576 25.5318 20.9818 25.5318 22.2358L 26.8318 22.2358ZM 5.45909 22.1507L 5.45909 23.1273L 6.75909 23.1273L 6.75909 22.1507L 5.45909 22.1507ZM 6.10909 22.4773L 0.872727 22.4773L 0.872727 23.7773L 6.10909 23.7773L 6.10909 22.4773ZM 1.52273 23.1273L 1.52273 22.3431L 0.222727 22.3431L 0.222727 23.1273L 1.52273 23.1273ZM 1.52273 22.3431C 1.52273 21.6378 1.90618 20.9845 2.55495 20.6301L 1.93174 19.4892C 0.872579 20.0678 0.222727 21.1546 0.222727 22.3431L 1.52273 22.3431ZM 2.58877 20.6103L 5.49146 18.7893L 4.80062 17.6881L 1.89792 19.509L 2.58877 20.6103ZM 5.45726 18.8093C 6.24779 18.3782 6.73902 17.551 6.73902 16.6499L 5.43902 16.6499C 5.43902 17.0753 5.20763 17.4647 4.83481 17.668L 5.45726 18.8093ZM 6.73902 16.6499L 6.73902 15.0829L 5.43902 15.0829L 5.43902 16.6499L 6.73902 16.6499ZM 6.53268 14.6079L 6.39392 14.4783L 5.50659 15.4283L 5.64536 15.5579L 6.53268 14.6079ZM 6.39114 14.4757C 6.3979 14.4819 5.36664 13.5 5.07048 12.2094L 3.80341 12.5001C 4.19234 14.1951 5.47992 15.4037 5.50937 15.4309L 6.39114 14.4757ZM 5.07043 12.2092L 5.03073 12.0364L 3.76375 12.3275L 3.80346 12.5003L 5.07043 12.2092ZM 4.74889 11.6353L 4.59965 11.5393L 3.89635 12.6326L 4.04558 12.7286L 4.74889 11.6353ZM 4.60141 11.5404C 4.59074 11.5335 4.58484 11.5261 4.58166 11.5203C 4.57853 11.5146 4.57727 11.5093 4.57727 11.5039L 3.27727 11.5039C 3.27727 11.9641 3.51362 12.3847 3.89459 12.6315L 4.60141 11.5404ZM 4.57727 11.5039L 4.57727 9.99665L 3.27727 9.99665L 3.27727 11.5039L 4.57727 11.5039ZM 4.57727 9.99665C 4.57727 10.0309 4.57153 10.0541 4.56842 10.0643C 4.56531 10.0744 4.5637 10.0753 4.56824 10.0674C 4.57806 10.0502 4.60418 10.0135 4.65652 9.96604L 3.78362 9.00269C 3.54161 9.22198 3.27727 9.57057 3.27727 9.99665L 4.57727 9.99665ZM 4.65563 9.96685L 4.79919 9.83725L 3.92808 8.87228L 3.78452 9.00188L 4.65563 9.96685ZM 5.01364 9.35452L 5.01276 7.00689L 3.71276 7.00737L 3.71364 9.35501L 5.01364 9.35452ZM 5.01149 7.04781C 5.00979 7.07505 5.021 6.87788 5.08775 6.64364C 5.15886 6.37926 5.26091 6.09917 5.48027 5.78889C 5.87421 5.21682 6.65079 4.57727 8.29091 4.57727L 8.29091 3.27727C 6.23809 3.27727 5.05452 4.11503 4.40958 5.05158C 3.7932 5.94668 3.72109 6.85395 3.71404 6.96644L 5.01149 7.04781ZM 8.29091 4.57727C 9.23535 4.57727 9.97843 4.79486 10.5416 5.18083L 11.2765 4.10848C 10.4504 3.54231 9.4349 3.27727 8.29091 3.27727L 8.29091 4.57727ZM 10.2591 4.64465L 10.2591 6.70909L 11.5591 6.70909L 11.5591 4.64465L 10.2591 4.64465ZM 10.4206 6.28026C 10.0738 6.69058 9.83372 7.31532 9.82273 7.85455L 11.1227 7.85455C 11.1117 7.55333 11.1859 7.36382 11.3976 7.13792L 10.4206 6.28026ZM 9.82273 7.85455L 9.82273 9.6L 11.1227 9.6L 11.1227 7.85455L 9.82273 7.85455ZM 9.82273 9.6C 9.82383 9.7705 9.84739 9.97319 9.88301 10.1339L 11.1506 9.84543C 11.1286 9.75306 11.1216 9.69481 11.1227 9.6L 9.82273 9.6ZM 9.88372 10.137C 9.90069 10.2099 9.92381 10.2699 9.93552 10.2999C 9.94157 10.3153 9.94616 10.3266 9.94924 10.3346C 9.95234 10.3425 9.95113 10.3398 9.9511 10.3393L 11.1855 9.93152C 11.1765 9.90419 11.1675 9.88049 11.1609 9.86369C 11.1547 9.84764 11.1496 9.8351 11.1463 9.82655C 11.1392 9.80849 11.1447 9.82007 11.1499 9.84232L 9.88372 10.137ZM 9.95055 10.3377C 9.9681 10.3901 10.0009 10.5071 10.0601 10.6369L 11.2301 10.0703C 11.2333 10.0749 11.2294 10.0704 11.2209 10.044C 11.2166 10.0308 11.2125 10.0175 11.2068 9.99901C 11.2011 9.9805 11.1937 9.95675 11.186 9.93318L 9.95055 10.3377ZM 10.0637 10.6443C 10.0738 10.6644 10.0836 10.6814 10.0918 10.6948C 10.0957 10.7012 10.0991 10.7064 10.1013 10.7098C 10.1022 10.7111 10.1035 10.7131 10.1039 10.7138C 10.1044 10.7145 10.1048 10.7151 10.1049 10.7152C 10.1052 10.7157 10.1036 10.7132 10.1017 10.7103C 10.0995 10.707 10.0963 10.702 10.0925 10.6958C 10.0845 10.6828 10.0749 10.6662 10.065 10.6465L 11.2278 10.0651C 11.2177 10.0449 11.2079 10.028 11.1997 10.0146C 11.1957 10.0082 11.1924 10.003 11.1902 9.99958C 11.1893 9.99826 11.188 9.99629 11.1876 9.99561C 11.1871 9.99492 11.1866 9.99423 11.1866 9.99419C 11.1863 9.99371 11.1879 9.99617 11.1898 9.99908C 11.192 10.0023 11.1952 10.0074 11.199 10.0136C 11.207 10.0266 11.2166 10.0432 11.2265 10.0629L 10.0637 10.6443ZM 10.0615 10.6394C 10.2074 10.9315 10.4596 11.2501 10.7193 11.4637L 11.5327 10.4496C 11.3822 10.3342 11.3088 10.2408 11.2313 10.0722L 10.0615 10.6394ZM 10.4974 11.1221C 10.5023 11.141 10.5072 11.1566 10.5086 11.161C 10.5097 11.1646 10.5094 11.1637 10.5093 11.1634C 10.509 11.1624 10.508 11.159 10.5067 11.1542L 11.7592 10.8062C 11.7568 10.7975 11.7546 10.7903 11.7532 10.7854C 11.7519 10.7812 11.7504 10.7765 11.7503 10.7762C 11.7493 10.7729 11.7518 10.7806 11.7546 10.7912L 10.4974 11.1221ZM 10.5042 11.145C 10.5315 11.2491 10.5624 11.361 10.5946 11.4665L 11.838 11.0874C 11.8108 10.9983 11.7868 10.9112 11.7617 10.8155L 10.5042 11.145ZM 10.5955 11.4696L 10.6308 11.5835L 11.8724 11.1982L 11.8371 11.0843L 10.5955 11.4696ZM 10.6298 11.5801C 10.641 11.6161 10.6505 11.6427 10.6537 11.653L 11.8897 11.25C 11.8849 11.2353 11.8792 11.2188 11.8772 11.2126C 11.8742 11.204 11.873 11.1997 11.8735 11.2016L 10.6298 11.5801ZM 10.6534 11.6519C 10.6681 11.6972 10.6843 11.7483 10.7021 11.8006L 11.933 11.3825C 11.9193 11.3424 11.9059 11.3 11.89 11.2511L 10.6534 11.6519ZM 10.7027 11.8024C 10.7293 11.8802 10.7595 11.9667 10.7936 12.0587L 12.0126 11.607C 11.9829 11.5271 11.9581 11.4557 11.9324 11.3808L 10.7027 11.8024ZM 10.7951 12.0627C 10.8169 12.1194 10.8336 12.1561 10.8408 12.1751L 12.0499 11.6975C 12.0292 11.6457 12.0163 11.6179 12.0111 11.603L 10.7951 12.0627ZM 10.8403 12.1737C 10.8775 12.2684 10.9172 12.3663 10.9573 12.4597L 12.1516 11.9461C 12.1167 11.865 12.0849 11.7865 12.0505 11.6989L 10.8403 12.1737ZM 10.959 12.4634C 10.9575 12.46 10.9569 12.4583 10.9624 12.4723C 10.966 12.4815 10.9755 12.506 10.9872 12.5322L 12.1741 12.0019C 12.1766 12.0076 12.1776 12.0105 12.1727 11.9979C 12.1697 11.9903 12.1606 11.9667 12.15 11.9424L 10.959 12.4634ZM 10.9867 12.531L 11.0111 12.586L 12.1991 12.0581L 12.1746 12.0031L 10.9867 12.531ZM 11.012 12.5879C 11.0312 12.6302 11.0439 12.6548 11.0482 12.6647L 12.2309 12.1252C 12.2125 12.0853 12.2017 12.0645 12.1982 12.0562L 11.012 12.5879ZM 11.0486 12.6655C 11.092 12.7603 11.1386 12.8607 11.1865 12.9566L 12.3492 12.3752C 12.3098 12.2965 12.2727 12.2162 12.2305 12.1243L 11.0486 12.6655ZM 11.1865 12.9566C 11.1848 12.9532 11.184 12.9514 11.1882 12.9604C 11.1908 12.966 11.1983 12.9824 11.207 12.9998L 12.3697 12.4184C 12.3714 12.4218 12.3722 12.4236 12.368 12.4146C 12.3654 12.4089 12.3579 12.3925 12.3492 12.3752L 11.1865 12.9566ZM 11.2079 13.0016C 11.2389 13.063 11.2689 13.1193 11.2953 13.1696L 12.4463 12.5653C 12.4178 12.511 12.3928 12.4643 12.3688 12.4165L 11.2079 13.0016ZM 11.2952 13.1693C 11.3449 13.2641 11.3959 13.3575 11.4443 13.4433L 12.5767 12.8048C 12.5325 12.7266 12.491 12.6506 12.4465 12.5657L 11.2952 13.1693ZM 11.4446 13.4439C 11.4675 13.4844 11.4923 13.5281 11.5169 13.5702L 12.6384 12.9127C 12.6186 12.8789 12.5989 12.8441 12.5763 12.8042L 11.4446 13.4439ZM 11.5167 13.5698C 11.5821 13.6815 11.6478 13.7898 11.7092 13.8868L 12.8075 13.1913C 12.7528 13.105 12.6989 13.0161 12.6386 12.9131L 11.5167 13.5698ZM 11.712 13.8912C 11.7185 13.9011 11.7315 13.923 11.7507 13.9527L 12.8401 13.2433C 12.8349 13.2354 12.8235 13.2162 12.8047 13.1869L 11.712 13.8912ZM 11.7493 13.9504C 11.8605 14.1226 11.9632 14.2713 12.0446 14.3823L 13.0925 13.613C 13.0221 13.5172 12.9416 13.4006 12.8416 13.2455L 11.7493 13.9504ZM 12.0436 14.381C 12.065 14.4103 12.0832 14.4348 12.0996 14.4571L 13.1467 13.6866C 13.129 13.6627 13.1123 13.6401 13.0935 13.6144L 12.0436 14.381ZM 12.1053 14.4647C 12.1047 14.4639 12.1057 14.4653 12.1075 14.4677C 12.1093 14.4702 12.1109 14.4723 12.1133 14.4756C 12.118 14.4821 12.1239 14.4903 12.1293 14.4977L 13.1789 13.7307C 13.1727 13.7222 13.1562 13.6991 13.141 13.679L 12.1053 14.4647ZM 12.0041 14.1142L 12.0041 15.5581L 13.3041 15.5581L 13.3041 14.1142L 12.0041 14.1142ZM 12.0041 15.5581C 12.0041 15.7423 11.9039 15.9113 11.7415 16.0001L 12.365 17.1408C 12.9435 16.8247 13.3041 16.2187 13.3041 15.5581L 12.0041 15.5581ZM 11.742 15.9998L 10.5874 16.6295L 11.2098 17.7708L 12.3644 17.1411L 11.742 15.9998ZM 10.9562 16.5527L 10.755 16.5348L 10.6399 17.8297L 10.841 17.8476L 10.9562 16.5527ZM 10.1105 16.9029L 10.0285 17.0753L 11.2023 17.634L 11.2844 17.4616L 10.1105 16.9029ZM 10.3041 16.784L 7.84916 18.1232L 8.47171 19.2644L 10.9267 17.9252L 10.3041 16.784ZM 7.84885 18.1234C 6.37491 18.9284 5.45909 20.4711 5.45909 22.1507L 6.75909 22.1507C 6.75909 20.9468 7.41506 19.8416 8.47202 19.2643L 7.84885 18.1234ZM 25.3091 22.4773L 6.98182 22.4773L 6.98182 23.7773L 25.3091 23.7773L 25.3091 22.4773ZM 7.63182 23.1273L 7.63182 22.1507L 6.33182 22.1507L 6.33182 23.1273L 7.63182 23.1273ZM 7.63182 22.1507C 7.63182 21.2665 8.11381 20.4544 8.88951 20.0317L 8.26743 18.8902C 7.07339 19.5409 6.33182 20.7911 6.33182 22.1507L 7.63182 22.1507ZM 8.88973 20.0316L 12.7825 17.9082L 12.16 16.767L 8.26722 18.8903L 8.88973 20.0316ZM 12.7827 17.9081C 13.6429 17.4386 14.1773 16.5377 14.1773 15.5585L 12.8773 15.5585C 12.8773 16.0621 12.6026 16.5254 12.1598 16.7671L 12.7827 17.9081ZM 14.1773 15.5585L 14.1773 13.8052L 12.8773 13.8052L 12.8773 15.5585L 14.1773 15.5585ZM 14.1773 13.8052L 14.1773 13.8048L 12.8773 13.8048L 12.8773 13.8052L 14.1773 13.8052ZM 14.0259 13.3878L 13.9413 13.2866L 12.944 14.1205L 13.0286 14.2218L 14.0259 13.3878ZM 13.9392 13.2842L 13.9226 13.2645L 12.9294 14.1033L 12.946 14.1229L 13.9392 13.2842ZM 13.9669 13.3234C 13.9583 13.3105 13.9511 13.3008 13.9491 13.298C 13.947 13.2952 13.9435 13.2905 13.942 13.2886C 13.9401 13.2862 13.9371 13.2823 13.9359 13.2808C 13.9344 13.2789 13.9323 13.2763 13.9314 13.2751C 13.9299 13.2732 13.9282 13.2711 13.9266 13.2692C 13.9235 13.2652 13.9198 13.2607 13.9147 13.2543C 13.9034 13.2401 13.8895 13.2225 13.8703 13.1973L 12.8378 13.9873C 12.8626 14.0197 12.8843 14.0472 12.8978 14.0642C 12.905 14.0733 12.9111 14.0808 12.9146 14.0851C 12.9164 14.0874 12.918 14.0893 12.9176 14.0889C 12.9176 14.0889 12.9169 14.088 12.9171 14.0882C 12.9174 14.0886 12.9146 14.0851 12.9152 14.0858C 12.9145 14.0849 12.9124 14.0823 12.9097 14.0788C 12.9084 14.077 12.9059 14.0738 12.9029 14.0697C 12.9009 14.067 12.8938 14.0573 12.8852 14.0445L 13.9669 13.3234ZM 13.874 13.2023C 13.8714 13.1988 13.8537 13.176 13.8349 13.1538L 12.8566 14.0098C 12.8481 14.0001 12.8416 13.9921 12.8379 13.9873C 12.8346 13.9831 12.8322 13.9798 12.834 13.9823L 13.874 13.2023ZM 13.8612 13.1859C 13.8407 13.1592 13.8201 13.1316 13.7928 13.0935L 12.7364 13.8511C 12.7711 13.8994 12.8045 13.9442 12.8303 13.9778L 13.8612 13.1859ZM 13.846 13.1816C 13.8359 13.1614 13.8261 13.1445 13.8179 13.1311C 13.8139 13.1247 13.8106 13.1195 13.8084 13.1161C 13.8075 13.1148 13.8062 13.1128 13.8057 13.1121C 13.8053 13.1114 13.8048 13.1107 13.8048 13.1107C 13.8045 13.1102 13.8061 13.1127 13.808 13.1156C 13.8102 13.1189 13.8134 13.1239 13.8172 13.1301C 13.8252 13.1431 13.8348 13.1597 13.8447 13.1794L 12.6819 13.7608C 12.692 13.781 12.7018 13.7979 12.71 13.8113C 12.7139 13.8177 12.7173 13.8229 12.7195 13.8263C 12.7204 13.8276 12.7217 13.8296 12.7221 13.8303C 12.7226 13.831 12.723 13.8317 12.7231 13.8317C 12.7234 13.8322 12.7217 13.8297 12.7198 13.8268C 12.7177 13.8235 12.7145 13.8185 12.7107 13.8123C 12.7026 13.7993 12.6931 13.7827 12.6832 13.763L 13.846 13.1816ZM 13.7908 13.0904C 13.7289 13.0044 13.6571 12.9013 13.5729 12.7699L 12.4789 13.4722C 12.5762 13.6235 12.6676 13.7552 12.7357 13.8498L 13.7908 13.0904ZM 13.5548 12.7432C 13.5642 12.7564 13.5712 12.7672 13.575 12.7733C 13.5785 12.7788 13.5813 12.7835 13.5802 12.7818C 13.58 12.7814 13.5789 12.7796 13.5778 12.7778C 13.5765 12.7757 13.5745 12.7724 13.572 12.7684C 13.5672 12.7607 13.5592 12.7483 13.5487 12.7336L 12.4909 13.4892C 12.4814 13.476 12.4745 13.4652 12.4707 13.4591C 12.4672 13.4536 12.4644 13.4489 12.4655 13.4506C 12.4657 13.4511 12.4668 13.4528 12.4679 13.4546C 12.4692 13.4568 12.4712 13.46 12.4737 13.464C 12.4785 13.4717 12.4865 13.4841 12.497 13.4988L 13.5548 12.7432ZM 13.5671 12.7608C 13.5266 12.6976 13.4864 12.633 13.443 12.5606L 12.3277 13.2285C 12.3769 13.3106 12.4275 13.3918 12.4724 13.462L 13.5671 12.7608ZM 13.439 12.5539L 13.4393 12.5546L 12.3106 13.1996C 12.3194 13.2148 12.3283 13.2295 12.3318 13.2352L 13.439 12.5539ZM 13.4332 12.5442C 13.3391 12.3865 13.2457 12.2197 13.1479 12.0251L 11.9866 12.6094C 12.0975 12.8293 12.2135 13.0369 12.3166 13.21L 13.4332 12.5442ZM 12.5673 12.3172C 13.0268 11.8575 13.0269 11.8576 13.027 11.8577C 13.027 11.8578 13.0271 11.8579 13.0272 11.8579C 13.0271 11.8579 13.0278 11.8585 13.0277 11.8584C 13.0275 11.8582 13.0289 11.8596 13.0286 11.8593C 13.0283 11.859 13.0311 11.8618 13.0304 11.8612C 13.0298 11.8605 13.0355 11.8664 13.0342 11.8651C 13.0329 11.8637 13.0451 11.8765 13.0423 11.8736C 13.0394 11.8705 13.0669 11.9012 13.0606 11.8941C 13.0732 11.9087 13.0901 11.9297 13.1079 11.9564C 13.1294 11.9887 13.2168 12.1212 13.2168 12.3164L 11.9168 12.3164C 11.9168 12.5119 12.0045 12.6449 12.0263 12.6776C 12.0425 12.7008 12.0666 12.7318 12.0738 12.7403C 12.08 12.7475 12.0893 12.7577 12.0922 12.7608C 12.0949 12.7637 12.099 12.768 12.1003 12.7694C 12.1016 12.7707 12.1035 12.7726 12.1041 12.7733C 12.1047 12.7739 12.1057 12.7748 12.106 12.7752C 12.1063 12.7755 12.1067 12.7759 12.1069 12.7761C 12.107 12.7762 12.1073 12.7765 12.1073 12.7765C 12.1074 12.7766 12.1075 12.7767 12.1076 12.7768C 12.1077 12.7769 12.1078 12.777 12.5673 12.3172ZM 13.1487 12.0266C 13.0961 11.921 13.0467 11.817 12.9959 11.7024L 11.8079 12.2304C 11.8653 12.3593 11.9268 12.4892 11.985 12.6061L 13.1487 12.0266ZM 12.9977 11.7067C 12.9862 11.6804 12.9783 11.6638 12.9751 11.6561L 11.7833 12.1755C 11.7949 12.2018 11.8028 12.2184 11.806 12.2261L 12.9977 11.7067ZM 12.9742 11.654C 12.9524 11.6045 12.9311 11.5537 12.9072 11.4961L 11.7064 11.9942C 11.7313 12.0544 11.758 12.1179 11.7842 12.1776L 12.9742 11.654ZM 12.9086 11.4995C 12.9015 11.4823 12.8936 11.4622 12.8841 11.4383L 11.6771 11.9211C 11.685 11.9409 11.6946 11.9653 11.705 11.9908L 12.9086 11.4995ZM 12.8847 11.4399C 12.8616 11.3815 12.8411 11.3308 12.8198 11.273L 11.6009 11.7251C 11.6284 11.7991 11.6542 11.8635 11.6764 11.9195L 12.8847 11.4399ZM 12.8189 11.2708C 12.7781 11.1621 12.7419 11.055 12.7039 10.9339L 11.4636 11.3233C 11.5059 11.4579 11.5535 11.5986 11.6017 11.7273L 12.8189 11.2708ZM 12.7048 10.9367L 12.6808 10.859L 11.4388 11.2428L 11.4628 11.3205L 12.7048 10.9367ZM 12.6824 10.8641C 12.6803 10.8573 12.6785 10.8515 12.6772 10.8475C 12.6761 10.8439 12.6751 10.8408 12.6745 10.8391C 12.6733 10.8353 12.6747 10.8394 12.6765 10.8457L 11.4265 11.2029C 11.4309 11.2183 11.4351 11.2314 11.4367 11.2364C 11.4376 11.2392 11.438 11.2405 11.4383 11.2412C 11.4384 11.2416 11.4379 11.2401 11.4372 11.2377L 12.6824 10.8641ZM 12.6745 10.839C 12.6351 10.7065 12.6013 10.5857 12.5716 10.4555L 11.3044 10.7456C 11.3412 10.9053 11.3859 11.0663 11.4285 11.2096L 12.6745 10.839ZM 12.5715 10.455L 12.5318 10.2822L 11.2648 10.5734L 11.3045 10.7462L 12.5715 10.455ZM 12.2507 9.88159L 12.1019 9.78559L 11.3971 10.878L 11.5459 10.974L 12.2507 9.88159ZM 12.1018 9.78551C 12.0298 9.73908 11.9955 9.66882 11.9955 9.6L 10.6955 9.6C 10.6955 10.1211 10.9631 10.5981 11.3973 10.8781L 12.1018 9.78551ZM 11.9955 9.6L 11.9955 7.85455L 10.6955 7.85455L 10.6955 9.6L 11.9955 9.6ZM 11.9955 7.85455C 11.9955 7.80179 12.0153 7.74598 12.074 7.69283L 11.2016 6.72899C 10.8833 7.01707 10.6955 7.4177 10.6955 7.85455L 11.9955 7.85455ZM 12.0726 7.69405L 12.2166 7.56445L 11.347 6.59817L 11.203 6.72777L 12.0726 7.69405ZM 12.4318 7.08131L 12.4318 4.36364L 11.1318 4.36364L 11.1318 7.08131L 12.4318 7.08131ZM 12.4318 4.36364L 12.4318 4.20916L 11.1318 4.20916L 11.1318 4.36364L 12.4318 4.36364ZM 12.1809 3.69608L 12.1691 3.68692L 11.371 4.71308L 11.3828 4.72225L 12.1809 3.69608ZM 12.4193 4.16942C 12.4073 3.9149 12.4286 3.1586 12.967 2.54443L 11.9895 1.68743C 11.1194 2.67995 11.1031 3.85499 11.1208 4.23058L 12.4193 4.16942ZM 12.9671 2.5443C 13.5116 1.92291 14.5185 1.52273 16.1455 1.52273L 16.1455 0.222727C 14.3522 0.222727 12.891 0.658621 11.9894 1.68755L 12.9671 2.5443ZM 16.1455 1.52273C 17.7666 1.52273 18.7723 1.92004 19.3178 2.53723L 20.2918 1.6763C 19.3895 0.65538 17.9323 0.222727 16.1455 0.222727L 16.1455 1.52273ZM 19.3179 2.53743C 19.9706 3.27523 19.8658 4.24556 19.8653 4.25249L 21.1608 4.36045C 21.1612 4.35583 21.1986 3.97501 21.1191 3.45667C 21.0385 2.98063 20.7941 2.26472 20.2917 1.6761L 19.3179 2.53743ZM 19.863 4.30555L 19.8591 7.08039L 21.1591 7.08223L 21.163 4.30739L 19.863 4.30555ZM 20.0735 7.56373L 20.2175 7.69376L 21.0887 6.72893L 20.9447 6.59889L 20.0735 7.56373ZM 20.2175 7.69382C 20.2756 7.74622 20.2955 7.80166 20.2955 7.85455L 21.5955 7.85455C 21.5955 7.41783 21.4076 7.01683 21.0887 6.72887L 20.2175 7.69382ZM 20.2955 7.85455L 20.2955 9.6L 21.5955 9.6L 21.5955 7.85455L 20.2955 7.85455ZM 20.2955 9.6C 20.2955 9.6884 20.2389 9.77501 20.1335 9.80749L 20.5164 11.0498C 21.1528 10.8536 21.5955 10.2735 21.5955 9.6L 20.2955 9.6ZM 20.1341 9.80732L 19.9167 9.87408L 20.2985 11.1168L 20.5158 11.05L 20.1341 9.80732ZM 19.4891 10.2955L 19.4193 10.5115L 20.6563 10.9113L 20.7261 10.6953L 19.4891 10.2955ZM 19.419 10.5125C 19.1436 11.375 18.772 12.1249 18.2709 12.8285L 19.3315 13.5802C 19.8881 12.7915 20.3481 11.864 20.6566 10.9104L 19.419 10.5125ZM 18.27 12.8297C 18.149 13.0016 18.0444 13.1368 17.9481 13.2456L 18.9237 14.1048C 19.0465 13.9649 19.1942 13.7746 19.3323 13.5791L 18.27 12.8297ZM 17.9472 13.2467L 17.8385 13.3706L 18.816 14.2276L 18.9247 14.1037L 17.9472 13.2467ZM 17.6773 13.7991L 17.6773 15.5991L 18.9773 15.5991L 18.9773 13.7991L 17.6773 13.7991ZM 17.6773 15.5991C 17.6773 16.6176 18.2453 17.5369 19.1561 17.9927L 19.7378 16.83C 19.2672 16.5946 18.9773 16.1253 18.9773 15.5991L 17.6773 15.5991ZM 19.1563 17.9927L 23.3249 20.0768L 23.9062 18.914L 19.7376 16.83L 19.1563 17.9927ZM 23.3249 20.0768C 24.1493 20.489 24.6591 21.3138 24.6591 22.2358L 25.9591 22.2358C 25.9591 20.8215 25.1711 19.5465 23.9063 18.914L 23.3249 20.0768ZM 24.6591 22.2358L 24.6591 23.1273L 25.9591 23.1273L 25.9591 22.2358L 24.6591 22.2358Z"/>
</defs>
</svg>
