<svg width="152" height="152" viewBox="0 0 152 152" version="1.1" xmlns="http://www.w3.org/2000/svg" xmlns:xlink="http://www.w3.org/1999/xlink">
<title>035-ufo</title>
<desc>Created using Figma</desc>
<g id="Canvas" transform="translate(-9796 -407)">
<g id="035-ufo">
<g id="Vector">
<use xlink:href="#path0_fill" transform="translate(9796 407)" fill="#27536B"/>
</g>
<g id="Group">
<g id="Vector">
<use xlink:href="#path1_fill" transform="translate(9901.22 440.942)" fill="#FFFFFF"/>
</g>
<g id="Vector">
<use xlink:href="#path2_fill" transform="translate(9906.71 500.483)" fill="#FFFFFF"/>
</g>
<g id="Vector">
<use xlink:href="#path3_fill" transform="translate(9804.52 455.319)" fill="#FFFFFF"/>
</g>
<g id="Vector">
<use xlink:href="#path4_fill" transform="matrix(-0.7071 -0.7071 0.7071 -0.7071 9835.74 456.388)" fill="#FFFFFF"/>
</g>
<g id="Vector">
<use xlink:href="#path5_fill" transform="matrix(-0.7071 -0.7071 0.7071 -0.7071 9844.31 487.555)" fill="#FFFFFF"/>
</g>
<g id="Vector">
<use xlink:href="#path6_fill" transform="matrix(-0.7071 -0.7071 0.7071 -0.7071 9848.6 496.996)" fill="#FFFFFF"/>
</g>
<g id="Vector">
<use xlink:href="#path7_fill" transform="matrix(-0.7071 -0.7071 0.7071 -0.7071 9931 502.073)" fill="#FFFFFF"/>
</g>
<g id="Vector">
<use xlink:href="#path8_fill" transform="matrix(-0.7071 -0.7071 0.7071 -0.7071 9906 483.204)" fill="#FFFFFF"/>
</g>
<g id="Vector">
<use xlink:href="#path9_fill" transform="matrix(-0.7071 -0.7071 0.7071 -0.7071 9821.07 516.366)" fill="#FFFFFF"/>
</g>
<g id="Vector">
<use xlink:href="#path10_fill" transform="matrix(-0.7071 -0.7071 0.7071 -0.7071 9917.17 433.64)" fill="#FFFFFF"/>
</g>
</g>
<g id="Vector">
<use xlink:href="#path11_fill" transform="translate(9830.27 462.137)" fill="#E8C172"/>
</g>
<g id="Vector">
<use xlink:href="#path12_fill" transform="translate(9849.15 462.137)" fill="#FCD57E"/>
</g>
<g id="Group">
<g id="Vector">
<use xlink:href="#path13_fill" transform="translate(9863.86 535.634)" fill="#FFFFFF"/>
</g>
<g id="Vector">
<use xlink:href="#path14_fill" transform="translate(9869.55 534.961)" fill="#FFFFFF"/>
</g>
<g id="Vector">
<use xlink:href="#path15_fill" transform="translate(9880.07 531.417)" fill="#FFFFFF"/>
</g>
<g id="Vector">
<use xlink:href="#path16_fill" transform="translate(9884.18 527.681)" fill="#FFFFFF"/>
</g>
</g>
<g id="Vector">
<use xlink:href="#path17_fill" transform="translate(9879.16 511.523)" fill="#A3682E"/>
</g>
<g id="Vector">
<use xlink:href="#path18_fill" transform="translate(9863.85 531.417)" fill="#E6E6E6"/>
</g>
<g id="Vector">
<use xlink:href="#path19_fill" transform="translate(9845.82 522.818)" fill="#A3682E"/>
</g>
<g id="Vector">
<use xlink:href="#path20_fill" transform="translate(9850.44 515.667)" fill="#FFFFFF"/>
</g>
<g id="Group">
<g id="Vector">
<use xlink:href="#path21_fill" transform="translate(9849.13 520.287)" fill="#A3682E"/>
</g>
<g id="Vector">
<use xlink:href="#path22_fill" transform="translate(9864.69 518.846)" fill="#A3682E"/>
</g>
</g>
<g id="Vector">
<use xlink:href="#path23_fill" transform="translate(9853.32 418.261)" fill="#51BEE5"/>
</g>
<g id="Vector">
<use xlink:href="#path24_fill" transform="translate(9853.32 418.262)" fill="#46B5D3"/>
</g>
<g id="Group">
<g id="Vector">
<use xlink:href="#path25_fill" transform="translate(9878.38 520.532)" fill="#A3682E"/>
</g>
<g id="Vector">
<use xlink:href="#path26_fill" transform="translate(9859.13 532.003)" fill="#A3682E"/>
</g>
<g id="Vector">
<use xlink:href="#path27_fill" transform="matrix(-0.4517 -0.8922 0.8922 -0.4517 9871.8 531.762)" fill="#A3682E"/>
</g>
</g>
<g id="Vector">
<use xlink:href="#path28_fill" transform="translate(9853.9 524.711)" fill="#333333"/>
</g>
<g id="Vector">
<use xlink:href="#path29_fill" transform="translate(9844.2 436.941)" fill="#E6E6E6"/>
</g>
<g id="Vector">
<use xlink:href="#path30_fill" transform="translate(9844.2 436.941)" fill="#CCCCCC"/>
</g>
<g id="Group">
<g id="Vector">
<use xlink:href="#path31_fill" transform="translate(9862.77 458.477)" fill="#F77759"/>
</g>
<g id="Vector">
<use xlink:href="#path32_fill" transform="translate(9844.2 445.511)" fill="#F77759"/>
</g>
</g>
<g id="Vector">
<use xlink:href="#path33_fill" transform="translate(9878.92 425.403)" fill="#73D5EF"/>
</g>
<g id="Vector">
<use xlink:href="#path34_fill" transform="translate(9844.2 445.511)" fill="#C1533E"/>
</g>
</g>
</g>
<defs>
<path id="path0_fill" d="M 152 75.9982C 152 89.5328 148.46 102.24 142.26 113.249C 142.151 113.444 142.042 113.638 141.93 113.829C 141.818 114.024 141.706 114.218 141.594 114.409C 139.487 117.996 137.097 121.394 134.451 124.575C 131.134 128.56 127.42 132.203 123.365 135.436C 121.552 136.886 119.67 138.251 117.725 139.53C 117.313 139.8 116.901 140.067 116.483 140.331C 114.723 141.445 112.913 142.483 111.057 143.449C 100.568 148.911 88.646 152 76.0018 152C 63.3576 152 51.4315 148.911 40.9429 143.449C 38.9749 142.424 37.0598 141.317 35.2008 140.13C 34.8908 139.932 34.5812 139.735 34.2745 139.533C 29.5509 136.422 25.1901 132.796 21.2806 128.738C 19.9886 127.396 18.7426 126.009 17.5524 124.575C 15.5714 122.195 13.732 119.69 12.051 117.073C 11.9786 116.957 11.9026 116.842 11.8302 116.726C 11.7049 116.539 11.5861 116.351 11.4677 116.159C 11.3489 115.968 11.2305 115.777 11.115 115.586C 11.0096 115.411 10.9039 115.236 10.7985 115.062C 7.03416 108.799 4.15002 101.943 2.31384 94.6746C 2.0897 93.798 1.88545 92.9177 1.69427 92.031C 0.583359 86.8627 0 81.4999 0 75.9982C 0 34.024 34.0272 0 76.0018 0C 81.4999 0 86.8627 0.583359 92.0312 1.69427C 92.918 1.88545 93.798 2.0897 94.6749 2.31384C 110.197 6.23319 123.817 14.9287 133.881 26.7458C 134.382 27.3324 134.873 27.9291 135.357 28.5324C 145.77 41.5361 152 58.0402 152 75.9982Z"/>
<path id="path1_fill" d="M 11.3457 11.3457L 20.637 10.3188L 11.3457 9.2916L 10.3185 5.43594e-07L 9.29129 9.2916L -2.02942e-06 10.3188L 9.29129 11.3457L 10.3185 20.6373L 11.3457 11.3457Z"/>
<path id="path2_fill" d="M 15.5723 15.5726L 28.3251 14.1627L 15.5723 12.7529L 14.1627 2.24686e-06L 12.7529 12.7529L -7.24792e-08 14.1627L 12.7529 15.5726L 14.1627 28.3254L 15.5723 15.5726Z"/>
<path id="path3_fill" d="M 15.5726 15.5726L 28.3254 14.1627L 15.5726 12.7529L 14.1627 -1.30463e-06L 12.7529 12.7529L 8.15391e-08 14.1627L 12.7529 15.5726L 14.1627 28.3254L 15.5726 15.5726Z"/>
<path id="path4_fill" d="M 3.07622 0L 0 0L 0 3.07622L 3.07622 3.07622L 3.07622 0Z"/>
<path id="path5_fill" d="M 3.07622 0L 0 0L 0 3.07622L 3.07622 3.07622L 3.07622 0Z"/>
<path id="path6_fill" d="M 3.07622 3.55148e-06L 0 3.55148e-06L 0 3.07622L 3.07622 3.07622L 3.07622 3.55148e-06Z"/>
<path id="path7_fill" d="M 3.07622 0L 0 0L 0 3.07622L 3.07622 3.07622L 3.07622 0Z"/>
<path id="path8_fill" d="M 3.07622 0L 2.31934e-06 0L 2.31934e-06 3.07622L 3.07622 3.07622L 3.07622 0Z"/>
<path id="path9_fill" d="M 3.07622 0L 0 0L 0 3.07622L 3.07622 3.07622L 3.07622 0Z"/>
<path id="path10_fill" d="M 3.07622 0L 4.42123e-06 0L 4.42123e-06 3.07622L 3.07622 3.07622L 3.07622 0Z"/>
<path id="path11_fill" d="M 83.451 84.3939C 83.0389 84.664 82.6268 84.9312 82.2083 85.1948C 80.4481 86.309 78.6383 87.3472 76.7826 88.3132C 72.8994 90.3337 68.8189 92.0312 64.5798 93.3663C 57.3678 95.6374 49.6909 96.8635 41.7273 96.8635C 33.7636 96.8635 26.0867 95.6374 18.8712 93.3663C 14.6321 92.0312 10.5515 90.3337 6.6684 88.3132C 4.70042 87.2881 2.78528 86.1804 0.92625 84.9938C 0.616312 84.7961 0.306671 84.5984 -1.06907e-06 84.3971L 37.8738 2.13814e-06L 45.5804 2.13814e-06L 83.451 84.3939Z"/>
<path id="path12_fill" d="M 45.709 93.3663C 38.4967 95.6374 30.8198 96.8635 22.8561 96.8635C 14.8924 96.8635 7.21555 95.6374 -5.07355e-07 93.3663L 20.4731 2.13814e-06L 25.2362 2.13814e-06L 45.709 93.3663Z"/>
<path id="path13_fill" d="M 2.01726 1.88446e-06L 2.86514 1.00908C 4.15714 2.54154 5.02016 4.09183 5.59283 5.49486C 6.79755 8.44046 6.73075 10.7398 6.72541 10.8772L 6.67523 12.1956L 4.04077 12.0929L 4.09094 10.7789C 4.09272 10.7044 4.12508 8.37365 2.71937 5.55156C 2.26812 4.63392 1.65953 3.66582 0.849954 2.70661L -1.05095e-06 1.6999L 2.01726 1.88446e-06Z"/>
<path id="path14_fill" d="M 5.48773 5.07122C 6.44278 7.15736 7.01486 9.15295 7.1161 9.51188L 7.46819 10.784L 4.93109 11.4903L 4.57662 10.2205C 4.32339 9.3097 3.69491 7.41801 2.86396 5.70059C 2.30642 4.54248 1.65627 3.46839 0.967219 2.83189L 1.30463e-06 1.93652L 1.79253 -1.81198e-06L 2.75975 0.895371C 3.85462 1.91009 4.77909 3.5153 5.48773 5.07122Z"/>
<path id="path15_fill" d="M 2.2895 -1.08719e-06L 2.94055 1.14653C 3.62989 2.35659 3.89174 3.76912 3.9517 5.07359C 4.04967 7.21614 3.5904 9.05647 3.5622 9.17938L 3.23564 10.4559L 0.679846 9.80489L 1.00433 8.53011C 1.11773 8.08509 1.26083 7.26572 1.30892 6.3273C 1.37928 5.0445 1.26825 3.53756 0.651045 2.4507L 7.24792e-08 1.30417L 2.2895 -1.08719e-06Z"/>
<path id="path16_fill" d="M 2.11286 -2.75421e-06L 2.90136 1.05658C 3.28551 1.56958 3.62752 2.08585 3.93241 2.59202C 6.23705 6.43358 6.40062 9.92067 6.40389 10.0863L 6.45644 11.4027L 3.82167 11.5051L 3.76912 10.1935C 3.76794 10.1493 3.68719 8.75069 3.01684 6.83911C 2.57836 5.58125 1.88159 4.10043 0.788496 2.63328L 2.89917e-06 1.5767L 2.11286 -2.75421e-06Z"/>
<path id="path17_fill" d="M 12.0893 8.78958C 11.6348 9.22302 11.0613 9.55136 10.5034 9.74343C 9.35215 10.1407 8.3033 9.99816 7.69767 9.36314C 6.86939 8.49419 6.47544 6.4024 6.29167 4.40889C 3.27364 4.87587 0.64719 6.89255 0.608893 6.92253L 4.2038e-06 6.14324C 0.0617542 6.09514 1.53544 4.95188 3.60822 4.13161C 4.50656 3.77595 5.37878 3.53786 6.21567 3.41733C 6.11206 1.75305 6.13729 0.328644 6.14501 2.97165e-06L 7.13361 0.023749C 7.1158 0.772468 7.1244 2.01014 7.20575 3.32827C 8.59186 3.28255 9.86308 3.58268 10.9734 4.22839C 12.757 5.26567 13.0441 6.37777 12.9711 7.12768C 12.9078 7.77189 12.5635 8.33744 12.0893 8.78958ZM 7.28026 4.31656C 7.44889 6.18836 7.78436 8.02008 8.41373 8.68092C 8.73525 9.01788 9.42905 9.06775 10.1816 8.80858C 11.1756 8.46598 11.9186 7.73538 11.9869 7.03179C 12.0686 6.19519 11.2106 5.5103 10.4767 5.08339C 9.45458 4.48934 8.35792 4.2842 7.28026 4.31656Z"/>
<path id="path18_fill" d="M 16.869 2.451C 17.4865 3.53816 17.5973 5.0448 17.5269 6.3276C 18.3801 5.95146 19.2618 5.53464 20.1706 5.07359C 20.1109 3.76882 19.8485 2.35689 19.1594 1.14653L 18.5084 -3.18909e-06L 16.2177 1.30447L 16.869 2.451ZM 0.849952 6.92401C 1.65923 7.88292 2.26812 8.85103 2.71937 9.76897C 2.82595 9.8043 2.93966 9.8233 3.05128 9.83072C 3.15608 9.83577 4.05027 9.87555 5.59312 9.71197C 5.02045 8.30864 4.15773 6.75865 2.86544 5.22619L 2.01756 4.21711L 1.37711e-06 5.91731L 0.849952 6.92401Z"/>
<path id="path19_fill" d="M 7.00981 3.29917L -1.05095e-06 0L 7.71014 0.757028C 8.4455 0.829168 8.98314 1.48378 8.911 2.21914C 8.83886 2.9545 8.18425 3.49214 7.44859 3.42C 7.29392 3.40515 7.1434 3.36122 7.00981 3.29917Z"/>
<path id="path20_fill" d="M 28.7857 0.119757C 27.4524 -0.180087 26.0423 0.0891799 24.9186 0.859571C 24.1459 1.38652 22.8218 2.2525 21.1908 3.17875C 19.1845 4.31252 16.7166 5.5312 14.2454 6.30218C 11.8917 7.03398 9.53841 7.35994 7.57399 6.82319C 6.6801 6.57797 5.74554 6.54858 4.87154 6.74452C 2.55324 7.26049 0.828395 9.19137 0.583177 11.5471C 0.443942 12.8821 0.253352 14.3252 0.0161488 15.8399C -0.0524293 16.2742 0.100161 16.7118 0.421974 17.0108C 0.745864 17.3073 1.19533 17.4258 1.62432 17.3263C 4.74507 16.5827 6.77065 16.9974 8.68282 18.1528C 9.91218 18.8935 11.0973 19.9359 12.4994 21.1726C 12.8851 21.5155 13.2802 21.8629 13.6938 22.2203C 13.9316 22.4216 14.1714 22.6259 14.4205 22.8349C 14.6375 23.0195 14.9124 23.1264 15.1966 23.1424C 15.5249 23.1573 23.3505 23.4939 34.475 17.2299C 34.7657 17.0666 35.029 16.87 35.2632 16.6471C 35.7783 16.156 36.1455 15.5279 36.3406 14.7964C 36.7123 13.3853 36.4293 11.6792 35.7807 9.85666C 35.2086 8.24345 34.3518 6.5373 33.4054 4.86649C 33.0586 4.25433 32.7027 3.64663 32.3438 3.05051C 32.2069 2.82577 32.0902 2.62716 31.9917 2.46151C 31.297 1.27341 30.1261 0.417819 28.7857 0.119757Z"/>
<path id="path21_fill" d="M 7.00981 3.29917L -2.21062e-06 -4.49371e-06L 7.71014 0.757032C 8.4455 0.829173 8.98314 1.48378 8.911 2.21914C 8.83886 2.9545 8.18425 3.49214 7.44889 3.42C 7.29451 3.40486 7.14341 3.36122 7.00981 3.29917Z"/>
<path id="path22_fill" d="M 6.94569 -3.55148e-06C 7.942 1.52326 7.74339 3.59338 6.37599 4.89666C 4.83461 6.36589 2.39519 6.30503 0.928327 4.76603C 0.47114 4.28628 0.165359 3.72193 -3.26157e-07 3.12343C 2.47148 2.35244 4.9394 1.13376 6.94569 -3.55148e-06Z"/>
<path id="path23_fill" d="M 18.6788 37.3576C 28.9948 37.3576 37.3576 28.9948 37.3576 18.6788C 37.3576 8.36277 28.9948 0 18.6788 0C 8.36278 0 0 8.36277 0 18.6788C 0 28.9948 8.36278 37.3576 18.6788 37.3576Z"/>
<path id="path24_fill" d="M 9.44923 18.6788C 9.44923 9.99519 15.3752 2.69681 23.4032 0.604141C 21.8942 0.210485 20.311 2.44617e-07 18.6788 2.44617e-07C 8.36297 2.44617e-07 5.43594e-07 8.36297 5.43594e-07 18.6788C 5.43594e-07 28.9946 8.36267 37.3576 18.6788 37.3576C 20.311 37.3576 21.8942 37.1468 23.4032 36.7534C 15.3752 34.6608 9.44923 27.3627 9.44923 18.6788Z"/>
<path id="path25_fill" d="M 5.47155 -3.62396e-06C 6.41799 1.67111 7.27447 3.37696 7.84684 4.99017C 7.4713 5.19324 7.07052 5.37938 6.65133 5.54682C 3.6146 6.77053 0.68118 6.58825 0.0998989 5.14722C -0.47871 3.70411 1.5151 1.54404 4.55629 0.325075C 4.86266 0.202169 5.16844 0.0929182 5.47155 -3.62396e-06Z"/>
<path id="path26_fill" d="M 7.904 0.648955C 9.02322 1.8228 8.62066 4.02323 7.01011 5.55867C 6.6307 5.92027 6.22487 6.2112 5.8048 6.43L 5.01095 5.88405C 4.5977 5.52661 4.20226 5.17927 3.81662 4.83638C 2.41478 3.5999 1.22966 2.55727 1.9207e-06 1.81657C 0.0748144 1.71326 0.165953 1.60816 0.271047 1.50841C 1.88634 -0.0314765 6.78745 -0.522514 7.904 0.648955Z"/>
<path id="path27_fill" d="M 1.59303 5.60381C 2.47284 5.60381 3.18606 4.34936 3.18606 2.80191C 3.18606 1.25446 2.47284 0 1.59303 0C 0.713222 0 0 1.25446 0 2.80191C 0 4.34936 0.713222 5.60381 1.59303 5.60381Z"/>
<path id="path28_fill" d="M 0.720221 1.44044C 1.11799 1.44044 1.44044 1.11798 1.44044 0.720215C 1.44044 0.322449 1.11799 -2.1019e-06 0.720221 -2.1019e-06C 0.322455 -2.1019e-06 0 0.322449 0 0.720215C 0 1.11798 0.322455 1.44044 0.720221 1.44044Z"/>
<path id="path29_fill" d="M 55.5979 10.7688C 55.5979 11.5205 55.5222 12.2556 55.3737 12.9642C 54.3584 17.8591 50.024 21.5344 44.829 21.5344L 10.7688 21.5344C 7.79564 21.5344 5.10269 20.3312 3.15459 18.3798C 1.70109 16.9263 0.659359 15.0572 0.22414 12.9642C 0.0757026 12.2556 -1.9207e-06 11.5205 -1.9207e-06 10.7688C -1.9207e-06 10.0139 0.0789683 9.27883 0.22414 8.57019C 1.23945 3.67858 5.57739 -1.10531e-06 10.7688 -1.10531e-06L 44.829 -1.10531e-06C 47.8022 -1.10531e-06 50.4952 1.2065 52.4433 3.15459C 53.8971 4.60809 54.9385 6.47722 55.3737 8.57049C 55.5189 9.27913 55.5979 10.0142 55.5979 10.7688Z"/>
<path id="path30_fill" d="M 11.1016 12.9642C 10.9532 12.2556 10.8775 11.5205 10.8775 10.7688C 10.8775 10.0139 10.9565 9.27883 11.1016 8.57019C 12.117 3.67858 16.4549 -1.10531e-06 21.6463 -1.10531e-06L 10.7688 -1.10531e-06C 5.57739 -1.10531e-06 1.23945 3.67858 0.224142 8.57019C 0.0789704 9.27883 1.81198e-07 10.0139 1.81198e-07 10.7688C 1.81198e-07 11.5205 0.0757048 12.2556 0.224142 12.9642C 0.659361 15.0575 1.70079 16.9263 3.15459 18.3798C 5.10269 20.3312 7.79564 21.5344 10.7688 21.5344L 21.6463 21.5344C 18.6731 21.5344 15.9802 20.3312 14.0321 18.3798C 12.5783 16.9263 11.5366 15.0575 11.1016 12.9642Z"/>
<path id="path31_fill" d="M 18.4591 3.65988L 4.34875e-07 3.65988L 1.41698 1.26839e-06L 17.0424 1.26839e-06L 18.4591 3.65988Z"/>
<path id="path32_fill" d="M 55.5979 2.19866C 55.5979 2.95035 55.5222 3.6854 55.3737 4.39405L 0.22414 4.39405C 0.0757026 3.6854 -1.9207e-06 2.95035 -1.9207e-06 2.19866C -1.9207e-06 1.4437 0.0789683 0.708641 0.22414 3.62396e-08L 55.3737 3.62396e-08C 55.5189 0.708938 55.5979 1.444 55.5979 2.19866Z"/>
<path id="path33_fill" d="M 2.47208 7.58159C 3.83737 7.58159 4.94415 5.8844 4.94415 3.7908C 4.94415 1.6972 3.83737 0 2.47208 0C 1.10679 0 0 1.6972 0 3.7908C 0 5.8844 1.10679 7.58159 2.47208 7.58159Z"/>
<path id="path34_fill" d="M 10.8775 2.19866C 10.8775 2.95035 10.9532 3.6854 11.1016 4.39405L 0.224142 4.39405C 0.0757048 3.6854 1.81198e-07 2.95035 1.81198e-07 2.19866C 1.81198e-07 1.4437 0.0789704 0.708641 0.224142 3.62396e-08L 11.1016 3.62396e-08C 10.9565 0.708938 10.8775 1.444 10.8775 2.19866Z"/>
</defs>
</svg>
