<svg width="16" height="16" viewBox="0 0 16 16" version="1.1" xmlns="http://www.w3.org/2000/svg" xmlns:xlink="http://www.w3.org/1999/xlink">
<title>whatsapp</title>
<desc>Created using Figma</desc>
<g id="Canvas" transform="translate(-16055 -649)">
<g id="whatsapp">
<g id="Group">
<g id="Vector">
<use xlink:href="#path0_fill" transform="translate(16055 649)" fill="#2CB742"/>
</g>
<g id="Vector">
<use xlink:href="#path1_fill" transform="translate(16058.3 651.759)" fill="#FFFFFF"/>
</g>
</g>
</g>
</g>
<defs>
<path id="path0_fill" d="M 0 16L 1.376 11.8723C 0.677793 10.6979 0.275862 9.32745 0.275862 7.86207C 0.275862 3.52 3.79586 0 8.13793 0C 12.48 0 16 3.52 16 7.86207C 16 12.2041 12.48 15.7241 8.13793 15.7241C 6.81683 15.7241 5.57269 15.3967 4.48 14.8212L 0 16Z"/>
<path id="path1_fill" d="M 9.84354 7.71992C 9.48051 7.03385 8.14175 6.2493 8.14175 6.2493C 7.83886 6.07661 7.47334 6.0573 7.30065 6.36516C 7.30065 6.36516 6.86561 6.88682 6.75499 6.96185C 6.24961 7.3042 5.78148 7.29096 5.30893 6.8184L 4.21072 5.7202L 3.11251 4.62199C 2.63996 4.14944 2.62672 3.6813 2.96906 3.17592C 3.0441 3.0653 3.56575 2.63027 3.56575 2.63027C 3.87361 2.4573 3.8543 2.09206 3.68161 1.78916C 3.68161 1.78916 2.89706 0.450405 2.21099 0.0873705C 1.91913 -0.0671122 1.56079 -0.0130434 1.32741 0.220336L 0.842442 0.705301C -0.696041 2.24378 0.0614763 3.98061 1.59996 5.51909L 3.00603 6.92516L 4.4121 8.33123C 5.95058 9.86972 7.68741 10.6272 9.22589 9.08875L 9.71086 8.60378C 9.94423 8.36985 9.99803 8.01151 9.84354 7.71992Z"/>
</defs>
</svg>
