<svg width="16" height="16" viewBox="0 0 16 16" version="1.1" xmlns="http://www.w3.org/2000/svg" xmlns:xlink="http://www.w3.org/1999/xlink">
<title>Group</title>
<desc>Created using Figma</desc>
<g id="Canvas" transform="translate(-17516 -2358)">
<g id="Group">
<g id="Vector">
<use xlink:href="#path0_fill" transform="translate(17516 2358)" fill="#FFFFFF"/>
</g>
</g>
</g>
<defs>
<path id="path0_fill" d="M 14.9273 3.98429C 14.2119 2.75868 13.2415 1.78829 12.0159 1.07292C 10.79 0.357591 9.45178 0 8.00022 0C 6.5488 0 5.2102 0.357591 3.98455 1.07292C 2.75883 1.78818 1.78843 2.75857 1.07303 3.98429C 0.357591 5.21009 0 6.54869 0 8C 0 9.45138 0.357701 10.7898 1.07292 12.0156C 1.78829 13.2412 2.75868 14.2116 3.9844 14.9271C 5.2102 15.6424 6.54869 16 8.00007 16C 9.45145 16 10.7901 15.6424 12.0158 14.9271C 13.2415 14.2119 14.2118 13.2412 14.9272 12.0156C 15.6424 10.7899 15.9999 9.45131 15.9999 8C 16 6.54855 15.6424 5.2099 14.9273 3.98429ZM 11.7709 9.88526C 11.9029 10.0171 11.9689 10.1737 11.9689 10.3542C 11.9689 10.5415 11.9029 10.7014 11.7709 10.8332L 10.8335 11.7709C 10.7016 11.9027 10.5418 11.9686 10.3542 11.9686C 10.1737 11.9686 10.0173 11.9027 9.88552 11.7709L 8.00011 9.88526L 6.11463 11.7709C 5.9827 11.9027 5.82647 11.9686 5.6459 11.9686C 5.45837 11.9686 5.29867 11.9027 5.16671 11.7709L 4.22915 10.8332C 4.09721 10.7014 4.03125 10.5415 4.03125 10.3542C 4.03125 10.1737 4.09725 10.0171 4.22915 9.88526L 6.11463 7.99996L 4.22915 6.11448C 4.09721 5.9827 4.03125 5.82632 4.03125 5.64576C 4.03125 5.45822 4.09725 5.29853 4.22915 5.16656L 5.16671 4.22915C 5.29867 4.09721 5.45837 4.03125 5.6459 4.03125C 5.82647 4.03125 5.9827 4.09725 6.11463 4.22915L 8.00011 6.11448L 9.88552 4.22915C 10.0172 4.09721 10.1737 4.03125 10.3542 4.03125C 10.5418 4.03125 10.7016 4.09725 10.8335 4.22915L 11.7709 5.16656C 11.9029 5.29853 11.9689 5.45822 11.9689 5.64576C 11.9689 5.82628 11.9029 5.9827 11.7709 6.11448L 9.88552 7.99996L 11.7709 9.88526Z"/>
</defs>
</svg>
