<svg width="8" height="14" viewBox="0 0 8 14" version="1.1" xmlns="http://www.w3.org/2000/svg" xmlns:xlink="http://www.w3.org/1999/xlink">
<title>Group 4</title>
<desc>Created using Figma</desc>
<g id="Canvas" transform="translate(-21616 -483)">
<g id="Group 4">
<g id="chevron-arrow-down">
<g id="Group">
<g id="Vector">
<use xlink:href="#path0_fill" transform="matrix(-1 1.22465e-16 -1.22465e-16 -1 21624 488)" fill="#B0BEC5"/>
</g>
</g>
</g>
<g id="chevron-arrow-down">
<g id="Group">
<g id="Vector">
<use xlink:href="#path0_fill" transform="matrix(1 -2.44929e-16 2.44929e-16 1 21616 492)" fill="#B0BEC5"/>
</g>
</g>
</g>
</g>
</g>
<defs>
<path id="path0_fill" d="M 7.80997 0.570268L 7.42493 0.188342C 7.2915 0.0627925 7.13566 -3.70084e-08 6.95778 -3.70084e-08C 6.77622 -3.70084e-08 6.62223 0.0627925 6.49556 0.188342L 4.00002 2.66298L 1.50449 0.188413C 1.37784 0.0628638 1.22382 7.13947e-05 1.04233 7.13947e-05C 0.864354 7.13947e-05 0.70855 0.0628638 0.575103 0.188413L 0.195118 0.57034C 0.0650154 0.69926 0 0.853753 0 1.03368C 0 1.21695 0.0650873 1.3697 0.1951 1.49188L 3.53784 4.80654C 3.66113 4.93548 3.8151 5 4 5C 4.18143 5 4.33722 4.93549 4.46719 4.80654L 7.80995 1.49188C 7.93662 1.36626 8 1.21353 8 1.03368C 8.00002 0.857106 7.93664 0.702701 7.80997 0.570268Z"/>
</defs>
</svg>
