<svg width="76" height="76" viewBox="0 0 76 76" version="1.1" xmlns="http://www.w3.org/2000/svg" xmlns:xlink="http://www.w3.org/1999/xlink">
<title>astronaut</title>
<desc>Created using Figma</desc>
<g id="Canvas" transform="translate(-16049 -934)">
<g id="astronaut">
<g id="Group">
<g id="Rectangle 9" filter="url(#filter0_d)">
<use xlink:href="#path0_fill" transform="translate(16056 937)" fill="#FFFFFF"/>
<use xlink:href="#path1_stroke" transform="translate(16056 937)" fill="url(#paint1_linear)"/>
</g>
</g>
<g id="astronaut-ingravity">
<g id="Group">
<g id="Vector">
<use xlink:href="#path2_fill" transform="translate(16081.7 959.654)" fill="#F2994A"/>
</g>
<g id="Vector">
<use xlink:href="#path3_fill" transform="translate(16077.6 956.647)" fill="#F2994A"/>
</g>
<g id="Vector">
<use xlink:href="#path4_fill" transform="translate(16077.1 970.745)" fill="#F2994A"/>
</g>
<g id="Vector">
<use xlink:href="#path5_fill" transform="translate(16068 955)" fill="#F2994A"/>
</g>
</g>
</g>
</g>
</g>
<defs>
<filter id="filter0_d" filterUnits="userSpaceOnUse" x="16049" y="934" width="76" height="76" color-interpolation-filters="sRGB">
<feFlood flood-opacity="0" result="BackgroundImageFix"/>
<feColorMatrix in="SourceAlpha" type="matrix" values="0 0 0 0 0 0 0 0 0 0 0 0 0 0 0 0 0 0 255 0"/>
<feOffset dx="0" dy="4"/>
<feGaussianBlur stdDeviation="2"/>
<feColorMatrix type="matrix" values="0 0 0 0 0 0 0 0 0 0 0 0 0 0 0 0 0 0 0.15 0"/>
<feBlend mode="normal" in2="BackgroundImageFix" result="effect1_dropShadow"/>
<feBlend mode="normal" in="SourceGraphic" in2="effect1_dropShadow" result="shape"/>
</filter>
<linearGradient id="paint1_linear" x1="0" y1="0" x2="1" y2="0" gradientUnits="userSpaceOnUse" gradientTransform="matrix(3.79641e-15 62 -62 3.79641e-15 62 -3.79641e-15)">
<stop offset="0.0165746" stop-color="#C76814"/>
<stop offset="1" stop-color="#F2994A"/>
</linearGradient>
<path id="path0_fill" d="M 0 31C 0 13.8792 13.8792 0 31 0L 31 0C 48.1208 0 62 13.8792 62 31L 62 31C 62 48.1208 48.1208 62 31 62L 31 62C 13.8792 62 0 48.1208 0 31L 0 31Z"/>
<path id="path1_stroke" d="M 31 -2.5C 12.4985 -2.5 -2.5 12.4985 -2.5 31L 2.5 31C 2.5 15.2599 15.2599 2.5 31 2.5L 31 -2.5ZM 31 2.5C 46.7401 2.5 59.5 15.2599 59.5 31L 64.5 31C 64.5 12.4985 49.5015 -2.5 31 -2.5L 31 2.5ZM 59.5 31C 59.5 46.7401 46.7401 59.5 31 59.5L 31 64.5C 49.5015 64.5 64.5 49.5015 64.5 31L 59.5 31ZM 31 59.5C 15.2599 59.5 2.5 46.7401 2.5 31L -2.5 31C -2.5 49.5015 12.4985 64.5 31 64.5L 31 59.5Z"/>
<path id="path2_fill" d="M 0.019746 0.530652C 0.0670382 0.677298 0.105601 0.828105 0.134423 0.97871C 0.171567 1.17316 0.341759 1.30844 0.532652 1.30844C 0.558024 1.30844 0.583698 1.3061 0.609476 1.30113C 0.829699 1.25901 0.974011 1.0463 0.931894 0.826076C 0.896781 0.642895 0.849895 0.459714 0.792454 0.281506C 0.723749 0.0681838 0.495306 -0.0492341 0.281578 0.0197759C 0.0680532 0.0885829 -0.0491624 0.31733 0.019746 0.530652Z"/>
<path id="path3_fill" d="M 8.03665e-07 0.405231C -0.000405137 0.629412 0.18105 0.811476 0.405231 0.811882C 1.57739 0.813912 2.72539 1.37502 3.47628 2.31305C 3.55645 2.41312 3.67438 2.46528 3.79352 2.46528C 3.88242 2.46528 3.97203 2.43615 4.04693 2.37628C 4.22199 2.23613 4.2502 1.98069 4.11015 1.80563C 3.20704 0.677414 1.82247 0.0023341 0.406652 -6.19417e-08C 0.406347 -6.19417e-08 0.406145 -6.19417e-08 0.405942 -6.19417e-08C 0.182065 -6.19417e-08 0.000406745 0.181253 8.03665e-07 0.405231Z"/>
<path id="path4_fill" d="M 2.22993 -3.59262e-07L 0.405941 -3.59262e-07C 0.18176 -3.59262e-07 1.85825e-08 0.18176 1.85825e-08 0.405941C 1.85825e-08 0.630121 0.18176 0.811881 0.405941 0.811881L 2.22993 0.811881C 2.45412 0.811881 2.63588 0.630121 2.63588 0.405941C 2.63588 0.18176 2.45412 -3.59262e-07 2.22993 -3.59262e-07Z"/>
<path id="path5_fill" d="M 38.3282 18.7567L 37.0833 17.5117C 36.2867 16.715 35.0452 16.6283 34.1514 17.2501L 33.338 16.4368C 33.4604 16.453 33.5429 16.4637 33.5473 16.4637C 33.6354 16.4637 33.7218 16.435 33.7929 16.3811C 33.8786 16.3159 33.9348 16.2194 33.9494 16.1127L 34.9593 8.7121C 34.9897 8.49005 34.8343 8.28536 34.6121 8.25501L 32.867 8.01632C 31.7507 7.86399 30.7098 8.54688 30.3744 9.58284L 26.4348 9.04548C 26.1558 9.00732 25.8774 8.99626 25.6022 9.00986L 25.6022 7.21529C 25.6022 6.36048 25.2694 5.55784 24.6659 4.95563C 24.064 4.3523 23.2617 4.01993 22.4068 4.01993C 21.5534 4.01993 20.7511 4.3523 20.1476 4.95603C 19.5441 5.55977 19.2121 6.36221 19.2128 7.21529L 19.2128 9.38241L 17.6426 9.38241L 16.0324 7.77214C 16.1502 7.29252 16.2139 6.7919 16.2139 6.27646C 16.2139 2.81561 13.3983 9.29125e-08 9.93743 9.29125e-08C 6.78378 9.29125e-08 4.16698 2.33822 3.72704 5.37182L 0.835731 8.26313C 0.296844 8.80202 0 9.5186 0 10.2809C 0 11.043 0.296844 11.7596 0.835832 12.2986L 7.39188 18.8546L 7.39188 19.534C 7.39188 21.9957 9.39459 23.9984 11.8562 23.9984L 12.4936 23.9984L 12.8142 24.3188C 14.3796 25.8842 16.4351 26.6667 18.4913 26.6667C 20.5471 26.6667 22.6036 25.8838 24.1685 24.3188L 28.1831 20.3189L 32.4727 24.6122C 32.552 24.6915 32.6559 24.7311 32.7597 24.7311C 32.8636 24.7311 32.9676 24.6915 33.0467 24.6122L 38.3282 19.3307C 38.4868 19.1723 38.4868 18.9151 38.3282 18.7567ZM 28.589 19.5767L 28.589 16.5038C 29.2262 16.4176 29.8411 16.1306 30.3297 15.6419C 30.5113 15.4604 30.6663 15.2593 30.7953 15.0422L 32.5503 16.7971L 29.1798 20.1676L 28.589 19.5767ZM 23.8626 15.6022L 22.0952 13.8348L 22.2126 12.9755C 22.2131 12.9717 22.2138 12.9682 22.2144 12.9645C 22.4514 13.0806 22.7032 13.1659 22.9679 13.2179C 23.1657 13.2568 23.3642 13.276 23.5614 13.276C 24.0354 13.276 24.5003 13.1631 24.9257 12.9475L 25.6592 13.9126C 25.4351 14.067 25.2228 14.242 25.0264 14.4386L 23.8626 15.6022ZM 25.7494 9.81697C 25.8018 10.0968 25.8007 10.3802 25.7454 10.6615C 25.6304 11.2466 25.2945 11.7518 24.7994 12.0843C 24.3044 12.4167 23.7098 12.5367 23.1245 12.4214C 22.8737 12.3721 22.6386 12.2827 22.4231 12.1557C 22.6636 11.528 23.0734 10.9777 23.6217 10.5608C 24.2436 10.0879 24.9831 9.8324 25.7494 9.81697ZM 28.1831 13.1309C 27.5497 13.1309 26.937 13.2631 26.3748 13.5124L 25.597 12.4891C 26.083 12.0515 26.4137 11.4714 26.542 10.8182C 26.6031 10.5075 26.6148 10.1949 26.5794 9.88466L 28.8247 10.1909L 28.4235 13.1378C 28.3437 13.1334 28.2636 13.1309 28.1831 13.1309ZM 28.1831 13.9428C 28.8939 13.9428 29.5732 14.1453 30.1566 14.5216C 30.0518 14.7223 29.918 14.9054 29.7557 15.0678C 28.8853 15.9381 27.4692 15.9382 26.5989 15.0678C 26.4372 14.9062 26.3045 14.7248 26.2006 14.5272C 26.7861 14.1472 27.4687 13.9428 28.1831 13.9428ZM 33.2001 15.6006L 32.558 15.5128L 33.4588 8.91669L 34.1002 9.00438L 33.2001 15.6006ZM 30.6314 10.4372C 30.8546 10.4664 31.0581 10.312 31.0884 10.0899C 31.1941 9.31492 31.8845 8.76234 32.6537 8.81206L 31.8197 14.9184L 31.3398 14.4385C 30.7485 13.8473 30.0204 13.443 29.2271 13.2538L 29.6292 10.3004L 30.6314 10.4372ZM 23.1304 9.9144C 22.607 10.3123 22.1868 10.81 21.8875 11.3742L 20.0248 9.5114C 20.0248 9.5114 20.0258 7.15156 20.027 7.12L 24.788 7.12C 24.7892 7.15177 24.7903 9.12636 24.7903 9.12636C 24.1959 9.26865 23.6317 9.53332 23.1304 9.9144ZM 22.4069 4.83191C 23.0446 4.83191 23.6427 5.07944 24.0919 5.52983C 24.3187 5.75604 24.4941 6.02031 24.6124 6.30812L 20.2024 6.30812C 20.3205 6.02061 20.4956 5.75655 20.722 5.53003C 21.1719 5.07984 21.7704 4.83191 22.4069 4.83191ZM 19.5596 10.1943C 19.5596 10.1943 21.537 12.1675 21.5569 12.1813C 21.4905 12.4033 21.4402 12.6318 21.4083 12.8658L 21.3744 13.1141L 18.4547 10.1944L 19.5596 10.1944L 19.5596 10.1943ZM 23.2886 16.1763L 22.0387 17.4261L 14.8231 10.2106C 15.2045 9.73801 15.5184 9.20928 15.7511 8.63873L 23.2886 16.1763ZM 15.4022 6.27646C 15.4022 6.46542 15.3926 6.65215 15.3737 6.83625C 14.0422 8.13008 12.244 8.67699 10.6935 8.275C 10.6638 7.76606 10.4538 7.29121 10.0902 6.92779C 9.69732 6.53484 9.17497 6.31847 8.61944 6.31847C 8.53034 6.31847 8.44245 6.32608 8.35548 6.33704C 7.5912 4.67918 8.09355 2.51775 9.63491 0.976491C 9.69194 0.919456 9.74786 0.866379 9.80307 0.815434C 9.84792 0.814317 9.89258 0.811983 9.93774 0.811983C 12.9507 0.811983 15.4022 3.26336 15.4022 6.27646ZM 8.61944 7.13035C 8.9581 7.13035 9.27666 7.26228 9.51617 7.50179C 9.75567 7.74129 9.8876 8.05986 9.8876 8.39861C 9.8876 8.73737 9.75567 9.05583 9.51617 9.29534C 9.27666 9.53484 8.9581 9.66677 8.61944 9.66677C 8.28069 9.66677 7.96212 9.53484 7.72262 9.29524C 7.48311 9.05583 7.35118 8.73737 7.35118 8.39861C 7.35118 8.05986 7.48311 7.74129 7.72262 7.50179C 7.96212 7.26228 8.28069 7.13035 8.61944 7.13035ZM 8.5343 0.995469C 7.19642 2.69047 6.82062 4.85576 7.58176 6.59745C 7.42578 6.68767 7.27943 6.79697 7.14862 6.92789C 6.75567 7.32074 6.5393 7.84318 6.5393 8.39872C 6.5393 8.95425 6.75577 9.47669 7.14862 9.86944C 7.54147 10.2624 8.06381 10.4788 8.61944 10.4788C 9.17508 10.4788 9.69732 10.2624 10.0902 9.86954C 10.3154 9.64434 10.4803 9.37581 10.5821 9.08364C 10.9548 9.17213 11.338 9.21618 11.7251 9.21618C 12.8721 9.21618 14.0508 8.8353 15.0798 8.12501C 14.3204 10.2312 12.3023 11.7412 9.93774 11.7412C 6.92454 11.7412 4.47306 9.28986 4.47306 6.27656C 4.47296 3.74846 6.19902 1.61656 8.5343 0.995469ZM 7.39188 13.6999L 1.96952 8.27754L 3.66869 6.57837C 3.78408 9.00387 5.28322 11.0717 7.39178 12.0115L 7.39178 13.6999L 7.39188 13.6999ZM 3.07429 13.3889L 4.50361 11.9596L 5.14378 12.5998L 3.71446 14.0291L 3.07429 13.3889ZM 0.811882 10.2809C 0.811882 9.74228 1.01972 9.23617 1.39623 8.85225L 3.92961 11.3856L 2.50029 12.8149L 1.40993 11.7246C 1.02429 11.3389 0.811882 10.8261 0.811882 10.2809ZM 4.28846 14.6031L 5.71778 13.1738L 7.39188 14.8479L 7.39188 17.7065L 4.28846 14.6031ZM 8.25978 20.1667C 9.04294 19.8089 9.97102 19.9662 10.594 20.5891C 11.2516 21.2466 11.3824 22.273 10.9432 23.0709C 9.56955 22.716 8.50771 21.5797 8.25978 20.1667ZM 11.7901 23.1849C 12.1717 22.2862 12.0741 21.2563 11.5212 20.4432L 13.5442 18.4201L 15.9496 18.4201C 15.9815 18.4201 16.013 18.4213 16.0447 18.4225L 16.0447 23.1842C 16.0132 23.1853 11.8122 23.1853 11.7901 23.1849ZM 18.3329 20.8034C 18.3329 21.7965 17.7222 22.6493 16.8566 23.0068L 16.8566 18.5997C 17.7221 18.9573 18.3329 19.8102 18.3329 20.8034ZM 23.5945 23.7448C 20.8678 26.4712 16.4844 26.5558 13.6551 23.9984L 15.9496 23.9984C 17.7114 23.9984 19.1447 22.5651 19.1447 20.8034C 19.1447 19.0416 17.7114 17.6082 15.9496 17.6082L 13.7821 17.6082L 13.7821 13.1063C 13.7821 12.8821 13.6003 12.7004 13.3762 12.7004C 13.152 12.7004 12.9702 12.8821 12.9702 13.1063L 12.9702 17.8461L 10.9762 19.8401C 10.197 19.1873 9.14778 18.9996 8.20376 19.3172L 8.20376 12.3075C 8.75493 12.4661 9.33613 12.553 9.93764 12.553C 11.6181 12.553 13.1453 11.8879 14.273 10.8086L 21.4646 18.0001L 20.4811 18.9836C 20.3225 19.1421 20.3225 19.3992 20.4811 19.5576C 20.6396 19.7162 20.8968 19.7162 21.0551 19.5576L 25.5633 15.0495C 25.6911 15.2633 25.8446 15.4618 26.0247 15.6418C 26.5164 16.1335 27.1358 16.4208 27.7771 16.5052L 27.7771 19.5767L 23.5945 23.7448ZM 29.7539 20.7415L 33.1244 17.3711L 33.839 18.0858C 33.9977 18.2444 34.2547 18.2444 34.413 18.0858C 34.966 17.533 35.8498 17.5106 36.4315 18.0155L 31.7277 22.7191L 29.7539 20.7415ZM 32.7597 23.7511L 32.3017 23.2931L 37.0092 18.5857L 37.4671 19.0437L 32.7597 23.7511Z"/>
</defs>
</svg>
