<svg width="16" height="16" viewBox="0 0 16 16" version="1.1" xmlns="http://www.w3.org/2000/svg" xmlns:xlink="http://www.w3.org/1999/xlink">
<title>check-mark</title>
<desc>Created using Figma</desc>
<g id="Canvas" transform="translate(-15791 -2890)">
<g id="check-mark">
<g id="Group">
<g id="Group">
<g id="Vector">
<use xlink:href="#path0_fill" transform="translate(15791 2890)" fill="#3564DB"/>
</g>
<g id="Vector">
<use xlink:href="#path1_fill" transform="translate(15794.6 2894.94)" fill="#3564DB"/>
</g>
</g>
</g>
</g>
</g>
<defs>
<path id="path0_fill" d="M 14.9273 3.98429C 14.2119 2.75868 13.2415 1.78829 12.0159 1.07292C 10.79 0.357591 9.45178 0 8.00022 0C 6.5488 0 5.2102 0.357591 3.98455 1.07292C 2.75883 1.78818 1.78843 2.75857 1.07303 3.98429C 0.357591 5.21009 0 6.54869 0 8C 0 9.45138 0.357701 10.7898 1.07292 12.0156C 1.78829 13.2412 2.75868 14.2116 3.9844 14.9271C 5.2102 15.6424 6.54869 16 8.00007 16C 9.45145 16 10.7901 15.6424 12.0158 14.9271C 13.2415 14.2119 14.2118 13.2412 14.9272 12.0156C 15.6424 10.7899 15.9999 9.45131 15.9999 8C 16 6.54855 15.6424 5.2099 14.9273 3.98429ZM 12.9063 10.8437C 12.3994 11.7117 11.712 12.3994 10.8439 12.9063C 9.97593 13.4133 9.02804 13.6665 8.00011 13.6665C 6.97243 13.6665 6.02447 13.4133 5.15634 12.9063C 4.28832 12.3994 3.60087 11.7117 3.09395 10.8437C 2.58691 9.97567 2.33348 9.02775 2.33348 8C 2.33348 6.97218 2.58702 6.02425 3.09395 5.15623C 3.60076 4.28822 4.2884 3.60061 5.15634 3.09373C 6.02436 2.58676 6.97229 2.33337 8.00011 2.33337C 9.02801 2.33337 9.97593 2.58676 10.8439 3.09373C 11.712 3.60065 12.3995 4.28822 12.9063 5.15623C 13.4133 6.02425 13.6666 6.97218 13.6666 8C 13.6666 9.02775 13.4133 9.97567 12.9063 10.8437Z"/>
<path id="path1_fill" d="M 7.53127 0.197896C 7.39956 0.0659652 7.24312 1.0689e-07 7.06255 1.0689e-07C 6.88198 1.0689e-07 6.7259 0.0660017 6.59379 0.197896L 3.72923 3.06253L 2.1979 1.53121C 2.06594 1.39928 1.90985 1.33331 1.72918 1.33331C 1.5485 1.33331 1.39228 1.39932 1.26034 1.53121L 0.197896 2.59381C 0.0659287 2.72563 1.13571e-07 2.88197 1.13571e-07 3.06253C 1.13571e-07 3.24299 0.0659287 3.39933 0.197896 3.53118L 3.26039 6.59371C 3.39232 6.72554 3.54855 6.79172 3.72912 6.79172C 3.90979 6.79172 4.06598 6.72557 4.19799 6.59371L 8.59394 2.19783C 8.72576 2.06605 8.79199 1.90978 8.79199 1.72929C 8.79199 1.54876 8.72602 1.39249 8.59394 1.26056L 7.53127 0.197896Z"/>
</defs>
</svg>
