<svg width="8" height="4" viewBox="0 0 8 4" version="1.1" xmlns="http://www.w3.org/2000/svg" xmlns:xlink="http://www.w3.org/1999/xlink">
<title>Group</title>
<desc>Created using Figma</desc>
<g id="Canvas" transform="translate(-15515 -474)">
<g id="Group">
<g id="Vector">
<use xlink:href="#path0_fill" transform="translate(15515.7 474)" fill="#51D6CF"/>
</g>
</g>
</g>
<defs>
<path id="path0_fill" d="M 6.50831 0.456215L 6.18744 0.150673C 6.07625 0.050234 5.94639 -2.96067e-08 5.79815 -2.96067e-08C 5.64685 -2.96067e-08 5.51853 0.050234 5.41297 0.150673L 3.33335 2.13039L 1.25374 0.15073C 1.1482 0.0502911 1.01985 5.71157e-05 0.86861 5.71157e-05C 0.720295 5.71157e-05 0.590459 0.0502911 0.479252 0.15073L 0.162598 0.456272C 0.0541795 0.559408 0 0.683002 0 0.826942C 0 0.973563 0.0542394 1.09576 0.162583 1.1935L 2.9482 3.84523C 3.05094 3.94838 3.17925 4 3.33333 4C 3.48453 4 3.61435 3.9484 3.72266 3.84523L 6.5083 1.1935C 6.61385 1.09301 6.66667 0.970824 6.66667 0.826942C 6.66668 0.685685 6.61387 0.562161 6.50831 0.456215Z"/>
</defs>
</svg>
