<svg width="8" height="8" viewBox="0 0 8 8" version="1.1" xmlns="http://www.w3.org/2000/svg" xmlns:xlink="http://www.w3.org/1999/xlink">
<title>Vector</title>
<desc>Created using Figma</desc>
<g id="Canvas" transform="translate(-16192 -591)">
<g id="Vector">
<use xlink:href="#path0_fill" transform="translate(16192 591)" fill="#fff"/>
</g>
</g>
<defs>
<path id="path0_fill" d="M 7.46365 1.99215C 7.10595 1.37934 6.62075 0.894143 6.00793 0.53646C 5.39499 0.178796 4.72589 0 4.00011 0C 3.2744 0 2.6051 0.178796 1.99227 0.53646C 1.37941 0.894088 0.894216 1.37929 0.536515 1.99215C 0.178796 2.60504 0 3.27435 0 4C 0 4.72569 0.17885 5.39488 0.53646 6.00782C 0.894143 6.62062 1.37934 7.10582 1.9922 7.46354C 2.6051 7.82119 3.27435 8 4.00004 8C 4.72573 8 5.39505 7.82119 6.00791 7.46354C 6.62073 7.10595 7.10591 6.62062 7.46358 6.00782C 7.82119 5.39494 7.99996 4.72565 7.99996 4C 7.99998 3.27427 7.82119 2.60495 7.46365 1.99215ZM 5.88545 4.94263C 5.95143 5.00854 5.98447 5.08684 5.98447 5.17712C 5.98447 5.27076 5.95143 5.35068 5.88545 5.41659L 5.41674 5.88545C 5.35081 5.95136 5.27091 5.98432 5.17712 5.98432C 5.08686 5.98432 5.00863 5.95136 4.94276 5.88545L 4.00005 4.94263L 3.05731 5.88545C 2.99135 5.95136 2.91323 5.98432 2.82295 5.98432C 2.72918 5.98432 2.64934 5.95136 2.58335 5.88545L 2.11457 5.41659C 2.04861 5.35068 2.01562 5.27076 2.01562 5.17712C 2.01562 5.08686 2.04863 5.00856 2.11457 4.94263L 3.05731 3.99998L 2.11457 3.05724C 2.04861 2.99135 2.01562 2.91316 2.01562 2.82288C 2.01562 2.72911 2.04863 2.64926 2.11457 2.58328L 2.58335 2.11457C 2.64934 2.04861 2.72918 2.01562 2.82295 2.01562C 2.91323 2.01562 2.99135 2.04863 3.05731 2.11457L 4.00005 3.05724L 4.94276 2.11457C 5.00862 2.04861 5.08684 2.01562 5.17712 2.01562C 5.27091 2.01562 5.35081 2.04863 5.41674 2.11457L 5.88545 2.58328C 5.95143 2.64926 5.98447 2.72911 5.98447 2.82288C 5.98447 2.91314 5.95143 2.99135 5.88545 3.05724L 4.94276 3.99998L 5.88545 4.94263Z"/>
</defs>
</svg>
