<svg width="14" height="12" viewBox="0 0 19 16" version="1.1" xmlns="http://www.w3.org/2000/svg" xmlns:xlink="http://www.w3.org/1999/xlink">
<title>Group</title>
<desc>Created using Figma</desc>
<g id="Canvas" transform="translate(-15910 -2890)">
<g id="Group">
<g id="Group">
<g id="Vector">
<use xlink:href="#path0_fill" transform="translate(15911.3 2900.29)" fill="#50cfc8"/>
</g>
<g id="Vector">
<use xlink:href="#path1_fill" transform="translate(15915.5 2900.25)" fill="#50cfc8"/>
</g>
<g id="Vector">
<use xlink:href="#path2_fill" transform="translate(15919.7 2899.16)" fill="#50cfc8"/>
</g>
<g id="Vector">
<use xlink:href="#path3_fill" transform="translate(15923.9 2895.17)" fill="#50cfc8"/>
</g>
<g id="Vector">
<use xlink:href="#path4_fill" transform="translate(15910 2890)" fill="#50cfc8"/>
</g>
</g>
</g>
</g>
<defs>
<path id="path0_fill" d="M 0 2.31831L 0 5.37198C 0 5.55775 0.150942 5.71257 0.340587 5.71257L 2.70147 5.71257C 2.88725 5.71257 3.04206 5.56162 3.04206 5.37198L 3.04206 3.21265e-07L 1.32751 1.71454C 0.963705 2.07448 0.499269 2.28348 0 2.31831Z"/>
<path id="path1_fill" d="M 0 3.21265e-07L 0 5.41068C 0 5.59646 0.150942 5.75127 0.340587 5.75127L 2.70147 5.75127C 2.88725 5.75127 3.04206 5.60033 3.04206 5.41068L 3.04206 2.22542C 2.50409 2.21381 2.00095 2.00095 1.62166 1.62166L 0 3.21265e-07Z"/>
<path id="path2_fill" d="M 0 2.97626L 0 6.49824C 0 6.68401 0.150941 6.83882 0.340586 6.83882L 2.70147 6.83882C 2.88724 6.83882 3.04206 6.68788 3.04206 6.49824L 3.04206 8.50408e-08L 0.336717 2.70534C 0.232219 2.80984 0.119979 2.89886 0 2.97626Z"/>
<path id="path3_fill" d="M 2.81371 2.03153e-07L 0 2.81371L 0 10.4924C 0 10.6782 0.150941 10.833 0.340586 10.833L 2.70147 10.833C 2.88724 10.833 3.04206 10.682 3.04206 10.4924L 3.04206 0.212867C 2.96465 0.147072 2.9066 0.0890167 2.86402 0.0503137L 2.81371 2.03153e-07Z"/>
<path id="path4_fill" d="M 18.6781 0.181904C 18.5658 0.0619248 18.3955 5.55128e-08 18.1788 5.55128e-08C 18.1595 5.55128e-08 18.1362 5.55128e-08 18.1169 5.55128e-08C 17.0177 0.050314 15.9224 0.104498 14.8233 0.154812C 14.6762 0.162553 14.4749 0.170293 14.3162 0.328976C 14.2659 0.37929 14.2272 0.437344 14.1963 0.50701C 14.0337 0.859207 14.2621 1.08755 14.3704 1.19592L 14.6452 1.47459C 14.8349 1.6681 15.0284 1.86162 15.2219 2.05126L 8.58046 8.69657L 5.59646 5.71257C 5.41842 5.53453 5.17846 5.4339 4.92302 5.4339C 4.66758 5.4339 4.4315 5.53453 4.25346 5.71257L 0.278662 9.6835C -0.0928873 10.055 -0.0928873 10.6549 0.278662 11.0265L 0.456696 11.2045C 0.63473 11.3826 0.874688 11.4832 1.13013 11.4832C 1.38557 11.4832 1.62166 11.3826 1.79969 11.2045L 4.92302 8.08119L 7.90703 11.0652C 8.08506 11.2432 8.32502 11.3439 8.58046 11.3439C 8.8359 11.3439 9.07199 11.2432 9.25389 11.0652L 16.7468 3.57229L 17.5944 4.41601C 17.695 4.51664 17.8344 4.65597 18.0472 4.65597C 18.1362 4.65597 18.2253 4.63275 18.3181 4.58244C 18.3801 4.54761 18.4342 4.5089 18.4807 4.46246C 18.6471 4.29604 18.6781 4.08317 18.6858 3.91675C 18.7168 3.20461 18.7516 2.49247 18.7864 1.77647L 18.8368 0.704395C 18.8484 0.479917 18.7981 0.305754 18.6781 0.181904Z"/>
</defs>
</svg>
