<svg width="16" height="16" viewBox="0 0 16 16" version="1.1" xmlns="http://www.w3.org/2000/svg" xmlns:xlink="http://www.w3.org/1999/xlink">
<title>Vector</title>
<desc>Created using Figma</desc>
<g id="Canvas" transform="translate(-19973 -1460)">
<g id="Vector">
<use xlink:href="#path0_fill" transform="translate(19973 1460)" fill="#B0BEC5"/>
</g>
</g>
<defs>
<path id="path0_fill" d="M 8 0C 3.584 0 0 3.584 0 8C 0 12.416 3.584 16 8 16C 12.416 16 16 12.416 16 8C 16 3.584 12.416 0 8 0ZM 10.528 10.9547C 10.528 11.4187 10.1493 11.7973 9.68533 11.7973L 6.30933 11.7973C 5.84533 11.7973 5.46667 11.4187 5.46667 10.9547L 5.46667 5.89333L 10.5227 5.89333L 10.5227 10.9547L 10.528 10.9547ZM 10.9493 5.472L 5.05067 5.472L 5.05067 4.62933L 6.528 4.62933L 6.94933 4.208L 9.056 4.208L 9.47733 4.62933L 10.9547 4.62933L 10.9547 5.472L 10.9493 5.472Z"/>
</defs>
</svg>
