<svg width="19" height="26" viewBox="0 0 19 26" version="1.1" xmlns="http://www.w3.org/2000/svg" xmlns:xlink="http://www.w3.org/1999/xlink">
<title>garbage-1</title>
<desc>Created using Figma</desc>
<g id="Canvas" transform="translate(-21380 -1220)">
<g id="garbage-1">
<g id="Group">
<g id="Vector">
<use xlink:href="#path0_fill" transform="translate(21381 1221)" fill="#3564DB"/>
<use xlink:href="#path1_stroke" transform="translate(21381 1221)" fill="#3564DB"/>
</g>
<g id="Rectangle">
<use xlink:href="#path2_fill" transform="translate(21388 1231)" fill="#3564DB"/>
</g>
<g id="Rectangle">
<use xlink:href="#path2_fill" transform="translate(21384 1231)" fill="#3564DB"/>
</g>
<g id="Rectangle">
<use xlink:href="#path2_fill" transform="translate(21392 1231)" fill="#3564DB"/>
</g>
</g>
</g>
</g>
<defs>
<path id="path0_fill" d="M 16.32 4.07935C 16.084 3.77575 15.7402 3.57935 15.3519 3.52655L 11.4927 3.00096L 11.6648 1.81257C 11.7106 1.49617 11.6264 1.18057 11.4267 0.923774C 11.2269 0.666976 10.9377 0.501377 10.6108 0.456977L 7.34253 0.0117807C 7.01611 -0.0326189 6.69052 0.0493805 6.42559 0.242579C 6.16107 0.435778 5.98982 0.716575 5.94401 1.03297L 5.77152 2.22136L 1.91311 1.69577C 1.11172 1.58697 0.367684 2.12976 0.255439 2.90616L 1.25935e-08 4.66655L 3.44698 5.13614L 1.03083 7.47812C 0.994108 7.51372 0.971411 7.55732 0.946651 7.60012L 0.521607 7.60012L 0.521607 22.5084C 0.521607 23.3312 1.21199 24 2.06043 24L 13.8383 24C 14.6871 24 15.3771 23.3308 15.3771 22.5084L 15.3771 7.59972L 13.3138 7.59972L 13.3138 6.48013L 16.3456 6.89293L 16.6006 5.13334C 16.6555 4.75694 16.5561 4.38255 16.32 4.07935ZM 6.7615 1.14417C 6.77677 1.03937 6.83371 0.946174 6.92244 0.881374C 7.01075 0.816975 7.11969 0.788975 7.22781 0.804175L 10.4969 1.24937C 10.6051 1.26417 10.7016 1.31977 10.7685 1.40577C 10.8353 1.49137 10.8634 1.59657 10.8481 1.70097L 10.676 2.88936L 6.58942 2.33256L 6.7615 1.14417ZM 3.5518 6.16533L 5.03161 7.59972L 2.0724 7.59972L 3.5518 6.16533ZM 10.4255 6.39973L 10.4255 7.59972L 10.0129 7.59972L 10.0129 6.39973L 5.88624 6.39973L 5.88624 7.29693L 3.69128 5.16934L 12.7241 6.39973L 10.4255 6.39973ZM 12.4889 7.19973L 12.4889 7.59972L 11.2509 7.59972L 11.2509 7.19973L 12.4889 7.19973ZM 9.18755 7.19973L 9.18755 7.59972L 6.71157 7.59972L 6.71157 7.19973L 9.18755 7.19973ZM 14.5522 8.39972L 14.5522 22.508C 14.5522 22.8896 14.232 23.1996 13.8387 23.1996L 2.06084 23.1996C 1.66716 23.1996 1.34735 22.8896 1.34735 22.508L 1.34735 8.39972L 5.88665 8.39972L 5.91554 8.39972L 10.0133 8.39972L 10.426 8.39972L 13.3146 8.39972L 14.5522 8.39972ZM 15.784 5.02214L 15.6437 5.98934L 0.932208 3.98535L 1.07251 3.01736C 1.12162 2.67776 1.44556 2.44176 1.79798 2.48776L 5.6568 3.01336L 9.20612 3.49695L 15.2372 4.31855C 15.4072 4.34175 15.5574 4.42735 15.6606 4.56015C 15.7642 4.69335 15.8079 4.85734 15.784 5.02214Z"/>
<path id="path1_stroke" d="M 16.32 4.07935L 15.9253 4.38625L 15.9255 4.3865L 16.32 4.07935ZM 15.3519 3.52655L 15.2845 4.02198L 15.2846 4.022L 15.3519 3.52655ZM 11.4927 3.00096L 10.9979 2.9293L 10.9256 3.42834L 11.4252 3.49638L 11.4927 3.00096ZM 11.6648 1.81257L 12.1596 1.88422L 12.1596 1.88421L 11.6648 1.81257ZM 10.6108 0.456977L 10.5433 0.952402L 10.5435 0.952426L 10.6108 0.456977ZM 7.34253 0.0117807L 7.41001 -0.483644L 7.40992 -0.483657L 7.34253 0.0117807ZM 6.42559 0.242579L 6.13098 -0.16141L 6.13068 -0.161191L 6.42559 0.242579ZM 5.94401 1.03297L 6.43883 1.10479L 6.43885 1.10461L 5.94401 1.03297ZM 5.77152 2.22136L 5.70403 2.71679L 6.19514 2.78369L 6.26633 2.29319L 5.77152 2.22136ZM 1.91311 1.69577L 1.9806 1.20034L 1.98037 1.20031L 1.91311 1.69577ZM 0.255439 2.90616L 0.750257 2.97796L 0.750294 2.9777L 0.255439 2.90616ZM 1.25935e-08 4.66655L -0.494818 4.59475L -0.567245 5.09389L -0.0674936 5.16197L 1.25935e-08 4.66655ZM 3.44698 5.13614L 3.79498 5.49516L 4.53329 4.77952L 3.51448 4.64072L 3.44698 5.13614ZM 1.03083 7.47812L 1.37883 7.83714L 1.03083 7.47812ZM 0.946651 7.60012L 0.946651 8.10012L 1.23504 8.10012L 1.37945 7.8505L 0.946651 7.60012ZM 0.521607 7.60012L 0.521607 7.10012L 0.0216072 7.10012L 0.0216072 7.60012L 0.521607 7.60012ZM 15.3771 7.59972L 15.8771 7.59972L 15.8771 7.09972L 15.3771 7.09972L 15.3771 7.59972ZM 13.3138 7.59972L 12.8138 7.59972L 12.8138 8.09972L 13.3138 8.09972L 13.3138 7.59972ZM 13.3138 6.48013L 13.3812 5.9847L 12.8138 5.90744L 12.8138 6.48013L 13.3138 6.48013ZM 16.3456 6.89293L 16.2782 7.38836L 16.7693 7.45523L 16.8405 6.96465L 16.3456 6.89293ZM 16.6006 5.13334L 16.1059 5.0612L 16.1058 5.06162L 16.6006 5.13334ZM 6.7615 1.14417L 6.26672 1.07209L 6.26666 1.07252L 6.7615 1.14417ZM 6.92244 0.881374L 6.62783 0.477385L 6.62754 0.4776L 6.92244 0.881374ZM 7.22781 0.804175L 7.1582 1.29931L 7.16034 1.2996L 7.22781 0.804175ZM 10.4969 1.24937L 10.5647 0.753991L 10.5644 0.753944L 10.4969 1.24937ZM 10.7685 1.40577L 10.3737 1.71264L 10.3744 1.71353L 10.7685 1.40577ZM 10.8481 1.70097L 10.3534 1.62861L 10.3533 1.62931L 10.8481 1.70097ZM 10.676 2.88936L 10.6085 3.38478L 11.0998 3.45172L 11.1709 2.96101L 10.676 2.88936ZM 6.58942 2.33256L 6.09458 2.26091L 6.02232 2.75992L 6.52192 2.82799L 6.58942 2.33256ZM 3.5518 6.16533L 3.8998 5.80631L 3.55175 5.46895L 3.20375 5.80636L 3.5518 6.16533ZM 5.03161 7.59972L 5.03161 8.09972L 6.26584 8.09972L 5.37961 7.2407L 5.03161 7.59972ZM 2.0724 7.59972L 1.72435 7.24075L 0.838422 8.09972L 2.0724 8.09972L 2.0724 7.59972ZM 10.4255 6.39973L 10.4255 5.89973L 9.92554 5.89973L 9.92554 6.39973L 10.4255 6.39973ZM 10.4255 7.59972L 10.4255 8.09972L 10.9255 8.09972L 10.9255 7.59972L 10.4255 7.59972ZM 10.0129 7.59972L 9.51288 7.59972L 9.51288 8.09972L 10.0129 8.09972L 10.0129 7.59972ZM 10.0129 6.39973L 10.5129 6.39973L 10.5129 5.89973L 10.0129 5.89973L 10.0129 6.39973ZM 5.88624 6.39973L 5.88624 5.89973L 5.38624 5.89973L 5.38624 6.39973L 5.88624 6.39973ZM 5.88624 7.29693L 5.53824 7.65595L 6.38624 8.47792L 6.38624 7.29693L 5.88624 7.29693ZM 3.69128 5.16934L 3.75876 4.67392L 2.24971 4.46836L 3.34328 5.52836L 3.69128 5.16934ZM 12.7241 6.39973L 12.7241 6.89973L 12.7916 5.90431L 12.7241 6.39973ZM 12.4889 7.19973L 12.9889 7.19973L 12.9889 6.69973L 12.4889 6.69973L 12.4889 7.19973ZM 12.4889 7.59972L 12.4889 8.09972L 12.9889 8.09972L 12.9889 7.59972L 12.4889 7.59972ZM 11.2509 7.59972L 10.7509 7.59972L 10.7509 8.09972L 11.2509 8.09972L 11.2509 7.59972ZM 11.2509 7.19973L 11.2509 6.69973L 10.7509 6.69973L 10.7509 7.19973L 11.2509 7.19973ZM 9.18755 7.19973L 9.68755 7.19973L 9.68755 6.69973L 9.18755 6.69973L 9.18755 7.19973ZM 9.18755 7.59972L 9.18755 8.09972L 9.68755 8.09972L 9.68755 7.59972L 9.18755 7.59972ZM 6.71157 7.59972L 6.21157 7.59972L 6.21157 8.09972L 6.71157 8.09972L 6.71157 7.59972ZM 6.71157 7.19973L 6.71157 6.69973L 6.21157 6.69973L 6.21157 7.19973L 6.71157 7.19973ZM 14.5522 8.39972L 15.0522 8.39972L 15.0522 7.89972L 14.5522 7.89972L 14.5522 8.39972ZM 1.34735 8.39972L 1.34735 7.89972L 0.847348 7.89972L 0.847348 8.39972L 1.34735 8.39972ZM 15.784 5.02214L 15.2892 4.95028L 15.2892 4.95036L 15.784 5.02214ZM 15.6437 5.98934L 15.5762 6.48476L 16.0673 6.55166L 16.1385 6.06112L 15.6437 5.98934ZM 0.932208 3.98535L 0.437379 3.91363L 0.365039 4.41271L 0.864721 4.48077L 0.932208 3.98535ZM 1.07251 3.01736L 1.56734 3.08908L 1.56737 3.08892L 1.07251 3.01736ZM 1.79798 2.48776L 1.86546 1.99233L 1.86269 1.99197L 1.79798 2.48776ZM 5.6568 3.01336L 5.7243 2.51794L 5.72428 2.51793L 5.6568 3.01336ZM 9.20612 3.49695L 9.13862 3.99238L 9.13863 3.99238L 9.20612 3.49695ZM 15.2372 4.31855L 15.3048 3.82314L 15.3047 3.82312L 15.2372 4.31855ZM 15.6606 4.56015L 15.2657 4.86689L 15.2659 4.86708L 15.6606 4.56015ZM 16.7148 3.77245C 16.3969 3.36355 15.9346 3.10118 15.4193 3.03111L 15.2846 4.022C 15.5459 4.05753 15.7711 4.18795 15.9253 4.38625L 16.7148 3.77245ZM 15.4194 3.03113L 11.5602 2.50553L 11.4252 3.49638L 15.2845 4.02198L 15.4194 3.03113ZM 11.9875 3.07261L 12.1596 1.88422L 11.1699 1.74091L 10.9979 2.9293L 11.9875 3.07261ZM 12.1596 1.88421C 12.2252 1.43121 12.1033 0.979308 11.8213 0.616806L 11.032 1.23074C 11.1495 1.38184 11.196 1.56113 11.1699 1.74093L 12.1596 1.88421ZM 11.8213 0.616806C 11.5402 0.255301 11.1327 0.0232745 10.6781 -0.0384717L 10.5435 0.952426C 10.7427 0.97948 10.9137 1.07865 11.032 1.23074L 11.8213 0.616806ZM 10.6783 -0.0384474L 7.41001 -0.483644L 7.27504 0.507206L 10.5433 0.952402L 10.6783 -0.0384474ZM 7.40992 -0.483657C 6.95615 -0.54538 6.50072 -0.431041 6.13098 -0.16141L 6.7202 0.646568C 6.88032 0.529802 7.07608 0.480142 7.27514 0.507219L 7.40992 -0.483657ZM 6.13068 -0.161191C 5.76078 0.108979 5.51481 0.507957 5.44917 0.961334L 6.43885 1.10461C 6.46483 0.925193 6.56136 0.762576 6.7205 0.646349L 6.13068 -0.161191ZM 5.4492 0.961151L 5.2767 2.14954L 6.26633 2.29319L 6.43883 1.10479L 5.4492 0.961151ZM 5.83901 1.72594L 1.9806 1.20034L 1.84562 2.19119L 5.70403 2.71679L 5.83901 1.72594ZM 1.98037 1.20031C 0.921624 1.05657 -0.085825 1.77223 -0.239416 2.83462L 0.750294 2.9777C 0.821193 2.4873 1.30181 2.11736 1.84585 2.19122L 1.98037 1.20031ZM -0.239379 2.83436L -0.494818 4.59475L 0.494818 4.73835L 0.750257 2.97796L -0.239379 2.83436ZM -0.0674936 5.16197L 3.37949 5.63157L 3.51448 4.64072L 0.0674936 4.17112L -0.0674936 5.16197ZM 3.09898 4.77712L 0.682834 7.1191L 1.37883 7.83714L 3.79498 5.49516L 3.09898 4.77712ZM 0.682834 7.1191C 0.593202 7.21494 0.533152 7.31664 0.513855 7.34975L 1.37945 7.8505C 1.38323 7.84395 1.38695 7.83744 1.38998 7.83214C 1.39301 7.82684 1.39528 7.82287 1.39761 7.81885C 1.402 7.81129 1.40382 7.80838 1.40435 7.80756C 1.40524 7.80619 1.39677 7.81976 1.37883 7.83714L 0.682834 7.1191ZM 0.946651 7.10012L 0.521607 7.10012L 0.521607 8.10012L 0.946651 8.10012L 0.946651 7.10012ZM 0.0216072 7.60012L 0.0216072 22.5084L 1.02161 22.5084L 1.02161 7.60012L 0.0216072 7.60012ZM 0.0216072 22.5084C 0.0216072 23.622 0.950749 24.5 2.06043 24.5L 2.06043 23.5C 1.47324 23.5 1.02161 23.0404 1.02161 22.5084L 0.0216072 22.5084ZM 2.06043 24.5L 13.8383 24.5L 13.8383 23.5L 2.06043 23.5L 2.06043 24.5ZM 13.8383 24.5C 14.9485 24.5 15.8771 23.6214 15.8771 22.5084L 14.8771 22.5084C 14.8771 23.0402 14.4257 23.5 13.8383 23.5L 13.8383 24.5ZM 15.8771 22.5084L 15.8771 7.59972L 14.8771 7.59972L 14.8771 22.5084L 15.8771 22.5084ZM 15.3771 7.09972L 13.3138 7.09972L 13.3138 8.09972L 15.3771 8.09972L 15.3771 7.09972ZM 13.8138 7.59972L 13.8138 6.48013L 12.8138 6.48013L 12.8138 7.59972L 13.8138 7.59972ZM 13.2463 6.97556L 16.2782 7.38836L 16.4131 6.3975L 13.3812 5.9847L 13.2463 6.97556ZM 16.8405 6.96465L 17.0955 5.20506L 16.1058 5.06162L 15.8508 6.82121L 16.8405 6.96465ZM 17.0954 5.20549C 17.1701 4.69307 17.0335 4.18192 16.7146 3.7722L 15.9255 4.3865C 16.0786 4.58318 16.1409 4.82082 16.1059 5.0612L 17.0954 5.20549ZM 7.25628 1.21626C 7.25146 1.24928 7.23303 1.27369 7.21734 1.28515L 6.62754 0.4776C 6.4344 0.618659 6.30207 0.829469 6.26672 1.07209L 7.25628 1.21626ZM 7.21704 1.28536C 7.20241 1.29603 7.18116 1.30253 7.1582 1.29931L 7.29742 0.309044C 7.05822 0.275416 6.81908 0.337915 6.62783 0.477385L 7.21704 1.28536ZM 7.16034 1.2996L 10.4295 1.7448L 10.5644 0.753944L 7.29528 0.308748L 7.16034 1.2996ZM 10.4291 1.74475C 10.4082 1.74188 10.3872 1.73005 10.3737 1.71264L 11.1632 1.09891C 11.016 0.909488 10.8019 0.786459 10.5647 0.753991L 10.4291 1.74475ZM 10.3744 1.71353C 10.3589 1.69371 10.3485 1.66211 10.3534 1.62861L 11.3428 1.77332C 11.3783 1.53103 11.3117 1.28903 11.1625 1.09801L 10.3744 1.71353ZM 10.3533 1.62931L 10.1812 2.81771L 11.1709 2.96101L 11.3429 1.77262L 10.3533 1.62931ZM 10.7435 2.39394L 6.65692 1.83714L 6.52192 2.82799L 10.6085 3.38478L 10.7435 2.39394ZM 7.08426 2.40422L 7.25634 1.21583L 6.26666 1.07252L 6.09458 2.26091L 7.08426 2.40422ZM 3.2038 6.52435L 4.68361 7.95874L 5.37961 7.2407L 3.8998 5.80631L 3.2038 6.52435ZM 5.03161 7.09972L 2.0724 7.09972L 2.0724 8.09972L 5.03161 8.09972L 5.03161 7.09972ZM 2.42045 7.9587L 3.89985 6.52431L 3.20375 5.80636L 1.72435 7.24075L 2.42045 7.9587ZM 9.92554 6.39973L 9.92554 7.59972L 10.9255 7.59972L 10.9255 6.39973L 9.92554 6.39973ZM 10.4255 7.09972L 10.0129 7.09972L 10.0129 8.09972L 10.4255 8.09972L 10.4255 7.09972ZM 10.5129 7.59972L 10.5129 6.39973L 9.51288 6.39973L 9.51288 7.59972L 10.5129 7.59972ZM 10.0129 5.89973L 5.88624 5.89973L 5.88624 6.89973L 10.0129 6.89973L 10.0129 5.89973ZM 5.38624 6.39973L 5.38624 7.29693L 6.38624 7.29693L 6.38624 6.39973L 5.38624 6.39973ZM 6.23424 6.93791L 4.03928 4.81032L 3.34328 5.52836L 5.53824 7.65595L 6.23424 6.93791ZM 3.6238 5.66477L 12.6566 6.89516L 12.7916 5.90431L 3.75876 4.67392L 3.6238 5.66477ZM 12.7241 5.89973L 10.4255 5.89973L 10.4255 6.89973L 12.7241 6.89973L 12.7241 5.89973ZM 11.9889 7.19973L 11.9889 7.59972L 12.9889 7.59972L 12.9889 7.19973L 11.9889 7.19973ZM 12.4889 7.09972L 11.2509 7.09972L 11.2509 8.09972L 12.4889 8.09972L 12.4889 7.09972ZM 11.7509 7.59972L 11.7509 7.19973L 10.7509 7.19973L 10.7509 7.59972L 11.7509 7.59972ZM 11.2509 7.69973L 12.4889 7.69973L 12.4889 6.69973L 11.2509 6.69973L 11.2509 7.69973ZM 8.68755 7.19973L 8.68755 7.59972L 9.68755 7.59972L 9.68755 7.19973L 8.68755 7.19973ZM 9.18755 7.09972L 6.71157 7.09972L 6.71157 8.09972L 9.18755 8.09972L 9.18755 7.09972ZM 7.21157 7.59972L 7.21157 7.19973L 6.21157 7.19973L 6.21157 7.59972L 7.21157 7.59972ZM 6.71157 7.69973L 9.18755 7.69973L 9.18755 6.69973L 6.71157 6.69973L 6.71157 7.69973ZM 14.0522 8.39972L 14.0522 22.508L 15.0522 22.508L 15.0522 8.39972L 14.0522 8.39972ZM 14.0522 22.508C 14.0522 22.5987 13.9708 22.6996 13.8387 22.6996L 13.8387 23.6996C 14.4931 23.6996 15.0522 23.1805 15.0522 22.508L 14.0522 22.508ZM 13.8387 22.6996L 2.06084 22.6996L 2.06084 23.6996L 13.8387 23.6996L 13.8387 22.6996ZM 2.06084 22.6996C 1.9285 22.6996 1.84735 22.5989 1.84735 22.508L 0.847348 22.508C 0.847348 23.1803 1.40583 23.6996 2.06084 23.6996L 2.06084 22.6996ZM 1.84735 22.508L 1.84735 8.39972L 0.847348 8.39972L 0.847348 22.508L 1.84735 22.508ZM 1.34735 8.89972L 5.88665 8.89972L 5.88665 7.89972L 1.34735 7.89972L 1.34735 8.89972ZM 5.88665 8.89972L 5.91554 8.89972L 5.91554 7.89972L 5.88665 7.89972L 5.88665 8.89972ZM 5.91554 8.89972L 10.0133 8.89972L 10.0133 7.89972L 5.91554 7.89972L 5.91554 8.89972ZM 10.0133 8.89972L 10.426 8.89972L 10.426 7.89972L 10.0133 7.89972L 10.0133 8.89972ZM 10.426 8.89972L 13.3146 8.89972L 13.3146 7.89972L 10.426 7.89972L 10.426 8.89972ZM 13.3146 8.89972L 14.5522 8.89972L 14.5522 7.89972L 13.3146 7.89972L 13.3146 8.89972ZM 15.2892 4.95036L 15.1489 5.91755L 16.1385 6.06112L 16.2788 5.09392L 15.2892 4.95036ZM 15.7112 5.49391L 0.999694 3.48993L 0.864721 4.48077L 15.5762 6.48476L 15.7112 5.49391ZM 1.42704 4.05707L 1.56734 3.08908L 0.577685 2.94564L 0.437379 3.91363L 1.42704 4.05707ZM 1.56737 3.08892C 1.57489 3.03686 1.63474 2.9707 1.73326 2.98356L 1.86269 1.99197C 1.25638 1.91283 0.668346 2.31867 0.577661 2.9458L 1.56737 3.08892ZM 1.7305 2.98319L 5.58932 3.50878L 5.72428 2.51793L 1.86546 1.99234L 1.7305 2.98319ZM 5.5893 3.50878L 9.13862 3.99238L 9.27362 3.00153L 5.7243 2.51794L 5.5893 3.50878ZM 9.13863 3.99238L 15.1697 4.81397L 15.3047 3.82312L 9.27361 3.00153L 9.13863 3.99238ZM 15.1696 4.81396C 15.2134 4.81993 15.2448 4.83994 15.2657 4.86689L 16.0555 4.2534C 15.8701 4.01475 15.6011 3.86357 15.3048 3.82314L 15.1696 4.81396ZM 15.2659 4.86708C 15.2871 4.89434 15.2933 4.92192 15.2892 4.95028L 16.2788 5.09401C 16.3225 4.79277 16.2413 4.49235 16.0553 4.25321L 15.2659 4.86708Z"/>
<path id="path2_fill" d="M 0 1C 0 0.447715 0.447715 0 1 0C 1.55228 0 2 0.447715 2 1L 2 11C 2 11.5523 1.55228 12 1 12C 0.447715 12 0 11.5523 0 11L 0 1Z"/>
</defs>
</svg>
