<svg width="17" height="17" viewBox="0 0 17 17" version="1.1" xmlns="http://www.w3.org/2000/svg" xmlns:xlink="http://www.w3.org/1999/xlink">
<title>like 2</title>
<desc>Created using Figma</desc>
<g id="Canvas" transform="translate(-15506 -698)">
<g id="like 2">
<g id="Group">
<g id="Group">
<g id="Vector">
<use xlink:href="#path0_fill" transform="matrix(-1 0 0 -1 15523 709.224)" fill="#CCCCCC"/>
</g>
</g>
</g>
<g id="Group">
<g id="Group">
<g id="Vector">
<use xlink:href="#path1_fill" transform="matrix(-1 0 0 -1 15518.6 714.333)" fill="#CCCCCC"/>
</g>
</g>
</g>
</g>
</g>
<defs>
<path id="path0_fill" d="M 2.77504 -1.07373e-07L 0.555021 -1.07373e-07C 0.249819 -1.07373e-07 0 0.243876 0 0.544536L 0 10.3465C 0 10.6471 0.248724 10.891 0.555021 10.891L 2.77504 10.891C 3.08134 10.891 3.33006 10.647 3.33006 10.3465L 3.33006 0.544536C 3.33006 0.243876 3.08021 -1.07373e-07 2.77504 -1.07373e-07Z"/>
<path id="path1_fill" d="M 11.1741 5.10892C 11.0848 5.09406 6.89962 5.10892 6.89962 5.10892L 7.48419 3.54414C 7.88754 2.46341 7.6264 0.813254 6.50722 0.226595C 6.14282 0.0355594 5.63368 -0.0603819 5.2232 0.0409999C 4.98779 0.0991185 4.7809 0.252038 4.65758 0.456919C 4.51577 0.692554 4.53042 0.967607 4.47991 1.22888C 4.35185 1.89158 4.0327 2.52166 3.53848 2.99459C 2.67679 3.81916 -6.89027e-08 6.19799 -6.89027e-08 6.19799L -6.89027e-08 14.9109L 9.25012 14.9109C 10.4983 14.9116 11.3163 13.544 10.7007 12.4757C 11.4345 12.0146 11.6855 11.0433 11.2557 10.2975C 11.9895 9.83639 12.2405 8.86509 11.8107 8.11932C 13.0769 7.32368 12.6536 5.35442 11.1741 5.10892Z"/>
</defs>
</svg>
