<svg width="24" height="24" viewBox="0 0 24 24" version="1.1" xmlns="http://www.w3.org/2000/svg" xmlns:xlink="http://www.w3.org/1999/xlink">
<title>pencil (1)</title>
<desc>Created using Figma</desc>
<g id="Canvas" transform="translate(-21143 -2045)">
<g id="pencil (1)">
<g id="Group">
<g id="Group">
<g id="Vector">
<use xlink:href="#path0_fill" transform="translate(21143 2045)" fill="#3564DB"/>
</g>
</g>
</g>
</g>
</g>
<defs>
<path id="path0_fill" d="M 11.9996 0C 5.37248 0 3.7998e-12 5.37288 3.7998e-12 11.9998C 3.7998e-12 18.6266 5.37248 24 11.9996 24C 18.6267 24 23.9998 18.627 23.9998 11.9998C 23.9998 5.37256 18.6267 0 11.9996 0ZM 17.7041 8.6356L 16.5643 9.77536L 14.2442 7.45544L 13.3641 8.3356L 15.6842 10.6557L 9.9936 16.3458L 7.67368 14.0261L 6.79352 14.9062L 9.11344 17.2262L 8.5464 17.7932L 8.5356 17.7824C 8.47272 17.8859 8.37048 17.9614 8.24904 17.9884L 6.0856 18.4708C 6.0532 18.4781 6.02024 18.4816 5.98768 18.4816C 5.8696 18.4816 5.75488 18.4351 5.66984 18.3498C 5.56072 18.2411 5.51528 18.0841 5.54888 17.9336L 6.03104 15.7708C 6.05824 15.6494 6.13392 15.547 6.23728 15.4842L 6.22632 15.4733L 15.3839 6.31528C 15.5182 6.18128 15.7362 6.18128 15.8705 6.31568L 17.7042 8.14904C 17.8385 8.28328 17.8385 8.50136 17.7041 8.6356Z"/>
</defs>
</svg>
