<svg width="14" height="8" viewBox="0 0 14 8" version="1.1" xmlns="http://www.w3.org/2000/svg" xmlns:xlink="http://www.w3.org/1999/xlink">
<title>eye</title>
<desc>Created using Figma</desc>
<g id="Canvas" transform="translate(-15557 -895)">
<g id="eye">
<g id="Group">
<g id="Group">
<g id="Vector">
<use xlink:href="#path0_fill" transform="translate(15557 895)" fill="#50CFC8"/>
</g>
</g>
</g>
<g id="Group">
<g id="Group">
<g id="Vector">
<use xlink:href="#path1_fill" transform="translate(15561.9 896.659)" fill="#50CFC8"/>
</g>
</g>
</g>
</g>
</g>
<defs>
<path id="path0_fill" d="M 13.8955 3.45665C 13.7705 3.31567 10.7648 0 7.00001 0C 3.23527 0 0.229537 3.31567 0.104549 3.45665C -0.0348496 3.61423 -0.0348496 3.85244 0.104549 4.01002C 0.229537 4.151 3.23532 7.46667 7.00001 7.46667C 10.7647 7.46667 13.7705 4.151 13.8955 4.01002C 14.0348 3.85244 14.0348 3.61423 13.8955 3.45665ZM 7.00001 6.63704C 5.41705 6.63704 4.12892 5.33427 4.12892 3.73333C 4.12892 2.1324 5.41705 0.82963 7.00001 0.82963C 8.58297 0.82963 9.8711 2.1324 9.8711 3.73333C 9.8711 5.33427 8.58297 6.63704 7.00001 6.63704Z"/>
<path id="path1_fill" d="M 2.46094 1.24444C 2.46094 0.827141 2.66577 0.46003 2.97738 0.234232C 2.69776 0.0894618 2.38588 0 2.05078 0C 0.920035 0 0 0.930485 0 2.07407C 0 3.21766 0.920035 4.14815 2.05078 4.14815C 3.06315 4.14815 3.90108 3.40054 4.06661 2.42368C 3.24067 2.69262 2.46094 2.06086 2.46094 1.24444Z"/>
</defs>
</svg>
