<svg width="77" height="16" viewBox="0 0 77 16" version="1.1" xmlns="http://www.w3.org/2000/svg" xmlns:xlink="http://www.w3.org/1999/xlink">
<title>Group</title>
<desc>Created using Figma</desc>
<g id="Canvas" transform="translate(-15469 -586)">
<g id="Group">
<g id="Facebook">
<use xlink:href="#path0_fill" transform="translate(15485 586)" fill="#50cfc8"/>
</g>
<g id="Ellipse 7">
<use xlink:href="#path1_fill" transform="translate(15469 586)" fill="#50cfc8"/>
</g>
<g id="Group">
<g id="Vector">
<use xlink:href="#path2_fill" transform="translate(15474 588)" fill="#FFFFFF"/>
</g>
</g>
</g>
</g>
<defs>
<path id="path0_fill" d="M 13.8945 8.51367L 10.5195 8.51367L 10.5195 12L 8.76172 12L 8.76172 3.46875L 14.3164 3.46875L 14.3164 4.89258L 10.5195 4.89258L 10.5195 7.0957L 13.8945 7.0957L 13.8945 8.51367ZM 18.6992 12C 18.6211 11.8477 18.5645 11.6582 18.5293 11.4316C 18.1191 11.8887 17.5859 12.1172 16.9297 12.1172C 16.3086 12.1172 15.793 11.9375 15.3828 11.5781C 14.9766 11.2188 14.7734 10.7656 14.7734 10.2188C 14.7734 9.54688 15.0215 9.03125 15.5176 8.67188C 16.0176 8.3125 16.7383 8.13086 17.6797 8.12695L 18.459 8.12695L 18.459 7.76367C 18.459 7.4707 18.3828 7.23633 18.2305 7.06055C 18.082 6.88477 17.8457 6.79688 17.5215 6.79688C 17.2363 6.79688 17.0117 6.86523 16.8477 7.00195C 16.6875 7.13867 16.6074 7.32617 16.6074 7.56445L 14.9141 7.56445C 14.9141 7.19727 15.0273 6.85742 15.2539 6.54492C 15.4805 6.23242 15.8008 5.98828 16.2148 5.8125C 16.6289 5.63281 17.0938 5.54297 17.6094 5.54297C 18.3906 5.54297 19.0098 5.74023 19.4668 6.13477C 19.9277 6.52539 20.1582 7.07617 20.1582 7.78711L 20.1582 10.5352C 20.1621 11.1367 20.2461 11.5918 20.4102 11.9004L 20.4102 12L 18.6992 12ZM 17.2988 10.8223C 17.5488 10.8223 17.7793 10.7676 17.9902 10.6582C 18.2012 10.5449 18.3574 10.3945 18.459 10.207L 18.459 9.11719L 17.8262 9.11719C 16.9785 9.11719 16.5273 9.41016 16.4727 9.99609L 16.4668 10.0957C 16.4668 10.3066 16.541 10.4805 16.6895 10.6172C 16.8379 10.7539 17.041 10.8223 17.2988 10.8223ZM 24.0957 10.752C 24.4082 10.752 24.6621 10.666 24.8574 10.4941C 25.0527 10.3223 25.1543 10.0938 25.1621 9.80859L 26.75 9.80859C 26.7461 10.2383 26.6289 10.6328 26.3984 10.9922C 26.168 11.3477 25.8516 11.625 25.4492 11.8242C 25.0508 12.0195 24.6094 12.1172 24.125 12.1172C 23.2188 12.1172 22.5039 11.8301 21.9805 11.2559C 21.457 10.6777 21.1953 9.88086 21.1953 8.86523L 21.1953 8.75391C 21.1953 7.77734 21.4551 6.99805 21.9746 6.41602C 22.4941 5.83398 23.207 5.54297 24.1133 5.54297C 24.9062 5.54297 25.541 5.76953 26.0176 6.22266C 26.498 6.67188 26.7422 7.27148 26.75 8.02148L 25.1621 8.02148C 25.1543 7.69336 25.0527 7.42773 24.8574 7.22461C 24.6621 7.01758 24.4043 6.91406 24.084 6.91406C 23.6895 6.91406 23.3906 7.05859 23.1875 7.34766C 22.9883 7.63281 22.8887 8.09766 22.8887 8.74219L 22.8887 8.91797C 22.8887 9.57031 22.9883 10.0391 23.1875 10.3242C 23.3867 10.6094 23.6895 10.752 24.0957 10.752ZM 30.6348 12.1172C 29.7051 12.1172 28.9473 11.832 28.3613 11.2617C 27.7793 10.6914 27.4883 9.93164 27.4883 8.98242L 27.4883 8.81836C 27.4883 8.18164 27.6113 7.61328 27.8574 7.11328C 28.1035 6.60938 28.4512 6.22266 28.9004 5.95312C 29.3535 5.67969 29.8691 5.54297 30.4473 5.54297C 31.3145 5.54297 31.9961 5.81641 32.4922 6.36328C 32.9922 6.91016 33.2422 7.68555 33.2422 8.68945L 33.2422 9.38086L 29.2051 9.38086C 29.2598 9.79492 29.4238 10.127 29.6973 10.377C 29.9746 10.627 30.3242 10.752 30.7461 10.752C 31.3984 10.752 31.9082 10.5156 32.2754 10.043L 33.1074 10.9746C 32.8535 11.334 32.5098 11.6152 32.0762 11.8184C 31.6426 12.0176 31.1621 12.1172 30.6348 12.1172ZM 30.4414 6.91406C 30.1055 6.91406 29.832 7.02734 29.6211 7.25391C 29.4141 7.48047 29.2812 7.80469 29.2227 8.22656L 31.5781 8.22656L 31.5781 8.0918C 31.5703 7.7168 31.4688 7.42773 31.2734 7.22461C 31.0781 7.01758 30.8008 6.91406 30.4414 6.91406ZM 39.9219 8.88867C 39.9219 9.9043 39.7051 10.6973 39.2715 11.2676C 38.8379 11.834 38.2324 12.1172 37.4551 12.1172C 36.7676 12.1172 36.2188 11.8535 35.8086 11.3262L 35.7324 12L 34.209 12L 34.209 3L 35.9023 3L 35.9023 6.22852C 36.293 5.77148 36.8066 5.54297 37.4434 5.54297C 38.2168 5.54297 38.8223 5.82812 39.2598 6.39844C 39.7012 6.96484 39.9219 7.76367 39.9219 8.79492L 39.9219 8.88867ZM 38.2285 8.76562C 38.2285 8.125 38.127 7.6582 37.9238 7.36523C 37.7207 7.06836 37.418 6.91992 37.0156 6.91992C 36.4766 6.91992 36.1055 7.14062 35.9023 7.58203L 35.9023 10.084C 36.1094 10.5293 36.4844 10.752 37.0273 10.752C 37.5742 10.752 37.9336 10.4824 38.1055 9.94336C 38.1875 9.68555 38.2285 9.29297 38.2285 8.76562ZM 40.707 8.77148C 40.707 8.14258 40.8281 7.58203 41.0703 7.08984C 41.3125 6.59766 41.6602 6.2168 42.1133 5.94727C 42.5703 5.67773 43.0996 5.54297 43.7012 5.54297C 44.5566 5.54297 45.2539 5.80469 45.793 6.32812C 46.3359 6.85156 46.6387 7.5625 46.7012 8.46094L 46.7129 8.89453C 46.7129 9.86719 46.4414 10.6484 45.8984 11.2383C 45.3555 11.8242 44.627 12.1172 43.7129 12.1172C 42.7988 12.1172 42.0684 11.8242 41.5215 11.2383C 40.9785 10.6523 40.707 9.85547 40.707 8.84766L 40.707 8.77148ZM 42.4004 8.89453C 42.4004 9.49609 42.5137 9.95703 42.7402 10.2773C 42.9668 10.5938 43.291 10.752 43.7129 10.752C 44.123 10.752 44.4434 10.5957 44.6738 10.2832C 44.9043 9.9668 45.0195 9.46289 45.0195 8.77148C 45.0195 8.18164 44.9043 7.72461 44.6738 7.40039C 44.4434 7.07617 44.1191 6.91406 43.7012 6.91406C 43.2871 6.91406 42.9668 7.07617 42.7402 7.40039C 42.5137 7.7207 42.4004 8.21875 42.4004 8.89453ZM 47.4922 8.77148C 47.4922 8.14258 47.6133 7.58203 47.8555 7.08984C 48.0977 6.59766 48.4453 6.2168 48.8984 5.94727C 49.3555 5.67773 49.8848 5.54297 50.4863 5.54297C 51.3418 5.54297 52.0391 5.80469 52.5781 6.32812C 53.1211 6.85156 53.4238 7.5625 53.4863 8.46094L 53.498 8.89453C 53.498 9.86719 53.2266 10.6484 52.6836 11.2383C 52.1406 11.8242 51.4121 12.1172 50.498 12.1172C 49.584 12.1172 48.8535 11.8242 48.3066 11.2383C 47.7637 10.6523 47.4922 9.85547 47.4922 8.84766L 47.4922 8.77148ZM 49.1855 8.89453C 49.1855 9.49609 49.2988 9.95703 49.5254 10.2773C 49.752 10.5938 50.0762 10.752 50.498 10.752C 50.9082 10.752 51.2285 10.5957 51.459 10.2832C 51.6895 9.9668 51.8047 9.46289 51.8047 8.77148C 51.8047 8.18164 51.6895 7.72461 51.459 7.40039C 51.2285 7.07617 50.9043 6.91406 50.4863 6.91406C 50.0723 6.91406 49.752 7.07617 49.5254 7.40039C 49.2988 7.7207 49.1855 8.21875 49.1855 8.89453ZM 56.8438 9.45703L 56.2344 10.0664L 56.2344 12L 54.541 12L 54.541 3L 56.2344 3L 56.2344 7.98633L 56.5625 7.56445L 58.1855 5.66016L 60.2188 5.66016L 57.9277 8.30273L 60.418 12L 58.4727 12L 56.8438 9.45703Z"/>
<path id="path1_fill" d="M 16 8C 16 12.4183 12.4183 16 8 16C 3.58172 16 0 12.4183 0 8C 0 3.58172 3.58172 0 8 0C 12.4183 0 16 3.58172 16 8Z"/>
<path id="path2_fill" d="M 6.2435 0.0024968L 4.68737 0C 2.93911 0 1.80931 1.15914 1.80931 2.95322L 1.80931 4.31485L 0.244687 4.31485C 0.109485 4.31485 -4.1908e-08 4.42446 -4.1908e-08 4.55966L -4.1908e-08 6.53251C -4.1908e-08 6.66771 0.10961 6.77719 0.244687 6.77719L 1.80931 6.77719L 1.80931 11.7553C 1.80931 11.8905 1.91879 12 2.05399 12L 4.09538 12C 4.23058 12 4.34006 11.8904 4.34006 11.7553L 4.34006 6.77719L 6.16947 6.77719C 6.30467 6.77719 6.41416 6.66771 6.41416 6.53251L 6.41491 4.55966C 6.41491 4.49474 6.38906 4.43257 6.34325 4.38663C 6.29743 4.34069 6.23501 4.31485 6.17009 4.31485L 4.34006 4.31485L 4.34006 3.16058C 4.34006 2.60579 4.47227 2.32415 5.19497 2.32415L 6.24325 2.32377C 6.37833 2.32377 6.48781 2.21416 6.48781 2.07909L 6.48781 0.247183C 6.48781 0.112231 6.37845 0.00274648 6.2435 0.0024968Z"/>
</defs>
</svg>
