<svg width="17" height="16" viewBox="0 0 17 16" version="1.1" xmlns="http://www.w3.org/2000/svg" xmlns:xlink="http://www.w3.org/1999/xlink">
<title>folder-1</title>
<desc>Created using Figma</desc>
<g id="Canvas" transform="translate(-15369 -698)">
<g id="folder-1">
<g id="Group">
<g id="Group">
<g id="Vector">
<use xlink:href="#path0_fill" transform="translate(15369 698)" fill="#FFFFFF"/>
</g>
</g>
</g>
<g id="Group">
<g id="Group">
<g id="Vector">
<use xlink:href="#path1_fill" transform="translate(15379.1 706.296)" fill="#FFFFFF" fill-opacity="0.6"/>
</g>
</g>
</g>
<g id="Group">
<g id="Group">
<g id="Vector">
<use xlink:href="#path2_fill" transform="translate(15379.1 708.178)" fill="#FFFFFF" fill-opacity="0.6"/>
</g>
</g>
</g>
</g>
</g>
<defs>
<path id="path0_fill" d="M 16.0969 1.58983L 9.68757 1.58983C 9.55935 1.58983 9.43501 1.53903 9.33769 1.44697L 8.16195 0.333081C 7.93488 0.118291 7.64503 -3.5588e-08 7.34579 -3.5588e-08L 3.13322 -3.5588e-08C 2.64099 -3.5588e-08 2.24051 0.43982 2.24051 0.980403L 2.24051 2.29075L 0.892718 2.29075C 0.400484 2.29075 0 2.73057 0 3.27116L 0 15.0196C 0 15.5602 0.400484 16 0.892718 16L 13.8564 16C 14.3486 16 14.7491 15.5602 14.7491 15.0196L 14.7491 13.7095L 16.0969 13.7095C 16.5891 13.7095 16.9896 13.2697 16.9896 12.7291L 16.9896 2.57023C 16.9896 2.02961 16.5891 1.58983 16.0969 1.58983ZM 14.0349 15.0196C 14.0349 15.1277 13.9548 15.2157 13.8564 15.2157L 0.892718 15.2157C 0.794265 15.2157 0.714161 15.1277 0.714161 15.0196L 0.714161 6.95877L 14.0349 6.95877L 14.0349 15.0196L 14.0349 15.0196ZM 14.0349 6.17447L 0.714161 6.17447L 0.714161 3.27119C 0.714161 3.16307 0.794265 3.0751 0.892718 3.0751L 5.10505 3.0751C 5.23343 3.0751 5.35764 3.12579 5.45486 3.21792L 6.63066 4.33155C 6.8575 4.54638 7.14735 4.66467 7.4469 4.66467L 13.8564 4.66467C 13.9548 4.66467 14.0349 4.75264 14.0349 4.86076L 14.0349 6.17447ZM 16.2755 12.7291C 16.2755 12.8373 16.1954 12.9252 16.0969 12.9252L 14.7491 12.9252L 14.7491 4.86073C 14.7491 4.32014 14.3486 3.88032 13.8564 3.88032L 7.4469 3.88032C 7.31851 3.88032 7.19424 3.82963 7.09705 3.73754L 5.92128 2.62398C 5.69444 2.40912 5.40459 2.29079 5.10505 2.29079L 2.95467 2.29079L 2.95467 0.980403C 2.95467 0.872279 3.03477 0.784308 3.13322 0.784308L 7.34579 0.784308C 7.47401 0.784308 7.59834 0.835108 7.69567 0.927161L 8.8714 2.04105C 9.09847 2.25581 9.38833 2.3741 9.68757 2.3741L 16.0969 2.3741C 16.1954 2.3741 16.2755 2.46207 16.2755 2.57019L 16.2755 12.7291L 16.2755 12.7291Z"/>
<path id="path1_fill" d="M 2.49555 -2.75807e-07L 0.357081 -2.75807e-07C 0.159875 -2.75807e-07 -3.88862e-07 0.175579 -3.88862e-07 0.392154C -3.88862e-07 0.608694 0.159875 0.784308 0.357081 0.784308L 2.49555 0.784308C 2.69276 0.784308 2.85263 0.608694 2.85263 0.392154C 2.85263 0.175542 2.69279 -2.75807e-07 2.49555 -2.75807e-07Z"/>
<path id="path2_fill" d="M 2.49555 2.75807e-07L 0.357081 2.75807e-07C 0.159875 2.75807e-07 -3.88862e-07 0.175615 -3.88862e-07 0.392154C -3.88862e-07 0.608693 0.159875 0.784308 0.357081 0.784308L 2.49555 0.784308C 2.69276 0.784308 2.85263 0.608693 2.85263 0.392154C 2.85263 0.175615 2.69279 2.75807e-07 2.49555 2.75807e-07Z"/>
</defs>
</svg>
