<svg width="72" height="72" viewBox="0 0 72 72" version="1.1" xmlns="http://www.w3.org/2000/svg" xmlns:xlink="http://www.w3.org/1999/xlink">
<title>Group</title>
<desc>Created using Figma</desc>
<g id="Canvas" transform="translate(-15859 -616)">
<g id="Group">
<g id="Rectangle 9" filter="url(#filter0_d)">
<use xlink:href="#path0_fill" transform="translate(15863 616)" fill="#FFFFFF"/>
<mask id="mask0_outline_ins">
<use xlink:href="#path0_fill" fill="white" transform="translate(15863 616)"/>
</mask>
<g mask="url(#mask0_outline_ins)">
<use xlink:href="#path1_stroke_2x" transform="translate(15863 616)" fill="url(#paint1_linear)"/>
</g>
</g>
<g id=" 1">
<g id="Group">
<g id="Group">
<g id="Vector">
<use xlink:href="#path2_fill" transform="translate(15880.3 649.295)" fill="#F65A4C"/>
</g>
<g id="Vector">
<use xlink:href="#path3_fill" transform="translate(15885.9 637.882)" fill="#F65A4C"/>
</g>
<g id="Vector">
<use xlink:href="#path4_fill" transform="translate(15893.3 632)" fill="#F65A4C"/>
</g>
<g id="Vector">
<use xlink:href="#path5_fill" transform="translate(15897.6 646.705)" fill="#F65A4C"/>
</g>
<g id="Vector">
<use xlink:href="#path6_fill" transform="translate(15896.2 642.923)" fill="#F65A4C"/>
</g>
<g id="Vector">
<use xlink:href="#path7_fill" transform="translate(15906.4 636.341)" fill="#F65A4C"/>
</g>
<g id="Vector">
<use xlink:href="#path8_fill" transform="translate(15882.9 634.801)" fill="#F65A4C"/>
</g>
<g id="Vector">
<use xlink:href="#path9_fill" transform="translate(15897.6 658.468)" fill="#F65A4C"/>
</g>
</g>
</g>
</g>
</g>
</g>
<defs>
<filter id="filter0_d" filterUnits="userSpaceOnUse" x="15859" y="616" width="72" height="72" color-interpolation-filters="sRGB">
<feFlood flood-opacity="0" result="BackgroundImageFix"/>
<feColorMatrix in="SourceAlpha" type="matrix" values="0 0 0 0 0 0 0 0 0 0 0 0 0 0 0 0 0 0 255 0"/>
<feOffset dx="0" dy="4"/>
<feGaussianBlur stdDeviation="2"/>
<feColorMatrix type="matrix" values="0 0 0 0 0 0 0 0 0 0 0 0 0 0 0 0 0 0 0.15 0"/>
<feBlend mode="normal" in2="BackgroundImageFix" result="effect1_dropShadow"/>
<feBlend mode="normal" in="SourceGraphic" in2="effect1_dropShadow" result="shape"/>
</filter>
<linearGradient id="paint1_linear" x1="0" y1="0" x2="1" y2="0" gradientUnits="userSpaceOnUse" gradientTransform="matrix(3.91887e-15 64 -64 3.91887e-15 64 -3.91887e-15)">
<stop offset="0.0331492" stop-color="#D84F43"/>
<stop offset="1" stop-color="#F65A4C"/>
</linearGradient>
<path id="path0_fill" d="M 0 32C 0 14.3269 14.3269 0 32 0C 49.6731 0 64 14.3269 64 32C 64 49.6731 49.6731 64 32 64C 14.3269 64 0 49.6731 0 32Z"/>
<path id="path1_stroke_2x" d="M 32 -5C 11.5655 -5 -5 11.5655 -5 32L 5 32C 5 17.0883 17.0883 5 32 5L 32 -5ZM 32 5C 46.9117 5 59 17.0883 59 32L 69 32C 69 11.5655 52.4345 -5 32 -5L 32 5ZM 59 32C 59 46.9117 46.9117 59 32 59L 32 69C 52.4345 69 69 52.4345 69 32L 59 32ZM 32 59C 17.0883 59 5 46.9117 5 32L -5 32C -5 52.4345 11.5655 69 32 69L 32 59Z"/>
<path id="path2_fill" d="M 11.8911 0.140027C 11.7512 -4.43167e-07 11.6113 -1.37516e-08 11.4714 -1.37516e-08L 4.33677 -1.37516e-08C 4.19689 -1.37516e-08 3.91707 -4.43167e-07 3.91707 0.140027L 0.279815 3.50109C 0.139936 3.64112 -1.3737e-08 3.7812 -1.3737e-08 4.06126C -1.3737e-08 4.20128 0.139879 4.4814 0.279815 4.62142L 2.37823 6.30193L 0.279815 8.12251C 0.139936 8.26254 -1.3737e-08 8.40263 -1.3737e-08 8.68268C -1.3737e-08 8.82271 0.139879 9.10282 0.279815 9.24285L 5.59585 14.5645C 5.73573 14.7046 5.87566 14.7046 6.01554 14.7046C 6.15542 14.7046 6.29536 14.7046 6.29536 14.5645L 13.43 10.9234C 13.5699 10.7834 13.7098 10.6433 13.8497 10.5033L 15.6683 4.34137C 15.8082 4.06126 15.6683 3.7812 15.5285 3.64117L 11.8911 0.140027ZM 12.7305 9.80307L 6.2953 13.1641L 1.81866 8.82277L 3.91707 6.86215C 4.05695 6.58204 4.05695 6.44201 4.05695 6.16196C 4.05695 6.02193 3.91707 5.74182 3.77714 5.60179L 1.67872 3.92129L 4.47664 1.26048L 11.0517 1.26048L 14.1294 4.2014L 12.7305 9.80307Z"/>
<path id="path3_fill" d="M 0.629556 10.1532C 0.769435 10.1532 1.04925 10.1532 1.18913 10.0132L 10.0025 1.19039C 10.2824 0.910279 10.2824 0.490196 10.0025 0.210084C 9.72272 -0.070028 9.30309 -0.070028 9.02327 0.210084L 0.209861 9.03285C -0.0699535 9.31296 -0.0699535 9.73305 0.209861 10.0132C 0.349741 10.1532 0.489676 10.1532 0.629556 10.1532Z"/>
<path id="path4_fill" d="M 0.629555 14.6346C 0.769435 14.6346 1.04925 14.6346 1.18913 14.4946L 14.4792 1.19039C 14.759 0.910279 14.759 0.490196 14.4792 0.210084C 14.1994 -0.070028 13.7797 -0.070028 13.4999 0.210084L 0.209861 13.5142C -0.0699538 13.7944 -0.0699538 14.2144 0.209861 14.4946C 0.209861 14.4946 0.489676 14.6346 0.629555 14.6346Z"/>
<path id="path5_fill" d="M 9.02327 0.210042L 0.209862 9.03281C -0.0699531 9.31292 -0.0699531 9.733 0.209862 10.0131C 0.349741 10.1531 0.489675 10.1531 0.769434 10.1531C 1.04925 10.1531 1.18913 10.1531 1.32901 10.0131L 10.1424 1.19035C 10.4222 0.910237 10.4222 0.490154 10.1424 0.210042C 9.8626 -0.0700138 9.30303 -0.0700138 9.02327 0.210042Z"/>
<path id="path6_fill" d="M 7.76419 0.210084C 7.48437 -0.0700282 7.06474 -0.0700282 6.78492 0.210084L 0.209861 6.79218C -0.0699535 7.07229 -0.0699535 7.49238 0.209861 7.77249C 0.349741 7.91252 0.489677 7.91252 0.769435 7.91252C 1.04925 7.91252 1.18913 7.91252 1.32901 7.77249L 7.76419 1.19045C 8.044 0.910335 8.044 0.490196 7.76419 0.210084Z"/>
<path id="path7_fill" d="M 4.26681 0.210084C 3.987 -0.0700279 3.56736 -0.0700279 3.28755 0.210084L 2.30827 1.19039L 1.32901 0.210084C 1.04919 -0.0700279 0.629555 -0.0700279 0.34974 0.210084C 0.069925 0.490196 0.069925 0.910279 0.34974 1.19039L 1.32901 2.1707L 0.209861 3.15101C -0.0699539 3.43112 -0.0699539 3.8512 0.209861 4.13131C 0.34974 4.27134 0.489676 4.27134 0.769435 4.27134C 1.04919 4.27134 1.18913 4.27134 1.32901 4.13131L 2.1684 3.15101L 3.14766 4.13131C 3.28754 4.27134 3.42748 4.27134 3.70724 4.27134C 3.987 4.27134 4.12693 4.27134 4.26681 4.13131C 4.54663 3.8512 4.54663 3.43112 4.26681 3.15101L 3.28755 2.1707L 4.26681 1.19039C 4.54657 0.910336 4.54657 0.490196 4.26681 0.210084Z"/>
<path id="path8_fill" d="M 0.209861 5.67179C 0.349741 5.81182 0.489676 5.81182 0.769435 5.81182C 1.04919 5.81182 1.18913 5.81182 1.32901 5.67179L 2.86785 3.99129L 4.54657 5.67179C 4.68645 5.81182 4.82638 5.81182 5.10614 5.81182C 5.38596 5.81182 5.52584 5.81182 5.66572 5.67179C 5.94553 5.39168 5.94553 4.97159 5.66572 4.69148L 3.84712 3.01098L 5.52584 1.33048C 5.80565 1.05036 5.80565 0.63028 5.52584 0.350168C 5.24602 0.0700562 4.82639 0.0700562 4.54657 0.350168L 2.86785 2.03067L 1.18913 0.210084C 0.909314 -0.0700279 0.489676 -0.0700279 0.209861 0.210084C -0.0699536 0.490196 -0.0699536 0.910279 0.209861 1.19039L 1.88858 2.87089L 0.209861 4.69148C -0.0699536 4.97159 -0.0699536 5.39173 0.209861 5.67179Z"/>
<path id="path9_fill" d="M 2.72803 0.210084C 2.44821 -0.0700284 2.02857 -0.0700284 1.74876 0.210084L 1.46894 0.490195L 1.18913 0.210084C 0.909314 -0.0700284 0.489676 -0.0700284 0.209861 0.210084C -0.0699535 0.490196 -0.0699535 0.910279 0.209861 1.19039L 0.489676 1.4705L 0.209861 1.75062C -0.0699535 2.03073 -0.0699535 2.45081 0.209861 2.73092C 0.349741 2.87095 0.489677 2.87095 0.769435 2.87095C 1.04925 2.87095 1.18913 2.87095 1.32901 2.73092L 1.60882 2.45081L 1.88864 2.73092C 2.02852 2.87095 2.16845 2.87095 2.44821 2.87095C 2.72803 2.87095 2.8679 2.87095 3.00778 2.73092C 3.2876 2.45081 3.2876 2.03073 3.00778 1.75062L 2.72797 1.4705L 3.00778 1.19039C 3.00778 0.910279 3.00779 0.490139 2.72803 0.210084Z"/>
</defs>
</svg>
