<svg width="48" height="48" viewBox="0 0 48 48" version="1.1" xmlns="http://www.w3.org/2000/svg" xmlns:xlink="http://www.w3.org/1999/xlink">
<title>linkedin-logo-button</title>
<desc>Created using Figma</desc>
<g id="Canvas" transform="translate(-12443 -962)">
<g id="linkedin-logo-button">
<g id="Group">
<g id="Group">
<g id="Group">
<g id="Vector">
<use xlink:href="#path0_fill" transform="translate(12464 982.589)" fill="#FFFFFF" fill-opacity="0.5"/>
</g>
<g id="Vector">
<use xlink:href="#path1_fill" transform="translate(12458 982.864)" fill="#FFFFFF" fill-opacity="0.5"/>
</g>
<g id="Vector">
<use xlink:href="#path2_fill" transform="translate(12443 962)" fill="#FFFFFF" fill-opacity="0.5"/>
</g>
<g id="Vector">
<use xlink:href="#path3_fill" transform="translate(12457.8 977.252)" fill="#FFFFFF" fill-opacity="0.5"/>
</g>
</g>
</g>
</g>
</g>
</g>
<defs>
<path id="path0_fill" d="M 7.3539 3.24524e-07C 5.29961 3.24524e-07 4.38218 1.12914 3.86885 1.92186L 3.86885 0.274552L 2.95022e-08 0.274552C 0.0502699 1.36502 2.95022e-08 11.9149 2.95022e-08 11.9149L 3.86885 11.9149L 3.86885 5.41175C 3.86885 5.06469 3.89108 4.7157 3.99549 4.46725C 4.27584 3.77121 4.91195 3.051 5.98115 3.051C 7.38097 3.051 7.94071 4.11826 7.94071 5.68436L 7.94071 11.912L 11.8096 11.912L 11.8105 11.912L 11.8105 5.23677C 11.8086 1.66374 9.8993 3.24524e-07 7.3539 3.24524e-07ZM 3.86595 1.96246L 3.84178 1.96246C 3.84951 1.94892 3.86111 1.93636 3.86595 1.92282L 3.86595 1.96246Z"/>
<path id="path1_fill" d="M 3.86885 0L 0 0L 0 11.6404L 3.86885 11.6404L 3.86885 0Z"/>
<path id="path2_fill" d="M 24 0C 10.7665 0 0 10.7665 0 24C 0 37.2326 10.7665 48 24 48C 37.2326 48 48 37.2326 48 24C 48 10.7665 37.2345 0 24 0ZM 36.727 34.8554C 36.727 35.8763 35.8801 36.7018 34.8332 36.7018L 13.0035 36.7018C 11.9594 36.7018 11.1116 35.8763 11.1116 34.8554L 11.1116 12.7715C 11.1116 11.7516 11.9594 10.925 13.0035 10.925L 34.8332 10.925C 35.8792 10.925 36.727 11.7525 36.727 12.7715L 36.727 34.8554Z"/>
<path id="path3_fill" d="M 2.18867 4.13031e-07C 0.866189 4.13031e-07 -2.87647e-07 0.868123 -2.87647e-07 2.0108C -2.87647e-07 3.12737 0.840086 4.02159 2.13744 4.02159L 2.16257 4.02159C 3.51212 4.02159 4.35221 3.12737 4.35221 2.0108C 4.32611 0.869089 3.51309 4.13031e-07 2.18867 4.13031e-07Z"/>
</defs>
</svg>
