<svg width="13" height="2" viewBox="0 0 13 2" version="1.1" xmlns="http://www.w3.org/2000/svg" xmlns:xlink="http://www.w3.org/1999/xlink">
<title>Vector 10</title>
<desc>Created using Figma</desc>
<g id="Canvas" transform="translate(-16185 -3350)">
<g id="Vector 10">
<use xlink:href="#path0_stroke" transform="translate(16186 3351)" fill="#3564DB"/>
</g>
</g>
<defs>
<path id="path0_stroke" d="M 0 -1C -0.552285 -1 -1 -0.552285 -1 0C -1 0.552285 -0.552285 1 0 1L 0 -1ZM 11 1C 11.5523 1 12 0.552285 12 0C 12 -0.552285 11.5523 -1 11 -1L 11 1ZM 0.916667 1C 1.46895 1 1.91667 0.552285 1.91667 0C 1.91667 -0.552285 1.46895 -1 0.916667 -1L 0.916667 1ZM 4.58333 -1C 4.03105 -1 3.58333 -0.552285 3.58333 0C 3.58333 0.552285 4.03105 1 4.58333 1L 4.58333 -1ZM 6.41667 1C 6.96895 1 7.41667 0.552285 7.41667 0C 7.41667 -0.552285 6.96895 -1 6.41667 -1L 6.41667 1ZM 10.0833 -1C 9.53105 -1 9.08333 -0.552285 9.08333 0C 9.08333 0.552285 9.53105 1 10.0833 1L 10.0833 -1ZM 0 1L 0.916667 1L 0.916667 -1L 0 -1L 0 1ZM 4.58333 1L 6.41667 1L 6.41667 -1L 4.58333 -1L 4.58333 1ZM 10.0833 1L 11 1L 11 -1L 10.0833 -1L 10.0833 1Z"/>
</defs>
</svg>
