<svg width="32" height="30" viewBox="0 0 32 30" version="1.1" xmlns="http://www.w3.org/2000/svg" xmlns:xlink="http://www.w3.org/1999/xlink">
<title>list</title>
<desc>Created using Figma</desc>
<g id="Canvas" transform="translate(-15103 -979)">
<g id="list">
<g id="Group">
<g id="Group">
<g id="Vector">
<use xlink:href="#path0_fill" transform="translate(15114.9 980.454)" fill="#FFFFFF" fill-opacity="0.3"/>
</g>
<g id="Vector">
<use xlink:href="#path1_fill" transform="translate(15105.2 991.741)" fill="#50CFC8"/>
</g>
<g id="Vector">
<use xlink:href="#path2_fill" transform="translate(15105.2 1002.81)" fill="#50CFC8"/>
</g>
<g id="Vector">
<use xlink:href="#path3_fill" transform="translate(15114.9 983.87)" fill="#FFFFFF" fill-opacity="0.3"/>
</g>
<g id="Vector">
<use xlink:href="#path4_fill" transform="translate(15114.9 991.541)" fill="#FFFFFF" fill-opacity="0.3"/>
</g>
<g id="Vector">
<use xlink:href="#path5_fill" transform="translate(15114.9 994.956)" fill="#FFFFFF" fill-opacity="0.3"/>
</g>
<g id="Vector">
<use xlink:href="#path6_fill" transform="translate(15114.9 1002.62)" fill="#FFFFFF" fill-opacity="0.3"/>
</g>
<g id="Vector">
<use xlink:href="#path7_fill" transform="translate(15114.9 1006.04)" fill="#FFFFFF" fill-opacity="0.3"/>
</g>
<g id="Vector">
<use xlink:href="#path8_fill" transform="translate(15103 979)" fill="#50CFC8"/>
</g>
</g>
</g>
</g>
</g>
<defs>
<path id="path0_fill" d="M 20.0181 0L 0.0791757 0C 0.039588 0 -4.02706e-07 0.0333535 -4.02706e-07 0.0800484L -4.02706e-07 1.96786C -4.02706e-07 2.00788 0.0329901 2.0479 0.0791757 2.0479L 20.0181 2.0479C 20.0577 2.0479 20.0973 2.01455 20.0973 1.96786L 20.0973 0.0800484C 20.0973 0.0333535 20.0643 0 20.0181 0Z"/>
<path id="path1_fill" d="M 2.50062 5.05639C 3.88167 5.05639 5.00124 3.92448 5.00124 2.52819C 5.00124 1.13191 3.88167 0 2.50062 0C 1.11957 0 0 1.13191 0 2.52819C 0 3.92448 1.11957 5.05639 2.50062 5.05639Z"/>
<path id="path2_fill" d="M 2.51381 5.08307C 3.90216 5.08307 5.02763 3.94519 5.02763 2.54153C 5.02763 1.13788 3.90216 0 2.51381 0C 1.12547 0 0 1.13788 0 2.54153C 0 3.94519 1.12547 5.08307 2.51381 5.08307Z"/>
<path id="path3_fill" d="M 0.0791757 2.0479L 9.50103 2.0479C 9.54062 2.0479 9.58021 2.01455 9.58021 1.96786L 9.58021 0.0800484C 9.58021 0.0400243 9.54722 -2.03573e-07 9.50103 -2.03573e-07L 0.0791757 -2.03573e-07C 0.039588 -2.03573e-07 -4.02706e-07 0.0333536 -4.02706e-07 0.0800484L -4.02706e-07 1.96786C 0.00659754 2.01455 0.039588 2.0479 0.0791757 2.0479Z"/>
<path id="path4_fill" d="M 20.0181 -2.03573e-07L 0.0791757 -2.03573e-07C 0.039588 -2.03573e-07 -4.02706e-07 0.0333531 -4.02706e-07 0.0800479L -4.02706e-07 1.96786C -4.02706e-07 2.00788 0.0329901 2.0479 0.0791757 2.0479L 20.0181 2.0479C 20.0577 2.0479 20.0973 2.01455 20.0973 1.96786L 20.0973 0.0800479C 20.0973 0.0333531 20.0643 -2.03573e-07 20.0181 -2.03573e-07Z"/>
<path id="path5_fill" d="M 0.0791757 2.0479L 9.50103 2.0479C 9.54062 2.0479 9.58021 2.01455 9.58021 1.96785L 9.58021 0.0800488C 9.58021 0.0400246 9.54722 -4.07147e-07 9.50103 -4.07147e-07L 0.0791757 -4.07147e-07C 0.039588 -4.07147e-07 -4.02706e-07 0.0333539 -4.02706e-07 0.0800488L -4.02706e-07 1.96785C 0.00659754 2.00788 0.039588 2.0479 0.0791757 2.0479Z"/>
<path id="path6_fill" d="M 20.0181 -8.14294e-07L 0.0791757 -8.14294e-07C 0.039588 -8.14294e-07 -4.02706e-07 0.0333535 -4.02706e-07 0.0800484L -4.02706e-07 1.96785C -4.02706e-07 2.00788 0.0329901 2.0479 0.0791757 2.0479L 20.0181 2.0479C 20.0577 2.0479 20.0973 2.01455 20.0973 1.96785L 20.0973 0.0800484C 20.0973 0.0333535 20.0643 -8.14294e-07 20.0181 -8.14294e-07Z"/>
<path id="path7_fill" d="M 9.50103 4.07147e-07L 0.0791757 4.07147e-07C 0.039588 4.07147e-07 -4.02706e-07 0.0333527 -4.02706e-07 0.0800475L -4.02706e-07 1.96786C -4.02706e-07 2.00788 0.0329901 2.0479 0.0791757 2.0479L 9.50103 2.0479C 9.54062 2.0479 9.58021 2.01455 9.58021 1.96786L 9.58021 0.0800475C 9.58021 0.0333527 9.54722 4.07147e-07 9.50103 4.07147e-07Z"/>
<path id="path8_fill" d="M 3.5233 4.1425L 1.80124 2.38811L 0 4.20254L 1.72866 5.95026L 3.5167 7.77136L 5.31134 5.9636L 9.43505 1.8211L 7.64701 5.08934e-08L 3.5233 4.1425Z"/>
</defs>
</svg>
