<svg width="200" height="67" viewBox="0 0 200 67" version="1.1" xmlns="http://www.w3.org/2000/svg" xmlns:xlink="http://www.w3.org/1999/xlink">
<title> 3</title>
<desc>Created using Figma</desc>
<g id="Canvas" transform="translate(-15865 -1191)">
<g id=" 3">
<g id="Layer 2">
<g id="&#208;&#168;&#208;&#176;&#209;&#128; 1">
<g id="Vector">
<use xlink:href="#path0_fill" transform="translate(15865 1191)" fill="#423B97"/>
</g>
<g id="Vector">
<use xlink:href="#path1_fill" transform="translate(15889 1225.88)" fill="#423B97"/>
</g>
<g id="Vector">
<use xlink:href="#path2_fill" transform="translate(15969.9 1201.75)" fill="#FFFFFF"/>
</g>
<g id="Vector">
<use xlink:href="#path3_fill" transform="translate(15985.9 1205.99)" fill="#FFFFFF"/>
</g>
<g id="Vector">
<use xlink:href="#path4_fill" transform="translate(16001.4 1205.99)" fill="#FFFFFF"/>
</g>
<g id="Vector">
<use xlink:href="#path5_fill" transform="translate(16016.9 1202.16)" fill="#FFFFFF"/>
</g>
<g id="Vector">
<use xlink:href="#path6_fill" transform="translate(16028.5 1205.99)" fill="#FFFFFF"/>
</g>
<g id="Vector">
<use xlink:href="#path7_fill" transform="translate(16044.1 1201.31)" fill="#FFFFFF"/>
</g>
<g id="Vector">
<use xlink:href="#path8_fill" transform="translate(16051.7 1205.99)" fill="#FFFFFF"/>
</g>
<g id="Vector">
<use xlink:href="#path9_fill" transform="translate(15969.9 1230.48)" fill="#FFFFFF"/>
</g>
<g id="Vector">
<use xlink:href="#path10_fill" transform="translate(15988.6 1234.71)" fill="#FFFFFF"/>
</g>
<g id="Vector">
<use xlink:href="#path11_fill" transform="translate(15999.2 1234.72)" fill="#FFFFFF"/>
</g>
<g id="Vector">
<use xlink:href="#path12_fill" transform="translate(16014.8 1235.04)" fill="#FFFFFF"/>
</g>
<g id="Vector">
<use xlink:href="#path13_fill" transform="translate(16038.7 1230.88)" fill="#FFFFFF"/>
</g>
<g id="Vector">
<use xlink:href="#path14_fill" transform="translate(16051 1229.41)" fill="#FFFFFF"/>
</g>
</g>
</g>
</g>
</g>
<defs>
<path id="path0_fill" d="M 40.0608 0L 0 40.1145L 5.42372 47.3526C 5.42372 47.3526 18.6527 35.0479 40.0608 35.0479C 61.4688 35.0479 74.6979 47.3526 74.6979 47.3526L 80.0477 40.2105L 40.0608 0Z"/>
<path id="path1_fill" d="M 16.0061 5.92322e-07C 12.8404 5.92322e-07 9.74576 0.94184 7.11358 2.70641C 4.48139 4.47099 2.42986 6.97904 1.2184 9.91342C 0.00693496 12.8478 -0.310038 16.0767 0.30756 19.1918C 0.925157 22.3069 2.44959 25.1684 4.68807 27.4142C 6.92656 29.6601 9.77857 31.1896 12.8834 31.8092C 15.9883 32.4289 19.2066 32.1108 22.1313 30.8954C 25.0561 29.6799 27.5559 27.6216 29.3146 24.9807C 31.0734 22.3399 32.0121 19.235 32.0121 16.0589C 32.0127 13.9499 31.5991 11.8614 30.7949 9.91274C 29.9907 7.96413 28.8118 6.19358 27.3253 4.70226C 25.8389 3.21094 24.0742 2.02808 22.132 1.22125C 20.1898 0.414413 18.1082 -0.000572284 16.0061 5.92322e-07ZM 16.0061 22.3769C 14.761 22.3752 13.5443 22.0032 12.5099 21.3079C 11.4754 20.6126 10.6697 19.6253 10.1944 18.4707C 9.71908 17.316 9.59561 16.046 9.83957 14.821C 10.0835 13.596 10.684 12.471 11.565 11.5883C 12.446 10.7056 13.5681 10.1047 14.7894 9.86162C 16.0107 9.61855 17.2765 9.74417 18.4266 10.2226C 19.5768 10.7011 20.5598 11.5109 21.2513 12.5497C 21.9429 13.5885 22.312 14.8097 22.312 16.0589C 22.3132 16.8901 22.1508 17.7133 21.8343 18.4814C 21.5178 19.2495 21.0534 19.9474 20.4676 20.5352C 19.8818 21.1229 19.1862 21.5889 18.4206 21.9064C 17.655 22.2239 16.8345 22.3868 16.0061 22.3857L 16.0061 22.3769Z"/>
<path id="path2_fill" d="M 13.468 3.98512C 12.3831 3.54602 11.2219 3.32813 10.0521 3.34416C 6.87526 3.34416 4.59799 5.03159 4.59799 8.48057C 4.59799 11.7421 6.77096 13.8088 10.3129 13.8088C 11.4647 13.8205 12.6081 13.6103 13.681 13.1897L 13.9678 16.7128C 12.6442 17.0606 11.2813 17.235 9.91307 17.2316C 3.93741 17.2316 -2.12204e-06 14.428 -2.12204e-06 8.57213C -2.12204e-06 3.02586 4.00694 0.00418951 9.81745 0.00418951C 11.1577 -0.0301164 12.4951 0.146435 13.7809 0.527423L 13.468 3.98512Z"/>
<path id="path3_fill" d="M 8.60928 10.6434C 8.17799 11.3663 7.56048 11.9593 6.82169 12.3598C 6.08291 12.7603 5.25018 12.9537 4.41112 12.9195C 1.89918 12.9195 -5.30509e-06 11.3542 -5.30509e-06 9.02141C -5.30509e-06 6.21339 2.3946 4.85735 6.51889 4.85735C 7.01433 4.85735 7.701 4.90095 8.29639 4.94891C 8.29639 3.37921 7.27943 2.80802 5.66274 2.80802C 4.25632 2.82894 2.87184 3.16095 1.60799 3.78036L 1.49066 0.832812C 2.82051 0.239815 4.83701 -4.65728e-07 6.32767 -4.65728e-07C 10.4302 -4.65728e-07 12.3033 1.80951 12.3033 5.23233C 12.3033 5.87329 12.2555 7.18137 12.2555 8.22784C 12.2555 10.1071 12.3511 11.6768 12.4467 12.7015L 8.70056 12.7015C 8.64727 12.3802 8.62399 12.0547 8.63102 11.7291C 8.62774 11.371 8.6437 11.0129 8.67882 10.6565L 8.60928 10.6434ZM 7.44893 7.10289C 5.27596 7.10289 4.03302 7.59996 4.03302 8.79031C 4.03302 9.81498 4.74575 10.2161 5.77139 10.2161C 7.33592 10.2161 8.3355 9.07809 8.3355 7.16393C 8.06171 7.12469 7.72706 7.09853 7.44458 7.09853L 7.44893 7.10289Z"/>
<path id="path4_fill" d="M 4.25032 2.25862C 5.41068 0.710725 6.52759 -2.6613e-07 8.44849 -2.6613e-07C 11.6732 -2.6613e-07 13.7592 2.49844 13.7592 6.37908C 13.7592 10.2597 11.5298 12.9893 8.23554 12.9893C 6.45661 12.9893 5.17601 12.3221 4.39374 10.9879L 4.36331 10.9879C 4.41112 11.4632 4.4372 13.168 4.4372 13.87L 4.4372 17.7071L 0.121682 17.7071L 0.121682 4.1379C 0.121682 2.85598 0.0956068 1.33424 -3.71356e-06 0.305219L 4.12429 0.305219C 4.1721 0.806651 4.2199 1.63946 4.2199 2.25862L 4.25032 2.25862ZM 4.25032 6.47065C 4.25032 8.49382 5.26726 9.7801 6.88395 9.7801C 8.50064 9.7801 9.3959 8.51998 9.3959 6.35292C 9.3959 4.39952 8.42242 3.18736 6.90569 3.18736C 5.31508 3.18736 4.25032 4.51724 4.25032 6.47065Z"/>
<path id="path5_fill" d="M 0.00869027 4.1379L 2.47284 4.1379L 2.47284 1.33424L 6.52759 1.66331e-07L 6.52759 4.1379L 9.49151 4.1379L 9.49151 7.06801L 6.53194 7.06801L 6.53194 11.921C 6.53194 12.8759 6.77097 13.8003 8.19209 13.8003C 8.63909 13.8021 9.08498 13.7553 9.52194 13.6607L 9.66535 16.4426C 8.8059 16.6097 7.93318 16.6987 7.05779 16.7086C 3.76358 16.7086 2.27727 15.3002 2.27727 12.2349L 2.27727 7.06801L 3.18305e-06 7.06801L 0.00869027 4.1379Z"/>
<path id="path6_fill" d="M 8.62667 10.6434C 8.19431 11.3693 7.5741 11.9642 6.83188 12.365C 6.08966 12.7657 5.25314 12.9573 4.41111 12.9195C 1.89917 12.9195 -2.65255e-06 11.3542 -2.65255e-06 9.02141C -2.65255e-06 6.21339 2.39461 4.85735 6.51889 4.85735C 7.01433 4.85735 7.70099 4.90095 8.29638 4.94891C 8.29638 3.37921 7.27943 2.80802 5.66274 2.80802C 4.25633 2.82894 2.87184 3.16095 1.608 3.78036L 1.48631 0.832812C 2.81617 0.239815 4.82833 -4.65728e-07 6.32334 -4.65728e-07C 10.4259 -4.65728e-07 12.299 1.80951 12.299 5.23233C 12.299 5.87329 12.2512 7.18137 12.2512 8.22784C 12.2512 10.1071 12.3468 11.6768 12.4424 12.7015L 8.69621 12.7015C 8.64147 12.3804 8.61673 12.0549 8.62232 11.7291C 8.61822 11.371 8.63419 11.0129 8.67014 10.6565L 8.62667 10.6434ZM 7.4663 7.10289C 5.29334 7.10289 4.05041 7.59996 4.05041 8.79031C 4.05041 9.81498 4.76314 10.2161 5.78878 10.2161C 7.35332 10.2161 8.34853 9.07809 8.34853 7.16393C 8.0617 7.12469 7.73142 7.09853 7.44893 7.09853L 7.4663 7.10289Z"/>
<path id="path7_fill" d="M 4.30247 3.18736L 2.65255e-06 3.18736L 2.65255e-06 -2.6613e-07L 4.30247 -2.6613e-07L 4.30247 3.18736ZM 4.30247 17.367L 2.65255e-06 17.367L 2.65255e-06 4.99252L 4.30247 4.99252L 4.30247 17.367Z"/>
<path id="path8_fill" d="M 4.12864 2.45047C 4.6044 1.7226 5.24751 1.12008 6.00382 0.693629C 6.76013 0.26718 7.6075 0.0292941 8.47457 4.65728e-07C 11.4863 4.65728e-07 13.2551 1.85312 13.2551 5.26285L 13.2551 12.6753L 8.98739 12.6753L 8.98739 6.81075C 8.98739 4.52597 8.5528 3.43154 7.01868 3.43154C 6.5783 3.40411 6.13981 3.50944 5.75956 3.734C 5.37931 3.95855 5.07469 4.29205 4.88483 4.69166C 4.52638 5.541 4.36442 6.46079 4.41112 7.38195L 4.41112 12.684L 0.121691 12.684L 0.121691 4.33411C 0.121691 3.28765 0.0956158 1.97957 5.30509e-06 0.30958L 4.00695 0.30958C 4.05476 0.832813 4.10257 1.81387 4.10257 2.45483L 4.12864 2.45047Z"/>
<path id="path9_fill" d="M 14.6154 4.23536C 13.2038 3.58399 11.6617 3.26768 10.1086 3.31098C 6.74054 3.31098 4.58496 5.45187 4.58496 8.63924C 4.58496 11.8266 6.38417 13.9195 9.51758 13.9195C 10.0901 13.9235 10.6617 13.8753 11.2255 13.7756L 11.2255 10.4705L 8.61799 10.4705L 8.61799 7.37912L 15.2238 7.37912L 15.2238 16.5357C 13.5443 16.9813 11.8154 17.2128 10.0782 17.2246C 3.53324 17.2246 -2.12204e-06 14.2771 -2.12204e-06 8.82673C -2.12204e-06 3.26302 3.86788 0.00153114 9.9348 0.00153114C 11.6464 -0.0220294 13.3508 0.226682 14.9848 0.738415L 14.6154 4.23536Z"/>
<path id="path10_fill" d="M 4.01564 3.02287C 4.60669 1.09562 5.71925 0.00119532 7.66622 0.00119532C 8.12264 -0.00918282 8.57807 0.0481186 9.0178 0.171246L 8.87439 3.75975C 8.42123 3.61862 7.9495 3.5466 7.475 3.5461C 5.27161 3.5461 4.43285 4.99807 4.43285 8.28136L 4.43285 12.6809L 0.117343 12.6809L 0.117343 3.99957C 0.117343 2.69148 0.0912587 1.33544 -5.8356e-06 0.310774L 3.86353 0.310774C 3.91134 0.786044 3.98522 2.31214 3.98522 3.02287L 4.01564 3.02287Z"/>
<path id="path11_fill" d="M 14.2547 6.51861C 14.2547 10.469 11.4298 12.9893 7.11429 12.9893C 2.79878 12.9893 2.65255e-06 10.4429 2.65255e-06 6.56658C 2.65255e-06 2.49844 2.7249 9.31455e-07 7.18383 9.31455e-07C 11.4776 9.31455e-07 14.2547 2.5464 14.2547 6.51861ZM 4.3894 6.44449C 4.3894 8.62463 5.52802 10.0635 7.14036 10.0635C 8.7527 10.0635 9.86961 8.63771 9.86961 6.54041C 9.86961 4.36028 8.75706 2.92575 7.11864 2.92575C 5.54976 2.93883 4.3894 4.42568 4.3894 6.42705L 4.3894 6.44449Z"/>
<path id="path12_fill" d="M 3.60712 12.357L -5.30509e-07 0L 4.485 0L 5.88439 6.16107C 6.04954 6.92412 6.31899 8.30632 6.45371 9.13478L 6.50151 9.13478C 6.64492 8.30632 6.99694 6.84999 7.16644 6.18723L 8.68317 0L 13.8288 0L 15.2759 6.16107C 15.4672 6.92412 15.7714 8.30632 15.9148 9.13478L 15.9626 9.13478C 16.106 8.30632 16.3668 6.87616 16.5319 6.18723L 17.8835 0L 22.199 0L 18.5484 12.3745L 13.1638 12.3745L 11.7384 6.02154C 11.5471 5.14948 11.3038 3.97221 11.169 3.1394L 11.1212 3.1394C 10.9561 3.97221 10.7431 5.16257 10.5302 6.02154L 8.96566 12.3745L 3.60712 12.357Z"/>
<path id="path13_fill" d="M 2.65255e-06 4.15534L 2.46414 4.15534L 2.46414 1.33424L 6.5189 5.3226e-07L 6.5189 4.15534L 9.48283 4.15534L 9.48283 7.08545L 6.5189 7.08545L 6.5189 11.9384C 6.5189 12.8933 6.75793 13.8177 8.17905 13.8177C 8.62606 13.8196 9.07195 13.7728 9.5089 13.6782L 9.65231 16.46C 8.79283 16.6269 7.92013 16.716 7.04475 16.726C 3.75054 16.726 2.26423 15.3176 2.26423 12.2524L 2.26423 7.06801L 2.65255e-06 7.06801L 2.65255e-06 4.15534Z"/>
<path id="path14_fill" d="M 4.19817 7.68717C 4.63315 6.97572 5.23897 6.38504 5.96022 5.96915C 6.68147 5.55325 7.49513 5.32541 8.32681 5.30646C 11.3385 5.30646 13.1073 7.15957 13.1073 10.5693L 13.1073 17.9818L 8.83962 17.9818L 8.83962 12.1085C 8.83962 9.8237 8.40503 8.72927 6.87092 8.72927C 6.43044 8.70125 5.9917 8.80633 5.61134 9.03095C 5.23098 9.25557 4.92645 9.58941 4.73706 9.98939C 4.37861 10.8387 4.21666 11.7585 4.26336 12.6797L 4.26336 17.9861L 0 17.9861L 0 -1.59678e-06L 4.2199 -1.59678e-06L 4.2199 3.71495C 4.2199 4.90095 4.19382 6.42269 4.15036 7.68717L 4.19817 7.68717Z"/>
</defs>
</svg>
