<svg width="12" height="12" viewBox="0 0 12 12" version="1.1" xmlns="http://www.w3.org/2000/svg" xmlns:xlink="http://www.w3.org/1999/xlink">
<title>magnifying-glass</title>
<desc>Created using Figma</desc>
<g id="Canvas" transform="translate(-15679 -5103)">
<g id="magnifying-glass">
<g id="Group">
<g id="Vector">
<use xlink:href="#path0_fill" transform="translate(15679 5103)" fill="#51D6CF"/>
</g>
</g>
</g>
</g>
<defs>
<path id="path0_fill" d="M 11.7332 10.428L 9.25969 7.9545C 9.85579 7.09398 10.154 6.13467 10.154 5.07708C 10.154 4.38958 10.0205 3.73206 9.7536 3.10468C 9.48684 2.4772 9.12622 1.93635 8.6719 1.48202C 8.21757 1.02769 7.67681 0.667064 7.04946 0.400279C 6.42191 0.133418 5.76445 6.58679e-13 5.07696 6.58679e-13C 4.38952 6.58679e-13 3.73201 0.133418 3.10464 0.400279C 2.47717 0.667064 1.93633 1.02769 1.482 1.48202C 1.02762 1.93635 0.667055 2.4773 0.400248 3.10468C 0.133416 3.73214 0 4.38958 0 5.07708C 0 5.76452 0.133416 6.42181 0.400248 7.04937C 0.66703 7.67675 1.02762 8.21752 1.482 8.67185C 1.93633 9.12634 2.47727 9.48681 3.10464 9.75375C 3.73209 10.0206 4.38952 10.1539 5.07696 10.1539C 6.13477 10.1539 7.09391 9.85572 7.95448 9.25966L 10.428 11.726C 10.6011 11.9086 10.8172 12 11.077 12C 11.327 12 11.5435 11.9086 11.726 11.726C 11.9086 11.5433 12 11.327 12 11.077C 12.0001 10.8223 11.9111 10.6059 11.7332 10.428ZM 7.35943 7.35932C 6.72723 7.99163 5.96647 8.30777 5.07696 8.30777C 4.1876 8.30777 3.42684 7.99156 2.79459 7.35932C 2.16234 6.72712 1.84623 5.96644 1.84623 5.07692C 1.84623 4.18756 2.16242 3.42666 2.79459 2.79452C 3.42671 2.16224 4.1876 1.84615 5.07696 1.84615C 5.96637 1.84615 6.72713 2.16237 7.35943 2.79452C 7.99173 3.42666 8.30784 4.18756 8.30784 5.07692C 8.30784 5.96644 7.99163 6.72712 7.35943 7.35932Z"/>
</defs>
</svg>
