<svg width="80" height="73" viewBox="0 0 80 73" version="1.1" xmlns="http://www.w3.org/2000/svg" xmlns:xlink="http://www.w3.org/1999/xlink">
<title>list</title>
<desc>Created using Figma</desc>
<g id="Canvas" transform="translate(-17436 -2387)">
<g id="list">
<g id="Group">
<g id="Group">
<g id="Vector">
<use xlink:href="#path0_fill" transform="translate(17465.8 2390.64)" fill="#FFFFFF" fill-opacity="0.1"/>
</g>
<g id="Vector">
<use xlink:href="#path1_fill" transform="translate(17441.5 2418.93)" fill="#FFFFFF" fill-opacity="0.1"/>
</g>
<g id="Vector">
<use xlink:href="#path2_fill" transform="translate(17441.5 2446.69)" fill="#FFFFFF" fill-opacity="0.1"/>
</g>
<g id="Vector">
<use xlink:href="#path3_fill" transform="translate(17465.8 2399.2)" fill="#FFFFFF" fill-opacity="0.1"/>
</g>
<g id="Vector">
<use xlink:href="#path4_fill" transform="translate(17465.8 2418.43)" fill="#FFFFFF" fill-opacity="0.1"/>
</g>
<g id="Vector">
<use xlink:href="#path5_fill" transform="translate(17465.8 2426.99)" fill="#FFFFFF" fill-opacity="0.1"/>
</g>
<g id="Vector">
<use xlink:href="#path6_fill" transform="translate(17465.8 2446.2)" fill="#FFFFFF" fill-opacity="0.1"/>
</g>
<g id="Vector">
<use xlink:href="#path7_fill" transform="translate(17465.8 2454.78)" fill="#FFFFFF" fill-opacity="0.1"/>
</g>
<g id="Vector">
<use xlink:href="#path8_fill" transform="translate(17436 2387)" fill="#FFFFFF" fill-opacity="0.1"/>
</g>
</g>
</g>
</g>
</g>
<defs>
<path id="path0_fill" d="M 50.0458 0L 0.197941 0C 0.0989709 0 -1.00677e-06 0.0835941 -1.00677e-06 0.200626L -1.00677e-06 4.93205C -1.00677e-06 5.03236 0.0824759 5.13267 0.197941 5.13267L 50.0458 5.13267C 50.1448 5.13267 50.2437 5.04908 50.2437 4.93205L 50.2437 0.200626C 50.2437 0.0835941 50.1612 0 50.0458 0Z"/>
<path id="path1_fill" d="M 6.2516 12.6729C 9.70426 12.6729 12.5032 9.83594 12.5032 6.33643C 12.5032 2.83692 9.70426 0 6.2516 0C 2.79894 0 0 2.83692 0 6.33643C 0 9.83594 2.79894 12.6729 6.2516 12.6729Z"/>
<path id="path2_fill" d="M 6.28459 12.7397C 9.75547 12.7397 12.5692 9.88784 12.5692 6.36986C 12.5692 2.85188 9.75547 2.04087e-06 6.28459 2.04087e-06C 2.81371 2.04087e-06 0 2.85188 0 6.36986C 0 9.88784 2.81371 12.7397 6.28459 12.7397Z"/>
<path id="path3_fill" d="M 0.197941 5.13267L 23.7528 5.13267C 23.8517 5.13267 23.9507 5.04908 23.9507 4.93205L 23.9507 0.200626C 23.9507 0.100313 23.8682 -5.10217e-07 23.7528 -5.10217e-07L 0.197941 -5.10217e-07C 0.0989709 -5.10217e-07 -1.00677e-06 0.0835943 -1.00677e-06 0.200626L -1.00677e-06 4.93205C 0.016494 5.04908 0.0989709 5.13267 0.197941 5.13267Z"/>
<path id="path4_fill" d="M 50.0458 -5.10217e-07L 0.197941 -5.10217e-07C 0.0989709 -5.10217e-07 -1.00677e-06 0.083593 -1.00677e-06 0.200625L -1.00677e-06 4.93205C -1.00677e-06 5.03236 0.0824759 5.13267 0.197941 5.13267L 50.0458 5.13267C 50.1448 5.13267 50.2437 5.04908 50.2437 4.93205L 50.2437 0.200625C 50.2437 0.083593 50.1612 -5.10217e-07 50.0458 -5.10217e-07Z"/>
<path id="path5_fill" d="M 0.197941 5.13267L 23.7528 5.13267C 23.8517 5.13267 23.9507 5.04908 23.9507 4.93205L 23.9507 0.200627C 23.9507 0.100314 23.8682 -1.02043e-06 23.7528 -1.02043e-06L 0.197941 -1.02043e-06C 0.0989709 -1.02043e-06 -1.00677e-06 0.083595 -1.00677e-06 0.200627L -1.00677e-06 4.93205C 0.016494 5.03236 0.0989709 5.13267 0.197941 5.13267Z"/>
<path id="path6_fill" d="M 50.0458 -2.04087e-06L 0.197941 -2.04087e-06C 0.0989709 -2.04087e-06 -1.00677e-06 0.083594 -1.00677e-06 0.200626L -1.00677e-06 4.93204C -1.00677e-06 5.03236 0.0824759 5.13267 0.197941 5.13267L 50.0458 5.13267C 50.1448 5.13267 50.2437 5.04908 50.2437 4.93204L 50.2437 0.200626C 50.2437 0.083594 50.1612 -2.04087e-06 50.0458 -2.04087e-06Z"/>
<path id="path7_fill" d="M 23.7528 1.02043e-06L 0.197941 1.02043e-06C 0.0989709 1.02043e-06 -1.00677e-06 0.083592 -1.00677e-06 0.200624L -1.00677e-06 4.93205C -1.00677e-06 5.03236 0.0824759 5.13267 0.197941 5.13267L 23.7528 5.13267C 23.8517 5.13267 23.9507 5.04908 23.9507 4.93205L 23.9507 0.200624C 23.9507 0.083592 23.8682 1.02043e-06 23.7528 1.02043e-06Z"/>
<path id="path8_fill" d="M 8.80832 10.3824L 4.50313 5.98533L 0 10.5328L 4.32169 14.9132L 8.79183 19.4774L 13.2785 14.9466L 23.5878 4.56423L 19.1177 1.27554e-07L 8.80832 10.3824Z"/>
</defs>
</svg>
