<svg width="27" height="24" viewBox="0 0 27 24" version="1.1" xmlns="http://www.w3.org/2000/svg" xmlns:xlink="http://www.w3.org/1999/xlink">
<title>Group</title>
<desc>Created using Figma</desc>
<g id="Canvas" transform="translate(-17011 1450)">
<g id="Group">
<g id="list">
<g id="Group">
<g id="Group">
<g id="Vector">
<use xlink:href="#path0_fill" transform="translate(17020.8 -1448.8)" fill="#3564DB"/>
</g>
<g id="Vector">
<use xlink:href="#path1_fill" transform="translate(17012.8 -1439.49)" fill="#50CFC8"/>
</g>
<g id="Vector">
<use xlink:href="#path2_fill" transform="translate(17012.8 -1430.35)" fill="#50CFC8"/>
</g>
<g id="Vector">
<use xlink:href="#path3_fill" transform="translate(17020.8 -1445.98)" fill="#3564DB"/>
</g>
<g id="Vector">
<use xlink:href="#path4_fill" transform="translate(17020.8 -1439.65)" fill="#3564DB"/>
</g>
<g id="Vector">
<use xlink:href="#path5_fill" transform="translate(17020.8 -1436.84)" fill="#3564DB"/>
</g>
<g id="Vector">
<use xlink:href="#path6_fill" transform="translate(17020.8 -1430.51)" fill="#3564DB"/>
</g>
<g id="Vector">
<use xlink:href="#path7_fill" transform="translate(17020.8 -1427.69)" fill="#3564DB"/>
</g>
<g id="Vector">
<use xlink:href="#path8_fill" transform="translate(17011 -1450)" fill="#50CFC8"/>
</g>
</g>
</g>
</g>
</g>
</g>
<defs>
<path id="path0_fill" d="M 16.515 0L 0.0653199 0C 0.0326601 0 -3.32233e-07 0.0275167 -3.32233e-07 0.0660399L -3.32233e-07 1.62348C -3.32233e-07 1.6565 0.0272168 1.68952 0.0653199 1.68952L 16.515 1.68952C 16.5476 1.68952 16.5803 1.662 16.5803 1.62348L 16.5803 0.0660399C 16.5803 0.0275167 16.5531 0 16.515 0Z"/>
<path id="path1_fill" d="M 2.06301 4.17152C 3.20238 4.17152 4.12602 3.23769 4.12602 2.08576C 4.12602 0.933827 3.20238 0 2.06301 0C 0.923641 0 0 0.933827 0 2.08576C 0 3.23769 0.923641 4.17152 2.06301 4.17152Z"/>
<path id="path2_fill" d="M 2.0739 4.19353C 3.21928 4.19353 4.14779 3.25478 4.14779 2.09677C 4.14779 0.938754 3.21928 0 2.0739 0C 0.928515 0 0 0.938754 0 2.09677C 0 3.25478 0.928515 4.19353 2.0739 4.19353Z"/>
<path id="path3_fill" d="M 0.0653199 1.68952L 7.83835 1.68952C 7.87101 1.68952 7.90367 1.662 7.90367 1.62348L 7.90367 0.06604C 7.90367 0.03302 7.87645 -1.67948e-07 7.83835 -1.67948e-07L 0.0653199 -1.67948e-07C 0.0326601 -1.67948e-07 -3.32233e-07 0.0275167 -3.32233e-07 0.06604L -3.32233e-07 1.62348C 0.00544297 1.662 0.0326601 1.68952 0.0653199 1.68952Z"/>
<path id="path4_fill" d="M 16.515 -1.67948e-07L 0.0653199 -1.67948e-07C 0.0326601 -1.67948e-07 -3.32233e-07 0.0275163 -3.32233e-07 0.0660396L -3.32233e-07 1.62348C -3.32233e-07 1.6565 0.0272168 1.68952 0.0653199 1.68952L 16.515 1.68952C 16.5476 1.68952 16.5803 1.662 16.5803 1.62348L 16.5803 0.0660396C 16.5803 0.0275163 16.5531 -1.67948e-07 16.515 -1.67948e-07Z"/>
<path id="path5_fill" d="M 0.0653199 1.68952L 7.83835 1.68952C 7.87101 1.68952 7.90367 1.662 7.90367 1.62348L 7.90367 0.0660402C 7.90367 0.0330203 7.87645 -3.35896e-07 7.83835 -3.35896e-07L 0.0653199 -3.35896e-07C 0.0326601 -3.35896e-07 -3.32233e-07 0.027517 -3.32233e-07 0.0660402L -3.32233e-07 1.62348C 0.00544297 1.6565 0.0326601 1.68952 0.0653199 1.68952Z"/>
<path id="path6_fill" d="M 16.515 -6.71793e-07L 0.0653199 -6.71793e-07C 0.0326601 -6.71793e-07 -3.32233e-07 0.0275166 -3.32233e-07 0.0660399L -3.32233e-07 1.62348C -3.32233e-07 1.6565 0.0272168 1.68952 0.0653199 1.68952L 16.515 1.68952C 16.5476 1.68952 16.5803 1.662 16.5803 1.62348L 16.5803 0.0660399C 16.5803 0.0275166 16.5531 -6.71793e-07 16.515 -6.71793e-07Z"/>
<path id="path7_fill" d="M 7.83835 3.35896e-07L 0.0653199 3.35896e-07C 0.0326601 3.35896e-07 -3.32233e-07 0.0275159 -3.32233e-07 0.0660392L -3.32233e-07 1.62348C -3.32233e-07 1.6565 0.0272168 1.68952 0.0653199 1.68952L 7.83835 1.68952C 7.87101 1.68952 7.90367 1.662 7.90367 1.62348L 7.90367 0.0660392C 7.90367 0.0275159 7.87645 3.35896e-07 7.83835 3.35896e-07Z"/>
<path id="path8_fill" d="M 2.90672 3.41756L 1.48602 1.97019L 0 3.46709L 1.42614 4.90897L 2.90128 6.41137L 4.38186 4.91997L 7.78392 1.50241L 6.30878 4.1987e-08L 2.90672 3.41756Z"/>
</defs>
</svg>
