<svg width="76" height="76" viewBox="0 0 76 76" version="1.1" xmlns="http://www.w3.org/2000/svg" xmlns:xlink="http://www.w3.org/1999/xlink">
<title>rocket</title>
<desc>Created using Figma</desc>
<g id="Canvas" transform="translate(-16049 -743)">
<g id="rocket">
<g id="Rectangle 9" filter="url(#filter0_d)">
<use xlink:href="#path0_fill" transform="translate(16056 746)" fill="#FFFFFF"/>
<use xlink:href="#path1_stroke" transform="translate(16056 746)" fill="url(#paint1_linear)"/>
</g>
<g id="Asset 2">
<g id="Layer 2">
<g id="&#208;&#168;&#208;&#176;&#209;&#128; 1">
<g id="Vector">
<use xlink:href="#path2_fill" transform="translate(16073.9 784.273)" fill="#4CAF50"/>
</g>
<g id="Vector">
<use xlink:href="#path3_fill" transform="translate(16071 790.091)" fill="#4CAF50"/>
</g>
<g id="Vector">
<use xlink:href="#path4_fill" transform="translate(16087 790.091)" fill="#4CAF50"/>
</g>
<g id="Vector">
<use xlink:href="#path5_fill" transform="translate(16079 786.458)" fill="#4CAF50"/>
</g>
<g id="Vector">
<use xlink:href="#path6_fill" transform="translate(16074.6 782.091)" fill="#4CAF50"/>
</g>
<g id="Vector">
<use xlink:href="#path7_fill" transform="translate(16071 774.091)" fill="#4CAF50"/>
</g>
<g id="Vector">
<use xlink:href="#path8_fill" transform="translate(16088.5 768.273)" fill="#4CAF50"/>
</g>
<g id="Vector">
<use xlink:href="#path9_fill" transform="translate(16072.5 761)" fill="#4CAF50"/>
</g>
</g>
</g>
</g>
</g>
</g>
<defs>
<filter id="filter0_d" filterUnits="userSpaceOnUse" x="16049" y="743" width="76" height="76" color-interpolation-filters="sRGB">
<feFlood flood-opacity="0" result="BackgroundImageFix"/>
<feColorMatrix in="SourceAlpha" type="matrix" values="0 0 0 0 0 0 0 0 0 0 0 0 0 0 0 0 0 0 255 0"/>
<feOffset dx="0" dy="4"/>
<feGaussianBlur stdDeviation="2"/>
<feColorMatrix type="matrix" values="0 0 0 0 0 0 0 0 0 0 0 0 0 0 0 0 0 0 0.15 0"/>
<feBlend mode="normal" in2="BackgroundImageFix" result="effect1_dropShadow"/>
<feBlend mode="normal" in="SourceGraphic" in2="effect1_dropShadow" result="shape"/>
</filter>
<linearGradient id="paint1_linear" x1="0" y1="0" x2="1" y2="0" gradientUnits="userSpaceOnUse" gradientTransform="matrix(3.79641e-15 62 -62 3.79641e-15 62 -3.79641e-15)">
<stop offset="0.0220994" stop-color="#239428"/>
<stop offset="1" stop-color="#4CAF50"/>
</linearGradient>
<path id="path0_fill" d="M 0 31C 0 13.8792 13.8792 0 31 0L 31 0C 48.1208 0 62 13.8792 62 31L 62 31C 62 48.1208 48.1208 62 31 62L 31 62C 13.8792 62 0 48.1208 0 31L 0 31Z"/>
<path id="path1_stroke" d="M 31 -2.5C 12.4985 -2.5 -2.5 12.4985 -2.5 31L 2.5 31C 2.5 15.2599 15.2599 2.5 31 2.5L 31 -2.5ZM 31 2.5C 46.7401 2.5 59.5 15.2599 59.5 31L 64.5 31C 64.5 12.4985 49.5015 -2.5 31 -2.5L 31 2.5ZM 59.5 31C 59.5 46.7401 46.7401 59.5 31 59.5L 31 64.5C 49.5015 64.5 64.5 49.5015 64.5 31L 59.5 31ZM 31 59.5C 15.2599 59.5 2.5 46.7401 2.5 31L -2.5 31C -2.5 49.5015 12.4985 64.5 31 64.5L 31 59.5Z"/>
<path id="path2_fill" d="M 0.72367 5.81792C 0.580192 5.81717 0.44014 5.774 0.321131 5.69386C 0.202121 5.61371 0.109468 5.50016 0.0548249 5.3675C 0.000181455 5.23483 -0.014012 5.08897 0.0140294 4.94825C 0.0420708 4.80754 0.111095 4.67826 0.212421 4.57667L 4.57616 0.212931C 4.64367 0.145423 4.72381 0.091873 4.81202 0.0553381C 4.90022 0.0188033 4.99476 3.15589e-07 5.09023 3.13707e-07C 5.1857 3.11825e-07 5.28023 0.0188033 5.36843 0.0553381C 5.45664 0.091873 5.53678 0.145423 5.60429 0.212931C 5.67179 0.280438 5.72534 0.360583 5.76188 0.448785C 5.79841 0.536988 5.81722 0.631523 5.81722 0.726993C 5.81722 0.822463 5.79841 0.916999 5.76188 1.0052C 5.72534 1.0934 5.67179 1.17355 5.60429 1.24105L 1.23804 5.6023C 1.17079 5.67042 1.09071 5.72454 1.00242 5.76155C 0.914137 5.79856 0.819397 5.81772 0.72367 5.81792Z"/>
<path id="path3_fill" d="M 0.726785 2.90855C 0.583041 2.90841 0.44256 2.86569 0.323074 2.78578C 0.203588 2.70587 0.110452 2.59236 0.0554224 2.45956C 0.000392619 2.32677 -0.0140646 2.18065 0.0138755 2.03965C 0.0418156 1.89864 0.110901 1.76908 0.212411 1.66731L 1.66678 0.212931C 1.80312 0.0765934 1.98803 6.74909e-07 2.18085 6.74909e-07C 2.37366 6.74909e-07 2.55857 0.0765934 2.69491 0.212931C 2.83124 0.349269 2.90784 0.534183 2.90784 0.726993C 2.90784 0.919804 2.83124 1.10472 2.69491 1.24106L 1.24116 2.69543C 1.1737 2.7631 1.09352 2.81676 1.00525 2.85334C 0.916972 2.88991 0.822337 2.90868 0.726785 2.90855Z"/>
<path id="path4_fill" d="M 0.726786 2.90855C 0.583042 2.90841 0.44256 2.86569 0.323073 2.78578C 0.203587 2.70587 0.110453 2.59236 0.0554232 2.45956C 0.00039342 2.32677 -0.0140646 2.18065 0.0138755 2.03965C 0.0418156 1.89864 0.110901 1.76908 0.212411 1.6673L 1.66678 0.212931C 1.80312 0.0765934 1.98803 6.74909e-07 2.18085 6.74909e-07C 2.37366 6.74909e-07 2.55857 0.0765934 2.69491 0.212931C 2.83125 0.349269 2.90784 0.534183 2.90784 0.726993C 2.90784 0.919804 2.83125 1.10472 2.69491 1.24106L 1.24053 2.69543C 1.17314 2.76302 1.09307 2.81664 1.00491 2.85322C 0.916749 2.88979 0.822233 2.90859 0.726786 2.90855Z"/>
<path id="path5_fill" d="M 0.72431 2.90605C 0.581077 2.90542 0.441217 2.86253 0.322262 2.78274C 0.203307 2.70296 0.11055 2.58983 0.0556214 2.45755C 0.000692482 2.32527 -0.0139653 2.17971 0.0134863 2.03913C 0.0409378 1.89855 0.109277 1.7692 0.209936 1.6673L 1.66431 0.212932C 1.80065 0.0765944 1.98556 -2.64684e-07 2.17837 -2.60883e-07C 2.37118 -2.57083e-07 2.55609 0.0765944 2.69243 0.212932C 2.82877 0.34927 2.90536 0.534182 2.90536 0.726992C 2.90536 0.919803 2.82877 1.10472 2.69243 1.24105L 1.23806 2.69543C 1.17047 2.76257 1.0903 2.81573 1.00215 2.85187C 0.913995 2.88801 0.819583 2.90642 0.72431 2.90605Z"/>
<path id="path6_fill" d="M 0.726785 2.90855C 0.583041 2.90841 0.44256 2.86569 0.323074 2.78578C 0.203588 2.70587 0.110452 2.59236 0.0554225 2.45956C 0.000392723 2.32677 -0.0140646 2.18065 0.0138755 2.03965C 0.0418156 1.89864 0.110901 1.76908 0.212411 1.6673L 1.66678 0.212931C 1.80312 0.0765934 1.98803 6.74909e-07 2.18085 6.74909e-07C 2.37366 6.74909e-07 2.55857 0.0765934 2.69491 0.212931C 2.83124 0.349269 2.90784 0.534183 2.90784 0.726993C 2.90784 0.919804 2.83124 1.10472 2.69491 1.24106L 1.23803 2.69543C 1.10254 2.83133 0.918692 2.90797 0.726785 2.90855Z"/>
<path id="path7_fill" d="M 0.726785 2.90855C 0.583041 2.90841 0.44256 2.86569 0.323074 2.78578C 0.203588 2.70587 0.110452 2.59236 0.0554224 2.45956C 0.000392619 2.32677 -0.0140646 2.18065 0.0138755 2.03965C 0.0418156 1.89864 0.110901 1.76908 0.212411 1.6673L 1.66678 0.212931C 1.80312 0.0765934 1.98803 -2.78764e-07 2.18085 -2.78764e-07C 2.37366 -2.78764e-07 2.55857 0.0765934 2.69491 0.212931C 2.83124 0.349269 2.90784 0.534183 2.90784 0.726993C 2.90784 0.919804 2.83124 1.10472 2.69491 1.24106L 1.24116 2.69543C 1.1737 2.7631 1.09352 2.81676 1.00525 2.85334C 0.916972 2.88991 0.822337 2.90868 0.726785 2.90855Z"/>
<path id="path8_fill" d="M 3.63625 7.27249C 2.91706 7.27249 2.21403 7.05923 1.61606 6.65967C 1.01808 6.26012 0.552012 5.69221 0.276794 5.02778C 0.00157493 4.36334 -0.0704338 3.63221 0.0698714 2.92685C 0.210177 2.22149 0.556495 1.57357 1.06503 1.06503C 1.57357 0.556495 2.22149 0.210176 2.92685 0.0698712C 3.63221 -0.0704341 4.36334 0.00157568 5.02778 0.276794C 5.69221 0.552013 6.26012 1.01808 6.65967 1.61606C 7.05923 2.21403 7.27249 2.91706 7.27249 3.63625C 7.27133 4.60028 6.88786 5.5245 6.20618 6.20618C 5.5245 6.88786 4.60028 7.27133 3.63625 7.27249ZM 3.63625 1.45437C 3.20471 1.45437 2.78287 1.58234 2.42406 1.82209C 2.06526 2.06183 1.7856 2.4026 1.62046 2.80128C 1.45532 3.19996 1.41211 3.63867 1.4963 4.06191C 1.58049 4.48515 1.78829 4.87392 2.09343 5.17906C 2.39857 5.4842 2.78734 5.69201 3.21058 5.77619C 3.63382 5.86038 4.07253 5.81717 4.47121 5.65203C 4.8699 5.48689 5.21066 5.20724 5.45041 4.84843C 5.69015 4.48962 5.81812 4.06778 5.81812 3.63625C 5.81663 3.05803 5.58628 2.50393 5.17742 2.09507C 4.76856 1.68621 4.21446 1.45586 3.63625 1.45437Z"/>
<path id="path9_fill" d="M 29.6076 0.937545C 29.3097 0.638631 28.9554 0.40184 28.5653 0.240908C 28.1752 0.0799751 27.7571 -0.0018949 27.3351 4.69165e-05L 25.9707 4.69165e-05C 24.3275 -0.00446828 22.6997 0.316963 21.1816 0.945737C 19.6635 1.57451 18.2851 2.49814 17.1263 3.66317L 11.3351 9.45441L 9.02823 9.45441L 9.36573 9.11691C 9.87919 8.59297 10.1651 7.88757 10.1614 7.15399C 10.1577 6.42041 9.86467 5.71793 9.34594 5.1992C 8.82721 4.68047 8.12473 4.38742 7.39115 4.38371C 6.65757 4.38001 5.95217 4.66595 5.42823 5.17941L 0.21324 10.395C 0.145644 10.4625 0.0920155 10.5426 0.0554249 10.6308C 0.0188343 10.719 -3.083e-08 10.8136 -3.083e-08 10.9091C -3.083e-08 11.0046 0.0188343 11.0991 0.0554249 11.1874C 0.0920155 11.2756 0.145644 11.3557 0.21324 11.4232L 3.12261 14.3325C 3.19011 14.4 3.27025 14.4536 3.35845 14.4902C 3.44666 14.5267 3.5412 14.5455 3.63667 14.5455C 3.73215 14.5455 3.82669 14.5267 3.91489 14.4902C 4.00309 14.4536 4.08323 14.4 4.15073 14.3325L 5.08823 13.395L 6.24198 14.5488L 5.30448 15.4863C 5.23689 15.5537 5.18326 15.6339 5.14667 15.7221C 5.11008 15.8103 5.09124 15.9048 5.09124 16.0003C 5.09124 16.0958 5.11008 16.1904 5.14667 16.2786C 5.18326 16.3668 5.23689 16.4469 5.30448 16.5144L 6.65448 17.8644L 6.56511 17.8944C 5.81593 18.1453 5.13517 18.5665 4.57636 19.125C 4.50876 19.1925 4.45513 19.2726 4.41854 19.3608C 4.38195 19.449 4.36312 19.5436 4.36312 19.6391C 4.36312 19.7346 4.38195 19.8291 4.41854 19.9173C 4.45513 20.0056 4.50876 20.0857 4.57636 20.1531L 10.3945 25.9713C 10.462 26.0388 10.5421 26.0923 10.6303 26.1289C 10.7185 26.1654 10.8131 26.1842 10.9085 26.1842C 11.004 26.1842 11.0986 26.1654 11.1868 26.1289C 11.275 26.0923 11.3551 26.0388 11.4226 25.9713C 11.98 25.4128 12.4004 24.7327 12.6507 23.9844L 12.6807 23.895L 14.0307 25.245C 14.1671 25.3812 14.352 25.4577 14.5448 25.4577C 14.7376 25.4577 14.9224 25.3812 15.0588 25.245L 15.9963 24.3075L 17.1501 25.4613L 16.2126 26.3988C 16.145 26.4662 16.0914 26.5463 16.0548 26.6346C 16.0182 26.7228 15.9994 26.8173 15.9994 26.9128C 15.9994 27.0083 16.0182 27.1029 16.0548 27.1911C 16.0914 27.2793 16.145 27.3594 16.2126 27.4269L 19.122 30.3363C 19.1895 30.4038 19.2696 30.4573 19.3578 30.4939C 19.446 30.5304 19.5405 30.5492 19.636 30.5492C 19.7315 30.5492 19.826 30.5304 19.9142 30.4939C 20.0024 30.4573 20.0826 30.4038 20.1501 30.3363L 25.3651 25.1213C 25.8785 24.5973 26.1645 23.8919 26.1608 23.1583C 26.1571 22.4248 25.864 21.7223 25.3453 21.2036C 24.8266 20.6848 24.1241 20.3918 23.3905 20.3881C 22.6569 20.3844 21.9515 20.6703 21.4276 21.1838L 21.0901 21.5219L 21.0901 19.2156L 26.8813 13.4244C 28.047 12.265 28.971 10.8858 29.5999 9.36681C 30.2288 7.84779 30.55 6.21909 30.5451 4.57504L 30.5451 3.21004C 30.547 2.78805 30.4651 2.36988 30.3042 1.97978C 30.1433 1.58968 29.9065 1.23542 29.6076 0.937545ZM 6.45636 6.20816C 6.5798 6.08468 6.72635 5.98672 6.88765 5.91987C 7.04896 5.85303 7.22184 5.81861 7.39645 5.81858C 7.57105 5.81855 7.74395 5.85291 7.90527 5.9197C 8.06659 5.9865 8.21318 6.08441 8.33667 6.20785C 8.46015 6.33129 8.55811 6.47785 8.62495 6.63915C 8.6918 6.80045 8.72622 6.97334 8.72625 7.14794C 8.72628 7.32254 8.69191 7.49544 8.62512 7.65676C 8.55833 7.81809 8.46042 7.96468 8.33698 8.08816L 5.81761 10.6082L 3.93698 8.72753L 6.45636 6.20816ZM 3.63636 12.79L 1.75574 10.9094L 2.90949 9.75566L 4.79011 11.6363L 3.63636 12.79ZM 6.11948 12.3638L 7.57385 10.9094L 9.88072 10.9094L 7.2726 13.5175L 6.11948 12.3638ZM 11.272 23.5219C 11.1714 23.823 11.0321 24.1098 10.8576 24.375L 6.17011 19.6875C 6.43506 19.5128 6.72163 19.3733 7.0226 19.2725L 7.80198 19.0131L 11.5301 22.7413L 11.272 23.5219ZM 14.5451 23.6988L 6.84636 16L 8.72698 14.1194L 16.4257 21.8181L 14.5451 23.6988ZM 19.6357 28.7894L 17.7551 26.9088L 18.9088 25.755L 20.7895 27.6356L 19.6357 28.7894ZM 22.4563 22.2075C 22.7056 21.9581 23.0438 21.818 23.3964 21.8179C 23.749 21.8179 24.0873 21.9579 24.3366 22.2072C 24.586 22.4565 24.7262 22.7947 24.7262 23.1473C 24.7263 23.4999 24.5863 23.8381 24.337 24.0875L 21.8176 26.6075L 19.937 24.7269L 22.4563 22.2075ZM 19.6357 22.9713L 18.1813 24.4256L 17.0276 23.2719L 19.6357 20.6638L 19.6357 22.9713ZM 25.8532 12.39L 17.4545 20.79L 9.75573 13.0907L 18.1545 4.69191C 19.0993 3.75042 20.207 2.98808 21.4238 2.44192C 21.8521 4.04469 22.6955 5.50617 23.869 6.67888C 25.0425 7.85159 26.5045 8.69406 28.1076 9.12128C 27.5603 10.3384 26.7967 11.4462 25.8538 12.3907L 25.8532 12.39ZM 29.0901 4.57754C 29.0908 5.65514 28.9341 6.72708 28.6251 7.75941C 27.2122 7.41105 25.9214 6.68299 24.8924 5.65398C 23.8634 4.62498 23.1353 3.33421 22.787 1.92129C 23.8193 1.61231 24.8912 1.45566 25.9688 1.45629L 27.3332 1.45629C 27.5638 1.45569 27.7923 1.50084 28.0054 1.58913C 28.2184 1.67742 28.4118 1.80711 28.5744 1.97067C 28.9029 2.30044 29.088 2.74649 29.0894 3.21192L 29.0901 4.57754Z"/>
</defs>
</svg>
