<svg width="14" height="14" viewBox="0 0 14 14" version="1.1" xmlns="http://www.w3.org/2000/svg" xmlns:xlink="http://www.w3.org/1999/xlink">
<title>diskette</title>
<desc>Created using Figma</desc>
<g id="Canvas" transform="translate(-17359 -4449)">
<g id="diskette">
<g id="Group">
<g id="Group">
<g id="Vector">
<use xlink:href="#path0_fill" transform="translate(17359 4449)" fill="#50CFC8"/>
</g>
</g>
</g>
<g id="Group">
<g id="Group">
<g id="Vector">
<use xlink:href="#path1_fill" transform="translate(17364.6 4449)" fill="#50CFC8"/>
</g>
</g>
</g>
<g id="Group">
<g id="Group">
<g id="Vector">
<use xlink:href="#path2_fill" transform="translate(17362.5 4458.1)" fill="#50CFC8"/>
</g>
</g>
</g>
</g>
</g>
<defs>
<path id="path0_fill" d="M 10.4386 0L 8.35088 0L 8.35088 2.8C 8.35088 3.15 8.07251 3.5 7.65497 3.5L 2.78363 3.5C 2.43567 3.5 2.08772 3.15 2.08772 2.8L 2.08772 0L 0.695907 0C 0.347953 0 5.18491e-09 0.35 5.18491e-09 0.7L 5.18491e-09 13.3C 5.18491e-09 13.65 0.347953 14 0.695907 14L 12.5263 14C 12.8743 14 13.2222 13.65 13.2222 13.3L 13.2222 2.8C 12.1088 1.68 11.552 1.12 10.4386 0ZM 11.1345 11.9L 2.08772 11.9L 2.08772 7.7L 11.1345 7.7L 11.1345 11.9Z"/>
<path id="path1_fill" d="M 0.695906 0C 0.278362 0 1.65917e-07 0.28 1.65917e-07 0.7L 1.65917e-07 1.4C 1.65917e-07 1.82 0.278362 2.1 0.695906 2.1C 1.11345 2.1 1.39181 1.82 1.39181 1.4L 1.39181 0.7C 1.39181 0.28 1.11345 0 0.695906 0Z"/>
<path id="path2_fill" d="M 5.56725 -3.33786e-07L 0.695906 -3.33786e-07C 0.278362 -3.33786e-07 8.29585e-08 0.28 8.29585e-08 0.7C 8.29585e-08 1.12 0.278362 1.4 0.695906 1.4L 5.56725 1.4C 5.9848 1.4 6.26316 1.12 6.26316 0.7C 6.26316 0.28 5.9848 -3.33786e-07 5.56725 -3.33786e-07Z"/>
</defs>
</svg>
