<svg width="16" height="16" viewBox="0 0 16 16" version="1.1" xmlns="http://www.w3.org/2000/svg" xmlns:xlink="http://www.w3.org/1999/xlink">
<title>settings</title>
<desc>Created using Figma</desc>
<g id="Canvas" transform="translate(-16025 -396)">
<rect x="16025" y="396" width="16" height="16" fill="#E5E5E5"/>
<clipPath id="clip-0" clip-rule="evenodd">
<path d="M 15079 362L 16445 362L 16445 6090L 15079 6090L 15079 362Z" fill="#FFFFFF"/>
</clipPath>
<g id="Content Screen /// 1 screeen /// Detailed /// 1366" clip-path="url(#clip-0)">
<path d="M 15079 362L 16445 362L 16445 6090L 15079 6090L 15079 362Z" fill="#FFFFFF"/>
<clipPath id="clip-1" clip-rule="evenodd">
<path d="M 15079 362L 16445 362L 16445 6090L 15079 6090L 15079 362Z" fill="#FFFFFF"/>
</clipPath>
<g id="horizontal grid" clip-path="url(#clip-1)">
</g>
<g id="vertical grid">
<g id="Rectangle 3">
<use xlink:href="#path0_fill" transform="translate(15399 362)" fill="#FFFFFF"/>
</g>
</g>
<g id="background">
<use xlink:href="#path1_fill" transform="translate(15399 363)" fill="#ECEFF1"/>
</g>
<g id="Channel Title">
<g id="settings">
<g id="Group">
<g id="Group">
<g id="Vector">
<use xlink:href="#path2_fill" transform="translate(16025 401.4)" fill="#90A4AE"/>
</g>
</g>
</g>
<g id="Group">
<g id="Group">
<g id="Vector">
<use xlink:href="#path3_fill" transform="translate(16027.9 404.259)" fill="#90A4AE"/>
</g>
</g>
</g>
<g id="Group">
<g id="Group">
<g id="Vector">
<use xlink:href="#path4_fill" transform="translate(16032.9 396)" fill="#90A4AE"/>
</g>
</g>
</g>
<g id="Group">
<g id="Group">
<g id="Vector">
<use xlink:href="#path5_fill" transform="translate(16035.5 398.615)" fill="#90A4AE"/>
</g>
</g>
</g>
</g>
</g>
</g>
</g>
<defs>
<path id="path0_fill" d="M 0 0L 773 0L 773 5728L 0 5728L 0 0Z"/>
<path id="path1_fill" d="M 0 0L 1051 0L 1051 5727L 0 5727L 0 0Z"/>
<path id="path2_fill" d="M 10.2764 6.12285C 10.1081 6.02176 9.93548 5.92013 9.76282 5.82051C 9.80342 5.47457 9.80351 5.12463 9.76301 4.77939C 9.93632 4.67939 10.1089 4.57782 10.2763 4.47717C 10.5582 4.30779 10.6757 3.95042 10.5495 3.64583C 10.5495 3.64583 10.5495 3.64583 10.5495 3.6458L 10.1817 2.75774C 10.0555 2.45324 9.71989 2.28352 9.40064 2.36305C 9.21092 2.41027 9.01707 2.46049 8.82392 2.5123C 8.60826 2.23943 8.3608 1.99202 8.08758 1.77624C 8.13939 1.58305 8.18964 1.38911 8.23689 1.19933C 8.31642 0.880242 8.14673 0.544493 7.84223 0.418337L 6.95417 0.0504947C 6.64968 -0.0756923 6.29221 0.0417134 6.12277 0.32365C 6.02187 0.491587 5.92021 0.664243 5.82046 0.83718C 5.47462 0.796586 5.12474 0.796492 4.77934 0.836961C 4.67928 0.663493 4.57768 0.4909 4.47715 0.32365C 4.30765 0.0417759 3.95028 -0.0756611 3.64575 0.0504947L 2.75769 0.418337C 2.45325 0.544462 2.2835 0.880242 2.36303 1.19933C 2.41038 1.38949 2.46056 1.58336 2.51228 1.77605C 2.23944 1.99164 1.992 2.23917 1.77625 2.51239C 1.58263 2.46042 1.38869 2.41024 1.19929 2.36305C 0.880101 2.28346 0.544415 2.4533 0.418259 2.75777L 0.0504787 3.6458C -0.0756146 3.95033 0.0418537 4.30773 0.323665 4.47711C 0.491634 4.57804 0.664289 4.67967 0.837195 4.77945C 0.796633 5.12526 0.796539 5.47513 0.837007 5.82057C 0.663945 5.92041 0.491383 6.02201 0.323603 6.12282C 0.0417912 6.29222 -0.0756771 6.6496 0.0504475 6.95416L 0.418321 7.84222C 0.544446 8.14669 0.880039 8.31647 1.19935 8.23691C 1.38885 8.18972 1.58272 8.13953 1.776 8.08766C 1.99166 8.3605 2.23913 8.60787 2.51235 8.82368C 2.46047 9.01709 2.41025 9.21103 2.36303 9.40059C 2.2835 9.71968 2.45319 10.0555 2.75769 10.1816L 3.64578 10.5495C 3.72828 10.5836 3.81462 10.5999 3.90006 10.5999C 4.13012 10.5999 4.35362 10.4818 4.47728 10.2763C 4.57743 10.1097 4.67903 9.93709 4.77959 9.76284C 5.12537 9.80337 5.47534 9.80343 5.82071 9.76303C 5.92005 9.93527 6.02165 10.1078 6.1229 10.2764C 6.29233 10.5582 6.64971 10.6756 6.9543 10.5495L 7.84236 10.1817C 8.1468 10.0556 8.31655 9.71978 8.23701 9.40068C 8.19005 9.21215 8.13986 9.01828 8.08777 8.82397C 8.36055 8.60837 8.60801 8.36087 8.82383 8.08766C 9.01689 8.13944 9.21082 8.18962 9.4007 8.23694C 9.71979 8.31653 10.0556 8.14681 10.1817 7.84225L 10.5496 6.95416C 10.6756 6.64963 10.5582 6.29222 10.2764 6.12285ZM 9.53485 7.53225C 9.35245 7.48657 9.16651 7.43825 8.98164 7.38844C 8.71989 7.31803 8.44367 7.41007 8.27792 7.62303C 8.08742 7.86772 7.86695 8.08822 7.62267 8.27844C 7.40995 8.44412 7.31805 8.72025 7.38852 8.98184C 7.43861 9.1679 7.48689 9.35371 7.5323 9.53484L 6.71599 9.87293C 6.6189 9.71093 6.52168 9.5454 6.42665 9.38028C 6.29143 9.14546 6.03118 9.01534 5.76365 9.04846C 5.45643 9.08662 5.14459 9.08659 4.83696 9.04831C 4.56868 9.015 4.30865 9.14512 4.17347 9.38C 4.07728 9.547 3.98003 9.71262 3.884 9.8729L 3.06769 9.53478C 3.11334 9.35268 3.16166 9.16678 3.21153 8.98162C 3.282 8.7199 3.18991 8.44366 2.97694 8.27787C 2.73225 8.08741 2.51178 7.86697 2.32153 7.62272C 2.15591 7.40994 1.87979 7.31807 1.6181 7.3885C 1.43301 7.43835 1.24716 7.48666 1.06513 7.53228L 0.727008 6.716C 0.888257 6.61932 1.05385 6.5221 1.21966 6.42663C 1.45451 6.29141 1.58475 6.03123 1.55151 5.76366C 1.51329 5.45642 1.51338 5.1446 1.5516 4.83695C 1.58497 4.56914 1.45482 4.30867 1.21985 4.17342C 1.0541 4.07798 0.888476 3.98073 0.726977 3.88389L 1.0651 3.06761C 1.24697 3.1132 1.43285 3.16152 1.61829 3.21142C 1.87991 3.28192 2.15616 3.1898 2.32203 2.97683C 2.5125 2.73214 2.73297 2.51164 2.97719 2.32146C 3.18994 2.1558 3.28184 1.87964 3.21137 1.61796C 3.16169 1.43346 3.11337 1.24765 3.06759 1.06502L 3.8839 0.72693C 3.98028 0.887742 4.07753 1.0533 4.17325 1.21958C 4.3085 1.45443 4.56896 1.58486 4.83624 1.5514C 5.14334 1.51318 5.45512 1.51318 5.76302 1.55155C 6.03099 1.58493 6.2913 1.45461 6.42649 1.21977C 6.52189 1.05402 6.61918 0.888398 6.71593 0.72693L 7.53224 1.06502C 7.48655 1.2473 7.43824 1.43321 7.38839 1.61824C 7.31792 1.87993 7.41002 2.15618 7.62299 2.32196C 7.86764 2.51242 8.08814 2.73286 8.27839 2.97711C 8.44401 3.18983 8.72005 3.28173 8.98186 3.2113C 9.16683 3.16148 9.35264 3.11317 9.53479 3.06752L 9.87288 3.88379C 9.71185 3.98033 9.54629 4.07754 9.38023 4.17317C 9.14539 4.30839 9.01511 4.5686 9.04839 4.83617C 9.08661 5.14326 9.08654 5.4551 9.04823 5.76295C 9.01492 6.03079 9.14514 6.29119 9.38001 6.42641C 9.54551 6.52169 9.71114 6.61894 9.87288 6.71588L 9.53485 7.53225Z"/>
<path id="path3_fill" d="M 4.69587 1.50681C 4.69587 1.50681 4.69587 1.50681 4.69584 1.50677C 4.18084 0.263372 2.75035 -0.329219 1.50676 0.18581C 0.263386 0.700871 -0.329237 2.13149 0.185823 3.37489C 0.435291 3.97727 0.904477 4.44636 1.50679 4.69589C 1.80794 4.82061 2.12438 4.88298 2.44082 4.88298C 2.75725 4.88298 3.07369 4.82061 3.37491 4.69589C 4.61828 4.18083 5.21087 2.75024 4.69587 1.50681ZM 3.10081 4.0342C 2.67525 4.21048 2.20654 4.21045 1.78085 4.0342C 1.35529 3.85792 1.02382 3.52642 0.847509 3.10083C 0.483541 2.22227 0.90229 1.2114 1.78088 0.847495C 1.99604 0.75837 2.21904 0.716183 2.4386 0.716183C 3.11569 0.716183 3.75937 1.11743 4.03422 1.78087C 4.39812 2.65943 3.97937 3.67027 3.10081 4.0342Z"/>
<path id="path4_fill" d="M 7.64704 3.15424C 7.52341 3.13574 7.39644 3.11777 7.26857 3.10071C 7.20413 2.88643 7.11807 2.67868 7.01188 2.48137C 7.09013 2.37902 7.16726 2.27649 7.24179 2.17577C 7.40726 1.95199 7.38332 1.63462 7.18616 1.43756L 6.69217 0.943622C 6.49501 0.746435 6.17764 0.722529 5.95392 0.88806C 5.85286 0.962841 5.75036 1.03993 5.64833 1.1179C 5.45105 1.01172 5.24333 0.925653 5.02898 0.861185C 5.01189 0.73331 4.99398 0.606342 4.97548 0.482748C 4.93433 0.207562 4.69302 0 4.4142 0L 3.71558 0C 3.43677 0 3.19546 0.207562 3.1543 0.482717C 3.13583 0.606248 3.1179 0.733248 3.1008 0.861153C 2.88646 0.925622 2.67871 1.01168 2.48146 1.11787C 2.37949 1.03987 2.27693 0.962747 2.1759 0.888028C 1.95212 0.722498 1.63474 0.746404 1.43765 0.94356L 0.943715 1.43746C 0.746529 1.63459 0.72256 1.95199 0.888091 2.17581C 0.962559 2.27649 1.03968 2.37906 1.1179 2.48137C 1.01178 2.67865 0.925685 2.88637 0.861216 3.10071C 0.733373 3.1178 0.606373 3.13574 0.482779 3.15424C 0.207562 3.19543 3.81469e-09 3.43671 3.81469e-09 3.71555L 3.81469e-09 4.41414C 3.81469e-09 4.69295 0.2075 4.93427 0.482717 4.97545C 0.606342 4.99395 0.73331 5.01192 0.861185 5.02898C 0.925653 5.2433 1.01172 5.45101 1.11787 5.64833C 1.03972 5.75058 0.962591 5.85308 0.887966 5.95392C 0.722529 6.17764 0.746435 6.49507 0.943591 6.6921L 1.43759 7.1861C 1.63471 7.38329 1.95209 7.40716 2.17584 7.24166C 2.2769 7.16695 2.3794 7.08979 2.4814 7.01185C 2.67874 7.11804 2.88649 7.2041 3.10077 7.26854C 3.1178 7.39638 3.13577 7.52338 3.15427 7.64701C 3.19546 7.92219 3.43677 8.12976 3.71558 8.12976L 4.4142 8.12976C 4.69302 8.12976 4.93433 7.92226 4.97548 7.64698C 4.99395 7.52335 5.01189 7.39638 5.02898 7.26851C 5.2433 7.2041 5.45101 7.11798 5.64833 7.01179C 5.75029 7.08979 5.85286 7.16691 5.95389 7.24166C 6.17761 7.4072 6.49504 7.38329 6.69214 7.18613L 7.18613 6.6922C 7.38329 6.49507 7.40723 6.17767 7.2417 5.95389C 7.16713 5.85308 7.09001 5.75051 7.01188 5.64836C 7.11801 5.45108 7.2041 5.24339 7.26857 5.02902C 7.39641 5.01192 7.52341 4.99398 7.64701 4.97548C 7.92222 4.9343 8.12979 4.69302 8.12979 4.41417L 8.12979 3.71558C 8.12976 3.43674 7.92222 3.19543 7.64704 3.15424ZM 7.44938 4.31692C 7.33713 4.3332 7.2226 4.34902 7.1077 4.36399C 6.88042 4.39364 6.69435 4.55495 6.63379 4.77489C 6.57576 4.98548 6.49154 5.1887 6.38351 5.37889C 6.27067 5.57742 6.28807 5.82311 6.42785 6.00489C 6.49832 6.09651 6.56823 6.18873 6.63626 6.27985L 6.27989 6.63626C 6.18848 6.56804 6.09626 6.49817 6.00483 6.42785C 5.82314 6.28801 5.57739 6.27073 5.37883 6.38345C 5.18861 6.49151 4.98539 6.57573 4.77492 6.63376C 4.55486 6.69439 4.39355 6.88045 4.36399 7.10767C 4.34902 7.22257 4.33324 7.33713 4.31692 7.44938L 3.81286 7.44938C 3.79658 7.33713 3.7808 7.2226 3.7658 7.10779C 3.73614 6.88048 3.57486 6.69442 3.35486 6.63379C 3.14433 6.57579 2.94118 6.49157 2.7509 6.38351C 2.55234 6.2707 2.30659 6.28804 2.12493 6.42785C 2.03346 6.4982 1.94131 6.56804 1.84984 6.63626L 1.49346 6.27985C 1.5615 6.18864 1.63137 6.09648 1.70193 6.00476C 1.84162 5.82304 1.85903 5.57736 1.74621 5.37883C 1.63818 5.18864 1.55396 4.98539 1.49593 4.77486C 1.43534 4.55486 1.24931 4.39358 1.02203 4.36392C 0.907122 4.34892 0.79256 4.33317 0.68031 4.31683L 0.68031 3.81283C 0.79256 3.79655 0.907091 3.78074 1.022 3.76577C 1.24928 3.73611 1.43534 3.5748 1.4959 3.35486C 1.55393 3.1443 1.63812 2.94108 1.74618 2.75087C 1.85903 2.55234 1.84162 2.30662 1.7019 2.1249C 1.63131 2.03315 1.56143 1.94096 1.49346 1.8499L 1.84984 1.4935C 1.94124 1.56171 2.03343 1.63159 2.12484 1.70187C 2.30646 1.84171 2.55218 1.85915 2.7509 1.74631C 2.94105 1.63828 3.1443 1.55406 3.3548 1.496C 3.57486 1.43537 3.73618 1.24931 3.76574 1.02209C 3.78074 0.907185 3.79655 0.792654 3.81283 0.680404L 4.31689 0.680404C 4.33317 0.792623 4.34896 0.907153 4.36392 1.022C 4.39358 1.24931 4.55489 1.43537 4.77486 1.49596C 4.98542 1.554 5.18867 1.63824 5.37886 1.74628C 5.57745 1.85912 5.82317 1.84159 6.00479 1.7019C 6.09626 1.63159 6.18842 1.56171 6.27989 1.4935L 6.63626 1.8499C 6.56829 1.94099 6.49842 2.03321 6.42782 2.12499C 6.28811 2.30668 6.27073 2.55237 6.38348 2.7509C 6.49151 2.94115 6.57573 3.1444 6.63376 3.3549C 6.69435 3.57489 6.88038 3.73618 7.10767 3.76583C 7.22257 3.78083 7.33713 3.79661 7.44938 3.81293L 7.44938 4.31692Z"/>
<path id="path5_fill" d="M 1.45003 9.53671e-08C 0.650498 9.53671e-08 3.20434e-07 0.650467 3.20434e-07 1.45003C 3.20434e-07 2.24962 0.650467 2.90008 1.45003 2.90008C 2.24959 2.90008 2.90005 2.24962 2.90005 1.45003C 2.90005 0.650467 2.24959 9.53671e-08 1.45003 9.53671e-08ZM 1.45003 2.25549C 1.00593 2.25549 0.64456 1.89415 0.64456 1.45C 0.64456 1.00584 1.0059 0.644529 1.45003 0.644529C 1.89415 0.644529 2.25546 1.00587 2.25549 1.45C 2.25549 1.89415 1.89415 2.25549 1.45003 2.25549Z"/>
</defs>
</svg>
