<svg width="18" height="16" viewBox="0 0 18 16" version="1.1" xmlns="http://www.w3.org/2000/svg" xmlns:xlink="http://www.w3.org/1999/xlink">
<title>settings-2</title>
<desc>Created using Figma</desc>
<g id="Canvas" transform="translate(-13673 -476)">
<g id="settings-2">
<g id="Group">
<g id="Group">
<g id="Vector">
<use xlink:href="#path0_fill" transform="translate(13673 476)" fill="#FFFFFF"/>
</g>
</g>
</g>
<g id="Group">
<g id="Group">
<g id="Vector">
<use xlink:href="#path1_fill" transform="translate(13673 481.573)" fill="#FFFFFF"/>
</g>
</g>
</g>
<g id="Group">
<g id="Group">
<g id="Vector">
<use xlink:href="#path2_fill" transform="translate(13673 487.557)" fill="#FFFFFF"/>
</g>
</g>
</g>
</g>
</g>
<defs>
<path id="path0_fill" d="M 17.141 1.72134L 6.29556 1.72134L 6.29556 1.25102C 6.29556 0.561204 5.78386 1.72554e-08 5.15489 1.72554e-08L 3.38485 1.72554e-08C 2.75588 1.72554e-08 2.24418 0.561204 2.24418 1.25102L 2.24418 1.72134L 0.45626 1.72134C 0.20426 1.72134 0 1.94544 0 2.22178C 0 2.49813 0.20426 2.72219 0.45626 2.72219L 2.24411 2.72219L 2.24411 3.19236C 2.24411 3.88218 2.75581 4.44338 3.38478 4.44338L 5.15486 4.44338C 5.78383 4.44338 6.29553 3.88218 6.29553 3.19236L 6.29553 2.72219L 17.141 2.72219C 17.393 2.72219 17.5973 2.49809 17.5973 2.22178C 17.5973 1.94544 17.393 1.72134 17.141 1.72134ZM 5.38304 3.19236C 5.38304 3.33032 5.28069 3.44258 5.15489 3.44258L 3.38481 3.44258C 3.25902 3.44258 3.15666 3.33032 3.15666 3.19236L 3.15666 1.25102C 3.15666 1.11306 3.25902 1.0008 3.38481 1.0008L 5.15489 1.0008C 5.28069 1.0008 5.38304 1.11306 5.38304 1.25102L 5.38304 3.19236Z"/>
<path id="path1_fill" d="M 17.1411 1.72149L 15.3532 1.72149L 15.3532 1.25102C 15.3532 0.561204 14.8415 2.66884e-07 14.2126 2.66884e-07L 12.4425 2.66884e-07C 11.8135 2.66884e-07 11.3018 0.561204 11.3018 1.25102L 11.3018 1.72149L 0.45626 1.72149C 0.20426 1.72149 0 1.94555 0 2.2219C 0 2.49824 0.20426 2.7223 0.45626 2.7223L 11.3018 2.7223L 11.3018 3.19232C 11.3018 3.88214 11.8135 4.44334 12.4424 4.44334L 14.2125 4.44334C 14.8415 4.44334 15.3532 3.88214 15.3532 3.19232L 15.3532 2.7223L 17.1411 2.7223C 17.3931 2.7223 17.5973 2.4982 17.5973 2.2219C 17.5974 1.94555 17.3931 1.72149 17.1411 1.72149ZM 14.4407 3.19236C 14.4407 3.33032 14.3383 3.44258 14.2125 3.44258L 12.4424 3.44258C 12.3166 3.44258 12.2143 3.33032 12.2143 3.19236L 12.2143 1.25102C 12.2143 1.11306 12.3166 1.0008 12.4424 1.0008L 14.2125 1.0008C 14.3383 1.0008 14.4407 1.11306 14.4407 1.25102L 14.4407 3.19236Z"/>
<path id="path2_fill" d="M 17.1411 1.72119L 9.50093 1.72119L 9.50093 1.25102C 9.50093 0.561203 8.98923 -1.19638e-07 8.36026 -1.19638e-07L 6.59018 -1.19638e-07C 5.96121 -1.19638e-07 5.44951 0.561203 5.44951 1.25102L 5.44951 1.72119L 0.45626 1.72119C 0.20426 1.72119 0 1.94529 0 2.2216C 0 2.49794 0.20426 2.722 0.45626 2.722L 5.44948 2.722L 5.44948 3.19232C 5.44948 3.88214 5.96118 4.44334 6.59014 4.44334L 8.36023 4.44334C 8.98919 4.44334 9.50089 3.88214 9.50089 3.19232L 9.50089 2.722L 17.1411 2.722C 17.3931 2.722 17.5973 2.4979 17.5973 2.2216C 17.5974 1.94521 17.3931 1.72119 17.1411 1.72119ZM 8.58837 3.19236C 8.58837 3.33032 8.48602 3.44257 8.36023 3.44257L 6.59014 3.44257C 6.46435 3.44257 6.362 3.33032 6.362 3.19236L 6.362 1.25102C 6.362 1.11306 6.46435 1.0008 6.59014 1.0008L 8.36023 1.0008C 8.48602 1.0008 8.58837 1.11306 8.58837 1.25102L 8.58837 3.19236Z"/>
</defs>
</svg>
