<svg width="17" height="16" viewBox="0 0 17 16" version="1.1" xmlns="http://www.w3.org/2000/svg" xmlns:xlink="http://www.w3.org/1999/xlink">
<title>share 2</title>
<desc>Created using Figma</desc>
<g id="Canvas" transform="translate(-15815 -698)">
<g id="share 2">
<g id="Group">
<g id="Group">
<g id="Vector">
<use xlink:href="#path0_fill" transform="translate(15815 698)" fill="#50cfc8"/>
</g>
</g>
</g>
</g>
</g>
<defs>
<path id="path0_fill" d="M 13.4058 9.45456C 12.2713 9.45475 11.2743 10.0372 10.6902 10.9191L 6.40961 8.80762C 6.55876 8.22128 6.55876 7.77866 6.40961 7.19235L 10.6903 5.08089C 11.2743 5.9628 12.2713 6.54521 13.4057 6.54541C 15.2068 6.54508 16.6663 5.08043 16.6666 3.27274C 16.6663 1.46498 15.2069 0.000326704 13.4057 -9.97026e-10C 11.6046 0.000326704 10.1452 1.46498 10.1449 3.27274C 10.1449 3.55315 10.1909 3.82059 10.257 4.08035L 5.97634 6.19182C 5.39226 5.30991 4.39526 4.72749 3.26079 4.72729C 1.45973 4.72762 0.00032552 6.19227 0 8.00003C 0.00032552 9.80773 1.45973 11.2724 3.26086 11.2727C 4.39533 11.2725 5.3923 10.6901 5.97641 9.80818L 10.2571 11.9196C 10.191 12.1794 10.145 12.4469 10.1449 12.7273C 10.1453 14.535 11.6047 15.9997 13.4058 16C 15.2069 15.9997 16.6663 14.535 16.6667 12.7273C 16.6663 10.9196 15.2069 9.45488 13.4058 9.45456Z"/>
</defs>
</svg>
