<svg width="32" height="32" viewBox="0 0 17 16" version="1.1" xmlns="http://www.w3.org/2000/svg" xmlns:xlink="http://www.w3.org/1999/xlink">
<title>slack</title>
<desc>Created using Figma</desc>
<g id="Canvas" transform="translate(-16055 -595)">
<g id="slack">
<g id="Layer 2">
<g id="Layer 1">
<g id="Vector">
<use xlink:href="#path0_fill" transform="translate(16055 596.92)" fill="#70CADB"/>
</g>
<g id="Vector">
<use xlink:href="#path1_fill" transform="translate(16056.9 602.467)" fill="#E01765"/>
</g>
<g id="Vector">
<use xlink:href="#path2_fill" transform="translate(16062.5 595)" fill="#E8A723"/>
</g>
<g id="Vector">
<use xlink:href="#path3_fill" transform="translate(16056.9 596.911)" fill="#3EB890"/>
</g>
<g id="Vector">
<use xlink:href="#path4_fill" transform="translate(16065 603.077)" fill="#CC2027"/>
</g>
<g id="Vector">
<use xlink:href="#path5_fill" transform="translate(16059.4 604.986)" fill="#361238"/>
</g>
<g id="Vector">
<use xlink:href="#path6_fill" transform="translate(16063.1 597.503)" fill="#65863A"/>
</g>
<g id="Vector">
<use xlink:href="#path7_fill" transform="translate(16057.5 599.399)" fill="#1A937D"/>
</g>
</g>
</g>
</g>
</g>
<defs>
<path id="path0_fill" d="M 1.36853 6.55342C 0.768358 6.55799 0.260485 6.20033 0.0723996 5.64195C 0.0654335 5.62018 0.0589028 5.59972 0.0528074 5.57838C -0.0450644 5.23309 -0.00591137 4.86334 0.162107 4.54621C 0.330125 4.22907 0.614047 3.989 0.954702 3.87604L 12.3423 0.0607824C 12.4775 0.0215937 12.6174 0.00115742 12.7581 4.6541e-05C 13.3744 -0.00474266 13.8967 0.360761 14.0889 0.930676L 14.1059 0.985752C 14.319 1.73047 13.7896 2.39508 13.1554 2.6082L 1.83113 6.47462C 1.68212 6.52541 1.52595 6.55202 1.36853 6.55342Z"/>
<path id="path1_fill" d="M 1.37501 6.60675C 0.770267 6.61132 0.259999 6.25844 0.0747436 5.70834C 0.0677775 5.68657 0.061029 5.66633 0.0551514 5.64499C -0.0452502 5.29749 -0.00760793 4.92465 0.160226 4.60423C 0.32806 4.28381 0.613125 4.04057 0.955957 3.92523L 12.3447 0.0757985C 12.4904 0.0269489 12.6429 0.00138258 12.7966 4.16984e-05C 13.4031 -0.00452982 13.936 0.36598 14.1245 0.922399L 14.1419 0.980305C 14.1957 1.17481 14.2079 1.37843 14.1779 1.57797C 14.1479 1.77751 14.0763 1.96853 13.9678 2.13864C 13.8047 2.39225 13.2908 2.6156 13.2908 2.6156L 1.85894 6.52446C 1.70295 6.57716 1.53965 6.605 1.37501 6.60697L 1.37501 6.60675Z"/>
<path id="path2_fill" d="M 5.21493 14.0982C 4.91976 14.101 4.63127 14.0104 4.39078 13.8392C 4.15029 13.668 3.97014 13.4252 3.87612 13.1454L 0.0754541 1.85546L 0.0562972 1.79298C -0.0467968 1.4405 -0.00726257 1.06163 0.166378 0.738036C 0.340018 0.414437 0.633859 0.172026 0.984561 0.0630542C 1.33526 -0.0459174 1.71474 -0.0127222 2.0412 0.155485C 2.36765 0.323691 2.61494 0.613439 2.72976 0.96227L 6.53021 12.2511L 6.5411 12.2874C 6.75465 13.0348 6.35954 13.7862 5.64857 14.0255C 5.50815 14.0724 5.36122 14.0969 5.21318 14.0982L 5.21493 14.0982Z"/>
<path id="path3_fill" d="M 5.21251 14.0886C 4.91714 14.0913 4.62848 14.0005 4.38788 13.8292C 4.14727 13.6578 3.96706 13.4147 3.87306 13.1347L 0.0736927 1.84543C 0.0148733 1.67152 -0.00911541 1.48773 0.00309623 1.30454C 0.0153079 1.12136 0.0634806 0.942374 0.144864 0.777808C 0.226248 0.613241 0.339248 0.466316 0.477414 0.345421C 0.615579 0.224526 0.776204 0.132028 0.950117 0.0732098L 0.952947 0.0732098C 1.09336 0.0262304 1.24027 0.00154945 1.38833 6.55405e-05C 1.68356 -0.00279113 1.97212 0.0878781 2.21265 0.259081C 2.45319 0.430284 2.63336 0.673234 2.72735 0.953117L 6.52715 12.2421C 6.58596 12.4161 6.60994 12.5999 6.59771 12.7831C 6.58549 12.9663 6.5373 13.1453 6.45589 13.3098C 6.37449 13.4744 6.26146 13.6213 6.12327 13.7422C 5.98508 13.8631 5.82444 13.9556 5.6505 14.0144L 5.64659 14.0144C 5.50621 14.0615 5.35927 14.0861 5.2112 14.0873L 5.21251 14.0886Z"/>
<path id="path4_fill" d="M 0.869459 3.47892L 3.51963 2.57289L 2.65322 7.97209e-08L 1.59442e-07 0.89667L 0.869459 3.47892Z"/>
<path id="path5_fill" d="M 0.875989 3.49851L 3.52594 2.59248L 2.65257 -3.18884e-07L -1.32868e-07 0.896888L 0.875989 3.49851Z"/>
<path id="path6_fill" d="M 0.861622 3.44757L 3.51201 2.54263L 2.65583 -5.97907e-08L 2.12589e-07 0.889486L 0.861622 3.44757Z"/>
<path id="path7_fill" d="M 0.872071 3.47914L 3.52246 2.57529L 2.65583 -6.64341e-08L -5.97907e-08 0.889486L 0.872071 3.47914Z"/>
</defs>
</svg>
