<svg width="12" height="16" viewBox="0 0 12 16" version="1.1" xmlns="http://www.w3.org/2000/svg" xmlns:xlink="http://www.w3.org/1999/xlink">
<title>sort</title>
<desc>Created using Figma</desc>
<g id="Canvas" transform="translate(-16235 -466)">
<g id="sort">
<g id="Group">
<g id="Group">
<g id="Group">
<g id="Vector">
<use xlink:href="#path0_fill" transform="translate(16235 466)" fill="#90A4AE"/>
</g>
<g id="Vector">
<use xlink:href="#path1_fill" transform="translate(16238.2 471.844)" fill="#90A4AE"/>
</g>
<g id="Vector">
<use xlink:href="#path2_fill" transform="translate(16235.9 468.094)" fill="#90A4AE"/>
</g>
<g id="Vector">
<use xlink:href="#path3_fill" transform="translate(16238.1 467.142)" fill="#90A4AE"/>
</g>
</g>
</g>
</g>
</g>
</g>
<defs>
<path id="path0_fill" d="M 5.29858 8.88551L 5.29858 4.32676L 5.88558 4.91375C 6.12561 5.15378 6.44478 5.28599 6.78425 5.28599C 7.12373 5.28599 7.4429 5.15378 7.68296 4.91372C 8.17849 4.41817 8.17849 3.61186 7.68296 3.1163L 4.93865 0.372016C 4.69536 0.128701 4.37291 -0.00293227 4.02757 6.3745e-05C 4.0233 0 4.01903 0 4.01476 0C 3.67525 0 3.35684 0.131729 3.11656 0.371984L 0.372271 3.11627C 0.132207 3.3563 -5.44696e-08 3.67547 -5.44696e-08 4.01498C -5.44696e-08 4.35449 0.132239 4.67366 0.372271 4.91369C 0.612303 5.15375 0.931474 5.28596 1.27095 5.28596C 1.61045 5.28596 1.92963 5.15375 2.16966 4.91372L 2.75665 4.32673L 2.75665 8.88551C 2.75665 9.58629 3.32682 10.1565 4.0276 10.1565C 4.72838 10.1565 5.29858 9.58633 5.29858 8.88551ZM 3.39407 8.88551L 3.39407 3.55729C 3.39407 3.42837 3.3164 3.31216 3.19732 3.26282C 3.1579 3.24647 3.11646 3.23853 3.07541 3.23853C 2.99245 3.23853 2.91095 3.27092 2.84991 3.33192L 1.71882 4.46301C 1.59917 4.58266 1.4401 4.64854 1.27085 4.64854C 1.10164 4.64854 0.942566 4.58263 0.822916 4.46298C 0.703235 4.34333 0.637355 4.18422 0.637355 4.01501C 0.637355 3.8458 0.703235 3.68669 0.822916 3.56704L 3.56717 0.822757C 3.68692 0.703076 3.84564 0.63745 4.01498 0.63745C 4.01916 0.63745 4.02339 0.637514 4.02754 0.637514C 4.03174 0.637482 4.03592 0.63745 4.0401 0.63745C 4.20947 0.63745 4.36819 0.703076 4.48787 0.822725L 7.23219 3.56701C 7.4792 3.81402 7.4792 4.21594 7.23222 4.46295C 7.11254 4.58263 6.95343 4.64851 6.78422 4.64851C 6.61501 4.64851 6.4559 4.58263 6.33625 4.46298L 5.20519 3.33189C 5.11407 3.2407 4.97696 3.21348 4.85785 3.26279C 4.73877 3.31213 4.6611 3.42837 4.6611 3.55726L 4.6611 8.88551C 4.6611 9.2348 4.37689 9.51901 4.02757 9.51901C 3.67828 9.51901 3.39407 9.23484 3.39407 8.88551Z"/>
<path id="path1_fill" d="M 7.68233 5.24274C 7.4423 5.00268 7.12313 4.87047 6.78366 4.87047C 6.44415 4.87047 6.12498 5.00268 5.88495 5.24271L 5.29795 5.8297L 5.29795 1.27095C 5.29795 0.570167 4.72778 1.08939e-07 4.027 1.08939e-07C 3.32619 1.08939e-07 2.75602 0.570135 2.75602 1.27095L 2.75602 5.8297L 2.16903 5.24271C 1.929 5.00268 1.60982 4.87047 1.27035 4.87047C 0.930876 4.87047 0.611705 5.00268 0.371641 5.24274C -0.123881 5.73829 -0.123881 6.54461 0.371641 7.04016L 3.11596 9.78445C 3.35625 10.0247 3.67465 10.1565 4.01422 10.1565C 4.01849 10.1565 4.02276 10.1565 4.02707 10.1564C 4.03134 10.1565 4.03561 10.1565 4.03988 10.1565C 4.37939 10.1565 4.69779 10.0247 4.93805 9.78445L 7.68233 7.04016C 7.9224 6.80013 8.05461 6.48096 8.05461 6.14145C 8.05461 5.80194 7.92237 5.48277 7.68233 5.24274ZM 7.23169 6.58939L 4.48743 9.33367C 4.36769 9.45335 4.20896 9.51898 4.03963 9.51898C 4.03545 9.51898 4.03127 9.51895 4.02707 9.51892C 4.02286 9.51888 4.01865 9.51898 4.01451 9.51898C 3.84514 9.51898 3.68641 9.45339 3.56673 9.33367L 0.822414 6.58939C 0.575402 6.34241 0.575402 5.94049 0.822446 5.69348C 0.942128 5.5738 1.10124 5.50792 1.27045 5.50792C 1.43966 5.50792 1.59876 5.5738 1.71841 5.69345L 2.84947 6.82454C 2.9406 6.91573 3.07771 6.94292 3.19682 6.89364C 3.3159 6.8443 3.39357 6.72806 3.39357 6.59917L 3.39357 1.27095C 3.39357 0.921657 3.67778 0.63745 4.0271 0.63745C 4.37642 0.63745 4.6606 0.921625 4.6606 1.27095L 4.6606 6.59911C 4.6606 6.72803 4.73827 6.84424 4.85735 6.89358C 4.97642 6.94295 5.11354 6.91563 5.20469 6.82451L 6.33578 5.69342C 6.45543 5.57377 6.61451 5.50789 6.78375 5.50789C 6.95296 5.50789 7.11204 5.5738 7.23169 5.69345C 7.35137 5.8131 7.41725 5.97221 7.41725 6.14142C 7.41728 6.31063 7.35137 6.46974 7.23169 6.58939Z"/>
<path id="path2_fill" d="M 1.64974 0.0933585L 0.0933466 1.64979C -0.0311156 1.77425 -0.0311156 1.97607 0.0933466 2.10053C 0.155594 2.16278 0.237123 2.19388 0.318717 2.19388C 0.400311 2.19388 0.481841 2.16275 0.544119 2.10053L 2.10052 0.5441C 2.22498 0.419638 2.22498 0.217821 2.10052 0.0933585C 1.97599 -0.0311355 1.77424 -0.0311037 1.64974 0.0933585Z"/>
<path id="path3_fill" d="M 0.372805 0.0933585L 0.0933468 0.372817C -0.0311154 0.497279 -0.0311154 0.699096 0.0933468 0.823558C 0.155594 0.885805 0.237124 0.916912 0.318717 0.916912C 0.400311 0.916912 0.481872 0.885773 0.544119 0.823558L 0.823578 0.5441C 0.94804 0.419637 0.94804 0.217821 0.823578 0.0933585C 0.699052 -0.0311355 0.497235 -0.0311036 0.372805 0.0933585Z"/>
</defs>
</svg>
