<svg width="20" height="16" viewBox="0 0 20 16" version="1.1" xmlns="http://www.w3.org/2000/svg" xmlns:xlink="http://www.w3.org/1999/xlink">
<title>users</title>
<desc>Created using Figma</desc>
<g id="Canvas" transform="translate(-15922 -395)">
<rect x="15922" y="395" width="20" height="16" fill="#E5E5E5"/>
<clipPath id="clip-0" clip-rule="evenodd">
<path d="M 15079 362L 16445 362L 16445 6090L 15079 6090L 15079 362Z" fill="#FFFFFF"/>
</clipPath>
<g id="Content Screen /// 1 screeen /// Detailed /// 1366" clip-path="url(#clip-0)">
<path d="M 15079 362L 16445 362L 16445 6090L 15079 6090L 15079 362Z" fill="#FFFFFF"/>
<clipPath id="clip-1" clip-rule="evenodd">
<path d="M 15079 362L 16445 362L 16445 6090L 15079 6090L 15079 362Z" fill="#FFFFFF"/>
</clipPath>
<g id="horizontal grid" clip-path="url(#clip-1)">
</g>
<g id="vertical grid">
<g id="Rectangle 3">
<use xlink:href="#path0_fill" transform="translate(15399 362)" fill="#FFFFFF"/>
</g>
</g>
<g id="background">
<use xlink:href="#path1_fill" transform="translate(15399 363)" fill="#ECEFF1"/>
</g>
<g id="Channel Title">
<g id="users">
<g id="Group">
<g id="Group">
<g id="Vector">
<use xlink:href="#path2_fill" transform="translate(15922 395)" fill="#90A4AE"/>
</g>
</g>
</g>
<g id="Group">
<g id="Group">
<g id="Vector">
<use xlink:href="#path3_fill" transform="translate(15930.6 396.642)" fill="#90A4AE"/>
</g>
</g>
</g>
</g>
</g>
</g>
</g>
<defs>
<path id="path0_fill" d="M 0 0L 773 0L 773 5728L 0 5728L 0 0Z"/>
<path id="path1_fill" d="M 0 0L 1051 0L 1051 5727L 0 5727L 0 0Z"/>
<path id="path2_fill" d="M 10.1353 9.7557C 9.74018 9.19673 9.10565 8.85517 8.42529 8.82932C 8.41089 8.82772 8.3963 8.82682 8.38149 8.82682C 7.51609 8.82682 6.80098 8.1728 6.70346 7.33317C 6.95263 7.15171 7.18253 6.92143 7.38629 6.6456C 7.79832 6.08775 8.06578 5.39072 8.16494 4.63693C 8.19532 4.6039 8.2209 4.56545 8.23927 4.52168C 8.41374 4.10624 8.5022 3.66271 8.5022 3.2034C 8.5022 1.43702 7.16671 -6.27859e-08 5.52523 -6.27859e-08C 5.1007 -6.27859e-08 4.68882 0.0964344 4.29949 0.286722C 4.15394 0.298992 4.01131 0.325176 3.87436 0.364827C 2.50206 0.761301 1.72643 2.42059 2.14542 4.0636C 2.18758 4.2289 2.24118 4.39147 2.30485 4.54675C 2.32221 4.58916 2.34652 4.62642 2.37517 4.65897C 2.53322 5.8194 3.08246 6.7849 3.83362 7.33107C 3.73708 8.17175 3.02145 8.82689 2.1553 8.82689C 2.14198 8.82689 2.12881 8.8276 2.1158 8.82888C 0.942087 8.87036 0 9.83743 0 11.0211L 0 13.3829C 0 13.6033 0.178617 13.7819 0.39898 13.7819L 7.44831 13.7819C 7.66863 13.7819 7.84729 13.6033 7.84729 13.3829C 7.84729 13.1626 7.66863 12.9839 7.44831 12.9839L 0.797922 12.9839L 0.797922 11.021C 0.797922 10.251 1.42433 9.62463 2.19431 9.62463C 2.20763 9.62463 2.2208 9.62392 2.23381 9.62265C 2.52121 9.61367 2.79641 9.55584 3.05145 9.45697L 4.94038 12.1833C 5.01489 12.2908 5.13743 12.3551 5.26832 12.3551C 5.39921 12.3551 5.52175 12.2909 5.59626 12.1833L 7.48523 9.45697C 7.7403 9.55584 8.01547 9.61367 8.30286 9.62265C 8.31588 9.62392 8.32905 9.62463 8.34236 9.62463C 8.79517 9.62463 9.22183 9.84578 9.48364 10.2162C 9.56137 10.3262 9.68459 10.3849 9.80979 10.3849C 9.88939 10.3849 9.96978 10.3611 10.0397 10.3117C 10.2197 10.1846 10.2624 9.93563 10.1353 9.7557ZM 4.09573 1.13125C 4.2004 1.10103 4.31108 1.08307 4.42476 1.07795C 4.48334 1.07533 4.5405 1.05984 4.59242 1.03257C 4.8889 0.876813 5.20267 0.79781 5.52508 0.79781C 6.70227 0.79781 7.66377 1.83375 7.7023 3.12308C 7.46237 2.94166 7.1639 2.83382 6.84064 2.83382L 4.75413 2.83382C 4.65021 2.83382 4.55153 2.8012 4.4689 2.73952C 4.39817 2.68674 4.34355 2.61589 4.3109 2.53445C 4.23552 2.3469 4.04905 2.22974 3.84769 2.24246C 3.64509 2.25544 3.47463 2.39623 3.42357 2.59262C 3.32179 2.98363 3.13176 3.34779 2.87339 3.65703C 2.66646 2.50019 3.18754 1.39366 4.09573 1.13125ZM 3.16008 4.51012C 3.50856 4.19067 3.79057 3.80351 3.98748 3.37595C 3.98882 3.37696 3.99021 3.37797 3.99159 3.37898C 4.21323 3.5444 4.47687 3.63178 4.75409 3.63178L 6.8406 3.63178C 7.09122 3.63178 7.30769 3.77841 7.41045 3.99002C 7.4078 4.81884 7.17165 5.59305 6.74439 6.17139C 6.34148 6.71678 5.81726 7.01716 5.26825 7.01716C 4.76015 7.01716 4.26548 6.75467 3.87537 6.27811C 3.49689 5.8158 3.24645 5.19351 3.16008 4.51012ZM 5.26828 11.2555L 3.74145 9.05182C 4.15106 8.71194 4.44964 8.24324 4.57589 7.70862C 4.79819 7.7782 5.03004 7.81516 5.26825 7.81516C 5.50518 7.81516 5.73721 7.77921 5.96102 7.70978C 6.08741 8.24387 6.38588 8.71213 6.79519 9.05178L 5.26828 11.2555Z"/>
<path id="path3_fill" d="M 8.42103 9.40514C 8.40801 9.40387 8.39485 9.40316 8.38153 9.40316C 7.51493 9.40316 6.79904 8.74738 6.70305 7.90603C 7.19166 7.55022 7.59453 7.01673 7.86008 6.36791C 7.89809 6.49225 7.99538 6.59265 8.12339 6.63234C 8.16229 6.64438 8.20209 6.65025 8.24148 6.65025C 8.36238 6.65025 8.47939 6.59515 8.55633 6.49636C 9.11298 5.78144 9.40232 4.85099 9.3712 3.87636C 9.3406 2.92024 9.0045 2.02267 8.4247 1.34905C 7.83109 0.659347 7.04742 0.275517 6.21725 0.267587C 6.17323 0.265791 6.06374 0.26957 6.04604 0.270654C 5.61953 0.0771869 5.16886 -0.0131876 4.70471 0.00155062C 3.74617 0.0321867 2.86445 0.509945 2.22207 1.34681C 1.59783 2.16007 1.27362 3.22081 1.3092 4.33373C 1.31522 4.5223 1.33011 4.69594 1.3542 4.86128C 1.41917 5.33556 1.54983 5.78979 1.74252 6.21132C 1.80383 6.3455 1.93419 6.4349 2.08142 6.44373C 2.22817 6.4526 2.36874 6.37947 2.44572 6.25359C 2.47782 6.20111 2.51908 6.13569 2.5646 6.07157C 2.74247 6.61191 3.01438 7.09737 3.35961 7.48064C 3.50688 7.64415 3.66593 7.78637 3.83344 7.90768C 3.7367 8.74817 3.02115 9.40308 2.15515 9.40308C 2.14183 9.40308 2.12866 9.4038 2.11565 9.40507C 0.94205 9.44666 2.73975e-07 10.4138 2.73975e-07 11.5974L 2.73975e-07 13.9592C 2.73975e-07 14.1796 0.178654 14.3582 0.398979 14.3582L 10.1377 14.3582C 10.358 14.3582 10.5366 14.1796 10.5366 13.9592L 10.5366 11.5974C 10.5367 10.4139 9.59463 9.44678 8.42103 9.40514ZM 2.23662 5.22195C 2.19727 5.06829 2.16645 4.91069 2.14434 4.74966C 2.12414 4.61095 2.11187 4.46656 2.10682 4.30829C 2.07712 3.37922 2.34286 2.50002 2.8551 1.83272C 3.34917 1.18903 4.01508 0.821991 4.73022 0.799136C 4.75413 0.79835 5.2684 0.769398 5.79336 1.03394C 5.85205 1.06349 5.91968 1.07722 5.98556 1.07535C 5.99311 1.07512 6.19791 1.06543 6.20386 1.06551C 6.80312 1.06947 7.37701 1.35507 7.81994 1.86964C 8.2812 2.4056 8.54889 3.12733 8.57365 3.90191C 8.58708 4.32262 8.52798 4.73159 8.40281 5.10786C 8.36511 5.00739 8.32306 4.90845 8.27679 4.81115C 7.89158 3.99157 7.24313 3.35674 6.4509 3.02356C 6.35053 2.98137 6.23734 2.982 6.1375 3.02532C 6.03763 3.0686 5.95982 3.15082 5.92208 3.25294C 5.86896 3.39643 5.80462 3.53622 5.7307 3.66838C 5.52182 4.04192 5.1007 4.26415 4.63241 4.24777C 4.56212 4.24538 4.49079 4.24526 4.42046 4.24751C 4.07546 4.25854 3.73902 4.3243 3.41871 4.44359C 3.10232 4.563 2.57062 4.86259 2.23662 5.22195ZM 3.21814 5.4391C 3.36941 5.33776 3.53037 5.25431 3.69892 5.19061C 3.93623 5.10225 4.18757 5.05325 4.44593 5.04498C 4.49868 5.04326 4.55209 5.04334 4.60476 5.04517C 5.37512 5.07154 6.07174 4.69336 6.42714 4.05778C 6.44899 4.01869 6.47023 3.979 6.49077 3.93894C 6.85466 4.16312 7.1657 4.47909 7.39957 4.86259C 7.39755 4.87441 7.39583 4.88627 7.39485 4.89846C 7.33366 5.65546 7.07252 6.35018 6.65951 6.85464C 6.2694 7.33124 5.77473 7.59369 5.26664 7.59369C 4.32736 7.59361 3.49177 6.70075 3.21814 5.4391ZM 4.57611 8.28433C 4.80066 8.3545 5.03225 8.39153 5.26664 8.39153C 5.50544 8.39153 5.73785 8.35435 5.96072 8.2844C 6.12097 8.96382 6.56031 9.53625 7.15092 9.874C 6.92054 10.7065 6.1549 11.3051 5.26847 11.3051C 4.38197 11.3051 3.61637 10.7064 3.38602 9.87392C 3.97655 9.53625 4.4159 8.96378 4.57611 8.28433ZM 9.73879 13.5604L 0.798035 13.5604L 0.798035 11.5974C 0.798035 10.8275 1.42445 10.201 2.19443 10.201C 2.20774 10.201 2.22091 10.2003 2.23393 10.1991C 2.37132 10.1948 2.50602 10.1796 2.63698 10.1538C 2.98356 11.2916 4.04396 12.1031 5.26843 12.1031C 6.4929 12.1031 7.55327 11.2916 7.89992 10.1539C 8.03084 10.1797 8.16554 10.1948 8.3029 10.1991C 8.31592 10.2003 8.32908 10.201 8.3424 10.201C 9.11238 10.201 9.73879 10.8275 9.73879 11.5974L 9.73879 13.5604Z"/>
</defs>
</svg>
